<svg width="394" height="280" fill="none" xmlns="http://www.w3.org/2000/svg"><g clip-path="url(#a)"><rect x=".67" width="393.33" height="280" rx="16" fill="#56BAEA"/><path d="M279.26 227.18C275.5 251.04 293.4 257 302.8 257c6.28-18.83 31-18.83 83.17-18.83 39.23 0 58.06-47.08 25.1-62.78-17.57-45.2-55.44-37.66-72.18-28.25-40.17-8.78-51.26 18.31-51.78 32.96-21.97 12.56-15.7 34.53-7.85 47.08Z" fill="#fff" stroke="#D10966" stroke-width="2" stroke-linecap="round" stroke-linejoin="round"/><path d="M308.3 166.54c.71 1.63 1.5 5.1-1.1 5.96-3.24 1.08-7.57-3.8-4.87-6.5 2.17-2.17 4.88-.54 5.96.54Zm0 0c-.91-1.8-1.85-5.63 1.62-6.5 4.33-1.08 8.12 6.5 5.41 8.13-2.16 1.3-5.6-.55-7.04-1.63Z" stroke="#F47E28" stroke-width="2" stroke-linecap="round" stroke-linejoin="round"/><path d="m396.58 195.8-13 9.74m12.97-2.96c-1.9-.88-3.75-.7-4.67 2.65-1.14 4.18-.05 4.48 2 5.04 2.03.56 3.8-1.26 4.27-3.32.4-1.77.05-3.6-1.6-4.37Zm-8.7-11.33c-1.81-1.05-3.67-1.04-4.9 2.2-1.53 4.06-.47 4.46 1.5 5.2 1.98.76 3.92-.88 4.58-2.89.57-1.73.39-3.59-1.18-4.5Z" stroke="#C673AF" stroke-width="2" stroke-linecap="round" stroke-linejoin="round"/><path d="m337.77 155.17-2.38 9.97m5.1-6.67c-1.28.34-2.1 1.18-1.2 3.17 1.14 2.5 1.79 2.2 3 1.64 1.22-.55 1.34-2.14.74-3.33-.52-1.03-1.43-1.77-2.54-1.48Zm-8.8-1.98c-1.3.22-2.19.97-1.48 3.04.89 2.59 1.57 2.36 2.83 1.92 1.26-.43 1.54-2 1.05-3.25-.42-1.07-1.26-1.9-2.4-1.7Z" stroke="#FF6A8E" stroke-width="2" stroke-linecap="round" stroke-linejoin="round"/><path d="M362.22 186.43c-.97.73-3.1 2.57-3.88 4.12-.53 1.06-.4 3.7.66 6m0 0c.88 1.93 2.4 3.62 4.73 3.95 5.11.73 5.34-3.39 5.33-4.6 0-1.22-4.34-5.94-10.06.66Z" stroke="#43D6F7" stroke-width="2" stroke-linecap="round" stroke-linejoin="round"/><path d="M326.7 187.67h15.72m-8.13 8.12c-.36-4.15-.87-12.89 0-14.62" stroke="#D10966" stroke-width="2" stroke-linecap="round" stroke-linejoin="round"/><path d="M294.75 179.54c5.06 1.99 15.27 6.18 15.7 7.04" stroke="#46E9E9" stroke-width="2" stroke-linecap="round" stroke-linejoin="round"/><path d="m296.06 241.3 7.58-11.93-2.7-1.62c-2.53 1.44-7.91 4.55-9.21 5.42-1.63 1.08 5.95 5.96 7.58 6.5" stroke="#D10966" stroke-width="2" stroke-linecap="round" stroke-linejoin="round"/><path d="M359.2 221.8h5.43" stroke="#BE4997" stroke-width="2" stroke-linecap="round" stroke-linejoin="round"/><path d="M337 218.54c4.88-7.58 16.25-4.33 4.88 4.34 7.04-3.25 13 4.87 0 6.5" stroke="#263D8D" stroke-width="2" stroke-linecap="round" stroke-linejoin="round"/><path d="m313.7 222.88 5.43-3.25m-2.17 8.12 5.42-3.25" stroke="#FBB800" stroke-width="2" stroke-linecap="round" stroke-linejoin="round"/><path d="m383.04 212.58-8.12 1.09.54 5.96c2.17-.73 6.72-1.41 7.58 1.62 1.08 3.8-1.08 5.42-5.96 4.88" stroke="#F5BD99" stroke-width="2" stroke-linecap="round" stroke-linejoin="round"/><path d="M308.83 201.75c.55-1.63 1.85-4.98 2.71-5.42 1.27 3.43 3.8 10.73 3.8 12.46" stroke="#8BC63E" stroke-width="2" stroke-linecap="round" stroke-linejoin="round"/><path d="M281.75 200.67c-1.3 4.76 1.26 7.04 2.7 7.58 1.63 0 4.34.54 6.5-4.88 1.74-4.33-1.07-6.5-2.7-7.04-1.63-.54-5.2-.43-6.5 4.34Z" stroke="#FDD104" stroke-width="2" stroke-linecap="round" stroke-linejoin="round"/><path d="M357.04 156.25c2.71-.18 8.23-.43 8.67 0 .43.43.18 1.63 0 2.17-2.17 2.89-6.61 8.99-7.04 10.29" stroke="#00C9A5" stroke-width="2" stroke-linecap="round" stroke-linejoin="round"/><path d="M396.04 168.17c2.35 1.26 7.04 4.33 7.04 6.5 0 2.16-8.66 3.79-13 4.33l8.13 5.42" stroke="#FE027A" stroke-width="2" stroke-linecap="round" stroke-linejoin="round"/><path d="M380.33 173.58v8.13m-4.33-4.34h8.67" stroke="#7A00DA" stroke-width="2" stroke-linecap="round" stroke-linejoin="round"/><path d="M378.17 151.92c1.8 0 5.41.32 5.41 1.62" stroke="#FF0047" stroke-width="2" stroke-linecap="round" stroke-linejoin="round"/><path d="M41.7 43.7c.76 0 1.38.25 1.86.75.48.5.72 1.15.72 1.95v16.32c0 .76-.22 1.36-.66 1.8-.44.44-1.02.66-1.74.66-.7 0-1.28-.22-1.74-.66a2.43 2.43 0 0 1-.66-1.8V53.9l-3.42 6.3c-.34.64-.7 1.1-1.08 1.38-.38.26-.83.39-1.35.39-.52 0-.97-.13-1.35-.39a4.04 4.04 0 0 1-1.08-1.38l-3.39-6.12v8.64c0 .74-.23 1.34-.69 1.8-.44.44-1.02.66-1.74.66-.7 0-1.28-.22-1.74-.66a2.43 2.43 0 0 1-.66-1.8V46.4c0-.8.24-1.45.72-1.95.5-.5 1.13-.75 1.89-.75.54 0 1.03.16 1.47.48.44.3.81.74 1.11 1.32l5.52 10.38 5.49-10.38c.62-1.2 1.46-1.8 2.52-1.8ZM50.66 65c-.82 0-1.45-.22-1.89-.66-.44-.44-.66-1.07-.66-1.89V46.4c0-.82.22-1.45.66-1.89.44-.44 1.07-.66 1.9-.66h10.37c.86 0 1.51.18 1.95.54.44.36.66.88.66 1.56 0 1.44-.87 2.16-2.6 2.16h-7.57v4.02h6.96c1.74 0 2.61.71 2.61 2.13 0 .68-.22 1.2-.66 1.56-.44.36-1.09.54-1.95.54h-6.96v4.38h7.56c1.74 0 2.61.72 2.61 2.16 0 .68-.22 1.2-.66 1.56-.44.36-1.09.54-1.95.54H50.66ZM82.7 43.7a2.58 2.58 0 0 1 2.7 2.7v16.05c0 .82-.25 1.48-.75 1.98-.48.5-1.13.75-1.95.75-.82 0-1.48-.24-1.98-.72a2.78 2.78 0 0 1-.72-2.01v-6h-8.64v6c0 .82-.25 1.48-.75 1.98-.48.5-1.13.75-1.95.75-.82 0-1.48-.24-1.98-.72a2.78 2.78 0 0 1-.72-2.01V46.4c0-.82.24-1.47.72-1.95.5-.5 1.16-.75 1.98-.75a2.58 2.58 0 0 1 2.7 2.7v5.67H80V46.4c0-.82.24-1.47.72-1.95.5-.5 1.16-.75 1.98-.75Zm14.06 21.45c-.84 0-1.52-.24-2.04-.72-.5-.5-.75-1.16-.75-1.98V48.32h-4.23c-.88 0-1.54-.18-1.98-.54-.42-.38-.63-.95-.63-1.71s.2-1.32.63-1.68c.44-.36 1.1-.54 1.98-.54h14.03c.88 0 1.53.18 1.95.54.45.36.67.92.67 1.68 0 .76-.22 1.33-.66 1.71-.42.36-1.08.54-1.95.54h-4.23v14.13c0 .82-.26 1.48-.78 1.98-.5.48-1.17.72-2.01.72Zm28.83-3.54c.18.38.27.75.27 1.11 0 .66-.27 1.22-.81 1.68-.52.46-1.12.69-1.8.69a2.31 2.31 0 0 1-2.16-1.44l-1.35-3.03H110l-1.38 3.03a2.36 2.36 0 0 1-2.2 1.44c-.67 0-1.3-.23-1.85-.69a2.13 2.13 0 0 1-.81-1.68c0-.36.09-.73.27-1.11l7.92-16.26c.26-.54.64-.95 1.14-1.23a3.36 3.36 0 0 1 3.39 0c.52.28.9.69 1.17 1.23l7.92 16.26Zm-13.71-5.13h6l-3-6.69-3 6.69Zm24.44-5.49c0 3.82-.47 6.76-1.41 8.82a9.8 9.8 0 0 1-4.11 4.62 3.6 3.6 0 0 1-1.83.57 2.2 2.2 0 0 1-1.62-.63 2.22 2.22 0 0 1-.63-1.59c0-.5.15-.98.45-1.44.3-.48.75-.9 1.35-1.26 1.66-1.12 2.49-3.83 2.49-8.13V46.4c0-.82.22-1.45.66-1.89.44-.44 1.07-.66 1.89-.66h10.8c.82 0 1.45.22 1.89.66.46.44.69 1.07.69 1.89v16.05c0 .82-.25 1.48-.75 1.98s-1.16.75-1.98.75c-.82 0-1.48-.24-1.98-.72a2.78 2.78 0 0 1-.72-2.01V48.17h-5.2v2.82ZM153.22 65c-.81 0-1.44-.22-1.88-.66-.44-.44-.66-1.07-.66-1.89V46.4c0-.82.23-1.48.72-1.98.5-.5 1.16-.75 1.97-.75.82 0 1.47.25 1.95.75.5.48.75 1.14.75 1.98v5.25h4.56c2.37 0 4.18.56 5.44 1.68 1.28 1.12 1.92 2.72 1.92 4.8 0 2.24-.74 3.95-2.2 5.13-1.45 1.16-3.4 1.74-5.81 1.74h-6.75Zm6.6-4.17c1 0 1.75-.21 2.25-.63.5-.44.75-1.07.75-1.89 0-.9-.25-1.54-.75-1.92-.47-.4-1.22-.6-2.25-.6h-3.75v5.04h3.75Zm27.49-17.13a2.58 2.58 0 0 1 2.7 2.7v16.05c0 .82-.25 1.48-.75 1.98-.48.5-1.13.75-1.95.75-.82 0-1.48-.24-1.98-.72a2.78 2.78 0 0 1-.72-2.01v-6h-8.64v6c0 .82-.25 1.48-.75 1.98-.48.5-1.13.75-1.95.75-.82 0-1.48-.24-1.98-.72a2.78 2.78 0 0 1-.72-2.01V46.4c0-.82.24-1.47.72-1.95.5-.5 1.16-.75 1.98-.75a2.58 2.58 0 0 1 2.7 2.7v5.67h8.64V46.4c0-.82.24-1.47.72-1.95.5-.5 1.16-.75 1.98-.75Zm26.74 17.91c.18.38.27.75.27 1.11 0 .66-.27 1.22-.81 1.68-.52.46-1.12.69-1.8.69a2.31 2.31 0 0 1-2.16-1.44l-1.35-3.03h-9.72l-1.38 3.03a2.36 2.36 0 0 1-2.2 1.44c-.67 0-1.3-.23-1.85-.69a2.13 2.13 0 0 1-.81-1.68c0-.36.09-.73.27-1.11l7.92-16.26c.26-.54.64-.95 1.14-1.23a3.36 3.36 0 0 1 3.39 0c.52.28.9.69 1.17 1.23l7.92 16.26Zm-13.71-5.13h6l-3-6.69-3 6.69Zm30.89 8.7c-.82 0-1.48-.24-1.98-.72a2.78 2.78 0 0 1-.72-2.01v-5.1h-1.59c-1.26 0-2.25.62-2.97 1.86l-2.64 4.62c-.5.9-1.23 1.35-2.19 1.35-.7 0-1.33-.24-1.89-.72a2.25 2.25 0 0 1-.81-1.74c0-.42.13-.85.39-1.29l1.41-2.37a6.13 6.13 0 0 1 3.66-2.88 6.6 6.6 0 0 1-2.73-1.17 6.2 6.2 0 0 1-1.74-2.1 5.87 5.87 0 0 1-.57-2.49c0-2.1.68-3.72 2.04-4.86 1.38-1.14 3.35-1.71 5.91-1.71h6.6c.82 0 1.45.22 1.89.66.44.44.66 1.07.66 1.89v16.05c0 .82-.25 1.48-.75 1.98s-1.16.75-1.98.75Zm-2.61-17.16h-3c-1.18 0-2.08.25-2.7.75-.6.48-.9 1.15-.9 2.01 0 .86.26 1.48.78 1.86.54.38 1.42.57 2.64.57h3.18v-5.19ZM43.17 102.61c.18.38.27.75.27 1.11 0 .66-.27 1.22-.81 1.68-.52.46-1.12.69-1.8.69a2.31 2.31 0 0 1-2.16-1.44l-1.35-3.03H27.6l-1.38 3.03a2.36 2.36 0 0 1-2.19 1.44c-.68 0-1.3-.23-1.86-.69a2.13 2.13 0 0 1-.81-1.68c0-.36.09-.73.27-1.11l7.92-16.26c.26-.54.64-.95 1.14-1.23a3.36 3.36 0 0 1 3.39 0c.52.28.91.69 1.17 1.23l7.92 16.26Zm-13.71-5.13h6l-3-6.69-3 6.69Zm18.95 8.7c-.84 0-1.5-.24-2-.72a2.78 2.78 0 0 1-.73-2.01V87.4c0-.82.22-1.45.66-1.89.44-.44 1.07-.66 1.9-.66h7.67c2.34 0 4.16.6 5.46 1.8 1.3 1.18 1.95 2.83 1.95 4.95 0 2.1-.66 3.75-1.98 4.95-1.3 1.2-3.1 1.8-5.43 1.8h-4.7v5.1c0 .84-.26 1.51-.76 2.01-.5.48-1.18.72-2.04.72Zm6.75-11.97c1.02 0 1.77-.21 2.25-.63.5-.42.75-1.07.75-1.95 0-1.74-1-2.61-3-2.61H51.2v5.19h3.96Zm24-7.8c.45-.66.92-1.11 1.38-1.35.47-.26 1.2-.39 2.15-.39.83 0 1.45.22 1.9.66.44.42.66 1.04.66 1.86v16.26c0 .82-.25 1.48-.75 1.98-.48.5-1.14.75-1.95.75-.83 0-1.48-.24-1.98-.72a2.78 2.78 0 0 1-.72-2.01V92.71l-7.35 11.07c-.48.68-.92 1.2-1.33 1.56-.38.34-.78.56-1.2.66-.4.12-.9.18-1.5.18-.81 0-1.44-.21-1.89-.63-.44-.44-.66-1.07-.66-1.89V87.4c0-.82.25-1.48.72-1.98.5-.5 1.17-.75 1.98-.75.82 0 1.47.25 1.95.75.5.48.76 1.14.76 1.98v10.71l7.83-11.7Zm21.55 20.19c-.82 0-1.48-.25-1.98-.75s-.75-1.17-.75-2.01v-.15h-.3c-1.8 0-3.4-.32-4.8-.96a7.7 7.7 0 0 1-3.33-2.85 8.6 8.6 0 0 1-1.2-4.65c0-2.76.85-4.85 2.55-6.27 1.7-1.44 3.96-2.16 6.78-2.16h.3v.15a2.62 2.62 0 0 1 2.73-2.76c.82 0 1.47.25 1.95.75.5.5.75 1.17.75 2.01v-.15h.3c2.82 0 5.08.72 6.78 2.16 1.72 1.42 2.58 3.51 2.58 6.27 0 1.82-.41 3.37-1.23 4.65a7.49 7.49 0 0 1-3.33 2.85c-1.4.64-3 .96-4.8.96h-.3v.15c0 .82-.25 1.49-.75 2.01-.48.5-1.13.75-1.95.75Zm-2.67-15.84h-.24a4.3 4.3 0 0 0-2.82.99c-.78.66-1.17 1.82-1.17 3.48 0 1.64.4 2.8 1.23 3.48a4.3 4.3 0 0 0 2.76 1.02h.24v-8.97Zm5.58 8.97c1 0 1.9-.34 2.73-1.02.84-.7 1.26-1.86 1.26-3.48 0-1.64-.4-2.79-1.2-3.45a4.18 4.18 0 0 0-2.8-1.02h-.23v8.97h.24Zm31.3-15.03c.76 0 1.38.25 1.86.75.48.5.72 1.15.72 1.95v16.32c0 .76-.22 1.36-.66 1.8-.44.44-1.02.66-1.74.66-.7 0-1.28-.22-1.74-.66a2.43 2.43 0 0 1-.66-1.8V94.9l-3.42 6.3c-.34.64-.7 1.1-1.08 1.38-.38.26-.83.39-1.35.39-.52 0-.97-.13-1.35-.39a4.04 4.04 0 0 1-1.08-1.38l-3.4-6.12v8.64c0 .74-.22 1.34-.68 1.8-.44.44-1.02.66-1.74.66-.7 0-1.28-.22-1.74-.66a2.43 2.43 0 0 1-.66-1.8V87.4c0-.8.24-1.45.72-1.95.5-.5 1.13-.75 1.89-.75.54 0 1.03.16 1.47.48.44.3.8.74 1.1 1.32l5.53 10.38 5.49-10.38c.62-1.2 1.46-1.8 2.52-1.8Zm8.96 21.3c-.82 0-1.45-.22-1.89-.66-.44-.44-.66-1.07-.66-1.89V87.4c0-.82.22-1.45.66-1.89.44-.44 1.07-.66 1.9-.66h10.37c.86 0 1.51.18 1.95.54.44.36.66.88.66 1.56 0 1.44-.87 2.16-2.6 2.16h-7.57v4.02h6.96c1.74 0 2.61.71 2.61 2.13 0 .68-.22 1.2-.66 1.56-.44.36-1.09.54-1.95.54h-6.96v4.38h7.56c1.74 0 2.61.72 2.61 2.16 0 .68-.22 1.2-.66 1.56-.44.36-1.09.54-1.95.54h-10.38Zm23.32.15c-.84 0-1.52-.24-2.04-.72-.5-.5-.75-1.16-.75-1.98V89.32h-4.23c-.88 0-1.54-.18-1.98-.54-.42-.38-.63-.95-.63-1.71s.21-1.32.63-1.68c.44-.36 1.1-.54 1.98-.54h14.04c.88 0 1.53.18 1.95.54.44.36.66.92.66 1.68 0 .76-.22 1.33-.66 1.71-.42.36-1.07.54-1.95.54h-4.23v14.13c0 .82-.26 1.48-.78 1.98-.5.48-1.17.72-2.01.72Zm24.56-19.74c.47-.66.93-1.11 1.39-1.35.47-.26 1.2-.39 2.16-.39.81 0 1.44.22 1.88.66.44.42.66 1.04.66 1.86v16.26c0 .82-.25 1.48-.75 1.98-.47.5-1.13.75-1.94.75-.82 0-1.48-.24-1.98-.72a2.78 2.78 0 0 1-.72-2.01V92.71l-7.36 11.07c-.47.68-.91 1.2-1.31 1.56-.38.34-.78.56-1.2.66-.4.12-.9.18-1.5.18-.83 0-1.46-.21-1.9-.63-.44-.44-.66-1.07-.66-1.89V87.4c0-.82.25-1.48.72-1.98.5-.5 1.16-.75 1.99-.75.81 0 1.47.25 1.94.75.5.48.75 1.14.75 1.98v10.71l7.83-11.7Zm12.59 19.77c-.82 0-1.48-.24-1.98-.72a2.78 2.78 0 0 1-.72-2.01V87.4c0-.82.24-1.48.72-1.98.5-.5 1.16-.75 1.98-.75.82 0 1.47.25 1.95.75.5.48.75 1.14.75 1.98v5.67h1.59l6.06-7.35a2.5 2.5 0 0 1 1.98-1.02c.62 0 1.16.23 1.62.69.48.44.72.96.72 1.56 0 .6-.22 1.15-.66 1.65l-4.74 5.58c.74.34 1.3.67 1.7.99.4.32.77.72 1.09 1.2.32.46.8 1.25 1.44 2.37l1.86 3.33c.28.48.42.98.42 1.5 0 .72-.26 1.33-.78 1.83s-1.12.75-1.8.75c-.96 0-1.72-.49-2.28-1.47l-2.76-5.04a4.66 4.66 0 0 0-1.38-1.71 4.06 4.06 0 0 0-2.22-.48h-1.86v6c0 .82-.25 1.48-.75 1.98-.48.5-1.13.75-1.95.75Zm39.34-3.57c.18.38.27.75.27 1.11 0 .66-.27 1.22-.8 1.68-.53.46-1.13.69-1.8.69a2.31 2.31 0 0 1-2.17-1.44l-1.35-3.03h-9.72l-1.38 3.03a2.36 2.36 0 0 1-2.19 1.44c-.68 0-1.3-.23-1.86-.69a2.13 2.13 0 0 1-.8-1.68c0-.36.08-.73.26-1.11l7.92-16.26c.26-.54.64-.95 1.14-1.23a3.36 3.36 0 0 1 3.4 0c.51.28.9.69 1.16 1.23l7.92 16.26ZM230 97.48h6l-3-6.69-3 6.69ZM32.55 149h-2.64v-5.48h-5.14V149h-2.64v-12.8h2.64v5.19h5.14v-5.19h2.64V149Zm7.65 0c-.11-.23-.2-.51-.25-.85a3.07 3.07 0 0 1-2.4 1.03 3.4 3.4 0 0 1-2.32-.81 2.6 2.6 0 0 1-.92-2.04c0-1.01.38-1.78 1.12-2.32a5.55 5.55 0 0 1 3.24-.82h1.17v-.54c0-.44-.11-.8-.34-1.06-.22-.26-.58-.4-1.06-.4-.43 0-.77.1-1.01.31-.24.2-.36.49-.36.85h-2.54c0-.55.17-1.06.5-1.53.34-.47.83-.84 1.45-1.1a5.2 5.2 0 0 1 2.09-.4c1.17 0 2.1.29 2.78.88.7.59 1.04 1.41 1.04 2.48v4.12c0 .9.13 1.59.38 2.05v.15H40.2Zm-2.1-1.77c.38 0 .72-.08 1.04-.24.32-.17.55-.4.7-.68v-1.63h-.95c-1.27 0-1.94.44-2.03 1.31v.15c0 .32.1.58.33.79.22.2.53.3.91.3Zm9.65-1.82 1.76-5.92h2.73l-3.83 10.99-.2.5c-.58 1.24-1.51 1.86-2.82 1.86a4 4 0 0 1-1.13-.17v-1.92h.39c.48 0 .84-.06 1.07-.21.24-.15.43-.4.56-.73l.3-.78-3.33-9.54H46l1.76 5.91Zm13.5 3.59h-2.54v-2.99a7.3 7.3 0 0 1-1.32.13c-1.44 0-2.52-.3-3.25-.91-.72-.61-1.1-1.5-1.1-2.67v-3.07h2.54v3.07c0 .55.14.94.4 1.18s.73.36 1.4.36c.43 0 .87-.05 1.33-.15v-4.46h2.54V149Zm7.68-9.51h2.54V149h-2.54v-5.87L65.76 149h-2.55v-9.51h2.55v5.86l3.18-5.86ZM79.22 146l2.49-6.51h3.18V149h-2.54v-5.84L80.07 149h-1.7l-2.24-5.74V149H73.6v-9.51h3.16l2.47 6.51Zm17.08-5.98c1.22 0 2.2.4 2.92 1.21.73.8 1.1 1.9 1.1 3.3v.12a4.5 4.5 0 0 1-1.22 3.3c-.8.82-1.9 1.24-3.26 1.24a4.23 4.23 0 0 1-3.28-1.34 5.25 5.25 0 0 1-1.21-3.65v-.42c0-2.14.37-3.81 1.08-5.02a4.76 4.76 0 0 1 3.22-2.3 4.49 4.49 0 0 0 1.45-.48.8.8 0 0 0 .32-.67h2.06c0 .92-.25 1.6-.75 2.07-.5.46-1.37.82-2.64 1.07-.75.16-1.34.45-1.77.9a3.5 3.5 0 0 0-.88 1.84 3.98 3.98 0 0 1 2.86-1.17Zm-.48 2.05c-.6 0-1.08.2-1.42.61-.34.4-.51 1.06-.51 1.97 0 .8.16 1.43.5 1.85.33.43.82.64 1.45.64.61 0 1.09-.21 1.42-.63.34-.41.5-1.03.51-1.83v-.22c0-.77-.17-1.37-.52-1.77a1.76 1.76 0 0 0-1.43-.62Zm8.73.2h1.82c.82 0 1.54.14 2.16.42a3.15 3.15 0 0 1 1.92 2.97 3 3 0 0 1-1.11 2.43c-.74.6-1.75.91-3.03.91H102v-9.51h2.55v2.79Zm9.95 6.73h-2.54v-9.51h2.54V149Zm-9.95-4.69v2.66h1.8c.5 0 .9-.12 1.16-.35.27-.24.4-.56.4-.96 0-.41-.13-.73-.39-.97-.26-.25-.65-.38-1.17-.38h-1.8Zm16.14 2.82c.47 0 .85-.13 1.15-.39.29-.26.44-.6.45-1.03h2.39c-.01.65-.19 1.24-.53 1.78a3.5 3.5 0 0 1-1.43 1.25c-.6.29-1.25.44-1.98.44a4.14 4.14 0 0 1-3.22-1.3 5.15 5.15 0 0 1-1.18-3.58v-.17c0-1.46.4-2.63 1.17-3.5a4.08 4.08 0 0 1 3.21-1.32c1.19 0 2.14.34 2.86 1.02a3.57 3.57 0 0 1 1.1 2.7h-2.39c0-.49-.16-.89-.45-1.2-.3-.3-.68-.46-1.16-.46-.6 0-1.04.22-1.35.65-.3.43-.45 1.13-.45 2.1v.26c0 .97.15 1.68.45 2.1.3.43.75.65 1.36.65Zm13.33-5.6h-3.05V149h-2.55v-7.47h-3v-2.04h8.6v2.04Zm9.84 2.8a5.7 5.7 0 0 1-1 3.53 3.19 3.19 0 0 1-2.69 1.32c-.96 0-1.74-.34-2.33-1v4.48h-2.54v-13.17h2.36l.09.93a2.99 2.99 0 0 1 2.4-1.1c1.17 0 2.09.43 2.74 1.3.65.86.97 2.06.97 3.58v.13Zm-2.54-.18c0-.89-.16-1.57-.47-2.05a1.52 1.52 0 0 0-1.36-.72c-.8 0-1.35.3-1.65.91v3.9c.31.62.87.94 1.66.94 1.22 0 1.82-1 1.82-2.98Zm3.73 0c0-.94.18-1.78.54-2.52a4 4 0 0 1 1.57-1.7 4.6 4.6 0 0 1 2.38-.62c1.28 0 2.33.4 3.14 1.18a4.72 4.72 0 0 1 1.36 3.2l.02.65c0 1.46-.41 2.63-1.22 3.52a4.25 4.25 0 0 1-3.28 1.32 4.28 4.28 0 0 1-3.29-1.32 5.06 5.06 0 0 1-1.22-3.59v-.11Zm2.54.2c0 .9.17 1.59.5 2.07.35.47.84.7 1.47.7.61 0 1.1-.23 1.44-.7.34-.47.52-1.23.52-2.26a3.5 3.5 0 0 0-.52-2.06 1.69 1.69 0 0 0-1.46-.73c-.62 0-1.1.24-1.44.73-.34.48-.51 1.23-.51 2.24ZM161.4 146l2.5-6.51h3.17V149h-2.54v-5.84l-2.27 5.84h-1.7l-2.24-5.74V149h-2.54v-9.51h3.15l2.47 6.51Zm11.44-.6 1.76-5.91h2.72l-3.82 10.99-.21.5c-.57 1.24-1.5 1.86-2.82 1.86-.36 0-.74-.06-1.12-.17v-1.92h.39c.48 0 .83-.06 1.07-.21.24-.15.43-.4.56-.73l.3-.78-3.33-9.54h2.73l1.77 5.91Zm13.52 0 1.75-5.91h2.73l-3.82 10.99-.22.5c-.56 1.24-1.5 1.86-2.8 1.86-.38 0-.75-.06-1.13-.17v-1.92h.38c.48 0 .84-.06 1.08-.21.24-.15.42-.4.56-.73l.3-.78-3.33-9.54h2.73l1.77 5.91Zm9.31 1.73c.47 0 .85-.13 1.14-.39.3-.26.45-.6.46-1.03h2.38c0 .65-.18 1.24-.52 1.78-.35.53-.82.95-1.43 1.25-.6.29-1.26.44-1.98.44a4.14 4.14 0 0 1-3.22-1.3 5.15 5.15 0 0 1-1.18-3.58v-.17c0-1.46.4-2.63 1.17-3.5a4.08 4.08 0 0 1 3.2-1.32c1.2 0 2.15.34 2.87 1.02a3.57 3.57 0 0 1 1.1 2.7h-2.39c0-.49-.16-.89-.46-1.2-.29-.3-.67-.46-1.16-.46-.59 0-1.03.22-1.34.65-.3.43-.45 1.13-.45 2.1v.26c0 .97.15 1.68.45 2.1.3.43.75.65 1.36.65Zm13.33-5.6h-3.05V149h-2.55v-7.47h-3v-2.04h8.6v2.04Zm9.52 7.47H216v-3.66h-3.16V149h-2.54v-9.51h2.54v3.81h3.16v-3.81h2.54V149Zm1.58-4.84c0-.95.18-1.79.54-2.53a4 4 0 0 1 1.57-1.7 4.6 4.6 0 0 1 2.38-.62c1.28 0 2.33.4 3.14 1.18a4.72 4.72 0 0 1 1.36 3.2l.02.65c0 1.46-.41 2.63-1.22 3.52a4.26 4.26 0 0 1-3.28 1.32 4.28 4.28 0 0 1-3.3-1.32 5.07 5.07 0 0 1-1.21-3.59v-.11Zm2.54.18c0 .9.17 1.6.5 2.08.35.47.83.7 1.47.7.61 0 1.1-.23 1.44-.7.34-.47.52-1.23.52-2.26 0-.89-.18-1.57-.52-2.06a1.69 1.69 0 0 0-1.46-.73c-.62 0-1.1.24-1.44.73-.34.48-.51 1.23-.51 2.24Zm13.82 1.66 2.49-6.51h3.18V149h-2.54v-5.84l-2.28 5.84h-1.7l-2.23-5.74V149h-2.54v-9.51H234l2.47 6.51Zm11.44-.6 1.75-5.91h2.73l-3.82 10.99-.22.5c-.56 1.24-1.5 1.86-2.8 1.86-.38 0-.75-.06-1.13-.17v-1.92h.39c.47 0 .83-.06 1.07-.21.24-.15.43-.4.56-.73l.3-.78-3.33-9.54h2.73l1.77 5.91ZM25.93 170.13c.47 0 .85-.13 1.14-.39.3-.26.45-.6.46-1.03h2.38c0 .65-.18 1.24-.53 1.78-.34.53-.82.95-1.42 1.25-.6.29-1.26.44-1.99.44a4.14 4.14 0 0 1-3.21-1.3 5.15 5.15 0 0 1-1.18-3.58v-.17c0-1.46.39-2.63 1.17-3.5a4.08 4.08 0 0 1 3.2-1.32c1.2 0 2.15.34 2.86 1.02a3.57 3.57 0 0 1 1.1 2.7h-2.38c-.01-.49-.16-.89-.46-1.2-.29-.3-.68-.46-1.16-.46-.59 0-1.04.22-1.34.65-.3.43-.45 1.13-.45 2.1v.26c0 .97.15 1.68.45 2.1.3.43.75.65 1.36.65ZM39.38 172h-2.54v-2.99a7.3 7.3 0 0 1-1.33.13c-1.43 0-2.52-.3-3.24-.91-.73-.61-1.1-1.5-1.11-2.67v-3.07h2.54v3.07c0 .55.14.94.4 1.18.27.24.74.36 1.41.36.42 0 .87-.05 1.33-.15v-4.46h2.54V172Zm6.33.18c-1.4 0-2.54-.43-3.41-1.29-.88-.85-1.31-2-1.31-3.42v-.24c0-.96.18-1.81.55-2.56.37-.76.9-1.34 1.56-1.74a4.4 4.4 0 0 1 2.32-.62c1.3 0 2.33.41 3.07 1.23a4.99 4.99 0 0 1 1.13 3.5v1.03h-6.06c.08.62.33 1.12.74 1.5.42.37.94.56 1.57.56.98 0 1.75-.36 2.3-1.07l1.24 1.4c-.38.54-.9.96-1.54 1.27-.65.3-1.37.45-2.16.45Zm-.3-7.8c-.5 0-.9.16-1.22.5-.31.34-.51.83-.6 1.46h3.53v-.2c-.01-.56-.16-1-.46-1.3-.29-.31-.7-.47-1.24-.47Zm13.44.15H55.8V172h-2.54v-7.47h-3v-2.04h8.6v2.04Zm4.94 3.88 1.76-5.92h2.73l-3.83 10.99-.2.5c-.58 1.24-1.51 1.86-2.82 1.86a4 4 0 0 1-1.13-.17v-1.92h.4c.47 0 .83-.06 1.06-.21.24-.15.43-.4.57-.73l.3-.78-3.34-9.54h2.74l1.76 5.91Zm4.67 6.8-1.33-.7.32-.57c.4-.71.6-1.42.6-2.13v-1.97h2.15v1.76c-.01.65-.18 1.3-.5 1.96a5.04 5.04 0 0 1-1.24 1.65Zm16.78-7.88a5.7 5.7 0 0 1-1 3.53 3.2 3.2 0 0 1-2.7 1.32c-.95 0-1.73-.34-2.32-1v4.48h-2.54v-13.17h2.35l.1.93a2.99 2.99 0 0 1 2.4-1.1c1.17 0 2.08.43 2.73 1.3.65.86.98 2.06.98 3.58v.13Zm-2.54-.18c0-.89-.16-1.57-.48-2.05a1.52 1.52 0 0 0-1.36-.72c-.8 0-1.34.3-1.64.91v3.9c.3.62.86.94 1.66.94 1.21 0 1.82-1 1.82-2.98Zm9.63 4.85c-.12-.23-.2-.51-.25-.85a3.07 3.07 0 0 1-2.4 1.03 3.4 3.4 0 0 1-2.32-.81 2.6 2.6 0 0 1-.92-2.04c0-1.01.38-1.78 1.12-2.32a5.55 5.55 0 0 1 3.24-.82h1.17v-.54c0-.44-.11-.8-.34-1.06-.22-.26-.58-.4-1.06-.4-.43 0-.77.1-1.02.31-.24.2-.36.49-.36.85h-2.54c0-.55.17-1.06.51-1.53.34-.47.82-.84 1.45-1.1a5.2 5.2 0 0 1 2.09-.4c1.17 0 2.1.29 2.78.88.7.59 1.04 1.41 1.04 2.48v4.12c0 .9.13 1.59.38 2.05v.15h-2.57Zm-2.1-1.77c.38 0 .72-.08 1.04-.24.31-.17.55-.4.7-.68v-1.63h-.95c-1.27 0-1.95.44-2.03 1.31v.15c0 .32.1.58.33.79.22.2.52.3.91.3Zm11.23-4.94c0-.33-.1-.59-.33-.77-.22-.19-.53-.28-.93-.28-.42 0-.76.09-1.02.26a.82.82 0 0 0-.39.73h-2.54c0-.86.36-1.56 1.07-2.1.72-.54 1.63-.8 2.75-.8 1.22 0 2.18.23 2.88.71.7.48 1.05 1.17 1.05 2.05 0 .42-.13.81-.38 1.17-.26.35-.61.63-1.08.84 1.09.39 1.63 1.12 1.63 2.21 0 .87-.37 1.57-1.12 2.1-.75.5-1.74.77-2.98.77-1.16 0-2.1-.27-2.85-.81a2.55 2.55 0 0 1-1.12-2.18h2.54c0 .32.15.58.43.78.29.2.67.3 1.13.3.45 0 .8-.1 1.05-.32.25-.2.38-.48.38-.82 0-.42-.12-.72-.36-.9-.24-.17-.6-.26-1.08-.26H98.8v-1.66h1.47c.79-.02 1.18-.36 1.18-1.02Zm3.86 1.87c0-.95.18-1.79.55-2.53.36-.73.88-1.3 1.56-1.7a4.6 4.6 0 0 1 2.38-.62c1.29 0 2.33.4 3.14 1.18a4.71 4.71 0 0 1 1.36 3.2l.02.65c0 1.46-.4 2.63-1.22 3.52a4.25 4.25 0 0 1-3.28 1.32 4.28 4.28 0 0 1-3.29-1.32 5.06 5.06 0 0 1-1.22-3.59v-.11Zm2.54.18c0 .9.17 1.6.51 2.08.34.47.83.7 1.46.7.62 0 1.1-.23 1.44-.7.35-.47.52-1.23.52-2.26a3.5 3.5 0 0 0-.52-2.06 1.68 1.68 0 0 0-1.46-.73c-.62 0-1.1.24-1.44.73-.34.48-.5 1.23-.5 2.24Zm8.2 4.66v-9.51h3.97c1.3 0 2.3.23 2.98.69.7.45 1.04 1.1 1.04 1.97 0 .43-.14.83-.44 1.18-.28.35-.7.61-1.26.8.68.13 1.21.38 1.6.77.39.37.58.83.58 1.38a2.3 2.3 0 0 1-1 2.03c-.66.46-1.62.69-2.89.69h-4.58Zm2.54-3.95v1.92h2.05c.9 0 1.34-.31 1.34-.94 0-.64-.42-.97-1.28-.98h-2.1Zm0-1.7h1.58c.89-.01 1.33-.3 1.33-.86 0-.35-.12-.6-.37-.74a2.19 2.19 0 0 0-1.1-.22h-1.44v1.82Zm10.1-1.07h1.82c.82 0 1.54.13 2.16.4a3.14 3.14 0 0 1 1.93 2.98 3 3 0 0 1-1.12 2.43c-.74.6-1.75.91-3.02.91h-4.32v-9.51h2.55v2.79Zm0 2.03v2.66h1.8c.5 0 .9-.12 1.16-.35.27-.24.4-.56.4-.96 0-.41-.12-.73-.39-.97-.26-.25-.65-.38-1.17-.38h-1.8Zm11.72 4.87c-1.4 0-2.53-.43-3.41-1.29-.88-.85-1.31-2-1.31-3.42v-.24c0-.96.18-1.81.55-2.56.37-.76.9-1.34 1.56-1.74a4.4 4.4 0 0 1 2.33-.62c1.3 0 2.32.41 3.06 1.23a4.99 4.99 0 0 1 1.13 3.5v1.03h-6.06c.08.62.33 1.12.74 1.5.42.37.94.56 1.57.56.98 0 1.75-.36 2.3-1.07l1.25 1.4c-.38.54-.9.96-1.55 1.27-.65.3-1.37.45-2.16.45Zm-.3-7.8c-.5 0-.9.16-1.22.5-.31.34-.51.83-.6 1.46h3.53v-.2c-.01-.56-.16-1-.46-1.3-.29-.31-.7-.47-1.24-.47Zm11.45 4.62 2.49-6.51h3.18V172h-2.54v-5.84l-2.28 5.84h-1.7l-2.23-5.74V172h-2.55v-9.51h3.16l2.47 6.51ZM27.49 195c-.12-.23-.2-.51-.26-.85a3.07 3.07 0 0 1-2.4 1.03 3.4 3.4 0 0 1-2.32-.81 2.6 2.6 0 0 1-.91-2.04c0-1.01.37-1.78 1.11-2.32a5.55 5.55 0 0 1 3.25-.82h1.17v-.54c0-.44-.12-.8-.35-1.06-.22-.26-.57-.4-1.06-.4-.43 0-.76.1-1.01.31-.24.2-.36.49-.36.85H21.8c0-.55.17-1.06.5-1.53.35-.47.83-.84 1.45-1.1a5.2 5.2 0 0 1 2.1-.4c1.16 0 2.1.29 2.78.88.69.59 1.03 1.41 1.03 2.48v4.12c.01.9.14 1.59.38 2.05v.15H27.5Zm-2.1-1.77c.37 0 .72-.08 1.03-.24.32-.17.55-.4.7-.68v-1.63h-.94c-1.27 0-1.95.44-2.03 1.31l-.01.15c0 .32.1.58.33.79.22.2.53.3.92.3ZM39.87 195h-2.55v-3.66h-3.15V195h-2.54v-9.51h2.54v3.81h3.15v-3.81h2.55V195Zm7.48 0c-.12-.23-.2-.51-.26-.85a3.07 3.07 0 0 1-2.4 1.03 3.4 3.4 0 0 1-2.31-.81 2.6 2.6 0 0 1-.92-2.04c0-1.01.37-1.78 1.12-2.32a5.55 5.55 0 0 1 3.24-.82h1.17v-.54c0-.44-.12-.8-.34-1.06-.23-.26-.58-.4-1.07-.4-.42 0-.76.1-1 .31-.25.2-.37.49-.37.85h-2.54c0-.55.17-1.06.51-1.53.34-.47.82-.84 1.44-1.1a5.2 5.2 0 0 1 2.1-.4c1.17 0 2.1.29 2.78.88.7.59 1.04 1.41 1.04 2.48v4.12c0 .9.13 1.59.38 2.05v.15h-2.57Zm-2.1-1.77c.37 0 .72-.08 1.04-.24.31-.17.55-.4.7-.68v-1.63h-.95c-1.27 0-1.95.44-2.03 1.31v.15c0 .32.1.58.33.79.22.2.52.3.9.3Zm14.51-7.74V195h-2.54v-7.45h-2.24l-.16 2.93c-.1 1.57-.4 2.7-.92 3.42-.52.72-1.29 1.08-2.3 1.1h-.87l-.02-2.06.31-.03c.46-.04.8-.3 1-.81.22-.5.35-1.36.4-2.58l.18-4.03h7.16Zm7.69 0h2.54V195h-2.54v-5.87L64.27 195h-2.55v-9.51h2.55v5.86l3.18-5.86Zm12.38 2.04h-3.05V195h-2.55v-7.47h-3v-2.04h8.6v2.04Zm7-2.04h2.55V195h-2.54v-5.87L83.66 195H81.1v-9.51h2.55v5.86l3.18-5.86Zm12.5 9.51H96.8v-2.99a7.3 7.3 0 0 1-1.33.13c-1.44 0-2.52-.3-3.24-.91-.73-.61-1.1-1.5-1.11-2.67v-3.07h2.54v3.07c0 .55.14.94.4 1.18.27.24.74.36 1.41.36.42 0 .86-.05 1.33-.15v-4.46h2.54V195Zm6.34.18c-1.4 0-2.54-.43-3.42-1.29-.87-.85-1.3-2-1.3-3.42v-.24c0-.96.18-1.81.55-2.56.37-.76.89-1.34 1.56-1.74a4.4 4.4 0 0 1 2.32-.62c1.3 0 2.33.41 3.07 1.23a4.99 4.99 0 0 1 1.13 3.5v1.03h-6.06c.08.62.33 1.12.74 1.5.41.37.94.56 1.57.56.98 0 1.75-.36 2.3-1.07l1.24 1.4c-.38.54-.9.96-1.54 1.27-.65.3-1.37.45-2.16.45Zm-.3-7.8c-.5 0-.9.16-1.23.5-.3.34-.5.83-.6 1.46h3.54v-.2c-.01-.56-.16-1-.46-1.3-.29-.31-.7-.47-1.25-.47Zm9.61 5.75c.47 0 .85-.13 1.14-.39.3-.26.45-.6.46-1.03h2.38c0 .65-.18 1.24-.52 1.78-.35.53-.83.95-1.43 1.25-.6.29-1.26.44-1.98.44a4.14 4.14 0 0 1-3.22-1.3 5.14 5.14 0 0 1-1.18-3.58v-.17c0-1.46.4-2.63 1.17-3.5a4.08 4.08 0 0 1 3.2-1.32c1.2 0 2.15.34 2.86 1.02a3.57 3.57 0 0 1 1.1 2.7h-2.38c-.01-.49-.16-.89-.46-1.2-.29-.3-.68-.46-1.16-.46-.59 0-1.04.22-1.34.65-.3.43-.45 1.13-.45 2.1v.26c0 .97.15 1.68.45 2.1.3.43.75.65 1.36.65Zm9.16-1.64h-1.02V195h-2.54v-9.51h2.54v3.58h.9l2.08-3.58h3.2l-3.1 4.53 3.4 4.98h-3.39l-2.07-3.5Zm12.15-6h2.54V195h-2.54v-5.87L133.1 195h-2.54v-9.51h2.54v5.86l3.19-5.86Zm8.86 9.69c-1.4 0-2.54-.43-3.41-1.29-.88-.85-1.31-2-1.31-3.42v-.24c0-.96.18-1.81.55-2.56.37-.76.89-1.34 1.56-1.74a4.4 4.4 0 0 1 2.32-.62c1.3 0 2.33.41 3.07 1.23a4.99 4.99 0 0 1 1.13 3.5v1.03H143c.08.62.33 1.12.74 1.5.41.37.94.56 1.57.56.98 0 1.75-.36 2.3-1.07l1.24 1.4c-.38.54-.9.96-1.54 1.27-.65.3-1.37.45-2.16.45Zm-.3-7.8c-.5 0-.9.16-1.22.5-.32.34-.51.83-.6 1.46h3.53v-.2c-.01-.56-.16-1-.46-1.3-.29-.31-.7-.47-1.25-.47Zm15.87-1.89h2.54V195h-2.54v-5.87l-3.18 5.87h-2.55v-9.51h2.55v5.86l3.18-5.86ZM29.87 210.53h-3.05V218h-2.55v-7.47h-3v-2.04h8.6v2.04Zm1.45 7.47v-9.51h3.97c1.3 0 2.29.23 2.98.69.7.45 1.04 1.1 1.04 1.97 0 .43-.15.83-.44 1.18-.29.35-.71.61-1.27.8.68.13 1.22.38 1.6.77.4.37.6.83.6 1.38a2.3 2.3 0 0 1-1.01 2.03c-.66.46-1.63.69-2.9.69h-4.57Zm2.54-3.95v1.92h2.05c.9 0 1.34-.31 1.34-.94 0-.64-.43-.97-1.28-.98h-2.11Zm0-1.7h1.57c.9-.01 1.34-.3 1.34-.86 0-.35-.13-.6-.37-.74-.24-.15-.61-.22-1.1-.22h-1.44v1.82Zm7.1.8c0-.94.17-1.78.54-2.52a4 4 0 0 1 1.56-1.7 4.6 4.6 0 0 1 2.38-.62c1.29 0 2.33.4 3.14 1.18a4.72 4.72 0 0 1 1.36 3.2l.02.65c0 1.46-.4 2.63-1.22 3.52a4.25 4.25 0 0 1-3.28 1.32 4.28 4.28 0 0 1-3.29-1.32 5.07 5.07 0 0 1-1.22-3.59v-.11Zm2.53.2c0 .9.17 1.59.51 2.07.34.47.83.7 1.46.7.62 0 1.1-.23 1.44-.7.35-.47.52-1.23.52-2.26a3.5 3.5 0 0 0-.52-2.06 1.69 1.69 0 0 0-1.46-.73c-.62 0-1.1.24-1.44.73-.34.48-.5 1.23-.5 2.24Zm16.6-.02a5.7 5.7 0 0 1-1 3.53 3.2 3.2 0 0 1-2.7 1.32c-.96 0-1.73-.34-2.33-1v4.48h-2.54v-13.17h2.36l.09.93a2.99 2.99 0 0 1 2.4-1.1c1.18 0 2.09.43 2.74 1.3.65.86.98 2.06.98 3.58v.13Zm-2.55-.18c0-.89-.15-1.57-.47-2.05a1.52 1.52 0 0 0-1.36-.72c-.8 0-1.35.3-1.65.91v3.9c.31.62.87.94 1.67.94 1.2 0 1.81-1 1.81-2.98ZM69.68 218h-2.54v-2.99a7.3 7.3 0 0 1-1.32.13c-1.44 0-2.52-.3-3.25-.91-.72-.61-1.1-1.5-1.1-2.67v-3.07H64v3.07c.01.55.15.94.4 1.18.27.24.74.36 1.42.36.42 0 .86-.05 1.32-.15v-4.46h2.54V218Zm6.33.18c-1.4 0-2.53-.43-3.4-1.29-.88-.85-1.32-2-1.32-3.42v-.24c0-.96.19-1.81.55-2.56.37-.76.9-1.34 1.57-1.74a4.4 4.4 0 0 1 2.32-.62c1.3 0 2.32.41 3.07 1.23a4.99 4.99 0 0 1 1.12 3.5v1.03h-6.05c.08.62.32 1.12.73 1.5.42.37.94.56 1.58.56.98 0 1.74-.36 2.3-1.07l1.24 1.4c-.38.54-.9.96-1.55 1.27-.65.3-1.37.45-2.16.45Zm-.29-7.8c-.5 0-.91.16-1.23.5-.31.34-.5.83-.6 1.46h3.54v-.2c-.02-.56-.17-1-.46-1.3-.3-.31-.71-.47-1.25-.47Zm9.6 5.75c.48 0 .86-.13 1.15-.39.3-.26.45-.6.46-1.03h2.38c0 .65-.18 1.24-.53 1.78-.34.53-.82.95-1.42 1.25-.6.29-1.26.44-1.99.44a4.14 4.14 0 0 1-3.22-1.3 5.15 5.15 0 0 1-1.17-3.58v-.17c0-1.46.39-2.63 1.17-3.5a4.08 4.08 0 0 1 3.2-1.32c1.2 0 2.15.34 2.86 1.02a3.57 3.57 0 0 1 1.1 2.7h-2.38c-.02-.49-.17-.89-.46-1.2-.3-.3-.68-.46-1.16-.46-.6 0-1.04.22-1.35.65-.3.43-.44 1.13-.44 2.1v.26c0 .97.15 1.68.44 2.1.3.43.76.65 1.37.65Zm9.17-1.64h-1.02V218h-2.54v-9.51h2.54v3.58h.9l2.08-3.58h3.2l-3.1 4.53 3.4 4.98h-3.39l-2.07-3.5Zm12.14-6h2.54V218h-2.54v-5.87l-3.18 5.87h-2.55v-9.51h2.55v5.86l3.18-5.86Zm8.86 9.69c-1.4 0-2.53-.43-3.4-1.29-.88-.85-1.32-2-1.32-3.42v-.24c0-.96.19-1.81.56-2.56.36-.76.89-1.34 1.56-1.74a4.4 4.4 0 0 1 2.32-.62c1.3 0 2.32.41 3.07 1.23a4.99 4.99 0 0 1 1.12 3.5v1.03h-6.05c.08.62.33 1.12.73 1.5.42.37.95.56 1.58.56.98 0 1.74-.36 2.3-1.07l1.24 1.4c-.38.54-.9.96-1.55 1.27-.65.3-1.37.45-2.16.45Zm-.29-7.8c-.5 0-.91.16-1.23.5-.31.34-.5.83-.6 1.46h3.54v-.2c-.02-.56-.17-1-.46-1.3-.3-.31-.71-.47-1.25-.47Zm14.09 5.75c.47 0 .85-.13 1.14-.39.3-.26.45-.6.46-1.03h2.38c0 .65-.18 1.24-.53 1.78-.34.53-.82.95-1.42 1.25-.6.29-1.26.44-1.99.44a4.14 4.14 0 0 1-3.21-1.3 5.15 5.15 0 0 1-1.18-3.58v-.17c0-1.46.39-2.63 1.17-3.5a4.08 4.08 0 0 1 3.2-1.32c1.2 0 2.15.34 2.86 1.02a3.57 3.57 0 0 1 1.1 2.7h-2.38c-.01-.49-.16-.89-.46-1.2-.29-.3-.68-.46-1.16-.46-.59 0-1.04.22-1.34.65-.3.43-.45 1.13-.45 2.1v.26c0 .97.15 1.68.45 2.1.3.43.75.65 1.36.65Zm13.7 1.87h-2.55v-7.45h-3.18V218h-2.54v-9.51H143V218Zm1.55-4.84c0-.95.18-1.79.54-2.53a4 4 0 0 1 1.57-1.7 4.6 4.6 0 0 1 2.38-.62c1.28 0 2.33.4 3.14 1.18a4.72 4.72 0 0 1 1.36 3.2l.02.65c0 1.46-.4 2.63-1.22 3.52a4.25 4.25 0 0 1-3.28 1.32 4.28 4.28 0 0 1-3.29-1.32 5.06 5.06 0 0 1-1.22-3.59v-.11Zm2.54.18c0 .9.17 1.6.5 2.08.35.47.83.7 1.47.7.61 0 1.1-.23 1.44-.7.34-.47.52-1.23.52-2.26a3.5 3.5 0 0 0-.52-2.06 1.68 1.68 0 0 0-1.46-.73c-.62 0-1.1.24-1.44.73-.34.48-.51 1.23-.51 2.24Zm11.99 2.79c.47 0 .85-.13 1.14-.39.3-.26.44-.6.46-1.03h2.38c0 .65-.18 1.24-.53 1.78a3.5 3.5 0 0 1-1.42 1.25c-.6.29-1.26.44-1.99.44a4.14 4.14 0 0 1-3.22-1.3 5.14 5.14 0 0 1-1.17-3.58v-.17c0-1.46.39-2.63 1.17-3.5a4.08 4.08 0 0 1 3.2-1.32c1.2 0 2.15.34 2.86 1.02a3.57 3.57 0 0 1 1.1 2.7h-2.38c-.01-.49-.17-.89-.46-1.2-.3-.3-.68-.46-1.16-.46-.6 0-1.04.22-1.34.65-.3.43-.45 1.13-.45 2.1v.26c0 .97.15 1.68.45 2.1.3.43.75.65 1.36.65Zm5.03-2.97c0-.95.19-1.79.55-2.53a4 4 0 0 1 1.56-1.7 4.6 4.6 0 0 1 2.38-.62c1.29 0 2.33.4 3.14 1.18a4.72 4.72 0 0 1 1.37 3.2l.01.65c0 1.46-.4 2.63-1.22 3.52a4.26 4.26 0 0 1-3.28 1.32 4.28 4.28 0 0 1-3.29-1.32 5.07 5.07 0 0 1-1.22-3.59v-.11Zm2.54.18c0 .9.17 1.6.51 2.08.34.47.83.7 1.46.7.62 0 1.1-.23 1.44-.7.35-.47.52-1.23.52-2.26 0-.89-.17-1.57-.52-2.06a1.69 1.69 0 0 0-1.46-.73c-.62 0-1.1.24-1.44.73-.34.48-.5 1.23-.5 2.24Zm12.76-4.32c1.22 0 2.19.4 2.91 1.21.73.8 1.1 1.9 1.1 3.3v.12a4.5 4.5 0 0 1-1.22 3.3c-.8.82-1.9 1.24-3.26 1.24a4.23 4.23 0 0 1-3.28-1.34 5.25 5.25 0 0 1-1.21-3.65v-.42c.01-2.14.37-3.81 1.08-5.02a4.76 4.76 0 0 1 3.22-2.3 4.5 4.5 0 0 0 1.45-.48.8.8 0 0 0 .32-.67h2.06c0 .92-.25 1.6-.75 2.07-.49.46-1.37.82-2.63 1.07-.75.16-1.35.45-1.78.9a3.51 3.51 0 0 0-.88 1.84 3.98 3.98 0 0 1 2.87-1.17Zm-.49 2.05c-.6 0-1.07.2-1.42.61-.34.4-.51 1.06-.51 1.97 0 .8.17 1.43.5 1.85.33.43.82.64 1.45.64.62 0 1.1-.21 1.42-.63.34-.41.5-1.03.51-1.83v-.22c0-.77-.17-1.37-.51-1.77a1.76 1.76 0 0 0-1.44-.62Zm14.1 6.93h-2.55v-3.66h-3.15V218h-2.54v-9.51h2.54v3.81h3.15v-3.81h2.55V218Zm1.57-4.84c0-.95.19-1.79.55-2.53a4 4 0 0 1 1.56-1.7 4.6 4.6 0 0 1 2.38-.62c1.29 0 2.33.4 3.14 1.18a4.72 4.72 0 0 1 1.36 3.2l.02.65c0 1.46-.4 2.63-1.22 3.52a4.25 4.25 0 0 1-3.28 1.32 4.28 4.28 0 0 1-3.28-1.32 5.06 5.06 0 0 1-1.23-3.59v-.11Zm2.54.18c0 .9.17 1.6.51 2.08.34.47.83.7 1.46.7.62 0 1.1-.23 1.44-.7.35-.47.52-1.23.52-2.26a3.5 3.5 0 0 0-.52-2.06 1.69 1.69 0 0 0-1.46-.73c-.62 0-1.1.24-1.44.73-.34.48-.5 1.23-.5 2.24Zm12 2.79c.46 0 .84-.13 1.13-.39.3-.26.45-.6.46-1.03h2.38c0 .65-.18 1.24-.52 1.78a3.5 3.5 0 0 1-1.43 1.25c-.6.29-1.26.44-1.98.44a4.14 4.14 0 0 1-3.22-1.3 5.15 5.15 0 0 1-1.18-3.58v-.17c0-1.46.4-2.63 1.17-3.5a4.08 4.08 0 0 1 3.2-1.32c1.2 0 2.15.34 2.87 1.02a3.57 3.57 0 0 1 1.1 2.7h-2.39c-.01-.49-.16-.89-.46-1.2-.29-.3-.68-.46-1.16-.46-.59 0-1.03.22-1.34.65-.3.43-.45 1.13-.45 2.1v.26c0 .97.15 1.68.45 2.1.3.43.75.65 1.36.65Zm13.32-5.6h-3.05V218h-2.55v-7.47h-3v-2.04h8.6v2.04Zm7.01-2.04h2.54V218h-2.54v-5.87l-3.18 5.87h-2.55v-9.51h2.55v5.86l3.18-5.86Zm12.52 5.91 1.75-5.91h2.73l-3.82 10.99-.22.5c-.56 1.24-1.5 1.86-2.8 1.86a4 4 0 0 1-1.13-.17v-1.92h.38c.48 0 .84-.06 1.08-.21.24-.15.42-.4.56-.73l.3-.78-3.33-9.54h2.73l1.77 5.91ZM30.54 236.34a5.7 5.7 0 0 1-1 3.53 3.2 3.2 0 0 1-2.7 1.32c-.96 0-1.73-.34-2.32-1v4.48h-2.54v-13.17h2.35l.09.93a2.99 2.99 0 0 1 2.4-1.1c1.18 0 2.09.43 2.74 1.3.65.86.98 2.06.98 3.58v.13Zm-2.54-.18c0-.89-.16-1.57-.48-2.05a1.52 1.52 0 0 0-1.36-.72c-.8 0-1.35.3-1.64.91v3.9c.3.62.86.94 1.66.94 1.21 0 1.82-1 1.82-2.98Zm8.5 5.03c-1.4 0-2.54-.43-3.41-1.29-.88-.85-1.31-2-1.31-3.42v-.24c0-.96.18-1.81.55-2.56.37-.76.89-1.34 1.56-1.74a4.4 4.4 0 0 1 2.32-.62c1.3 0 2.33.41 3.07 1.23a4.99 4.99 0 0 1 1.13 3.5v1.03h-6.06c.08.62.33 1.12.74 1.5.41.37.94.56 1.57.56.98 0 1.75-.36 2.3-1.07l1.24 1.4c-.38.54-.9.96-1.54 1.27-.65.3-1.37.45-2.16.45Zm-.3-7.8c-.5 0-.9.16-1.23.5-.3.34-.5.83-.6 1.46h3.54v-.2c-.01-.56-.16-1-.46-1.3-.29-.31-.7-.47-1.24-.47Zm10.38-1.36c1.21 0 2.19.4 2.91 1.21.73.8 1.1 1.9 1.1 3.3v.12a4.5 4.5 0 0 1-1.22 3.3c-.8.82-1.9 1.24-3.26 1.24a4.23 4.23 0 0 1-3.28-1.34 5.25 5.25 0 0 1-1.21-3.65v-.42c.01-2.14.37-3.81 1.08-5.02a4.76 4.76 0 0 1 3.22-2.3 4.49 4.49 0 0 0 1.45-.48.8.8 0 0 0 .32-.67h2.06c0 .92-.25 1.6-.75 2.07-.49.46-1.37.82-2.63 1.07-.75.16-1.35.45-1.78.9a3.5 3.5 0 0 0-.88 1.84 3.98 3.98 0 0 1 2.87-1.17Zm-.49 2.05c-.6 0-1.08.2-1.42.61-.34.4-.51 1.06-.51 1.97 0 .8.17 1.43.5 1.85.33.43.82.64 1.45.64.62 0 1.09-.21 1.42-.63.34-.41.5-1.03.51-1.83v-.22c0-.77-.17-1.37-.51-1.77a1.76 1.76 0 0 0-1.44-.62Zm10.4 7.1c-1.4 0-2.54-.42-3.42-1.28-.87-.85-1.3-2-1.3-3.42v-.24c0-.96.18-1.81.55-2.56.36-.76.89-1.34 1.56-1.74a4.4 4.4 0 0 1 2.32-.62c1.3 0 2.32.41 3.07 1.23a4.99 4.99 0 0 1 1.12 3.5v1.03h-6.05c.08.62.32 1.12.74 1.5.41.37.94.56 1.57.56.98 0 1.74-.36 2.3-1.07l1.24 1.4c-.38.54-.9.96-1.55 1.27-.65.3-1.37.45-2.16.45Zm-.3-7.8c-.5 0-.91.17-1.23.51-.31.34-.5.83-.6 1.46h3.54v-.2c-.02-.56-.17-1-.46-1.3-.3-.31-.7-.47-1.25-.47ZM70.1 241h-2.55v-3.66h-3.16V241h-2.54v-9.51h2.54v3.81h3.16v-3.81h2.55V241Zm5.7-3.5h-1.03v3.5h-2.54v-9.51h2.54v3.58h.9l2.08-3.58h3.21l-3.11 4.53 3.4 4.98h-3.38l-2.08-3.5ZM87.7 241c-.12-.23-.2-.51-.26-.85a3.07 3.07 0 0 1-2.4 1.03 3.4 3.4 0 0 1-2.32-.81 2.6 2.6 0 0 1-.91-2.04c0-1.01.37-1.78 1.12-2.32a5.55 5.55 0 0 1 3.24-.82h1.17v-.54c0-.44-.12-.8-.34-1.06-.23-.26-.58-.4-1.07-.4-.43 0-.76.1-1 .31-.25.2-.37.49-.37.85h-2.54c0-.55.17-1.06.51-1.53.34-.47.82-.84 1.44-1.1a5.2 5.2 0 0 1 2.1-.4c1.17 0 2.1.29 2.78.88.7.59 1.04 1.41 1.04 2.48v4.12c0 .9.13 1.59.38 2.05v.15H87.7Zm-2.1-1.77c.37 0 .72-.08 1.04-.24.31-.17.55-.4.7-.68v-1.63h-.95c-1.27 0-1.95.44-2.03 1.31l-.01.15c0 .32.11.58.33.79.23.2.53.3.92.3Z" fill="#fff"/><path d="M292.37 51.36c-21.36-6.31-25.16-34.93-6.2-46.6a25.73 25.73 0 0 1 9.7-3.53l86.62-12.86c24.75-3.67 42.38 23.44 28.98 44.57l-.5.8c-.54.84-1 1.72-1.38 2.63a53.54 53.54 0 0 1-64.51 30.56l-52.71-15.57Z" fill="#E00077"/><path d="M305.2 25.72a4 4 0 0 1 3.66 2.24c.38.7.56 1.48.56 2.36a5 5 0 0 1-.64 2.52c-.41.73-.99 1.3-1.74 1.72-.74.41-1.59.62-2.54.62a5.37 5.37 0 0 1-4.36-1.84c-1.02-1.23-1.54-2.97-1.54-5.24 0-1.5.24-2.8.72-3.9a5.9 5.9 0 0 1 2.06-2.58c.9-.6 1.94-.9 3.12-.9a7.67 7.67 0 0 1 4.3 1.36c.23.17.39.35.48.54.11.19.16.42.16.7 0 .41-.12.77-.36 1.06-.22.28-.5.42-.84.42-.18 0-.35-.03-.5-.08a12.1 12.1 0 0 1-.6-.3l-.44-.22c-.44-.21-.8-.37-1.1-.48-.29-.1-.6-.16-.92-.16-.68 0-1.23.31-1.66.94a5.32 5.32 0 0 0-.74 2.6c.31-.43.72-.76 1.22-1a3.83 3.83 0 0 1 1.7-.38Zm-.92 6.64c.52 0 .94-.17 1.24-.52.31-.35.46-.8.46-1.38 0-.59-.15-1.05-.46-1.38-.29-.35-.7-.52-1.24-.52-.52 0-.94.17-1.26.52a2 2 0 0 0-.46 1.38 2 2 0 0 0 .48 1.38c.32.35.74.52 1.24.52Zm8.26-1.34c-1.11 0-1.66-.47-1.66-1.4 0-.92.55-1.38 1.66-1.38h3.76c.56 0 .97.12 1.24.36.28.24.42.58.42 1.02 0 .44-.14.79-.42 1.04-.27.24-.68.36-1.24.36h-3.76Zm16.54 1.06c.6 0 1.04.12 1.32.36s.42.6.42 1.08c0 .99-.58 1.48-1.74 1.48h-6.94c-1.16 0-1.74-.5-1.74-1.48 0-.48.14-.84.42-1.08.28-.24.72-.36 1.32-.36h1.62v-7.22l-1.6.94c-.23.13-.46.2-.7.2-.37 0-.7-.16-.96-.48-.26-.33-.4-.7-.4-1.1 0-.55.23-.96.7-1.24l3.2-1.86c.59-.33 1.14-.5 1.66-.5.53 0 .96.16 1.28.48.33.32.5.75.5 1.3v9.48h1.64Zm12.01-2.26c1.16 0 1.74.46 1.74 1.38 0 .95-.58 1.42-1.74 1.42h-.44v.68c0 .6-.16 1.05-.5 1.36-.33.3-.76.46-1.3.46-.53 0-.96-.15-1.3-.46-.32-.3-.48-.76-.48-1.36v-.68h-4.46a1.5 1.5 0 0 1-1.14-.44c-.28-.3-.42-.66-.42-1.1 0-.47.15-.9.44-1.32l5.72-8.16a1.99 1.99 0 0 1 2.9-.34c.36.32.54.77.54 1.34v7.22h.44Zm-6.42 0h2.4v-3.46l-2.4 3.46Zm20.52-4.16c0 2.55-.31 4.5-.94 5.88a6.54 6.54 0 0 1-2.74 3.08 2.4 2.4 0 0 1-1.22.38c-.44 0-.8-.14-1.08-.42-.28-.3-.42-.65-.42-1.06 0-.33.1-.65.3-.96.2-.32.5-.6.9-.84 1.1-.75 1.66-2.55 1.66-5.42v-3.7c0-.55.15-.97.44-1.26.3-.3.71-.44 1.26-.44h7.2c.55 0 .96.15 1.26.44.3.3.46.71.46 1.26v10.7c0 .55-.17.99-.5 1.32-.33.33-.77.5-1.32.5s-.99-.16-1.32-.48a1.85 1.85 0 0 1-.48-1.34v-9.52h-3.46v1.88ZM366.47 35c-.55 0-.97-.15-1.26-.44-.3-.3-.44-.71-.44-1.26V22.6c0-.55.14-.97.44-1.26.29-.3.71-.44 1.26-.44h6.92c.57 0 1 .12 1.3.36.29.24.44.59.44 1.04 0 .96-.58 1.44-1.74 1.44h-5.04v2.68h4.64c1.16 0 1.74.47 1.74 1.42 0 .45-.15.8-.44 1.04-.3.24-.73.36-1.3.36h-4.64v2.92h5.04c1.16 0 1.74.48 1.74 1.44 0 .45-.15.8-.44 1.04-.3.24-.73.36-1.3.36h-6.92Zm15.54.1c-.56 0-1.01-.16-1.36-.48-.33-.33-.5-.77-.5-1.32v-9.42h-2.82c-.58 0-1.02-.12-1.32-.36-.28-.25-.42-.63-.42-1.14 0-.5.14-.88.42-1.12.3-.24.74-.36 1.32-.36h9.36c.59 0 1.02.12 1.3.36.3.24.44.61.44 1.12 0 .5-.14.89-.44 1.14-.28.24-.71.36-1.3.36h-2.82v9.42c0 .55-.17.99-.52 1.32-.33.32-.78.48-1.34.48Z" fill="#fff"/></g><defs><clipPath id="a"><rect x=".67" width="393.33" height="280" rx="16" fill="#fff"/></clipPath></defs></svg>