<svg width="394" height="280" fill="none" xmlns="http://www.w3.org/2000/svg"><g clip-path="url(#a)"><rect x=".67" width="393.33" height="280" rx="16" fill="#F0BA2F"/><path d="M32.6 120.27a11.4 11.4 0 0 1-5.57-1.32 9.2 9.2 0 0 1-3.7-3.78 12.23 12.23 0 0 1-1.28-5.76c0-2.18.43-4.09 1.29-5.73a9.2 9.2 0 0 1 3.69-3.78 11.4 11.4 0 0 1 5.58-1.32c2.54 0 4.77.67 6.69 2.01.34.24.58.5.72.78.16.28.24.64.24 1.08 0 .62-.18 1.15-.54 1.59-.34.42-.76.63-1.26.63-.3 0-.57-.04-.81-.12-.24-.1-.52-.25-.84-.45a8.51 8.51 0 0 0-1.98-.9 6.85 6.85 0 0 0-1.92-.27c-1.78 0-3.11.54-4 1.62-.85 1.06-1.28 2.68-1.28 4.86 0 2.2.43 3.84 1.29 4.92.88 1.06 2.2 1.59 3.99 1.59.6 0 1.18-.09 1.74-.27a29.25 29.25 0 0 0 3.09-1.35c.2-.08.44-.12.72-.12.5 0 .92.22 1.26.66.36.42.54.94.54 1.56 0 .42-.08.78-.24 1.08-.14.28-.38.54-.72.78a11.4 11.4 0 0 1-6.7 2.01Zm12.96-.09c-.82 0-1.48-.24-1.98-.72a2.78 2.78 0 0 1-.72-2.01V101.4c0-.82.24-1.48.72-1.98.5-.5 1.16-.75 1.98-.75.82 0 1.47.25 1.95.75.5.48.75 1.14.75 1.98v5.67h1.59l6.06-7.35a2.5 2.5 0 0 1 1.98-1.02c.62 0 1.16.23 1.62.69.48.44.72.96.72 1.56 0 .6-.22 1.15-.66 1.65l-4.74 5.58c.74.34 1.3.67 1.7.99.4.32.77.72 1.09 1.2.32.46.8 1.25 1.44 2.37l1.86 3.33c.28.48.42.98.42 1.5 0 .72-.26 1.33-.78 1.83s-1.12.75-1.8.75c-.96 0-1.72-.49-2.28-1.47l-2.76-5.04a4.66 4.66 0 0 0-1.38-1.71 4.06 4.06 0 0 0-2.22-.48h-1.86v6c0 .82-.25 1.48-.75 1.98-.48.5-1.13.75-1.95.75Zm28.47.09c-2.16 0-4.04-.44-5.64-1.32a9.25 9.25 0 0 1-3.66-3.78 12.23 12.23 0 0 1-1.29-5.76c0-2.2.43-4.11 1.29-5.73a9.02 9.02 0 0 1 3.66-3.78c1.6-.88 3.48-1.32 5.64-1.32 2.16 0 4.03.44 5.61 1.32a8.79 8.79 0 0 1 3.66 3.78 12.05 12.05 0 0 1 1.29 5.73c0 2.2-.43 4.12-1.29 5.76a9.2 9.2 0 0 1-3.69 3.78 11.29 11.29 0 0 1-5.58 1.32Zm0-4.23c1.6 0 2.85-.56 3.75-1.68.9-1.14 1.35-2.79 1.35-4.95s-.46-3.8-1.38-4.92a4.51 4.51 0 0 0-3.72-1.68c-1.6 0-2.85.56-3.75 1.68-.9 1.1-1.35 2.74-1.35 4.92 0 2.18.45 3.83 1.35 4.95a4.54 4.54 0 0 0 3.75 1.68Zm16.5 4.14c-.84 0-1.51-.24-2.01-.72a2.78 2.78 0 0 1-.72-2.01V101.4c0-.82.22-1.45.66-1.89.44-.44 1.07-.66 1.89-.66h7.68c2.34 0 4.16.6 5.46 1.8 1.3 1.18 1.95 2.83 1.95 4.95 0 2.1-.66 3.75-1.98 4.95-1.3 1.2-3.11 1.8-5.43 1.8h-4.71v5.1c0 .84-.25 1.51-.75 2.01-.5.48-1.18.72-2.04.72Zm6.75-11.97c1.02 0 1.77-.21 2.25-.63.5-.42.75-1.07.75-1.95 0-1.74-1-2.61-3-2.61h-3.96v5.19h3.96Zm20.52 12.06c-2.16 0-4.04-.44-5.64-1.32a9.25 9.25 0 0 1-3.66-3.78 12.23 12.23 0 0 1-1.3-5.76c0-2.2.44-4.11 1.3-5.73a9.02 9.02 0 0 1 3.66-3.78c1.6-.88 3.48-1.32 5.64-1.32 2.16 0 4.03.44 5.6 1.32a8.79 8.79 0 0 1 3.67 3.78 12.05 12.05 0 0 1 1.29 5.73c0 2.2-.43 4.12-1.3 5.76a9.2 9.2 0 0 1-3.68 3.78 11.29 11.29 0 0 1-5.58 1.32Zm0-4.23c1.6 0 2.85-.56 3.75-1.68.9-1.14 1.35-2.79 1.35-4.95s-.46-3.8-1.38-4.92a4.51 4.51 0 0 0-3.72-1.68c-1.6 0-2.85.56-3.75 1.68-.9 1.1-1.35 2.74-1.35 4.92 0 2.18.45 3.83 1.35 4.95a4.54 4.54 0 0 0 3.75 1.68Zm13.46-14.64c0-.82.24-1.48.72-1.98.5-.5 1.16-.75 1.98-.75.82 0 1.47.25 1.95.75.5.48.75 1.14.75 1.98v3.78c0 1.2.3 2.09.87 2.67.6.58 1.62.87 3.06.87 1.02 0 1.8-.09 2.31-.27v-7.05c0-.82.25-1.48.75-1.98s1.16-.75 1.98-.75c.82 0 1.47.25 1.95.75.5.48.75 1.14.75 1.98v16.05c0 .82-.25 1.48-.75 1.98-.48.5-1.13.75-1.95.75-.82 0-1.48-.24-1.98-.72-.5-.5-.75-1.17-.75-2.01v-4.86a19.05 19.05 0 0 1-3.57.39c-2.5 0-4.47-.54-5.9-1.62-1.45-1.08-2.17-2.79-2.17-5.13v-4.83Zm28.4 18.75c-.84 0-1.52-.24-2.04-.72-.5-.5-.75-1.16-.75-1.98v-14.13h-4.23c-.88 0-1.54-.18-1.98-.54-.42-.38-.63-.95-.63-1.71s.21-1.32.63-1.68c.44-.36 1.1-.54 1.98-.54h14.04c.88 0 1.53.18 1.95.54.44.36.66.92.66 1.68 0 .76-.22 1.33-.66 1.71-.42.36-1.07.54-1.95.54h-4.23v14.13c0 .82-.26 1.48-.78 1.98-.5.48-1.17.72-2.01.72Zm13.88-.15c-.81 0-1.44-.22-1.88-.66-.44-.44-.66-1.07-.66-1.89V101.4c0-.82.22-1.45.66-1.89.44-.44 1.06-.66 1.88-.66h10.39c.85 0 1.5.18 1.94.54.44.36.66.88.66 1.56 0 1.44-.87 2.16-2.6 2.16h-7.56v4.02h6.95c1.75 0 2.62.71 2.62 2.13 0 .68-.22 1.2-.66 1.56-.44.36-1.1.54-1.96.54h-6.95v4.38h7.56c1.73 0 2.6.72 2.6 2.16 0 .68-.22 1.2-.66 1.56-.44.36-1.09.54-1.94.54h-10.39Zm32.03-21.3a2.58 2.58 0 0 1 2.7 2.7v16.05c0 .82-.25 1.48-.75 1.98-.48.5-1.13.75-1.95.75-.81 0-1.47-.24-1.97-.72a2.78 2.78 0 0 1-.72-2.01v-6h-8.64v6c0 .82-.25 1.48-.75 1.98-.49.5-1.14.75-1.96.75-.81 0-1.47-.24-1.97-.72a2.78 2.78 0 0 1-.72-2.01V101.4c0-.82.23-1.47.72-1.95.5-.5 1.16-.75 1.97-.75a2.58 2.58 0 0 1 2.7 2.7v5.67h8.65v-5.67c0-.82.24-1.47.72-1.95.5-.5 1.16-.75 1.97-.75Zm19.73 1.71c.46-.66.92-1.11 1.38-1.35.48-.26 1.2-.39 2.16-.39.82 0 1.45.22 1.89.66.44.42.66 1.04.66 1.86v16.26c0 .82-.25 1.48-.75 1.98-.48.5-1.13.75-1.95.75-.82 0-1.48-.24-1.98-.72a2.78 2.78 0 0 1-.72-2.01v-10.74l-7.35 11.07c-.48.68-.92 1.2-1.32 1.56-.38.34-.78.56-1.2.66-.4.12-.9.18-1.5.18-.82 0-1.45-.21-1.9-.63-.43-.44-.65-1.07-.65-1.89V101.4c0-.82.24-1.48.72-1.98.5-.5 1.16-.75 1.98-.75.82 0 1.47.25 1.95.75.5.48.75 1.14.75 1.98v10.71l7.83-11.7ZM237.73 120c-.82 0-1.45-.22-1.89-.66-.44-.44-.66-1.07-.66-1.89V101.4c0-.82.22-1.45.66-1.89.44-.44 1.07-.66 1.89-.66h10.38c.86 0 1.51.18 1.95.54.44.36.66.88.66 1.56 0 1.44-.87 2.16-2.61 2.16h-7.56v4.02h6.96c1.74 0 2.61.71 2.61 2.13 0 .68-.22 1.2-.66 1.56-.44.36-1.09.54-1.95.54h-6.96v4.38h7.56c1.74 0 2.61.72 2.61 2.16 0 .68-.22 1.2-.66 1.56-.44.36-1.09.54-1.95.54h-10.38ZM24.45 158.5v4.5H21.8v-12.8h5c.95 0 1.8.18 2.52.53.73.35 1.3.85 1.69 1.5.4.65.59 1.38.59 2.2 0 1.26-.43 2.25-1.3 2.98a5.36 5.36 0 0 1-3.55 1.08h-2.31Zm0-2.15h2.35c.7 0 1.23-.16 1.6-.49.36-.33.55-.8.55-1.4a2.1 2.1 0 0 0-.56-1.52 2.07 2.07 0 0 0-1.53-.6h-2.41v4.01ZM38.67 163c-.12-.23-.2-.51-.26-.85a3.07 3.07 0 0 1-2.4 1.03 3.4 3.4 0 0 1-2.32-.81 2.6 2.6 0 0 1-.91-2.04c0-1.01.37-1.78 1.11-2.32a5.55 5.55 0 0 1 3.25-.82h1.17v-.54c0-.44-.12-.8-.35-1.06-.22-.26-.57-.4-1.06-.4-.43 0-.76.1-1.01.31-.24.2-.36.49-.36.85h-2.54c0-.55.17-1.06.5-1.53.35-.47.83-.84 1.45-1.1a5.2 5.2 0 0 1 2.1-.4c1.16 0 2.1.29 2.78.88.69.59 1.03 1.41 1.03 2.48v4.12c.01.9.14 1.59.38 2.05v.15h-2.56Zm-2.1-1.77c.37 0 .72-.08 1.03-.24.32-.17.55-.4.7-.68v-1.63h-.94c-1.27 0-1.95.44-2.03 1.31l-.01.15c0 .32.1.58.33.79.22.2.53.3.92.3Zm11.23-4.94c0-.33-.11-.59-.34-.77a1.38 1.38 0 0 0-.93-.28c-.41 0-.75.09-1.02.26a.82.82 0 0 0-.38.73h-2.54c0-.86.35-1.56 1.07-2.1.71-.54 1.63-.8 2.74-.8 1.23 0 2.19.23 2.88.71.7.48 1.06 1.17 1.06 2.05 0 .42-.13.81-.39 1.17-.25.35-.6.63-1.07.84 1.08.39 1.63 1.12 1.63 2.21 0 .87-.38 1.57-1.13 2.1-.74.5-1.74.77-2.98.77-1.15 0-2.1-.27-2.85-.81a2.55 2.55 0 0 1-1.11-2.18h2.54c0 .32.14.58.43.78.28.2.66.3 1.12.3.45 0 .8-.1 1.06-.32.25-.2.38-.48.38-.82 0-.42-.12-.72-.37-.9-.24-.17-.6-.26-1.08-.26h-1.38v-1.66h1.47c.8-.02 1.19-.36 1.19-1.02Zm4.42 6.71v-9.51h3.97c1.3 0 2.29.23 2.98.69.7.45 1.04 1.1 1.04 1.97 0 .43-.15.83-.44 1.18-.29.35-.71.61-1.27.8.68.13 1.22.38 1.6.77.4.37.6.83.6 1.38a2.3 2.3 0 0 1-1.01 2.03c-.66.46-1.63.69-2.9.69h-4.57Zm2.54-3.95v1.92h2.05c.9 0 1.34-.31 1.34-.94 0-.64-.43-.97-1.28-.98h-2.11Zm0-1.7h1.57c.9-.01 1.34-.3 1.34-.86 0-.35-.12-.6-.37-.74-.24-.15-.61-.22-1.1-.22h-1.44v1.82Zm13.22-3.86h2.54V163h-2.54v-5.87L64.8 163h-2.55v-9.51h2.55v5.86l3.18-5.86Zm12.37 2.04H77.3V163h-2.55v-7.47h-3v-2.04h8.6v2.04Zm7.02-2.04h2.54V163h-2.54v-5.87L84.19 163h-2.55v-9.51h2.55v5.86l3.18-5.86Zm8.86 9.69c-1.4 0-2.54-.43-3.41-1.29-.88-.85-1.31-2-1.31-3.42v-.24c0-.96.18-1.81.55-2.56.37-.76.9-1.34 1.56-1.74a4.4 4.4 0 0 1 2.32-.62c1.3 0 2.33.41 3.07 1.23a4.99 4.99 0 0 1 1.13 3.5v1.03h-6.06c.08.62.33 1.12.74 1.5.42.37.94.56 1.57.56.98 0 1.75-.36 2.3-1.07l1.25 1.4c-.39.54-.9.96-1.55 1.27-.65.3-1.37.45-2.16.45Zm-.3-7.8c-.5 0-.9.16-1.22.5-.31.34-.51.83-.6 1.46h3.53v-.2c-.01-.56-.16-1-.46-1.3-.29-.31-.7-.47-1.24-.47Zm18.03.15h-3.05V163h-2.55v-7.47h-3v-2.04h8.6v2.04Zm5.1 7.65c-1.4 0-2.53-.43-3.41-1.29-.87-.85-1.31-2-1.31-3.42v-.24c0-.96.19-1.81.55-2.56.37-.76.9-1.34 1.57-1.74a4.4 4.4 0 0 1 2.32-.62c1.3 0 2.32.41 3.07 1.23a4.99 4.99 0 0 1 1.12 3.5v1.03h-6.05c.08.62.32 1.12.73 1.5.42.37.94.56 1.58.56.98 0 1.74-.36 2.3-1.07l1.24 1.4c-.38.54-.9.96-1.55 1.27-.65.3-1.37.45-2.16.45Zm-.29-7.8c-.5 0-.91.16-1.23.5-.31.34-.51.83-.6 1.46h3.53v-.2c0-.56-.16-1-.45-1.3-.3-.31-.71-.47-1.25-.47Zm9.27.95 1.6-2.84h2.72l-2.7 4.66 2.81 4.85h-2.72l-1.7-2.99-1.69 2.99h-2.73l2.82-4.85-2.7-4.66h2.73l1.56 2.84Zm13.78 6.67h-2.54v-3.66h-3.16V163h-2.54v-9.51h2.54v3.81h3.16v-3.81h2.54V163Zm7.7-9.51h2.54V163h-2.54v-5.87l-3.18 5.87h-2.55v-9.51h2.55v5.86l3.18-5.86Zm8.21 6h-1.02V163h-2.54v-9.51h2.54v3.58h.9l2.08-3.58h3.21l-3.11 4.53 3.4 4.98h-3.38l-2.08-3.5Zm12.15-6h2.54V163h-2.54v-5.87L166.7 163h-2.55v-9.51h2.55v5.86l3.18-5.86Zm16.98 9.51h-2.54v-2.99a7.3 7.3 0 0 1-1.33.13c-1.43 0-2.52-.3-3.24-.91-.73-.61-1.1-1.5-1.1-2.67v-3.07h2.53v3.07c0 .55.14.94.4 1.18.27.24.74.36 1.41.36.42 0 .87-.05 1.33-.15v-4.46h2.54V163Zm9.84-7.47h-3.05V163h-2.55v-7.47h-3v-2.04h8.6v2.04Zm5.1 7.65c-1.4 0-2.53-.43-3.41-1.29-.87-.85-1.3-2-1.3-3.42v-.24c0-.96.17-1.81.54-2.56.37-.76.9-1.34 1.57-1.74a4.4 4.4 0 0 1 2.32-.62c1.3 0 2.32.41 3.07 1.23a4.99 4.99 0 0 1 1.12 3.5v1.03h-6.05c.08.62.32 1.12.73 1.5.42.37.94.56 1.58.56.98 0 1.74-.36 2.3-1.07l1.24 1.4c-.38.54-.9.96-1.55 1.27-.65.3-1.37.45-2.16.45Zm-.29-7.8c-.5 0-.91.16-1.23.5-.31.34-.51.83-.6 1.46h3.53v-.2c0-.56-.16-1-.45-1.3-.3-.31-.71-.47-1.25-.47Zm13.9 7.62h-2.55v-3.66h-3.16V163h-2.54v-9.51h2.54v3.81h3.16v-3.81h2.55V163Zm7.7-9.51h2.53V163h-2.53v-5.87l-3.19 5.87h-2.54v-9.51h2.54v5.86l3.19-5.86Zm12.4 0V163h-2.53v-3.29h-1.6l-1.83 3.29h-2.58l2.08-3.72c-.57-.26-1.01-.62-1.32-1.07-.3-.45-.46-.96-.46-1.54 0-.92.35-1.67 1.06-2.26a4.5 4.5 0 0 1 2.87-.92h4.31Zm-4.27 4.45h1.74v-2.41h-1.65c-.45 0-.82.12-1.1.36-.28.23-.42.52-.42.86 0 .34.14.62.4.84.28.23.62.34 1.03.35Zm16.63-4.45h2.54V163h-2.54v-5.87L244.7 163h-2.55v-9.51h2.55v5.86l3.18-5.86ZM29.91 186h-2.55v-7.45h-3.18V186h-2.54v-9.51h8.27V186Zm1.55-4.84c0-.95.18-1.79.54-2.53a4 4 0 0 1 1.57-1.7 4.6 4.6 0 0 1 2.38-.62c1.28 0 2.33.4 3.14 1.18a4.72 4.72 0 0 1 1.36 3.2l.02.65c0 1.46-.4 2.63-1.22 3.52a4.25 4.25 0 0 1-3.28 1.32 4.28 4.28 0 0 1-3.29-1.32 5.07 5.07 0 0 1-1.22-3.59v-.11Zm2.54.18c0 .9.17 1.6.5 2.08.35.47.84.7 1.47.7.61 0 1.1-.23 1.44-.7.35-.47.52-1.23.52-2.26a3.5 3.5 0 0 0-.52-2.06 1.69 1.69 0 0 0-1.46-.73c-.62 0-1.1.24-1.44.73-.34.48-.51 1.23-.51 2.24ZM50.28 186h-2.55v-3.66h-3.16V186h-2.54v-9.51h2.54v3.81h3.16v-3.81h2.55V186Zm7.7-9.51h2.54V186h-2.54v-5.87L54.79 186h-2.54v-9.51h2.54v5.86l3.19-5.86ZM68.25 183l2.49-6.51h3.18V186h-2.54v-5.84L69.1 186h-1.7l-2.23-5.74V186h-2.54v-9.51h3.15l2.47 6.51Zm13.4 3c-.12-.23-.2-.51-.26-.85a3.07 3.07 0 0 1-2.4 1.03 3.4 3.4 0 0 1-2.32-.81 2.6 2.6 0 0 1-.91-2.04c0-1.01.37-1.78 1.11-2.32a5.55 5.55 0 0 1 3.25-.82h1.16v-.54c0-.44-.11-.8-.34-1.06-.22-.26-.58-.4-1.06-.4-.43 0-.77.1-1.01.31-.24.2-.36.49-.36.85h-2.54c0-.55.17-1.06.5-1.53.35-.47.83-.84 1.45-1.1a5.2 5.2 0 0 1 2.09-.4c1.17 0 2.1.29 2.79.88.69.59 1.03 1.41 1.03 2.48v4.12c0 .9.14 1.59.38 2.05v.15h-2.56Zm-2.1-1.77c.37 0 .72-.08 1.03-.24.32-.17.55-.4.7-.68v-1.63h-.94c-1.28 0-1.95.44-2.03 1.31l-.01.15c0 .32.1.58.33.79.22.2.53.3.91.3ZM94.02 186h-2.55v-3.66h-3.16V186h-2.54v-9.51h2.54v3.81h3.16v-3.81h2.55V186Zm7.7-9.51h2.54V186h-2.54v-5.87L98.55 186H96v-9.51h2.55v5.86l3.18-5.86Zm12.4 0V186h-2.52v-3.29H110l-1.83 3.29h-2.58l2.08-3.72c-.57-.26-1-.62-1.32-1.07-.3-.45-.46-.96-.46-1.54 0-.92.36-1.67 1.07-2.26a4.5 4.5 0 0 1 2.86-.92h4.32Zm-4.26 4.45h1.74v-2.41h-1.66c-.45 0-.81.12-1.1.36-.27.23-.42.52-.42.86 0 .34.14.62.4.84.28.23.62.34 1.04.35Zm19.17 5.06h-2.55v-7.45h-3.18V186h-2.55v-9.51h8.28V186Zm10.5-4.67a5.7 5.7 0 0 1-1 3.53 3.2 3.2 0 0 1-2.7 1.32c-.95 0-1.73-.34-2.32-1v4.48h-2.54v-13.17h2.35l.1.93a2.99 2.99 0 0 1 2.4-1.1c1.17 0 2.08.43 2.73 1.3.65.86.98 2.06.98 3.58v.13Zm-2.54-.18c0-.89-.16-1.57-.48-2.05a1.52 1.52 0 0 0-1.36-.72c-.8 0-1.34.3-1.64.91v3.9c.3.62.86.94 1.66.94 1.21 0 1.82-1 1.82-2.98Zm3.72 0c0-.94.19-1.78.55-2.52a4 4 0 0 1 1.56-1.7 4.6 4.6 0 0 1 2.39-.62c1.28 0 2.32.4 3.13 1.18a4.72 4.72 0 0 1 1.37 3.2l.01.65c0 1.46-.4 2.63-1.22 3.52a4.25 4.25 0 0 1-3.28 1.32 4.28 4.28 0 0 1-3.28-1.32 5.06 5.06 0 0 1-1.22-3.59v-.11Zm2.54.2c0 .9.18 1.59.52 2.07.34.47.82.7 1.45.7.62 0 1.1-.23 1.45-.7.34-.47.51-1.23.51-2.26a3.5 3.5 0 0 0-.51-2.06 1.68 1.68 0 0 0-1.46-.73c-.63 0-1.1.24-1.44.73-.34.48-.52 1.23-.52 2.24Zm16.05 4.65h-2.54v-2.99a7.3 7.3 0 0 1-1.32.13c-1.44 0-2.52-.3-3.25-.91-.72-.61-1.1-1.5-1.1-2.67v-3.07h2.54v3.07c0 .55.14.94.4 1.18s.73.36 1.4.36c.43 0 .87-.05 1.33-.15v-4.46h2.54V186Zm7.69-9.51h2.54V186H167v-5.87L163.8 186h-2.55v-9.51h2.55v5.86l3.19-5.86Zm12.37 2.04h-3.05V186h-2.55v-7.47h-3v-2.04h8.6v2.04Zm6.65 7.47c-.11-.23-.2-.51-.25-.85a3.07 3.07 0 0 1-2.4 1.03 3.4 3.4 0 0 1-2.32-.81 2.6 2.6 0 0 1-.92-2.04c0-1.01.38-1.78 1.12-2.32a5.56 5.56 0 0 1 3.25-.82h1.16v-.54c0-.44-.11-.8-.34-1.06-.22-.26-.58-.4-1.06-.4-.43 0-.77.1-1.01.31-.24.2-.36.49-.36.85h-2.54c0-.55.17-1.06.5-1.53.35-.47.83-.84 1.45-1.1a5.2 5.2 0 0 1 2.09-.4c1.17 0 2.1.29 2.79.88.69.59 1.03 1.41 1.03 2.48v4.12c0 .9.13 1.59.38 2.05v.15h-2.57Zm-2.1-1.77c.38 0 .72-.08 1.04-.24.32-.17.55-.4.7-.68v-1.63h-.95c-1.27 0-1.94.44-2.03 1.31v.15c0 .32.1.58.33.79.22.2.53.3.91.3Zm14.49 1.77h-2.55v-3.66h-3.16V186h-2.54v-9.51h2.54v3.81h3.16v-3.81h2.55V186Zm10.21 0h-2.55v-3.66h-3.15V186h-2.54v-9.51h2.54v3.81h3.15v-3.81h2.55V186Zm1.57-4.84c0-.95.19-1.79.55-2.53a4 4 0 0 1 1.56-1.7 4.6 4.6 0 0 1 2.38-.62c1.29 0 2.33.4 3.14 1.18a4.72 4.72 0 0 1 1.37 3.2l.01.65c0 1.46-.4 2.63-1.22 3.52a4.25 4.25 0 0 1-3.28 1.32 4.28 4.28 0 0 1-3.28-1.32 5.06 5.06 0 0 1-1.23-3.59v-.11Zm2.54.18c0 .9.17 1.6.51 2.08.34.47.83.7 1.46.7.62 0 1.1-.23 1.44-.7.35-.47.52-1.23.52-2.26a3.5 3.5 0 0 0-.52-2.06 1.69 1.69 0 0 0-1.45-.73c-.63 0-1.1.24-1.45.73-.34.48-.5 1.23-.5 2.24Zm14.52-2.8h-3.94V186h-2.54v-9.51h6.47v2.06Zm.49 2.62c0-.95.18-1.79.54-2.53a4 4 0 0 1 1.57-1.7 4.6 4.6 0 0 1 2.38-.62c1.28 0 2.33.4 3.14 1.18a4.72 4.72 0 0 1 1.36 3.2l.02.65c0 1.46-.41 2.63-1.23 3.52a4.25 4.25 0 0 1-3.27 1.32 4.28 4.28 0 0 1-3.3-1.32 5.07 5.07 0 0 1-1.21-3.59v-.11Zm2.54.18c0 .9.17 1.6.5 2.08.35.47.83.7 1.47.7.61 0 1.1-.23 1.44-.7.34-.47.52-1.23.52-2.26a3.5 3.5 0 0 0-.52-2.06 1.69 1.69 0 0 0-1.46-.73c-.62 0-1.1.24-1.44.73-.34.48-.51 1.23-.51 2.24Z" fill="#fff"/><path d="M285.22 41.03c-15.35-9.09-13.38-31.89 3.3-38.21 1.43-.55 2.9-.93 4.42-1.16l90.08-13.36c26.33-3.91 46.13 23.49 34.16 47.27a32.85 32.85 0 0 1-20.45 16.85l-25.4 7.14a90.23 90.23 0 0 1-70.38-9.22l-15.73-9.31Z" fill="#0068E7"/><path d="M308.03 20.9c.48 0 .85.15 1.1.44.27.28.4.64.4 1.08 0 .45-.12.9-.38 1.32l-6.06 10.5a1.72 1.72 0 0 1-1.54.94c-.46 0-.88-.15-1.24-.46a1.5 1.5 0 0 1-.54-1.16c0-.32.1-.64.28-.96l5.14-8.78h-5c-.6 0-1.06-.12-1.34-.36-.26-.24-.4-.6-.4-1.08 0-.5.14-.86.42-1.1.28-.25.72-.38 1.32-.38h7.84Zm4.5 10.12c-1.11 0-1.66-.47-1.66-1.4 0-.92.55-1.38 1.66-1.38h3.76c.56 0 .97.12 1.24.36.28.24.42.58.42 1.02 0 .44-.14.79-.42 1.04-.27.24-.68.36-1.24.36h-3.76Zm16.54 1.06c.6 0 1.04.12 1.32.36s.42.6.42 1.08c0 .99-.58 1.48-1.74 1.48h-6.94c-1.16 0-1.74-.5-1.74-1.48 0-.48.14-.84.42-1.08.28-.24.72-.36 1.32-.36h1.62v-7.22l-1.6.94c-.22.13-.46.2-.7.2-.37 0-.7-.16-.96-.48-.26-.33-.4-.7-.4-1.1 0-.55.24-.96.7-1.24l3.2-1.86c.59-.33 1.14-.5 1.66-.5.54 0 .96.16 1.28.48.33.32.5.75.5 1.3v9.48h1.64Zm11.43 0c.6 0 1.02.12 1.3.36.3.23.44.59.44 1.08 0 .5-.14.88-.44 1.12-.28.24-.7.36-1.3.36h-7.3c-.48 0-.86-.14-1.14-.42-.28-.3-.42-.66-.42-1.1 0-.57.23-1.1.68-1.56l4.24-4.42c.88-.92 1.32-1.77 1.32-2.54 0-.45-.13-.8-.4-1.04-.25-.24-.62-.36-1.1-.36-.38 0-.74.06-1.08.18-.32.1-.69.27-1.12.48l-.4.2a7.5 7.5 0 0 0-.32.18c-.14.08-.28.14-.4.18a1.2 1.2 0 0 1-.38.06c-.33 0-.6-.15-.84-.44-.22-.3-.34-.67-.34-1.08 0-.3.04-.53.12-.72.1-.19.26-.36.5-.52a7.84 7.84 0 0 1 4.42-1.36c1 0 1.86.17 2.6.5a3.75 3.75 0 0 1 2.34 3.48c0 .81-.16 1.56-.5 2.24a9.2 9.2 0 0 1-1.66 2.24l-2.84 2.9h4.02Zm14.7-6.42c0 2.55-.31 4.5-.94 5.88a6.54 6.54 0 0 1-2.74 3.08 2.4 2.4 0 0 1-1.22.38c-.44 0-.8-.14-1.08-.42-.28-.3-.42-.65-.42-1.06 0-.33.1-.65.3-.96.2-.32.5-.6.9-.84 1.1-.75 1.66-2.55 1.66-5.42v-3.7c0-.55.14-.97.44-1.26.3-.3.71-.44 1.26-.44h7.2c.55 0 .96.15 1.26.44.3.3.46.71.46 1.26v10.7c0 .55-.17.99-.5 1.32-.33.33-.77.5-1.32.5s-.99-.16-1.32-.48a1.85 1.85 0 0 1-.48-1.34v-9.52h-3.46v1.88ZM366.48 35c-.55 0-.97-.15-1.26-.44-.3-.3-.44-.71-.44-1.26V22.6c0-.55.14-.97.44-1.26.29-.3.71-.44 1.26-.44h6.92c.57 0 1 .12 1.3.36.29.24.44.59.44 1.04 0 .96-.58 1.44-1.74 1.44h-5.04v2.68H373c1.16 0 1.74.47 1.74 1.42 0 .45-.15.8-.44 1.04-.3.24-.73.36-1.3.36h-4.64v2.92h5.04c1.16 0 1.74.48 1.74 1.44 0 .45-.15.8-.44 1.04-.3.24-.73.36-1.3.36h-6.92Zm15.54.1c-.56 0-1.01-.16-1.36-.48-.33-.33-.5-.77-.5-1.32v-9.42h-2.82c-.58 0-1.02-.12-1.32-.36-.28-.25-.42-.63-.42-1.14 0-.5.14-.88.42-1.12.3-.24.74-.36 1.32-.36h9.36c.59 0 1.02.12 1.3.36.3.24.44.61.44 1.12 0 .5-.14.89-.44 1.14-.28.24-.71.36-1.3.36h-2.82v9.42c0 .55-.17.99-.52 1.32-.33.32-.78.48-1.34.48Z" fill="#fff"/><path d="M314.1 292.68c11.84 5.91 11.84 36.98 23.55 44.23 7.27 4.5 8.02.48 4.92-37.56 0 0-46.57-34.74-47.7-20.7-1.12 14.03-18.87 61.26 0 59.89 14.85-1.08 6-52.48 19.24-45.86Z" fill="#fff" stroke="#000" stroke-width="2" stroke-linecap="round" stroke-linejoin="bevel"/><path d="M376.34 195.6c5.92-3.55 2.13 7.38.65 10.34-5.42 9.86-25.44 30.17-38.46 38.46-16.27 10.35-8.87-2.96-34.02-5.92-25.15-2.96-36.98 36.98-42.9 22.19-2.84-7.09 11.83-28.11 22.19-38.47a59.77 59.77 0 0 1 12.65-9.45c10.36-11.25 15.47-6.81 19.24-6.81 2.8 0 7.4-4.44 16.27 5.91 8.3 2.38 13.07 2.46 17.75.9 8.88-2.96 19.23-12.72 26.63-17.15Z" fill="#fff" stroke="#000" stroke-width="2"/><path d="m324.82 327.46 23.67-2.96c0-11.83-4.03-39-5.92-56.21-24.22 6.92-24.02 5.16-54.74 4.44-2.95 17.75-7.4 39.94-4.43 51.77l22.19 4.44s-1.37-33.5 5.91-34.02c7.5-.55 13.32 32.54 13.32 32.54Z" fill="#FDB833" stroke="#000" stroke-width="2" stroke-linejoin="round"/><path d="M361.6 226.21c-5.8-9.26-8.1-16.21-8.1-16.21-5.8 5.2-16.22 5.2-21.44 2.07-18.48 13.49-36.48 1.4-36.48 1.4-14.48 4.06-24.9 22.59-24.9 22.59s8.1 2.9 10.42 11.58c12.74-8.1 3.65 29.48 2.3 36.92l62.13-4.44c-1.48-7.4-13.47-34.22 16.07-53.9Z" fill="#3790E1" stroke="#000" stroke-width="2" stroke-linecap="round" stroke-linejoin="round"/><path d="M351.38 196.09c10.7 4.56 17.11-14.9 5.34-16.06 3.21-21.76-14-36.46-36.37-38.94-31.02-3.44-47.07 9.16-44.93 40.1-13.9 2.28-4.28 20.6 3.2 13.74 7.5 24.06 68.48 18.33 72.76 1.16Z" fill="#F3DAC4"/><path d="M351.38 196.09c10.7 4.56 17.11-14.9 5.34-16.06 3.21-21.76-14-36.46-36.37-38.94-31.02-3.44-47.07 9.16-44.93 40.1-13.9 2.28-4.28 20.6 3.2 13.74 7.5 24.06 68.48 18.33 72.76 1.16Z" fill="url(#b)"/><path d="M351.38 196.09c10.7 4.56 17.11-14.9 5.34-16.06 3.21-21.76-14-36.46-36.37-38.94-31.02-3.44-47.07 9.16-44.93 40.1-13.9 2.28-4.28 20.6 3.2 13.74 7.5 24.06 68.48 18.33 72.76 1.16Z" stroke="#000" stroke-width="2" stroke-linecap="round" stroke-linejoin="round"/><path d="M333.6 185.72c0 1.62 1.21 2.93 2.7 2.93 1.5 0 2.71-1.31 2.71-2.94 0-1.62-1.2-2.93-2.7-2.93-1.5 0-2.7 1.31-2.7 2.94ZM295.73 185.72c0 1.62 1.21 2.93 2.7 2.93 1.5 0 2.71-1.31 2.71-2.94 0-1.62-1.2-2.93-2.7-2.93-1.5 0-2.7 1.31-2.7 2.94Z" fill="#46E9E9"/><path d="M333.6 185.72c0 1.62 1.21 2.93 2.7 2.93 1.5 0 2.71-1.31 2.71-2.94 0-1.62-1.2-2.93-2.7-2.93-1.5 0-2.7 1.31-2.7 2.94ZM295.73 185.72c0 1.62 1.21 2.93 2.7 2.93 1.5 0 2.71-1.31 2.71-2.94 0-1.62-1.2-2.93-2.7-2.93-1.5 0-2.7 1.31-2.7 2.94Z" stroke="#000" stroke-width="2" stroke-linecap="round" stroke-linejoin="round"/><path d="M318.74 161.84c-3.63-4.44 17-17.23 7.53-15.06-9.46 2.17-7.24 10.46-16.8 11.15-6.02.43-2.18-4.02-8.1 1.1-5.92 5.13 0-12.25-5.8-12.25-5.66 0-4.49 15.63-9.26 23.26-2.28 3.65-2.91 10.77-7.35 7.8-4.44-2.95-4.24-2.72-7.7-5.49-6.95-5.55-10.43-18.03-9.85-22.68 1.48-11.83 15.24 9.52 14.48 8.26-4.44-7.4-4.96-21.25 1.74-27.95 5.91-5.91 2.8 16.8 5.77 13.84 2.96-2.96 2.57-24.27 12.18-25.42 6.6-.79.45 20.3 1.93 17.34 1.48-2.96 7.15-21.13 16.02-19.66 8.88 1.48-4.05 19.65 1.73 19.66 2.96 0 6.73-18.5 12.52-19.65 6.15-1.23-2.47 16.21 1.97 16.21 7.92 0 11-14.48 16.21-12.16 4.88 2.17-9.89 11-2.9 15.6 2.86 1.86 17.06-14.72 18.54-7.4.9 4.44-4.66 7.4 6.37 7.4 9.6 0-4.9 12.6-6.37 16.34-1.72 4.35 6.12 4 3.16 6.95-2.96 2.96 1.02 8.91-3.16 11-2.96 1.49-2.32 2.84-2.32 5.8s-4.5-2-10.42-3.48c-5.92-1.47.15-13.44-2.9-16.3-9.84-9.27-23.58 10.22-27.22 5.79Z" fill="#D35932" stroke="#000" stroke-width="2"/><path d="M310.06 196.68c4.17 4.51 12.3 1.25 13.9 0" stroke="#000" stroke-width="2" stroke-linecap="round" stroke-linejoin="round"/><path d="M352.28 149h51.82v9.96h-51.82V149Z" fill="#FB2424" stroke="#000" stroke-width="2"/><path d="M354.89 158.96h43.25v9.96h-43.25v-9.96ZM384.67 149h4.47v9.96h-4.47V149Z" fill="#fff" stroke="#000" stroke-width="2"/><path d="M361.6 158.96h4.47v9.96h-4.47v-9.96Z" fill="#fff" stroke="#000" stroke-width="2"/><path d="M359.36 168.92h43.25v9.96h-43.25v-9.96Z" fill="#4751AD" stroke="#000" stroke-width="2"/><path d="M349.67 178.88h48.47v7.25h-48.47v-7.25Z" fill="#fff" stroke="#000" stroke-width="2"/><path d="M354.89 186.13h48.47v12.68h-48.47v-12.68Z" fill="#880F0F" stroke="#000" stroke-width="2"/><path d="M392.17 168.92h2.24v9.96h-2.24v-9.96ZM356.38 178.88h16.4v4.53h-16.4v-4.53Z" fill="#fff" stroke="#000" stroke-width="2"/><path d="m291.52 248.13-12.16-39.38-4.63-4.05-25.48 8.1-4.63-15.05h-6.95l3.47 17.37 24.9 42.86 25.48-9.85Z" fill="#fff"/><path d="m252.72 215.12 26.64-6.37m0 0 12.16 39.38-25.48 9.85-24.9-42.86-3.47-17.37h6.95l4.63 15.05 25.48-8.1 4.63 4.05Z" stroke="#000" stroke-width="2"/><path d="m266.04 257.98-13.32-42.86h-11.58l16.22 40.54 8.68 2.32Z" fill="#EC1C1C" stroke="#000" stroke-width="2"/></g><defs><radialGradient id="b" cx="0" cy="0" r="1" gradientUnits="userSpaceOnUse" gradientTransform="matrix(38.46185 -26.62738 28.67824 41.4242 312.73 184.4)"><stop stop-color="#fff" stop-opacity="0"/><stop offset="1" stop-color="#F5BD99"/></radialGradient><clipPath id="a"><rect x=".67" width="393.33" height="280" rx="16" fill="#fff"/></clipPath></defs></svg>