<svg width="394" height="280" fill="none" xmlns="http://www.w3.org/2000/svg"><g clip-path="url(#a)"><rect x=".33" width="393.33" height="280" rx="16" fill="#43D6F6"/><path d="M40.7 76.7c.76 0 1.38.25 1.86.75.48.5.72 1.15.72 1.95v16.32c0 .76-.22 1.36-.66 1.8-.44.44-1.02.66-1.74.66-.7 0-1.28-.22-1.74-.66a2.43 2.43 0 0 1-.66-1.8V86.9l-3.42 6.3c-.34.64-.7 1.1-1.08 1.38-.38.26-.83.39-1.35.39-.52 0-.97-.13-1.35-.39a4.04 4.04 0 0 1-1.08-1.38l-3.39-6.12v8.64c0 .74-.23 1.34-.69 1.8-.44.44-1.02.66-1.74.66-.7 0-1.28-.22-1.74-.66a2.43 2.43 0 0 1-.66-1.8V79.4c0-.8.24-1.45.72-1.95.5-.5 1.13-.75 1.89-.75.54 0 1.03.16 1.47.48.44.3.81.74 1.11 1.32l5.52 10.38 5.49-10.38c.62-1.2 1.46-1.8 2.52-1.8Zm26.66 17.91c.18.38.27.75.27 1.11 0 .66-.27 1.22-.8 1.68-.53.46-1.13.69-1.8.69a2.31 2.31 0 0 1-2.17-1.44l-1.35-3.03H51.8l-1.38 3.03a2.36 2.36 0 0 1-2.19 1.44c-.68 0-1.3-.23-1.86-.69a2.13 2.13 0 0 1-.8-1.68c0-.36.08-.73.26-1.11l7.92-16.26c.26-.54.64-.95 1.14-1.23a3.36 3.36 0 0 1 3.4 0c.51.28.9.69 1.16 1.23l7.92 16.26Zm-13.7-5.13h6l-3-6.69-3 6.69Zm21.02 8.67c-.84 0-1.52-.24-2.04-.72-.5-.5-.75-1.16-.75-1.98V81.32h-4.23c-.88 0-1.54-.18-1.98-.54-.42-.38-.63-.95-.63-1.71s.21-1.32.63-1.68c.44-.36 1.1-.54 1.98-.54H81.7c.88 0 1.53.18 1.95.54.44.36.66.92.66 1.68 0 .76-.22 1.33-.66 1.71-.42.36-1.07.54-1.95.54h-4.23v14.13c0 .82-.26 1.48-.78 1.98-.5.48-1.17.72-2 .72ZM88.57 98c-.82 0-1.45-.22-1.9-.66-.43-.44-.65-1.07-.65-1.89V79.4c0-.82.22-1.45.66-1.89.44-.44 1.07-.66 1.89-.66h10.38c.86 0 1.5.18 1.95.54.44.36.66.88.66 1.56 0 1.44-.87 2.16-2.61 2.16h-7.56v4.02h6.96c1.74 0 2.6.71 2.6 2.13 0 .68-.21 1.2-.65 1.56-.44.36-1.1.54-1.95.54h-6.96v4.38h7.56c1.74 0 2.6.72 2.6 2.16 0 .68-.21 1.2-.65 1.56-.44.36-1.1.54-1.95.54H88.57Zm34.07-21.3c.76 0 1.38.25 1.86.75.48.5.72 1.15.72 1.95v16.32c0 .76-.22 1.36-.66 1.8-.44.44-1.02.66-1.74.66-.7 0-1.28-.22-1.74-.66a2.43 2.43 0 0 1-.66-1.8V86.9L117 93.2c-.34.64-.7 1.1-1.08 1.38-.38.26-.83.39-1.35.39-.52 0-.97-.13-1.35-.39a4.04 4.04 0 0 1-1.08-1.38l-3.4-6.12v8.64c0 .74-.22 1.34-.68 1.8-.44.44-1.02.66-1.74.66-.7 0-1.28-.22-1.74-.66a2.43 2.43 0 0 1-.66-1.8V79.4c0-.8.24-1.45.72-1.95.5-.5 1.13-.75 1.89-.75.54 0 1.03.16 1.47.48.44.3.8.74 1.1 1.32l5.53 10.38 5.49-10.38c.62-1.2 1.46-1.8 2.52-1.8Zm26.66 17.91c.18.38.27.75.27 1.11 0 .66-.27 1.22-.8 1.68-.53.46-1.13.69-1.8.69a2.31 2.31 0 0 1-2.17-1.44l-1.35-3.03h-9.72l-1.38 3.03a2.36 2.36 0 0 1-2.19 1.44c-.68 0-1.3-.23-1.86-.69a2.13 2.13 0 0 1-.8-1.68c0-.36.08-.73.26-1.11l7.92-16.26c.26-.54.64-.95 1.14-1.23a3.36 3.36 0 0 1 3.4 0c.51.28.9.69 1.16 1.23l7.92 16.26Zm-13.7-5.13h6l-3-6.69-3 6.69Zm21.02 8.67c-.84 0-1.52-.24-2.04-.72-.5-.5-.75-1.16-.75-1.98V81.32h-4.23c-.88 0-1.54-.18-1.98-.54-.42-.38-.63-.95-.63-1.71s.21-1.32.63-1.68c.44-.36 1.1-.54 1.98-.54h14.04c.88 0 1.53.18 1.95.54.44.36.66.92.66 1.68 0 .76-.22 1.33-.66 1.71-.42.36-1.07.54-1.95.54h-4.23v14.13c0 .82-.26 1.48-.78 1.98-.5.48-1.17.72-2.01.72Zm24.56-19.74c.47-.66.92-1.11 1.38-1.35.48-.26 1.2-.39 2.16-.39.82 0 1.46.22 1.9.66.44.42.66 1.04.66 1.86v16.26c0 .82-.25 1.48-.75 1.98-.49.5-1.13.75-1.96.75-.81 0-1.47-.24-1.97-.72a2.78 2.78 0 0 1-.72-2.01V84.71l-7.35 11.07c-.49.68-.93 1.2-1.32 1.56-.39.34-.78.56-1.2.66-.4.12-.9.18-1.5.18-.82 0-1.45-.21-1.9-.63-.44-.44-.66-1.07-.66-1.89V79.4c0-.82.25-1.48.73-1.98.5-.5 1.16-.75 1.97-.75.82 0 1.47.25 1.95.75.5.48.75 1.14.75 1.98v10.71l7.84-11.7Zm12.59 19.77c-.82 0-1.48-.24-1.98-.72a2.78 2.78 0 0 1-.72-2.01V79.4c0-.82.24-1.48.72-1.98.5-.5 1.16-.75 1.98-.75.82 0 1.47.25 1.95.75.5.48.75 1.14.75 1.98v5.67h1.59l6.06-7.35a2.5 2.5 0 0 1 1.98-1.02c.62 0 1.16.23 1.62.69.48.44.72.96.72 1.56 0 .6-.22 1.15-.66 1.65l-4.74 5.58c.74.34 1.3.67 1.7.99.4.32.77.72 1.09 1.2.32.46.8 1.25 1.44 2.37l1.86 3.33c.28.48.42.98.42 1.5 0 .72-.26 1.33-.78 1.83s-1.12.75-1.8.75c-.96 0-1.72-.49-2.28-1.47l-2.76-5.04a4.66 4.66 0 0 0-1.38-1.71 4.06 4.06 0 0 0-2.22-.48h-1.86v6c0 .82-.25 1.48-.75 1.98-.48.5-1.13.75-1.95.75Zm39.34-3.57c.18.38.27.75.27 1.11 0 .66-.27 1.22-.8 1.68-.53.46-1.13.69-1.8.69a2.31 2.31 0 0 1-2.17-1.44l-1.35-3.03h-9.72l-1.38 3.03a2.36 2.36 0 0 1-2.19 1.44c-.68 0-1.3-.23-1.86-.69a2.13 2.13 0 0 1-.8-1.68c0-.36.08-.73.26-1.11l7.92-16.26c.26-.54.64-.95 1.14-1.23a3.36 3.36 0 0 1 3.4 0c.51.28.9.69 1.16 1.23l7.92 16.26Zm-13.7-5.13h6l-3-6.69-3 6.69ZM35.14 119.41c.46-.66.92-1.11 1.38-1.35.48-.26 1.2-.39 2.16-.39.82 0 1.45.22 1.89.66.44.42.66 1.04.66 1.86v16.26c0 .82-.25 1.48-.75 1.98-.48.5-1.13.75-1.95.75-.82 0-1.48-.24-1.98-.72a2.78 2.78 0 0 1-.72-2.01v-10.74l-7.35 11.07c-.48.68-.92 1.2-1.32 1.56-.38.34-.78.56-1.2.66-.4.12-.9.18-1.5.18-.82 0-1.45-.21-1.89-.63-.44-.44-.66-1.07-.66-1.89V120.4c0-.82.24-1.48.72-1.98.5-.5 1.16-.75 1.98-.75.82 0 1.47.25 1.95.75.5.48.75 1.14.75 1.98v10.71l7.83-11.7Zm26.63 5.58c0 3.82-.47 6.76-1.41 8.82a9.8 9.8 0 0 1-4.11 4.62 3.6 3.6 0 0 1-1.83.57 2.2 2.2 0 0 1-1.62-.63 2.22 2.22 0 0 1-.63-1.59c0-.5.15-.98.45-1.44.3-.48.75-.9 1.35-1.26 1.66-1.12 2.49-3.83 2.49-8.13v-5.55c0-.82.22-1.45.66-1.89.44-.44 1.07-.66 1.89-.66h10.8c.82 0 1.45.22 1.89.66.46.44.69 1.07.69 1.89v16.05c0 .82-.25 1.48-.75 1.98s-1.16.75-1.98.75c-.82 0-1.48-.24-1.98-.72a2.78 2.78 0 0 1-.72-2.01v-14.28h-5.2v2.82Zm24.41 14.28c-2.16 0-4.04-.44-5.64-1.32a9.25 9.25 0 0 1-3.66-3.78 12.23 12.23 0 0 1-1.29-5.76c0-2.2.43-4.11 1.3-5.73a9.02 9.02 0 0 1 3.65-3.78c1.6-.88 3.48-1.32 5.64-1.32 2.16 0 4.03.44 5.61 1.32a8.79 8.79 0 0 1 3.66 3.78 12.05 12.05 0 0 1 1.3 5.73c0 2.2-.44 4.12-1.3 5.76a9.2 9.2 0 0 1-3.69 3.78 11.29 11.29 0 0 1-5.58 1.32Zm0-4.23c1.6 0 2.85-.56 3.75-1.68.9-1.14 1.35-2.79 1.35-4.95s-.46-3.8-1.38-4.92a4.51 4.51 0 0 0-3.72-1.68c-1.6 0-2.85.56-3.75 1.68-.9 1.1-1.35 2.74-1.35 4.92 0 2.18.45 3.83 1.35 4.95a4.54 4.54 0 0 0 3.75 1.68Zm16.47 4.14c-.82 0-1.48-.24-1.98-.72a2.78 2.78 0 0 1-.72-2.01V120.4c0-.76.23-1.37.7-1.83.47-.48 1.1-.72 1.85-.72h10.38c.8 0 1.4.19 1.77.57.4.38.6.9.6 1.56 0 .68-.2 1.22-.6 1.62-.38.38-.97.57-1.77.57h-7.53v14.28c0 .82-.25 1.48-.75 1.98-.48.5-1.13.75-1.95.75Zm28.1-19.77c.47-.66.93-1.11 1.39-1.35.48-.26 1.2-.39 2.16-.39.82 0 1.45.22 1.89.66.44.42.66 1.04.66 1.86v16.26c0 .82-.25 1.48-.75 1.98-.48.5-1.13.75-1.95.75-.82 0-1.48-.24-1.98-.72a2.78 2.78 0 0 1-.72-2.01v-10.74l-7.35 11.07c-.48.68-.92 1.2-1.32 1.56-.38.34-.78.56-1.2.66-.4.12-.9.18-1.5.18-.82 0-1.45-.21-1.9-.63-.43-.44-.65-1.07-.65-1.89V120.4c0-.82.24-1.48.72-1.98.5-.5 1.16-.75 1.98-.75.82 0 1.47.25 1.95.75.5.48.75 1.14.75 1.98v10.71l7.83-11.7Zm12.6 19.77c-.83 0-1.49-.24-1.99-.72a2.78 2.78 0 0 1-.72-2.01V120.4c0-.82.24-1.48.72-1.98.5-.5 1.16-.75 1.98-.75.82 0 1.47.25 1.95.75.5.48.75 1.14.75 1.98v5.67h1.6l6.05-7.35a2.5 2.5 0 0 1 1.98-1.02c.62 0 1.16.23 1.62.69.48.44.72.96.72 1.56 0 .6-.22 1.15-.66 1.65l-4.74 5.58c.74.34 1.31.67 1.71.99.4.32.76.72 1.08 1.2.32.46.8 1.25 1.44 2.37l1.86 3.33c.28.48.42.98.42 1.5 0 .72-.26 1.33-.78 1.83s-1.12.75-1.8.75c-.96 0-1.72-.49-2.28-1.47l-2.76-5.04a4.66 4.66 0 0 0-1.38-1.71 4.06 4.06 0 0 0-2.22-.48h-1.86v6c0 .82-.25 1.48-.75 1.98-.48.5-1.13.75-1.95.75Zm39.34-3.57c.18.38.27.75.27 1.11 0 .66-.27 1.22-.81 1.68-.52.46-1.12.69-1.8.69a2.31 2.31 0 0 1-2.16-1.44l-1.35-3.03h-9.72l-1.38 3.03a2.36 2.36 0 0 1-2.2 1.44c-.67 0-1.3-.23-1.85-.69a2.13 2.13 0 0 1-.81-1.68c0-.36.09-.73.27-1.11l7.92-16.26c.26-.54.64-.95 1.14-1.23a3.36 3.36 0 0 1 3.39 0c.52.28.9.69 1.17 1.23l7.92 16.26Zm-13.71-5.13h6l-3-6.69-3 6.69ZM31.56 182h-2.64v-5.48h-5.14V182h-2.64v-12.8h2.64v5.19h5.14v-5.19h2.64V182Zm7.65 0c-.11-.23-.2-.51-.25-.85a3.07 3.07 0 0 1-2.4 1.03 3.4 3.4 0 0 1-2.32-.81 2.6 2.6 0 0 1-.92-2.04c0-1.01.38-1.78 1.12-2.32a5.55 5.55 0 0 1 3.24-.82h1.17v-.54c0-.44-.11-.8-.34-1.06-.22-.26-.58-.4-1.06-.4-.43 0-.77.1-1.01.31-.24.2-.36.49-.36.85h-2.54c0-.55.17-1.06.5-1.53.34-.47.83-.84 1.45-1.1a5.2 5.2 0 0 1 2.09-.4c1.17 0 2.1.29 2.78.88.7.59 1.04 1.41 1.04 2.48v4.12c0 .9.13 1.59.38 2.05v.15H39.2Zm-2.1-1.77c.38 0 .72-.08 1.04-.24.32-.17.55-.4.7-.68v-1.63h-.95c-1.27 0-1.94.44-2.03 1.31v.15c0 .32.1.58.33.79.22.2.53.3.91.3Zm9.65-1.82 1.76-5.92h2.73l-3.83 10.99-.2.5c-.58 1.24-1.51 1.86-2.82 1.86a4 4 0 0 1-1.13-.17v-1.92h.39c.48 0 .84-.06 1.07-.21.24-.15.43-.4.56-.73l.3-.78-3.33-9.54H45l1.76 5.91Zm13.5 3.59h-2.54v-2.99a7.3 7.3 0 0 1-1.32.13c-1.44 0-2.52-.3-3.25-.91-.72-.61-1.1-1.5-1.1-2.67v-3.07h2.54v3.07c0 .55.14.94.4 1.18s.73.36 1.4.36c.43 0 .87-.05 1.33-.15v-4.46h2.54V182Zm7.68-9.51h2.54V182h-2.54v-5.87L64.76 182h-2.55v-9.51h2.55v5.86l3.18-5.86ZM78.22 179l2.49-6.51h3.18V182h-2.54v-5.84L79.07 182h-1.7l-2.24-5.74V182H72.6v-9.51h3.16l2.47 6.51Zm16.32 1.13c.47 0 .85-.13 1.14-.39.3-.26.45-.6.46-1.03h2.38c0 .65-.18 1.24-.53 1.78-.34.53-.82.95-1.42 1.25-.6.29-1.26.44-1.99.44a4.14 4.14 0 0 1-3.21-1.3 5.15 5.15 0 0 1-1.18-3.58v-.17c0-1.46.39-2.63 1.17-3.5a4.08 4.08 0 0 1 3.2-1.32c1.2 0 2.15.34 2.86 1.02a3.57 3.57 0 0 1 1.1 2.7h-2.38c-.01-.49-.16-.89-.46-1.2-.29-.3-.68-.46-1.16-.46-.59 0-1.04.22-1.34.65-.3.43-.45 1.13-.45 2.1v.26c0 .97.15 1.68.45 2.1.3.43.75.65 1.36.65Zm13.45 1.87h-2.54v-2.99a7.3 7.3 0 0 1-1.33.13c-1.44 0-2.52-.3-3.24-.91-.73-.61-1.1-1.5-1.11-2.67v-3.07h2.54v3.07c0 .55.14.94.4 1.18.27.24.74.36 1.41.36.42 0 .86-.05 1.33-.15v-4.46h2.54V182Zm7.68-9.51h2.54V182h-2.54v-5.87l-3.18 5.87h-2.55v-9.51h2.55v5.86l3.18-5.86Zm12.37 2.04H125V182h-2.55v-7.47h-3v-2.04h8.6v2.04Zm6.66 7.47c-.12-.23-.2-.51-.26-.85a3.07 3.07 0 0 1-2.4 1.03 3.4 3.4 0 0 1-2.32-.81 2.6 2.6 0 0 1-.91-2.04c0-1.01.37-1.78 1.12-2.32a5.55 5.55 0 0 1 3.24-.82h1.17v-.54c0-.44-.12-.8-.35-1.06-.22-.26-.57-.4-1.06-.4-.43 0-.76.1-1.01.31-.24.2-.36.49-.36.85h-2.54c0-.55.17-1.06.5-1.53.35-.47.83-.84 1.45-1.1a5.2 5.2 0 0 1 2.1-.4c1.16 0 2.1.29 2.78.88.69.59 1.04 1.41 1.04 2.48v4.12c0 .9.13 1.59.37 2.05v.15h-2.56Zm-2.1-1.77c.37 0 .72-.08 1.03-.24.32-.17.56-.4.7-.68v-1.63h-.94c-1.27 0-1.95.44-2.03 1.31l-.01.15c0 .32.11.58.33.79.22.2.53.3.92.3Zm13.99-5.7h-3.05V182h-2.55v-7.47h-3v-2.04h8.6v2.04Zm4 .75h1.82c.82 0 1.54.13 2.16.4a3.15 3.15 0 0 1 1.92 2.98 3 3 0 0 1-1.11 2.43c-.74.6-1.75.91-3.03.91h-4.31v-9.51h2.55v2.79Zm0 2.03v2.66h1.8c.5 0 .89-.12 1.16-.35.27-.24.4-.56.4-.96 0-.41-.13-.73-.4-.97-.26-.25-.65-.38-1.16-.38h-1.8Zm16.54-4.3c1.22 0 2.19.41 2.92 1.22.72.8 1.09 1.9 1.09 3.3v.12c0 1.37-.4 2.47-1.22 3.3-.8.82-1.9 1.24-3.26 1.24a4.23 4.23 0 0 1-3.28-1.34 5.24 5.24 0 0 1-1.2-3.65v-.42c0-2.14.36-3.81 1.07-5.02a4.76 4.76 0 0 1 3.22-2.3 4.49 4.49 0 0 0 1.45-.48.8.8 0 0 0 .33-.67h2.05c0 .92-.25 1.6-.75 2.07a5.5 5.5 0 0 1-2.63 1.07c-.75.16-1.34.45-1.78.9a3.5 3.5 0 0 0-.88 1.84 3.97 3.97 0 0 1 2.87-1.17Zm-.48 2.06c-.6 0-1.08.2-1.43.61-.34.4-.5 1.06-.5 1.97 0 .8.16 1.43.5 1.85.33.43.81.64 1.44.64.62 0 1.1-.21 1.43-.63.33-.41.5-1.03.5-1.83v-.22c0-.77-.17-1.37-.51-1.77a1.76 1.76 0 0 0-1.43-.62Zm8.72.2h1.82c.82 0 1.54.14 2.16.42a3.14 3.14 0 0 1 1.93 2.97 3 3 0 0 1-1.12 2.43c-.73.6-1.74.91-3.02.91h-4.32v-9.51h2.55v2.79Zm9.95 6.73h-2.54v-9.51h2.54V182Zm-9.95-4.69v2.66h1.8c.5 0 .9-.12 1.17-.35.26-.24.4-.56.4-.96 0-.41-.13-.73-.4-.97-.26-.25-.65-.38-1.16-.38h-1.8Zm16.15 2.82c.47 0 .85-.13 1.14-.39.3-.26.45-.6.46-1.03h2.38c0 .65-.18 1.24-.53 1.78-.34.53-.82.95-1.42 1.25-.6.29-1.26.44-1.99.44a4.14 4.14 0 0 1-3.21-1.3 5.15 5.15 0 0 1-1.18-3.58v-.17c0-1.46.39-2.63 1.17-3.5a4.08 4.08 0 0 1 3.2-1.32c1.2 0 2.15.34 2.86 1.02a3.57 3.57 0 0 1 1.1 2.7h-2.38c-.01-.49-.17-.89-.46-1.2-.3-.3-.68-.46-1.16-.46-.6 0-1.04.22-1.34.65-.3.43-.45 1.13-.45 2.1v.26c0 .97.15 1.68.45 2.1.3.43.75.65 1.36.65Zm13.32-5.6h-3.05V182h-2.55v-7.47h-3v-2.04h8.6v2.04Zm9.85 2.8a5.7 5.7 0 0 1-1 3.53 3.2 3.2 0 0 1-2.7 1.32c-.96 0-1.73-.34-2.32-1v4.48h-2.54v-13.17h2.35l.09.93a2.99 2.99 0 0 1 2.4-1.1c1.18 0 2.1.43 2.74 1.3.65.86.98 2.06.98 3.58v.13Zm-2.54-.18c0-.89-.16-1.57-.48-2.05a1.52 1.52 0 0 0-1.36-.72c-.8 0-1.34.3-1.64.91v3.9c.3.62.86.94 1.66.94 1.21 0 1.82-1 1.82-2.98Zm3.72 0c0-.94.19-1.78.55-2.52a4 4 0 0 1 1.56-1.7 4.6 4.6 0 0 1 2.38-.62c1.29 0 2.33.4 3.14 1.18a4.72 4.72 0 0 1 1.36 3.2l.02.65c0 1.46-.4 2.63-1.22 3.52a4.25 4.25 0 0 1-3.28 1.32 4.28 4.28 0 0 1-3.28-1.32 5.06 5.06 0 0 1-1.23-3.59v-.11Zm2.54.2c0 .9.17 1.59.51 2.07.34.47.83.7 1.46.7.62 0 1.1-.23 1.44-.7.35-.47.52-1.23.52-2.26a3.5 3.5 0 0 0-.52-2.06 1.68 1.68 0 0 0-1.46-.73c-.62 0-1.1.24-1.44.73-.34.48-.5 1.23-.5 2.24ZM25.7 196.01c1.21 0 2.19.4 2.91 1.21.73.8 1.1 1.9 1.1 3.3v.12a4.5 4.5 0 0 1-1.22 3.3c-.8.82-1.9 1.24-3.26 1.24a4.23 4.23 0 0 1-3.28-1.34 5.25 5.25 0 0 1-1.21-3.65v-.42c.01-2.14.37-3.81 1.08-5.02a4.76 4.76 0 0 1 3.22-2.3 4.49 4.49 0 0 0 1.45-.48.8.8 0 0 0 .32-.67h2.06c0 .92-.25 1.6-.75 2.07-.5.46-1.37.82-2.64 1.07-.75.16-1.34.45-1.77.9a3.5 3.5 0 0 0-.88 1.84 3.98 3.98 0 0 1 2.87-1.17Zm-.49 2.05c-.6 0-1.08.2-1.42.61-.34.4-.51 1.06-.51 1.97 0 .8.17 1.43.5 1.85.33.43.82.64 1.45.64.61 0 1.09-.21 1.42-.63.34-.41.5-1.03.51-1.83v-.22c0-.77-.17-1.37-.52-1.77a1.76 1.76 0 0 0-1.43-.62Zm10.4 7.1c-1.4 0-2.54-.42-3.42-1.28-.87-.85-1.3-2-1.3-3.42v-.24c0-.96.18-1.81.54-2.56.37-.76.9-1.34 1.57-1.74a4.4 4.4 0 0 1 2.32-.62c1.3 0 2.32.41 3.07 1.23a4.99 4.99 0 0 1 1.12 3.5v1.03h-6.05c.08.62.32 1.12.73 1.5.42.37.94.56 1.58.56.98 0 1.74-.36 2.3-1.07l1.24 1.4c-.38.54-.9.96-1.55 1.27-.65.3-1.37.45-2.16.45Zm-.3-7.8c-.5 0-.91.17-1.23.51-.31.34-.51.83-.6 1.46h3.54v-.2c-.02-.56-.17-1-.46-1.3-.3-.31-.71-.47-1.25-.47Zm10.64.92c0-.33-.1-.59-.33-.77a1.38 1.38 0 0 0-.93-.28c-.42 0-.76.09-1.02.26a.82.82 0 0 0-.39.73h-2.54c0-.86.36-1.56 1.07-2.1.72-.54 1.63-.8 2.75-.8 1.22 0 2.18.23 2.88.71.7.48 1.05 1.17 1.05 2.05 0 .42-.12.81-.38 1.17-.25.35-.61.63-1.07.84 1.08.39 1.62 1.12 1.62 2.21 0 .87-.37 1.57-1.12 2.1-.75.5-1.74.77-2.98.77-1.16 0-2.1-.27-2.85-.81a2.55 2.55 0 0 1-1.12-2.18h2.54c0 .32.15.58.43.78.3.2.67.3 1.13.3.45 0 .8-.1 1.05-.32.26-.2.38-.48.38-.82 0-.42-.12-.72-.36-.9-.24-.17-.6-.26-1.08-.26H43.3v-1.66h1.47c.79-.02 1.18-.36 1.18-1.02Zm12.47 3.2H57.4V205h-2.54v-9.51h2.54v3.58h.9l2.08-3.58h3.2l-3.1 4.53 3.4 4.98h-3.39l-2.07-3.5ZM70.34 205c-.11-.23-.2-.51-.25-.85a3.07 3.07 0 0 1-2.4 1.03 3.4 3.4 0 0 1-2.32-.81 2.6 2.6 0 0 1-.91-2.04c0-1.01.37-1.78 1.11-2.32a5.55 5.55 0 0 1 3.24-.82h1.17v-.54c0-.44-.11-.8-.34-1.06-.22-.26-.58-.4-1.06-.4-.43 0-.77.1-1.01.31-.24.2-.36.49-.36.85h-2.54c0-.55.17-1.06.5-1.53.35-.47.83-.84 1.45-1.1a5.2 5.2 0 0 1 2.09-.4c1.17 0 2.1.29 2.79.88.69.59 1.03 1.41 1.03 2.48v4.12c0 .9.13 1.59.38 2.05v.15h-2.57Zm-2.1-1.77c.38 0 .72-.08 1.04-.24.32-.17.55-.4.7-.68v-1.63h-.95c-1.27 0-1.94.44-2.03 1.31v.15c0 .32.1.58.33.79.22.2.53.3.91.3Zm14.51-7.74V205h-2.54v-7.45h-2.24l-.16 2.93c-.1 1.57-.4 2.7-.92 3.42-.51.72-1.28 1.08-2.3 1.1h-.86l-.03-2.06.32-.03c.45-.04.79-.3 1-.81.21-.5.34-1.36.4-2.58l.17-4.03h7.16Zm4.68 2.79h1.82c.82 0 1.54.13 2.16.4a3.15 3.15 0 0 1 1.93 2.98 3 3 0 0 1-1.12 2.43c-.74.6-1.75.91-3.02.91h-4.32v-9.51h2.55v2.79Zm0 2.03v2.66h1.8c.5 0 .9-.12 1.16-.35.27-.24.4-.56.4-.96 0-.41-.13-.73-.39-.97-.26-.25-.65-.38-1.17-.38h-1.8Zm11.07 1.18h-1.02V205h-2.54v-9.51h2.54v3.58h.9l2.08-3.58h3.2l-3.1 4.53 3.4 4.98h-3.4l-2.06-3.5Zm9.96-.09 1.76-5.91h2.72l-3.82 10.99-.21.5c-.57 1.24-1.5 1.86-2.81 1.86-.37 0-.75-.06-1.13-.17v-1.92h.39c.48 0 .84-.06 1.07-.21.24-.15.43-.4.56-.73l.3-.78-3.33-9.54h2.73l1.77 5.91Zm13.39-5.91V205h-2.54v-7.45h-2.24l-.16 2.93c-.1 1.57-.4 2.7-.92 3.42-.52.72-1.29 1.08-2.3 1.1h-.87l-.02-2.06.31-.03c.46-.04.8-.3 1-.81.21-.5.35-1.36.4-2.58l.17-4.03h7.17Zm9.89 0V205h-2.54v-3.29h-1.6l-1.83 3.29h-2.58l2.08-3.72c-.57-.26-1.01-.62-1.32-1.07-.3-.45-.46-.96-.46-1.54 0-.92.36-1.67 1.07-2.26a4.5 4.5 0 0 1 2.86-.92h4.32Zm-4.28 4.45h1.74v-2.41h-1.65c-.45 0-.82.12-1.1.36-.28.23-.42.52-.42.86 0 .34.14.62.4.84.27.23.62.34 1.03.35Zm14.31-2.41h-3.05V205h-2.55v-7.47h-3v-2.04h8.6v2.04Zm.63 2.63c0-.95.18-1.79.54-2.53a4 4 0 0 1 1.57-1.7 4.6 4.6 0 0 1 2.38-.62c1.28 0 2.33.4 3.14 1.18a4.72 4.72 0 0 1 1.36 3.2l.02.65c0 1.46-.41 2.63-1.23 3.52a4.26 4.26 0 0 1-3.28 1.32 4.28 4.28 0 0 1-3.28-1.32 5.07 5.07 0 0 1-1.22-3.59v-.11Zm2.54.18c0 .9.17 1.6.5 2.08.35.47.83.7 1.47.7.61 0 1.1-.23 1.44-.7.34-.47.52-1.23.52-2.26 0-.89-.18-1.57-.52-2.06a1.69 1.69 0 0 0-1.46-.73c-.62 0-1.1.24-1.44.73-.34.48-.51 1.23-.51 2.24Zm16.59 0a5.7 5.7 0 0 1-1 3.52 3.19 3.19 0 0 1-2.7 1.32c-.95 0-1.73-.34-2.32-1v4.48h-2.54v-13.17h2.35l.1.93a2.99 2.99 0 0 1 2.4-1.1c1.17 0 2.08.43 2.74 1.3.65.86.97 2.06.97 3.58v.13Zm-2.54-.2c0-.88-.16-1.56-.47-2.04a1.52 1.52 0 0 0-1.37-.72c-.8 0-1.34.3-1.64.91v3.9c.31.62.86.94 1.66.94 1.21 0 1.82-1 1.82-2.98Zm9.63 4.86c-.11-.23-.2-.51-.25-.85a3.07 3.07 0 0 1-2.4 1.03 3.4 3.4 0 0 1-2.32-.81 2.6 2.6 0 0 1-.92-2.04c0-1.01.38-1.78 1.12-2.32a5.55 5.55 0 0 1 3.24-.82h1.17v-.54c0-.44-.11-.8-.34-1.06-.22-.26-.58-.4-1.06-.4-.43 0-.77.1-1.01.31-.25.2-.36.49-.36.85h-2.55c0-.55.18-1.06.52-1.53.33-.47.81-.84 1.44-1.1a5.2 5.2 0 0 1 2.09-.4c1.17 0 2.1.29 2.78.88.7.59 1.04 1.41 1.04 2.48v4.12c0 .9.13 1.59.38 2.05v.15h-2.57Zm-2.1-1.77c.38 0 .72-.08 1.04-.24.32-.17.55-.4.7-.68v-1.63h-.95c-1.27 0-1.94.44-2.03 1.31v.15c0 .32.1.58.33.79.22.2.53.3.91.3Z" fill="#fff"/><path d="M273.88 61.26a32.9 32.9 0 0 1-12.2-44.54L272.1-1.86a54.5 54.5 0 0 1 51.37-27.71l62.47 4.4c26.83 1.88 41.92 31.74 27.52 54.46a35.52 35.52 0 0 1-9.1 9.7l-22.9 16.67a98.68 98.68 0 0 1-107.57 5.6Z" fill="#463E33" fill-opacity=".2"/><path d="M313.95 29.82c1.16 0 1.74.46 1.74 1.38 0 .95-.58 1.42-1.74 1.42h-.44v.68c0 .6-.17 1.05-.5 1.36-.34.3-.77.46-1.3.46-.54 0-.97-.15-1.3-.46-.32-.3-.48-.76-.48-1.36v-.68h-4.46a1.5 1.5 0 0 1-1.14-.44c-.28-.3-.42-.66-.42-1.1 0-.47.14-.9.44-1.32l5.72-8.16c.18-.27.42-.47.7-.6a1.99 1.99 0 0 1 2.2.26c.36.32.54.77.54 1.34v7.22h.44Zm-6.42 0h2.4v-3.46l-2.4 3.46Zm10.65 1.2c-1.1 0-1.66-.47-1.66-1.4 0-.92.55-1.38 1.66-1.38h3.76c.56 0 .97.12 1.24.36.28.24.42.58.42 1.02 0 .44-.14.79-.42 1.04-.27.24-.68.36-1.24.36h-3.76Zm11.8-10.3c1.88 0 3.34.61 4.37 1.84 1.02 1.23 1.53 2.97 1.53 5.24 0 1.5-.24 2.8-.74 3.92a5.37 5.37 0 0 1-5.16 3.46c-.74 0-1.5-.12-2.3-.36a6.39 6.39 0 0 1-2-1c-.22-.17-.39-.35-.5-.54-.09-.19-.13-.42-.13-.7 0-.41.1-.76.33-1.04.25-.3.53-.44.87-.44.18 0 .35.03.5.1.14.05.34.15.6.28l.44.22c.44.21.8.37 1.1.48.29.1.6.16.92.16.68 0 1.22-.3 1.63-.92.43-.63.69-1.5.76-2.62-.3.43-.71.77-1.24 1.02-.5.24-1.06.36-1.67.36a4.1 4.1 0 0 1-3.69-2.22c-.36-.7-.54-1.5-.54-2.38a5 5 0 0 1 .63-2.5 4.5 4.5 0 0 1 1.75-1.74c.75-.41 1.6-.62 2.55-.62Zm.22 6.62c.53 0 .94-.17 1.25-.52.31-.35.48-.8.48-1.38 0-.56-.17-1.01-.49-1.36a1.58 1.58 0 0 0-1.24-.54c-.51 0-.93.17-1.24.52a2 2 0 0 0-.45 1.38c0 .59.14 1.05.44 1.4.3.33.72.5 1.25.5Zm18.68-1.68c0 2.55-.31 4.5-.94 5.88a6.54 6.54 0 0 1-2.74 3.08 2.4 2.4 0 0 1-1.22.38c-.44 0-.8-.14-1.08-.42-.28-.3-.42-.65-.42-1.06 0-.33.1-.65.3-.96.2-.32.5-.6.9-.84 1.1-.75 1.66-2.55 1.66-5.42v-3.7c0-.55.15-.97.44-1.26.3-.3.71-.44 1.26-.44h7.2c.55 0 .97.15 1.26.44.3.3.46.71.46 1.26v10.7c0 .55-.17.99-.5 1.32-.33.33-.77.5-1.32.5s-.99-.16-1.32-.48a1.85 1.85 0 0 1-.48-1.34v-9.52h-3.46v1.88ZM360.16 35c-.55 0-.97-.15-1.26-.44-.3-.3-.44-.71-.44-1.26V22.6c0-.55.14-.97.44-1.26.3-.3.71-.44 1.26-.44h6.92c.57 0 1 .12 1.3.36.3.24.44.59.44 1.04 0 .96-.58 1.44-1.74 1.44h-5.04v2.68h4.64c1.16 0 1.74.47 1.74 1.42 0 .45-.15.8-.44 1.04-.3.24-.73.36-1.3.36h-4.64v2.92h5.04c1.16 0 1.74.48 1.74 1.44 0 .45-.15.8-.44 1.04-.3.24-.73.36-1.3.36h-6.92Zm15.54.1c-.56 0-1.01-.16-1.36-.48-.33-.33-.5-.77-.5-1.32v-9.42h-2.82c-.58 0-1.02-.12-1.32-.36-.28-.25-.42-.63-.42-1.14 0-.5.14-.88.42-1.12.3-.24.74-.36 1.32-.36h9.36c.59 0 1.02.12 1.3.36.3.24.44.61.44 1.12 0 .5-.14.89-.44 1.14-.28.24-.71.36-1.3.36h-2.82v9.42c0 .55-.17.99-.52 1.32-.33.32-.78.48-1.34.48Z" fill="#fff"/><path d="M371.64 255.49c.43.05 3.7 2.28 4.81-1.81m-13.22-20.28c-.95-3.06-1.7-9.2 2.86-9.37 5.7-.2 12.87-4.28 14.46 6.91 1.58 11.2-12.77 7.47-9.3 17.85" stroke="#000" stroke-width="2" stroke-linecap="round" stroke-linejoin="round"/><path d="M340.02 165.3c-.36-10.24 1.66-25.89 2.71-32.43 10.35 4.16 23.77 14.96 29.18 19.84-6.94 5.13-24.15 10.53-31.9 12.6ZM273.24 196.84c7.21 7.28 16.35 20.15 20.02 25.67-10.43 3.97-27.61 5.14-34.9 5.24 1.62-8.49 10.6-24.14 14.88-30.9ZM348.36 255.99c-9.43 4.02-24.76 7.77-31.24 9.15.16-11.16 5.4-27.56 8-34.37 7.28 4.63 18.52 18.74 23.24 25.22Z" fill="#8BC63E" stroke="#000" stroke-width="2"/><path d="M278.41 163.1c1.04 8.13-4.54 15.37-12.76 16.91-8.64 1.62-17.1-3.68-18.35-12.48-1.26-8.85 4.71-16.12 13.26-17.4 8.61-1.3 16.78 4.52 17.85 12.98ZM329.66 192.17c4.23 7 2.07 15.89-4.83 20.63-7.24 4.97-17.13 3.56-21.83-3.98-4.74-7.58-2.22-16.65 5.07-21.29 7.36-4.68 17.18-2.65 21.59 4.64Z" fill="#FDD104" stroke="#000" stroke-width="2"/><path d="M292.2 176.3c-1.57-5.72-4.35-23.5-5.55-31.68 10-3.41 27.27-5.8 34.66-6.58.87 7.41 4.72 23.66 6.54 30.86-2.91 1.3-24.98 5.47-35.65 7.4ZM350.48 216.84c-2.48-5.38-8.11-22.47-10.62-30.34 9.3-5 25.97-10.16 33.13-12.12 2.06 7.16 8.5 22.57 11.46 29.38-2.66 1.76-23.76 9.46-33.97 13.09ZM267.35 272.05c-1.16-5.81-2.66-23.75-3.27-32 10.21-2.68 27.62-3.83 35.05-4.07.33 7.45 3 23.94 4.3 31.25-3 1.08-25.3 3.66-36.08 4.81Z" fill="#EE3E35" stroke="#000" stroke-width="2"/></g><defs><clipPath id="a"><rect x=".33" width="393.33" height="280" rx="16" fill="#fff"/></clipPath></defs></svg>