<svg width="394" height="280" fill="none" xmlns="http://www.w3.org/2000/svg"><g clip-path="url(#a)"><rect x=".67" width="393.33" height="280" rx="16" fill="#12A79D"/><path d="M274.9 180.78c-14.4-3.43-9.04 34.65 0 53.47 9.46 19.68 22.92 30.22 44.44 33.96 15.73 2.74 24.5-4.58 40.27-7 8.13-1.25 20.85-2.97 20.85-2.97s15.92-4.04 3.66-16.3a70.77 70.77 0 0 0-14.98-11.2c-12.25-13.3-18.3-8.05-22.76-8.05-3.3 0-8.75-5.25-19.26 7-9.83 2.81-15.34 2.47-21.01 1.06-32.3-8.06-21.28-47.6-31.2-49.97Z" fill="#fff" stroke="#000" stroke-width="2"/><path d="M266.68 213.68c6.85-10.97 17.13-5.48 17.13-5.48 11.65 26.05 37.02 25.47 43.19 21.76 4.1 9.77 7.54 15.94 20.56 23.48 14.4-6.85 22.62-21.83 22.62-21.83 18.93 1.63 28.02 16.8 29.47 33.75.29 3.3.28 6.67 0 10.01-.78 9.47-3.1 15.11-8.9 22.62-7.79 10.07-12.5 11.88-28.11 16.45-19.38 5.7-51.58-3.94-51.58-3.94 1.75-8.75-34.1-66.66-44.38-96.82Z" fill="#F1DD29"/><path d="M354.41 278.12c11.66 2 37.02 2.26 45.24-12.76m0 0c.29 3.3.28 6.67 0 10.01-.78 9.47-3.1 15.11-8.9 22.62-7.79 10.07-12.5 11.88-28.11 16.45-19.38 5.7-51.58-3.94-51.58-3.94 1.75-8.75-34.1-66.66-44.38-96.82 6.85-10.97 17.13-5.48 17.13-5.48 11.65 26.05 37.02 25.47 43.19 21.76 4.1 9.77 7.54 15.94 20.56 23.48 14.4-6.85 22.62-21.83 22.62-21.83 18.93 1.63 28.02 16.8 29.47 33.75Z" stroke="#000" stroke-width="2" stroke-linecap="round" stroke-linejoin="round"/><path d="M377.72 249.33c2.28 5.25 1.23 16.31-21.25 18.5" stroke="#000" stroke-width="2"/><path d="M304.14 211.03c-12.66 5.4-20.26-17.62-6.33-19-3.8-25.76 16.58-43.16 43.05-46.1 36.72-4.07 55.71 10.84 53.18 47.48 16.46 2.68 5.06 24.38-3.8 16.25-8.86 28.47-81.04 21.7-86.1 1.37Z" fill="#F3DAC4"/><path d="M304.14 211.03c-12.66 5.4-20.26-17.62-6.33-19-3.8-25.76 16.58-43.16 43.05-46.1 36.72-4.07 55.71 10.84 53.18 47.48 16.46 2.68 5.06 24.38-3.8 16.25-8.86 28.47-81.04 21.7-86.1 1.37Z" fill="url(#b)"/><path d="M304.14 211.03c-12.66 5.4-20.26-17.62-6.33-19-3.8-25.76 16.58-43.16 43.05-46.1 36.72-4.07 55.71 10.84 53.18 47.48 16.46 2.68 5.06 24.38-3.8 16.25-8.86 28.47-81.04 21.7-86.1 1.37Z" stroke="#000" stroke-width="2" stroke-linecap="round" stroke-linejoin="round"/><path d="M325.17 198.75c0 1.93-1.43 3.48-3.2 3.48-1.77 0-3.2-1.55-3.2-3.47 0-1.92 1.43-3.48 3.2-3.48 1.77 0 3.2 1.56 3.2 3.47ZM370 198.75c0 1.93-1.44 3.48-3.2 3.48-1.77 0-3.2-1.55-3.2-3.47 0-1.92 1.43-3.48 3.2-3.48 1.76 0 3.2 1.56 3.2 3.47Z" fill="#46E9E9"/><path d="M325.17 198.75c0 1.93-1.43 3.48-3.2 3.48-1.77 0-3.2-1.55-3.2-3.47 0-1.92 1.43-3.48 3.2-3.48 1.77 0 3.2 1.56 3.2 3.47ZM370 198.75c0 1.93-1.44 3.48-3.2 3.48-1.77 0-3.2-1.55-3.2-3.47 0-1.92 1.43-3.48 3.2-3.48 1.76 0 3.2 1.56 3.2 3.47Z" stroke="#000" stroke-width="2" stroke-linecap="round" stroke-linejoin="round"/><path d="M342.08 167.61c-11.21-2.56-5.7-.93-10.01 4.32-4.3 5.25-9.11 7.94-12.61 4.44s-5.34 4.82-12.34 6.57-12.34 7.61-12.34 4.11.76-5.1-2.74-6.85c-4.96-2.48-.24-9.52-3.75-13.02-3.5-3.5 5.78-3.08 3.75-8.23-1.75-4.43-6.35-5.34 5.01-5.34 13.06 0 2.83-3.8 3.9-9.06 1.75-8.65 9.65-2.74 13.02-4.95 8.28-5.43 3.14-6.19 8.91-8.75 5.77-2.57 12.55-.34 13.4 4.26.25-2.96 1.44-7.88 5.8-7 6.85 1.36 1.3 11.49 4.8 11.49 6.85 0 .46-4.95 10.96-6.7s8.3 3.2 10.05 6.7 1.34-3.52 9.14-2.59c11.38 1.37 4.07 8.66 7.57 12.16s6-2.57 13 4.44c7.93 7.92 1.14 3.5-4.12 12.25-.9 1.5 7.16-5.15 8.92 8.86.68 5.49 1.82 8.22-3.43 8.22s-3.87 3-9.12 6.5c-5.25 3.5-6-4.92-8.7-9.24-5.65-9.03-4.26-5.48-10.97-5.48-6.86 0 .15-1.47-6.86-7.54-7-6.07-2.45-.8-9.6-1.32-11.3-.81-.44 4.32-11.64 1.75Z" fill="#783A41" stroke="#000" stroke-width="2"/><path d="M353.04 211.73c-4.93 5.34-14.57 1.49-16.45 0" stroke="#000" stroke-width="2" stroke-linecap="round" stroke-linejoin="round"/><path d="M269.42 278.8h65.8c1.1-3.29-.46-6.85-1.37-8.22h-64.43c2.2 3.84.91 7.08 0 8.22ZM273.53 270.58h49.07c.82-3.3-.34-6.86-1.02-8.23h-48.05c1.64 3.84.68 7.08 0 8.23Z" fill="#fff" stroke="#000" stroke-width="2"/><path d="M279.01 262.35h43.62c.73-3.29-.3-6.85-.9-8.23H279c1.46 3.84.6 7.09 0 8.23ZM357.16 269.2c-2.95-6.2-29.34 1.38-28.1 7.55.68 3.42 24.67 1.6 28.1-.69 2.05-1.37.92-4.9 0-6.86Z" fill="#fff" stroke="#000" stroke-width="2"/><path d="M25.62 88.18c-.82 0-1.48-.24-1.98-.72a2.78 2.78 0 0 1-.72-2.01v-15.9c0-.8.25-1.45.75-1.95s1.15-.75 1.95-.75h13.53c.8 0 1.45.25 1.95.75s.75 1.15.75 1.95v15.9c0 .82-.25 1.48-.75 1.98-.48.5-1.13.75-1.95.75-.82 0-1.48-.24-1.98-.72a2.78 2.78 0 0 1-.72-2.01V71.17h-8.13v14.28c0 .82-.25 1.48-.75 1.98-.48.5-1.13.75-1.95.75Zm30.05.09c-2.16 0-4.04-.44-5.64-1.32a9.25 9.25 0 0 1-3.66-3.78 12.23 12.23 0 0 1-1.29-5.76c0-2.2.43-4.11 1.3-5.73a9.02 9.02 0 0 1 3.65-3.78c1.6-.88 3.48-1.32 5.64-1.32 2.16 0 4.03.44 5.61 1.32a8.79 8.79 0 0 1 3.66 3.78 12.05 12.05 0 0 1 1.3 5.73c0 2.2-.44 4.12-1.3 5.76a9.2 9.2 0 0 1-3.69 3.78 11.29 11.29 0 0 1-5.58 1.32Zm0-4.23c1.6 0 2.85-.56 3.75-1.68.9-1.14 1.35-2.79 1.35-4.95s-.46-3.8-1.38-4.92a4.51 4.51 0 0 0-3.72-1.68c-1.6 0-2.85.56-3.75 1.68-.9 1.1-1.35 2.74-1.35 4.92 0 2.18.45 3.83 1.35 4.95a4.54 4.54 0 0 0 3.75 1.68ZM69.3 93.4c-.76 0-1.37-.25-1.83-.75a2.74 2.74 0 0 1-.69-1.98v-4.44c0-.82.22-1.45.66-1.89.44-.44 1.07-.66 1.9-.66h.71c.66-1.78 1.1-3.68 1.32-5.7.22-2.02.33-4.27.33-6.75V69.4c0-.82.22-1.45.66-1.89.44-.44 1.07-.66 1.9-.66h10.61c.82 0 1.45.22 1.9.66.43.44.65 1.07.65 1.89v14.28h.45c.82 0 1.45.22 1.9.66.43.44.65 1.07.65 1.89v4.44a2.8 2.8 0 0 1-.69 1.98c-.46.5-1.07.75-1.83.75s-1.37-.25-1.83-.75a2.74 2.74 0 0 1-.69-1.98V88H71.81v2.67a2.8 2.8 0 0 1-.69 1.98c-.46.5-1.07.75-1.83.75Zm12.72-22.29h-5.55v-.06c0 2.7-.15 5.04-.45 7.02a25.92 25.92 0 0 1-1.44 5.64h7.44v-12.6ZM95.7 88.18c-.82 0-1.48-.24-1.98-.72a2.78 2.78 0 0 1-.72-2.01V69.4c0-.76.23-1.37.7-1.83.47-.48 1.1-.72 1.85-.72h10.38c.8 0 1.4.19 1.77.57.4.38.6.9.6 1.56 0 .68-.2 1.22-.6 1.62-.38.38-.97.57-1.77.57H98.4v14.28c0 .82-.25 1.48-.75 1.98-.48.5-1.13.75-1.95.75Zm24.64.09c-2.16 0-4.04-.44-5.64-1.32a9.25 9.25 0 0 1-3.66-3.78 12.23 12.23 0 0 1-1.3-5.76c0-2.2.44-4.11 1.3-5.73a9.02 9.02 0 0 1 3.66-3.78c1.6-.88 3.48-1.32 5.64-1.32 2.16 0 4.03.44 5.6 1.32a8.79 8.79 0 0 1 3.67 3.78 12.05 12.05 0 0 1 1.29 5.73c0 2.2-.43 4.12-1.3 5.76a9.2 9.2 0 0 1-3.68 3.78 11.29 11.29 0 0 1-5.58 1.32Zm0-4.23c1.6 0 2.85-.56 3.75-1.68.9-1.14 1.35-2.79 1.35-4.95s-.46-3.8-1.38-4.92a4.51 4.51 0 0 0-3.72-1.68c-1.6 0-2.85.56-3.75 1.68-.9 1.1-1.35 2.74-1.35 4.92 0 2.18.45 3.83 1.35 4.95a4.54 4.54 0 0 0 3.75 1.68Zm20.15 4.11c-.84 0-1.52-.24-2.04-.72-.5-.5-.75-1.16-.75-1.98V71.32h-4.23c-.88 0-1.54-.18-1.98-.54-.42-.38-.63-.95-.63-1.71s.21-1.32.63-1.68c.44-.36 1.1-.54 1.98-.54h14.04c.88 0 1.53.18 1.95.54.44.36.66.92.66 1.68 0 .76-.22 1.33-.66 1.71-.42.36-1.07.54-1.95.54h-4.23v14.13c0 .82-.26 1.48-.78 1.98-.5.48-1.17.72-2 .72Zm20.22.12c-2.16 0-4.04-.44-5.64-1.32a9.25 9.25 0 0 1-3.66-3.78 12.23 12.23 0 0 1-1.3-5.76c0-2.2.44-4.11 1.3-5.73a9.02 9.02 0 0 1 3.66-3.78c1.6-.88 3.48-1.32 5.64-1.32 2.16 0 4.03.44 5.6 1.32a8.79 8.79 0 0 1 3.67 3.78 12.05 12.05 0 0 1 1.29 5.73c0 2.2-.43 4.12-1.3 5.76a9.2 9.2 0 0 1-3.68 3.78 11.29 11.29 0 0 1-5.58 1.32Zm0-4.23c1.6 0 2.85-.56 3.75-1.68.9-1.14 1.35-2.79 1.35-4.95s-.46-3.8-1.38-4.92a4.51 4.51 0 0 0-3.72-1.68c-1.6 0-2.85.56-3.75 1.68-.9 1.1-1.35 2.74-1.35 4.92 0 2.18.45 3.83 1.35 4.95a4.54 4.54 0 0 0 3.75 1.68Zm27.95-7.02a5.34 5.34 0 0 1 2.85 1.92c.66.88 1 1.97 1 3.27 0 1.16-.32 2.18-.94 3.06a5.84 5.84 0 0 1-2.6 2.01 10 10 0 0 1-3.97.72h-7.98c-.82 0-1.45-.22-1.89-.66-.44-.44-.66-1.07-.66-1.89V69.4c0-.82.22-1.45.66-1.89.44-.44 1.07-.66 1.9-.66h7.67c2.22 0 3.98.5 5.28 1.5a4.7 4.7 0 0 1 1.98 3.99c0 1.08-.29 2.04-.87 2.88a4.97 4.97 0 0 1-2.43 1.8Zm-8.82-1.86h3.93a4.2 4.2 0 0 0 2.28-.48c.48-.32.72-.83.72-1.53 0-.74-.24-1.28-.72-1.62-.48-.34-1.24-.51-2.28-.51h-3.93v4.14Zm4.47 8.67c1.1 0 1.88-.17 2.34-.51.48-.36.72-.94.72-1.74s-.24-1.37-.72-1.71c-.46-.36-1.24-.54-2.34-.54h-4.47v4.5h4.47Zm13.66 4.35c-.82 0-1.48-.24-1.98-.72a2.78 2.78 0 0 1-.72-2.01V69.4c0-.82.24-1.48.72-1.98.5-.5 1.16-.75 1.98-.75.82 0 1.47.25 1.95.75.5.48.75 1.14.75 1.98v5.67h1.6l6.05-7.35a2.5 2.5 0 0 1 1.98-1.02c.62 0 1.16.23 1.62.69.48.44.72.96.72 1.56 0 .6-.22 1.15-.66 1.65l-4.74 5.58c.74.34 1.31.67 1.71.99.4.32.76.72 1.08 1.2.32.46.8 1.25 1.44 2.37l1.86 3.33c.28.48.42.98.42 1.5 0 .72-.26 1.33-.78 1.83s-1.12.75-1.8.75c-.96 0-1.72-.49-2.28-1.47l-2.76-5.04a4.66 4.66 0 0 0-1.38-1.71 4.06 4.06 0 0 0-2.22-.48h-1.86v6c0 .82-.25 1.48-.75 1.98-.48.5-1.13.75-1.95.75Zm39.35-3.57c.18.38.27.75.27 1.11 0 .66-.27 1.22-.81 1.68-.52.46-1.12.69-1.8.69a2.31 2.31 0 0 1-2.16-1.44l-1.35-3.03h-9.72l-1.38 3.03a2.36 2.36 0 0 1-2.2 1.44c-.67 0-1.3-.23-1.85-.69a2.13 2.13 0 0 1-.81-1.68c0-.36.09-.73.27-1.11l7.92-16.26c.26-.54.64-.95 1.14-1.23a3.36 3.36 0 0 1 3.39 0c.52.28.9.69 1.17 1.23l7.92 16.26Zm-13.71-5.13h6l-3-6.69-3 6.69Zm-197.98 49.7c-.82 0-1.48-.24-1.98-.72a2.78 2.78 0 0 1-.72-2.01V110.4c0-.82.24-1.48.72-1.98.5-.5 1.16-.75 1.98-.75.82 0 1.47.25 1.95.75.5.48.75 1.14.75 1.98v5.67h1.59l6.06-7.35a2.5 2.5 0 0 1 1.98-1.02c.62 0 1.16.23 1.62.69.48.44.72.96.72 1.56 0 .6-.22 1.15-.66 1.65l-4.74 5.58c.74.34 1.31.67 1.71.99.4.32.76.72 1.08 1.2.32.46.8 1.25 1.44 2.37l1.86 3.33c.28.48.42.98.42 1.5 0 .72-.26 1.33-.78 1.83s-1.12.75-1.8.75c-.96 0-1.72-.49-2.28-1.47l-2.76-5.04a4.66 4.66 0 0 0-1.38-1.71 4.06 4.06 0 0 0-2.22-.48h-1.86v6c0 .82-.25 1.48-.75 1.98-.48.5-1.13.75-1.95.75Zm30.4-.18c-.82 0-1.45-.22-1.89-.66-.44-.44-.66-1.07-.66-1.89V110.4c0-.82.24-1.48.72-1.98.5-.5 1.16-.75 1.98-.75.82 0 1.47.25 1.95.75.5.48.75 1.14.75 1.98v14.28h5.4V110.4c0-.82.24-1.48.72-1.98.5-.5 1.16-.75 1.98-.75.82 0 1.47.25 1.95.75.5.48.75 1.14.75 1.98v14.28h5.37V110.4c0-.82.25-1.48.75-1.98s1.16-.75 1.98-.75c.82 0 1.47.25 1.95.75.5.48.75 1.14.75 1.98v16.05c0 .82-.22 1.45-.66 1.89-.44.44-1.07.66-1.89.66h-21.9Zm30.94.18c-.82 0-1.48-.24-1.98-.72a2.78 2.78 0 0 1-.72-2.01V110.4c0-.82.24-1.48.72-1.98.5-.5 1.16-.75 1.98-.75.82 0 1.47.25 1.95.75.5.48.75 1.14.75 1.98v5.67h1.6l6.05-7.35a2.5 2.5 0 0 1 1.98-1.02c.62 0 1.16.23 1.62.69.48.44.72.96.72 1.56 0 .6-.22 1.15-.66 1.65l-4.74 5.58c.74.34 1.31.67 1.71.99.4.32.76.72 1.08 1.2.32.46.8 1.25 1.44 2.37l1.86 3.33c.28.48.42.98.42 1.5 0 .72-.26 1.33-.78 1.83s-1.12.75-1.8.75c-.96 0-1.72-.49-2.28-1.47l-2.76-5.04a4.66 4.66 0 0 0-1.38-1.71 4.06 4.06 0 0 0-2.22-.48h-1.86v6c0 .82-.25 1.48-.75 1.98-.48.5-1.13.75-1.95.75Zm28.48.09c-2.16 0-4.05-.44-5.64-1.32a9.25 9.25 0 0 1-3.66-3.78 12.23 12.23 0 0 1-1.3-5.76c0-2.2.44-4.11 1.3-5.73a9.02 9.02 0 0 1 3.66-3.78c1.6-.88 3.48-1.32 5.64-1.32 2.16 0 4.03.44 5.6 1.32a8.79 8.79 0 0 1 3.66 3.78 12.05 12.05 0 0 1 1.3 5.73c0 2.2-.44 4.12-1.3 5.76a9.2 9.2 0 0 1-3.69 3.78 11.29 11.29 0 0 1-5.58 1.32Zm0-4.23c1.6 0 2.84-.56 3.75-1.68.9-1.14 1.34-2.79 1.34-4.95s-.45-3.8-1.38-4.92a4.51 4.51 0 0 0-3.72-1.68c-1.6 0-2.85.56-3.75 1.68-.9 1.1-1.35 2.74-1.35 4.92 0 2.18.45 3.83 1.36 4.95a4.54 4.54 0 0 0 3.75 1.68Zm21.8-10.05c0 3.82-.46 6.76-1.4 8.82a9.8 9.8 0 0 1-4.11 4.62 3.6 3.6 0 0 1-1.83.57 2.2 2.2 0 0 1-1.62-.63 2.22 2.22 0 0 1-.63-1.59c0-.5.15-.98.45-1.44.3-.48.75-.9 1.35-1.26 1.66-1.12 2.49-3.83 2.49-8.13v-5.55c0-.82.22-1.45.66-1.89.44-.44 1.07-.66 1.89-.66h10.8c.82 0 1.45.22 1.89.66.46.44.69 1.07.69 1.89v16.05c0 .82-.25 1.48-.75 1.98s-1.16.75-1.98.75c-.82 0-1.48-.24-1.98-.72a2.78 2.78 0 0 1-.72-2.01v-14.28h-5.2v2.82ZM154.17 129c-.82 0-1.45-.22-1.89-.66-.44-.44-.66-1.07-.66-1.89V110.4c0-.82.22-1.45.66-1.89.44-.44 1.07-.66 1.9-.66h10.37c.86 0 1.51.18 1.95.54.44.36.66.88.66 1.56 0 1.44-.87 2.16-2.6 2.16h-7.57v4.02h6.96c1.74 0 2.61.71 2.61 2.13 0 .68-.22 1.2-.66 1.56-.44.36-1.09.54-1.95.54h-6.96v4.38h7.56c1.74 0 2.61.72 2.61 2.16 0 .68-.22 1.2-.66 1.56-.44.36-1.09.54-1.95.54h-10.38ZM26.32 166.77H24.8V172h-2.64v-12.8h2.64v5.13H26l3.13-5.13h3.22l-3.95 6.06 4.36 6.74h-3.15l-3.3-5.23Zm6.65.39c0-.95.18-1.79.55-2.53a4 4 0 0 1 1.56-1.7 4.6 4.6 0 0 1 2.38-.62c1.29 0 2.33.4 3.14 1.18a4.72 4.72 0 0 1 1.36 3.2l.02.65c0 1.46-.4 2.63-1.22 3.52a4.25 4.25 0 0 1-3.28 1.32 4.28 4.28 0 0 1-3.29-1.32 5.07 5.07 0 0 1-1.22-3.59v-.11Zm2.54.18c0 .9.17 1.6.51 2.08.34.47.83.7 1.46.7.61 0 1.1-.23 1.44-.7.35-.47.52-1.23.52-2.26a3.5 3.5 0 0 0-.52-2.06 1.69 1.69 0 0 0-1.46-.73c-.62 0-1.1.24-1.44.73-.34.48-.5 1.23-.5 2.24ZM49.34 169l2.48-6.51H55V172h-2.54v-5.84L50.2 172h-1.7l-2.24-5.74V172h-2.54v-9.51h3.16l2.47 6.51Zm16.15 3h-2.55v-7.45h-3.18V172h-2.54v-9.51h8.27V172Zm10.21-9.51V172h-2.54v-7.45h-2.24l-.16 2.93c-.1 1.57-.4 2.7-.92 3.42-.51.72-1.28 1.08-2.3 1.1h-.86l-.03-2.06.32-.03c.45-.04.79-.3 1-.81.21-.5.34-1.36.4-2.58l.17-4.03h7.16Zm6.34 9.69c-1.4 0-2.53-.43-3.41-1.29-.87-.85-1.31-2-1.31-3.42v-.24c0-.96.18-1.81.55-2.56.37-.76.9-1.34 1.57-1.74a4.4 4.4 0 0 1 2.32-.62c1.3 0 2.32.41 3.07 1.23a4.99 4.99 0 0 1 1.12 3.5v1.03H79.9c.08.62.32 1.12.73 1.5.42.37.94.56 1.58.56.98 0 1.74-.36 2.3-1.07l1.24 1.4c-.38.54-.9.96-1.55 1.27-.65.3-1.37.45-2.16.45Zm-.29-7.8c-.5 0-.91.16-1.23.5-.31.34-.51.83-.6 1.46h3.54v-.2c-.02-.56-.17-1-.46-1.3-.3-.31-.71-.47-1.25-.47Zm9.38 4.11H90.1V172h-2.54v-9.51h2.54v3.58h.9l2.08-3.58h3.2l-3.1 4.53 3.4 4.98H93.2l-2.07-3.5Zm10.23 1.64c.47 0 .85-.13 1.14-.39.3-.26.45-.6.46-1.03h2.38c0 .65-.18 1.24-.53 1.78a3.5 3.5 0 0 1-1.42 1.25c-.6.29-1.26.44-1.99.44a4.14 4.14 0 0 1-3.21-1.3A5.15 5.15 0 0 1 97 167.3v-.17c0-1.46.39-2.63 1.17-3.5a4.08 4.08 0 0 1 3.2-1.32c1.2 0 2.15.34 2.86 1.02a3.57 3.57 0 0 1 1.1 2.7h-2.38c-.01-.49-.17-.89-.46-1.2-.3-.3-.68-.46-1.16-.46-.6 0-1.04.22-1.34.65-.3.43-.45 1.13-.45 2.1v.26c0 .97.15 1.68.45 2.1.3.43.75.65 1.36.65Zm13.67 1.87h-2.55v-3.66h-3.15V172h-2.54v-9.51h2.54v3.81h3.16v-3.81h2.54V172Zm7.48 0c-.11-.23-.2-.51-.25-.85a3.07 3.07 0 0 1-2.4 1.03 3.4 3.4 0 0 1-2.32-.81 2.6 2.6 0 0 1-.92-2.04c0-1.01.38-1.78 1.12-2.32a5.55 5.55 0 0 1 3.24-.82h1.17v-.54c0-.44-.11-.8-.34-1.06-.22-.26-.58-.4-1.06-.4-.43 0-.77.1-1.01.31-.24.2-.36.49-.36.85h-2.54c0-.55.17-1.06.5-1.53.35-.47.83-.84 1.45-1.1a5.2 5.2 0 0 1 2.09-.4c1.17 0 2.1.29 2.79.88.69.59 1.03 1.41 1.03 2.48v4.12c0 .9.13 1.59.38 2.05v.15h-2.57Zm-2.1-1.77c.38 0 .72-.08 1.04-.24.32-.17.55-.4.7-.68v-1.63h-.95c-1.27 0-1.94.44-2.03 1.31v.15c0 .32.1.58.33.79.22.2.53.3.91.3Zm14.17-7.74V172h-2.53v-3.29h-1.6L128.6 172h-2.57l2.07-3.72c-.57-.26-1-.62-1.32-1.07-.3-.45-.45-.96-.45-1.54 0-.92.35-1.67 1.06-2.26a4.5 4.5 0 0 1 2.87-.92h4.31Zm-4.27 4.45h1.74v-2.41h-1.65c-.45 0-.82.12-1.1.36-.28.23-.42.52-.42.86 0 .34.13.62.4.84.27.23.61.34 1.03.35Zm19.17 5.06h-2.55v-7.45h-3.18V172h-2.54v-9.51h8.27V172Zm1.55-4.84c0-.95.18-1.79.54-2.53a4 4 0 0 1 1.56-1.7 4.6 4.6 0 0 1 2.39-.62c1.28 0 2.33.4 3.13 1.18a4.72 4.72 0 0 1 1.37 3.2l.01.65c0 1.46-.4 2.63-1.22 3.52a4.25 4.25 0 0 1-3.28 1.32 4.28 4.28 0 0 1-3.28-1.32 5.07 5.07 0 0 1-1.22-3.59v-.11Zm2.53.18c0 .9.18 1.6.51 2.08.34.47.83.7 1.46.7.62 0 1.1-.23 1.45-.7.34-.47.51-1.23.51-2.26 0-.89-.17-1.57-.51-2.06a1.69 1.69 0 0 0-1.46-.73c-.62 0-1.1.24-1.45.73-.33.48-.5 1.23-.5 2.24Zm7.54 2.61c.57-.6.96-1.21 1.17-1.8.2-.6.32-1.45.34-2.55l.07-3.11h7v7.46h1.37v4.9h-2.54V172h-5.64v2.86h-2.59v-4.9h.82Zm3 0h3.05v-5.36h-1.98l-.02 1.14a8.54 8.54 0 0 1-1.06 4.22Zm14.56-5.4h-3.94V172h-2.54v-9.51h6.48v2.06Zm.49 2.6c0-.94.18-1.78.54-2.52a4 4 0 0 1 1.57-1.7 4.6 4.6 0 0 1 2.38-.62c1.29 0 2.33.4 3.14 1.18a4.72 4.72 0 0 1 1.36 3.2l.02.65c0 1.46-.4 2.63-1.22 3.52a4.26 4.26 0 0 1-3.28 1.32 4.28 4.28 0 0 1-3.29-1.32 5.07 5.07 0 0 1-1.22-3.59v-.11Zm2.54.2c0 .9.17 1.59.51 2.07.34.47.83.7 1.46.7.61 0 1.1-.23 1.44-.7.35-.47.52-1.23.52-2.26 0-.89-.17-1.57-.52-2.06a1.69 1.69 0 0 0-1.46-.73c-.62 0-1.1.24-1.44.73-.34.48-.51 1.23-.51 2.24Zm15.66-2.82h-3.05V172h-2.55v-7.47h-3v-2.04h8.6v2.04Zm.63 2.63c0-.95.18-1.79.54-2.53a4 4 0 0 1 1.57-1.7 4.6 4.6 0 0 1 2.38-.62c1.28 0 2.33.4 3.13 1.18a4.72 4.72 0 0 1 1.37 3.2l.02.65c0 1.46-.41 2.63-1.23 3.52a4.26 4.26 0 0 1-3.27 1.32 4.28 4.28 0 0 1-3.3-1.32 5.07 5.07 0 0 1-1.21-3.59v-.11Zm2.54.18c0 .9.17 1.6.5 2.08.35.47.83.7 1.47.7.61 0 1.1-.23 1.44-.7.34-.47.51-1.23.51-2.26 0-.89-.17-1.57-.51-2.06a1.69 1.69 0 0 0-1.46-.73c-.62 0-1.1.24-1.44.73-.34.48-.51 1.23-.51 2.24Zm8.2 4.66v-9.51h3.97c1.3 0 2.29.23 2.98.69.69.45 1.04 1.1 1.04 1.97 0 .43-.15.83-.44 1.18-.3.35-.71.61-1.27.8.68.13 1.21.38 1.6.77.4.37.59.83.59 1.38a2.3 2.3 0 0 1-1 2.03c-.66.46-1.63.69-2.9.69h-4.57Zm2.54-3.95v1.92h2.05c.9 0 1.34-.31 1.34-.94 0-.64-.43-.97-1.28-.98h-2.11Zm0-1.7h1.57c.9-.01 1.34-.3 1.34-.86 0-.35-.13-.6-.37-.74-.24-.15-.61-.22-1.11-.22h-1.43v1.82Zm11.21 2.14h-1.02V172h-2.54v-9.51h2.54v3.58h.9l2.08-3.58h3.21l-3.11 4.53 3.4 4.98h-3.38l-2.08-3.5ZM234.4 172c-.12-.23-.2-.51-.26-.85a3.07 3.07 0 0 1-2.4 1.03 3.4 3.4 0 0 1-2.32-.81 2.6 2.6 0 0 1-.91-2.04c0-1.01.37-1.78 1.12-2.32a5.55 5.55 0 0 1 3.24-.82h1.17v-.54c0-.44-.12-.8-.34-1.06-.23-.26-.58-.4-1.07-.4-.43 0-.76.1-1 .31-.25.2-.37.49-.37.85h-2.54c0-.55.17-1.06.51-1.53.34-.47.82-.84 1.44-1.1a5.2 5.2 0 0 1 2.1-.4c1.17 0 2.1.29 2.78.88.7.59 1.04 1.41 1.04 2.48v4.12c0 .9.13 1.59.38 2.05v.15h-2.57Zm-2.1-1.77c.37 0 .72-.08 1.03-.24.32-.17.56-.4.7-.68v-1.63h-.94c-1.27 0-1.95.44-2.03 1.31l-.01.15c0 .32.11.58.33.79.23.2.53.3.92.3ZM25.7 191.5h-1.02V195h-2.54v-9.51h2.54v3.58h.9l2.08-3.58h3.21l-3.11 4.53 3.4 4.98h-3.38l-2.08-3.5ZM44.87 195h-2.55v-7.45h-3.18V195H36.6v-9.51h8.27V195Zm1.55-4.84c0-.95.18-1.79.54-2.53a4 4 0 0 1 1.57-1.7 4.6 4.6 0 0 1 2.38-.62c1.28 0 2.33.4 3.14 1.18a4.72 4.72 0 0 1 1.36 3.2l.02.65c0 1.46-.41 2.63-1.22 3.52a4.25 4.25 0 0 1-3.28 1.32 4.28 4.28 0 0 1-3.29-1.32 5.07 5.07 0 0 1-1.22-3.59v-.11Zm2.54.18c0 .9.17 1.6.5 2.08.35.47.83.7 1.47.7.61 0 1.1-.23 1.44-.7.34-.47.52-1.23.52-2.26a3.5 3.5 0 0 0-.52-2.06 1.69 1.69 0 0 0-1.46-.73c-.62 0-1.1.24-1.44.73-.34.48-.51 1.23-.51 2.24Zm11.99 2.79c.46 0 .85-.13 1.14-.39.3-.26.44-.6.46-1.03h2.38c0 .65-.18 1.24-.53 1.78-.35.53-.82.95-1.42 1.25-.6.29-1.26.44-1.99.44a4.14 4.14 0 0 1-3.22-1.3 5.15 5.15 0 0 1-1.17-3.58v-.17c0-1.46.39-2.63 1.16-3.5a4.08 4.08 0 0 1 3.21-1.32c1.2 0 2.14.34 2.86 1.02a3.57 3.57 0 0 1 1.1 2.7h-2.38c-.02-.49-.17-.89-.46-1.2-.3-.3-.68-.46-1.16-.46-.6 0-1.04.22-1.35.65-.3.43-.44 1.13-.44 2.1v.26c0 .97.15 1.68.44 2.1.3.43.76.65 1.37.65Zm13.32-5.6h-3.05V195h-2.55v-7.47h-3v-2.04h8.6v2.04Zm4.94 3.88 1.76-5.92h2.72l-3.82 10.99-.21.5c-.57 1.24-1.5 1.86-2.81 1.86a4 4 0 0 1-1.13-.17v-1.92h.39c.48 0 .84-.06 1.07-.21.24-.15.43-.4.56-.73l.3-.78-3.33-9.54h2.73l1.77 5.91ZM92.96 195h-2.54v-7.45h-3.19V195H84.7v-9.51h8.27V195Zm10.22-9.51V195h-2.54v-7.45H98.4l-.16 2.93c-.1 1.57-.4 2.7-.92 3.42-.52.72-1.29 1.08-2.3 1.1h-.87l-.03-2.06.32-.03c.46-.04.8-.3 1-.81.21-.5.35-1.36.4-2.58l.17-4.03h7.17Zm6.33 9.69c-1.39 0-2.53-.43-3.4-1.29-.88-.85-1.31-2-1.31-3.42v-.24c0-.96.18-1.81.55-2.56.37-.76.89-1.34 1.56-1.74a4.4 4.4 0 0 1 2.32-.62c1.3 0 2.33.41 3.07 1.23a4.99 4.99 0 0 1 1.13 3.5v1.03h-6.06c.08.62.33 1.12.74 1.5.41.37.94.56 1.57.56.98 0 1.74-.36 2.3-1.07l1.24 1.4c-.38.54-.9.96-1.54 1.27-.65.3-1.37.45-2.17.45Zm-.29-7.8c-.5 0-.9.16-1.23.5-.3.34-.5.83-.6 1.46h3.54v-.2c-.01-.56-.16-1-.46-1.3-.29-.31-.7-.47-1.25-.47Zm13.9 7.62h-2.55v-3.66h-3.15V195h-2.54v-9.51h2.54v3.81h3.15v-3.81h2.55V195Zm7.7-9.51h2.54V195h-2.54v-5.87l-3.18 5.87h-2.55v-9.51h2.55v5.86l3.18-5.86Zm7.23 3.65h1.37a4.5 4.5 0 0 1 1.45-2.8 4.34 4.34 0 0 1 2.97-1.03c1.28 0 2.32.4 3.13 1.18a4.72 4.72 0 0 1 1.37 3.2l.01.65c0 1.46-.4 2.63-1.22 3.52a4.25 4.25 0 0 1-3.28 1.32 4.37 4.37 0 0 1-3.04-1.08 4.58 4.58 0 0 1-1.41-2.9h-1.35v3.8h-2.55v-9.51h2.55v3.65Zm3.83 1.2c0 .9.18 1.6.52 2.08.33.47.82.7 1.45.7s1.11-.23 1.45-.7c.34-.48.51-1.23.51-2.26a3.5 3.5 0 0 0-.52-2.06 1.69 1.69 0 0 0-1.45-.73c-.63 0-1.1.24-1.44.73-.34.48-.52 1.23-.52 2.24Zm12.68 4.66v-9.51h3.97c1.3 0 2.29.23 2.98.69.7.45 1.04 1.1 1.04 1.97 0 .43-.15.83-.44 1.18-.29.35-.71.61-1.27.8.68.13 1.22.38 1.6.77.4.37.6.83.6 1.38a2.3 2.3 0 0 1-1.01 2.03c-.66.46-1.63.69-2.9.69h-4.57Zm2.54-3.95v1.92h2.05c.9 0 1.34-.31 1.34-.94 0-.64-.43-.97-1.28-.98h-2.11Zm0-1.7h1.57c.9-.01 1.34-.3 1.34-.86 0-.35-.13-.6-.37-.74a2.19 2.19 0 0 0-1.1-.22h-1.44v1.82Zm12.14 5.65v-9.51h3.97c1.3 0 2.29.23 2.98.69.69.45 1.04 1.1 1.04 1.97 0 .43-.15.83-.44 1.18-.3.35-.71.61-1.27.8.68.13 1.21.38 1.6.77.4.37.59.83.59 1.38a2.3 2.3 0 0 1-1 2.03c-.67.46-1.63.69-2.9.69h-4.57Zm2.54-3.95v1.92h2.04c.9 0 1.35-.31 1.35-.94 0-.64-.43-.97-1.28-.98h-2.11Zm0-1.7h1.57c.89-.01 1.34-.3 1.34-.86 0-.35-.13-.6-.37-.74-.24-.15-.61-.22-1.11-.22h-1.43v1.82Zm11.86 5.83c-1.4 0-2.53-.43-3.4-1.29-.88-.85-1.32-2-1.32-3.42v-.24c0-.96.19-1.81.56-2.56.37-.76.89-1.34 1.56-1.74a4.4 4.4 0 0 1 2.32-.62c1.3 0 2.32.41 3.07 1.23a4.99 4.99 0 0 1 1.12 3.5v1.03h-6.05c.08.62.32 1.12.74 1.5.41.37.94.56 1.57.56.98 0 1.74-.36 2.3-1.07l1.24 1.4c-.38.54-.9.96-1.55 1.27-.65.3-1.37.45-2.16.45Zm-.29-7.8c-.5 0-.91.16-1.23.5-.3.34-.5.83-.6 1.46h3.54v-.2c-.02-.56-.17-1-.46-1.3-.3-.31-.7-.47-1.25-.47Zm5.78 5.57c.58-.6.97-1.21 1.17-1.8.2-.6.32-1.45.35-2.55l.07-3.11h7v7.46h1.36v4.9h-2.54V195h-5.63v2.86h-2.6v-4.9h.82Zm3 0h3.05v-5.36h-1.98l-.01 1.14a8.55 8.55 0 0 1-1.06 4.22Zm11.8-1.54 1.75-5.92h2.73l-3.82 10.99-.22.5c-.56 1.24-1.5 1.86-2.8 1.86a4 4 0 0 1-1.13-.17v-1.92h.38c.49 0 .84-.06 1.08-.21.24-.15.42-.4.56-.73l.3-.78-3.33-9.54h2.73l1.77 5.91Zm8-5.92v7.46h2.6v-7.46h2.55v7.46h2.6v-7.46h2.55v7.48h1.9l-.18 4.85h-2.37V195h-12.2v-9.51h2.55Zm19.42 0h2.54V195h-2.54v-5.87l-3.18 5.87h-2.55v-9.51h2.55v5.86l3.18-5.86Zm8.86 9.69c-1.4 0-2.53-.43-3.41-1.29-.88-.85-1.31-2-1.31-3.42v-.24c0-.96.18-1.81.55-2.56.37-.76.9-1.34 1.57-1.74a4.4 4.4 0 0 1 2.32-.62c1.3 0 2.32.41 3.06 1.23a4.99 4.99 0 0 1 1.13 3.5v1.03h-6.06c.09.62.33 1.12.74 1.5.42.37.94.56 1.57.56.98 0 1.75-.36 2.3-1.07l1.25 1.4c-.38.54-.9.96-1.55 1.27-.65.3-1.37.45-2.16.45Zm-.3-7.8c-.5 0-.9.16-1.22.5-.31.34-.51.83-.6 1.46h3.53v-.2c0-.56-.16-1-.45-1.3-.3-.31-.71-.47-1.25-.47Zm-215.4 21.11v7.46h2.62v-7.46h2.54v7.46h2.62v-7.46h2.54V218H21.98v-9.51h2.54Zm16.08 6h-1.02V218h-2.54v-9.51h2.54v3.58h.9l2.08-3.58h3.2l-3.1 4.53 3.4 4.98h-3.38l-2.08-3.5Zm5.51-1.33c0-.95.18-1.79.55-2.53a4 4 0 0 1 1.56-1.7 4.6 4.6 0 0 1 2.38-.62c1.29 0 2.33.4 3.14 1.18a4.72 4.72 0 0 1 1.36 3.2l.02.65c0 1.46-.4 2.63-1.22 3.52a4.25 4.25 0 0 1-3.28 1.32 4.28 4.28 0 0 1-3.29-1.32 5.07 5.07 0 0 1-1.22-3.59v-.11Zm2.54.18c0 .9.17 1.6.51 2.08.34.47.83.7 1.46.7.62 0 1.1-.23 1.44-.7.35-.47.52-1.23.52-2.26a3.5 3.5 0 0 0-.52-2.06 1.69 1.69 0 0 0-1.46-.73c-.62 0-1.1.24-1.44.73-.34.48-.5 1.23-.5 2.24Zm16.16-4.85V218h-2.54v-7.45h-2.24l-.15 2.93c-.1 1.57-.41 2.7-.93 3.42-.51.72-1.28 1.08-2.3 1.1h-.86l-.03-2.06.32-.03c.46-.04.79-.3 1-.81.21-.5.34-1.36.4-2.58l.17-4.03h7.16Zm4.68 2.79h1.82c.82 0 1.54.13 2.16.4a3.15 3.15 0 0 1 1.93 2.98 3 3 0 0 1-1.12 2.43c-.74.6-1.75.91-3.02.91h-4.32v-9.51h2.55v2.79Zm9.95 6.72h-2.54v-9.51h2.54V218Zm-9.95-4.69v2.66h1.8c.5 0 .9-.12 1.16-.35.27-.24.4-.56.4-.96 0-.41-.13-.73-.39-.97-.26-.25-.65-.38-1.17-.38h-1.8Zm12.85 7.9-1.33-.7.32-.57c.4-.71.6-1.42.6-2.13v-1.97h2.15v1.76c-.01.65-.18 1.3-.5 1.96a5.04 5.04 0 0 1-1.24 1.65Zm14.7-10.66h-3.94V218h-2.54v-9.51h6.48v2.06Zm6.79-2.06h2.54V218h-2.54v-5.87l-3.18 5.87h-2.55v-9.51h2.55v5.86l3.18-5.86Zm10.27 6.51 2.5-6.51h3.17V218h-2.54v-5.84l-2.27 5.84h-1.7l-2.24-5.74V218h-2.54v-9.51h3.15l2.47 6.51Zm16.13 3h-2.55v-3.66h-3.15V218h-2.54v-9.51h2.54v3.81h3.15v-3.81h2.55V218Zm7.48 0c-.12-.23-.2-.51-.25-.85a3.07 3.07 0 0 1-2.4 1.03 3.4 3.4 0 0 1-2.32-.81 2.6 2.6 0 0 1-.92-2.04c0-1.01.38-1.78 1.12-2.32a5.55 5.55 0 0 1 3.24-.82h1.17v-.54c0-.44-.11-.8-.34-1.06-.22-.26-.58-.4-1.06-.4-.43 0-.77.1-1.02.31-.24.2-.36.49-.36.85h-2.54c0-.55.17-1.06.51-1.53.34-.47.82-.84 1.44-1.1a5.2 5.2 0 0 1 2.1-.4c1.17 0 2.1.29 2.78.88.7.59 1.04 1.41 1.04 2.48v4.12c0 .9.13 1.59.38 2.05v.15h-2.57Zm-2.1-1.77c.38 0 .72-.08 1.04-.24.31-.17.55-.4.7-.68v-1.63h-.95c-1.27 0-1.95.44-2.03 1.31v.15c0 .32.1.58.33.79.22.2.52.3.91.3Zm11.23-4.94c0-.33-.1-.59-.33-.77-.22-.19-.53-.28-.93-.28-.42 0-.76.09-1.02.26a.82.82 0 0 0-.39.73h-2.54c0-.86.36-1.56 1.07-2.1.72-.54 1.63-.8 2.75-.8 1.22 0 2.18.23 2.88.71.7.48 1.05 1.17 1.05 2.05 0 .42-.13.81-.38 1.17-.26.35-.61.63-1.08.84 1.09.39 1.63 1.12 1.63 2.21 0 .87-.38 1.57-1.13 2.1-.74.5-1.73.77-2.97.77-1.16 0-2.1-.27-2.85-.81a2.55 2.55 0 0 1-1.12-2.18h2.54c0 .32.15.58.43.78.29.2.66.3 1.13.3.45 0 .8-.1 1.05-.32.25-.2.38-.48.38-.82 0-.42-.12-.72-.36-.9-.24-.17-.6-.26-1.08-.26h-1.38v-1.66h1.47c.79-.02 1.18-.36 1.18-1.02Zm9.99-2.8h2.54V218h-2.54v-5.87l-3.18 5.87h-2.55v-9.51h2.55v5.86l3.18-5.86Zm10.21 0h2.54V218h-2.54v-5.87l-3.18 5.87h-2.55v-9.51h2.55v5.86l3.18-5.86Zm14.7 0h2.54V218h-2.54v-5.87l-3.19 5.87H176v-9.51h2.54v5.86l3.19-5.86Zm17.23 0V218h-2.54v-7.45h-2.24l-.16 2.93c-.1 1.57-.4 2.7-.92 3.42-.52.72-1.28 1.08-2.3 1.1h-.87l-.02-2.06.31-.03c.46-.04.8-.3 1-.81.22-.5.35-1.36.4-2.58l.18-4.03h7.16Zm7.7 0h2.53V218h-2.54v-5.87l-3.18 5.87h-2.55v-9.51h2.55v5.86l3.18-5.86Zm4.47 0h2.54v7.46h3.19v-7.46h2.54v7.48h1.43l-.18 4.85h-2.36V218h-7.16v-9.51Zm15.35 9.69c-1.4 0-2.53-.43-3.41-1.29-.87-.85-1.31-2-1.31-3.42v-.24c0-.96.18-1.81.55-2.56.37-.76.9-1.34 1.57-1.74a4.4 4.4 0 0 1 2.32-.62c1.3 0 2.32.41 3.07 1.23a4.99 4.99 0 0 1 1.12 3.5v1.03h-6.05c.08.62.32 1.12.73 1.5.42.37.94.56 1.58.56.97 0 1.74-.36 2.29-1.07l1.25 1.4c-.38.54-.9.96-1.55 1.27-.65.3-1.37.45-2.16.45Zm-.3-7.8c-.5 0-.9.16-1.22.5-.31.34-.51.83-.6 1.46h3.53v-.2c0-.56-.16-1-.45-1.3-.3-.31-.71-.47-1.25-.47Zm11.4-1.89h2.53V218h-2.54v-5.87L234.4 218h-2.55v-9.51h2.55v5.86l3.18-5.86Z" fill="#fff"/><path d="M300.3 48.28c-20.72-1.26-30.06-26.54-15.14-40.96A23.85 23.85 0 0 1 298.24.88l89.91-13.35c22.54-3.34 38.58 21.34 26.39 40.58a26.62 26.62 0 0 1-11.85 10.15l-5.32 2.32A124.31 124.31 0 0 1 340.2 50.7l-39.9-2.42Z" fill="#2DF1F1" fill-opacity=".71"/><path d="M314.28 29.82c1.16 0 1.74.46 1.74 1.38 0 .95-.58 1.42-1.74 1.42h-.44v.68c0 .6-.17 1.05-.5 1.36-.33.3-.77.46-1.3.46s-.97-.15-1.3-.46c-.32-.3-.48-.76-.48-1.36v-.68h-4.46a1.5 1.5 0 0 1-1.14-.44c-.28-.3-.42-.66-.42-1.1 0-.47.15-.9.44-1.32l5.72-8.16a1.99 1.99 0 0 1 2.9-.34c.36.32.54.77.54 1.34v7.22h.44Zm-6.42 0h2.4v-3.46l-2.4 3.46Zm10.65 1.2c-1.1 0-1.66-.47-1.66-1.4 0-.92.55-1.38 1.66-1.38h3.76c.56 0 .98.12 1.24.36.28.24.42.58.42 1.02 0 .44-.14.79-.42 1.04-.26.24-.68.36-1.24.36h-3.76Zm16.35-10.12c.48 0 .84.15 1.1.44.27.28.4.64.4 1.08 0 .45-.13.9-.38 1.32l-6.06 10.5a1.72 1.72 0 0 1-1.54.94c-.47 0-.88-.15-1.24-.46a1.5 1.5 0 0 1-.54-1.16c0-.32.1-.64.28-.96l5.14-8.78h-5c-.62 0-1.06-.12-1.34-.36-.27-.24-.4-.6-.4-1.08 0-.5.14-.86.42-1.1.28-.25.72-.38 1.32-.38h7.84Zm14.35 4.76c0 2.55-.31 4.5-.94 5.88a6.54 6.54 0 0 1-2.74 3.08 2.4 2.4 0 0 1-1.22.38c-.44 0-.8-.14-1.08-.42-.28-.3-.42-.65-.42-1.06 0-.33.1-.65.3-.96.2-.32.5-.6.9-.84 1.1-.75 1.66-2.55 1.66-5.42v-3.7c0-.55.15-.97.44-1.26.3-.3.72-.44 1.26-.44h7.2c.55 0 .97.15 1.26.44.3.3.46.71.46 1.26v10.7c0 .55-.16.99-.5 1.32-.33.33-.77.5-1.32.5-.54 0-.98-.16-1.32-.48a1.85 1.85 0 0 1-.48-1.34v-9.52h-3.46v1.88ZM360.5 35c-.55 0-.97-.15-1.26-.44-.3-.3-.44-.71-.44-1.26V22.6c0-.55.15-.97.44-1.26.3-.3.71-.44 1.26-.44h6.92c.57 0 1 .12 1.3.36.3.24.44.59.44 1.04 0 .96-.58 1.44-1.74 1.44h-5.04v2.68h4.64c1.16 0 1.74.47 1.74 1.42 0 .45-.15.8-.44 1.04-.3.24-.73.36-1.3.36h-4.64v2.92h5.04c1.16 0 1.74.48 1.74 1.44 0 .45-.15.8-.44 1.04-.3.24-.73.36-1.3.36h-6.92Zm15.55.1c-.56 0-1.02-.16-1.36-.48-.34-.33-.5-.77-.5-1.32v-9.42h-2.82c-.59 0-1.03-.12-1.32-.36-.28-.25-.42-.63-.42-1.14 0-.5.14-.88.42-1.12.29-.24.73-.36 1.32-.36h9.36c.58 0 1.02.12 1.3.36.29.24.44.61.44 1.12 0 .5-.15.89-.44 1.14-.28.24-.72.36-1.3.36h-2.82v9.42c0 .55-.18.99-.52 1.32-.34.32-.78.48-1.34.48Z" fill="#fff"/></g><defs><radialGradient id="b" cx="0" cy="0" r="1" gradientUnits="userSpaceOnUse" gradientTransform="matrix(-45.52396 -31.5164 33.94385 -49.03029 349.88 197.2)"><stop stop-color="#fff" stop-opacity="0"/><stop offset="1" stop-color="#F5BD99"/></radialGradient><clipPath id="a"><rect x=".67" width="393.33" height="280" rx="16" fill="#fff"/></clipPath></defs></svg>