<svg width="394" height="280" fill="none" xmlns="http://www.w3.org/2000/svg"><g clip-path="url(#a)"><rect x=".33" width="393.33" height="280" rx="16" fill="#56BAEA"/><path d="M347.48 281.13c-57.34 4.43-91.31 4.6-151.19.04a2.02 2.02 0 0 1-1.66-2.89c8.16-16.68 12.88-26.86 27.92-44.68.38-.44.94-.7 1.53-.7h110.18a2 2 0 0 1 1.82 1.18c9.02 20.21 9.15 28.33 13.2 44.53.31 1.21-.56 2.42-1.8 2.52Z" fill="#fff" stroke="#000" stroke-width="2" stroke-linecap="round" stroke-linejoin="round"/><path d="m236.63 265.77 9.2-1.73m12.05 9.79-1.15 4.03m16.66-8.06 4.6 5.75m1.14-17.84 7.47-2.88m-29.87 1.15c3.26-2.69 10.69-6.1 14.36 1.73 3.68 7.83-4.98 10.17-9.76 10.36-1.34.57-5.17.35-9.76-5.18" stroke="#D10966" stroke-width="2" stroke-linecap="round" stroke-linejoin="round"/><path d="M291.47 248.37c.93-9.9-7.56-11.78-10.47-15.32l-51.17-1.18c-7.9 5.19-1.16 13.94 0 17.67-7.75-1.76-20.24-10.83-8.14-32.98 15.12-27.7 45.36-19.44 53.5-22.98 8.14-3.53 45.93 7.66 54.07 20.62s2.91 32.4-8.14 30.04c-8.83-1.88-23.45 1.97-29.65 4.13Z" fill="#1299C8" stroke="#000" stroke-width="2" stroke-linecap="round" stroke-linejoin="round"/><path d="M266.61 250.57c6.16 2.39 18.95-2.38 26.65-6.56 0-10.03-7.9-14.92-11.84-16.11-16.58 4.77-22.5 19.69-14.8 22.67Z" fill="#F6D6BD" stroke="#000" stroke-width="2" stroke-linecap="round" stroke-linejoin="round"/><path d="M256.62 246.63v9.58l-9.47-5.07-17.18-27.03c2.37-5.4 6.91-4.88 8.88-3.95l17.77 26.47Z" fill="#D10966" stroke="#000" stroke-width="2" stroke-linecap="round" stroke-linejoin="round"/><path d="M248.65 225.06c-3.3-2.59-18.64 1.96-21.72 7.68-2.66 4.94-1.36 13 1.72 15.12 3.85 2.65 8.24-2.37 18.3-5.63 10.08-3.26 5.82-13.93 1.7-17.17ZM218.39 160.74c-.93 13.01 7.32 15.49 11.57 15.1 0 11.04 4.62 34.28 37.02 43 25.91 6.97 43.57-2.91 49.16-8.72 2.9 2.52 10.88 5.34 19.67-3.49 8.8-8.83 1.35-19.94-3.47-24.4 4.63-22.07-1.74-43.57-40.5-60.42-31-13.48-50.32 11.81-56.1 26.15-5.4-1.17-16.43-.24-17.35 12.78Z" fill="#F6D6BD" stroke="#000" stroke-width="2" stroke-linecap="round" stroke-linejoin="round"/><path d="M242.28 157.06c4.64-7.43 22.01-12.76 30.12-14.5 1.86 13.46 17 27.27 24.33 32.5-5.56-6.04-8.88-16.06-9.84-20.32 5.1 11.15 29.54 25.54 41.13 31.34-2.32 8.82-6.76 14.9-8.7 16.83 26.88-13 27.42-41.4 24.33-53.97 2.79 3.25 15.84 6 22.02 6.96-1.86-.93-3.48-5.03-4.06-6.96 5.1-.47 7.92-3.68 8.7-5.22-2.33-.93-6.77-3.1-8.7-4.07 3.25-1.39 9.08-1.74 11.59-1.74-1.86-2.32-11.2-4.84-15.64-5.8.46-2.32 7.91-10.26 11.58-13.93-3.7-2.32-13.13 4.84-17.38 8.7-.46-3.71.97-10.05 1.74-12.76-5.56 3.71-11.97 14.7-14.48 19.73-12.97-22.75-35.53-25.73-45.18-24.38-17.61-11.6-37.85-1.74-45.76 4.65.92-5.58-3.48-19.74-5.8-26.12 0 4.18-2.7 11.03-4.05 13.93-.93-5.1-9.66-11.42-13.9-13.93 3.47 5.22 3.47 20.31 2.9 20.31h-13.91c.93 4.18 5.4 8.32 7.53 9.87l-7.53 2.9c5.56 3.72 18.15 3.48 23.17 2.9-4.64 4.65-6.57 15.87-6.95 20.9h2.9c-3.25 7.43-3.29 19.73-2.9 24.95 5.1-16.25 18.34-24.95 24.33-27.28-5.56 3.25-10.04 11.03-11.59 14.51Z" fill="#FDB233" stroke="#000" stroke-width="2" stroke-linecap="round" stroke-linejoin="round"/><path d="M346.09 153.61c-.96-6.97-5.59-17.62-7.78-22.08-.56-1.16 1.8-2.9 4.79-1.16 2.99 1.75 10.77 18.01 7.77 22.08-2.39 3.26-4.18 2.13-4.78 1.16Z" fill="#D10966" stroke="#000" stroke-width="2" stroke-linecap="round" stroke-linejoin="round"/><path d="M248.83 112.65c-4.6 2.4-10.73 8.97-13.21 11.96-.65.77-2.55-1.02-2.19-4.16.37-3.14 9.52-13.84 13.22-11.97 2.96 1.5 2.68 3.4 2.18 4.17Z" fill="#D5006C" stroke="#000" stroke-width="2" stroke-linecap="round" stroke-linejoin="round"/><path d="M246.98 178.22c-1.5-2.16 2.1-6.27 4.45-5.07a3.54 3.54 0 0 1 1.26 5.07c-1.27 1.84-4.44 1.84-5.7 0ZM303.52 193.21c-1.13-2.16 1.57-6.27 3.33-5.07 1.36.93 1.83 3.4.95 5.07a2.36 2.36 0 0 1-4.28 0Z" fill="#43D6F6" stroke="#000" stroke-width="2" stroke-linecap="round" stroke-linejoin="round"/><path d="M269.94 205c3.3 1.16 11.23 2.54 16.66-1.15m-16.66-16.7c1.44-.96 4.44-1.96 4.94 1.73" stroke="#000" stroke-width="2" stroke-linecap="round" stroke-linejoin="round"/><path d="M32.3 66.77c-2.16 0-4.04-.44-5.64-1.32A9.25 9.25 0 0 1 23 61.67a12.23 12.23 0 0 1-1.29-5.76c0-2.2.43-4.11 1.3-5.73a9.02 9.02 0 0 1 3.65-3.78c1.6-.88 3.48-1.32 5.64-1.32 2.16 0 4.03.44 5.61 1.32a8.79 8.79 0 0 1 3.66 3.78 12.05 12.05 0 0 1 1.3 5.73c0 2.2-.44 4.12-1.3 5.76a9.2 9.2 0 0 1-3.69 3.78 11.29 11.29 0 0 1-5.58 1.32Zm0-4.23c1.6 0 2.85-.56 3.75-1.68.9-1.14 1.35-2.79 1.35-4.95s-.46-3.8-1.38-4.92a4.51 4.51 0 0 0-3.72-1.68c-1.6 0-2.85.56-3.75 1.68-.9 1.1-1.35 2.74-1.35 4.92 0 2.18.45 3.83 1.35 4.95a4.54 4.54 0 0 0 3.75 1.68Zm23.8 4.23a11.4 11.4 0 0 1-5.59-1.32 9.2 9.2 0 0 1-3.69-3.78 12.23 12.23 0 0 1-1.29-5.76c0-2.18.43-4.09 1.29-5.73a9.2 9.2 0 0 1 3.69-3.78 11.4 11.4 0 0 1 5.58-1.32c2.54 0 4.77.67 6.69 2.01.34.24.58.5.72.78.16.28.24.64.24 1.08 0 .62-.18 1.15-.54 1.59-.34.42-.76.63-1.26.63-.3 0-.57-.04-.8-.12-.25-.1-.53-.25-.85-.45a8.51 8.51 0 0 0-1.98-.9 6.85 6.85 0 0 0-1.92-.27c-1.78 0-3.11.54-3.99 1.62-.86 1.06-1.29 2.68-1.29 4.86 0 2.2.43 3.84 1.29 4.92.88 1.06 2.21 1.59 4 1.59.59 0 1.17-.09 1.73-.27a29.25 29.25 0 0 0 3.09-1.35c.2-.08.44-.12.72-.12.5 0 .92.22 1.26.66.36.42.54.94.54 1.56 0 .42-.08.78-.24 1.08-.14.28-.38.54-.72.78a11.4 11.4 0 0 1-6.69 2.01ZM83.07 45.2a2.58 2.58 0 0 1 2.7 2.7v16.05c0 .82-.25 1.48-.75 1.98-.48.5-1.13.75-1.95.75-.82 0-1.48-.24-1.98-.72a2.78 2.78 0 0 1-.72-2.01v-6h-8.64v6c0 .82-.25 1.48-.75 1.98-.48.5-1.13.75-1.95.75-.82 0-1.48-.24-1.98-.72a2.78 2.78 0 0 1-.72-2.01V47.9c0-.82.24-1.47.72-1.95.5-.5 1.16-.75 1.98-.75a2.58 2.58 0 0 1 2.7 2.7v5.67h8.64V47.9c0-.82.24-1.47.72-1.95.5-.5 1.16-.75 1.98-.75Zm16.54 21.57c-2.16 0-4.04-.44-5.64-1.32a9.25 9.25 0 0 1-3.66-3.78 12.23 12.23 0 0 1-1.29-5.76c0-2.2.43-4.11 1.3-5.73a9.02 9.02 0 0 1 3.65-3.78c1.6-.88 3.48-1.32 5.64-1.32 2.16 0 4.03.44 5.61 1.32a8.79 8.79 0 0 1 3.66 3.78 12.05 12.05 0 0 1 1.3 5.73c0 2.2-.44 4.12-1.3 5.76a9.2 9.2 0 0 1-3.69 3.78 11.29 11.29 0 0 1-5.58 1.32Zm0-4.23c1.6 0 2.85-.56 3.75-1.68.9-1.14 1.35-2.79 1.35-4.95s-.46-3.8-1.38-4.92a4.51 4.51 0 0 0-3.72-1.68c-1.6 0-2.85.56-3.75 1.68-.9 1.1-1.35 2.74-1.35 4.92 0 2.18.45 3.83 1.35 4.95a4.54 4.54 0 0 0 3.75 1.68Zm27.96-7.02a5.34 5.34 0 0 1 2.85 1.92c.66.88.99 1.97.99 3.27 0 1.16-.31 2.18-.93 3.06a5.84 5.84 0 0 1-2.61 2.01 10 10 0 0 1-3.96.72h-7.98c-.82 0-1.45-.22-1.89-.66-.44-.44-.66-1.07-.66-1.89V47.9c0-.82.22-1.45.66-1.89.44-.44 1.07-.66 1.89-.66h7.68c2.22 0 3.98.5 5.28 1.5a4.7 4.7 0 0 1 1.98 3.99c0 1.08-.29 2.04-.87 2.88a4.97 4.97 0 0 1-2.43 1.8Zm-8.82-1.86h3.93a4.2 4.2 0 0 0 2.28-.48c.48-.32.72-.83.72-1.53 0-.74-.24-1.28-.72-1.62-.48-.34-1.24-.51-2.28-.51h-3.93v4.14Zm4.47 8.67c1.1 0 1.88-.17 2.34-.51.48-.36.72-.94.72-1.74s-.24-1.37-.72-1.71c-.46-.36-1.24-.54-2.34-.54h-4.47v4.5h4.47Zm13.51 4.17c-.82 0-1.45-.22-1.89-.66-.44-.44-.66-1.07-.66-1.89V47.9c0-.82.24-1.48.72-1.98.5-.5 1.16-.75 1.98-.75.82 0 1.47.25 1.95.75.5.48.75 1.14.75 1.98v5.25h3.45c2.34 0 4.14.56 5.4 1.68 1.28 1.12 1.92 2.72 1.92 4.8 0 2.24-.73 3.95-2.19 5.13-1.44 1.16-3.37 1.74-5.79 1.74h-5.64Zm18.69.18c-.82 0-1.48-.24-1.98-.72a2.78 2.78 0 0 1-.72-2.01V47.9c0-.82.24-1.48.72-1.98.5-.5 1.16-.75 1.98-.75.82 0 1.47.25 1.95.75.5.48.75 1.14.75 1.98v16.05c0 .82-.25 1.48-.75 1.98-.48.5-1.13.75-1.95.75Zm-12.87-4.35c1 0 1.75-.23 2.25-.69.52-.46.78-1.11.78-1.95 0-1-.25-1.71-.75-2.13-.48-.44-1.24-.66-2.28-.66h-3.15v5.43h3.15ZM42.5 104.11c.18.38.27.75.27 1.11 0 .66-.27 1.22-.8 1.68-.53.46-1.13.69-1.8.69a2.31 2.31 0 0 1-2.17-1.44l-1.35-3.03h-9.72l-1.38 3.03a2.36 2.36 0 0 1-2.19 1.44c-.68 0-1.3-.23-1.86-.69a2.13 2.13 0 0 1-.8-1.68c0-.36.08-.73.26-1.11l7.92-16.26c.26-.54.64-.95 1.14-1.23a3.36 3.36 0 0 1 3.4 0c.51.28.9.69 1.16 1.23l7.92 16.26Zm-13.7-5.13h6l-3-6.69-3 6.69Zm18.92 8.7c-.82 0-1.48-.24-1.98-.72a2.78 2.78 0 0 1-.72-2.01V88.9c0-.82.24-1.48.72-1.98.5-.5 1.16-.75 1.98-.75.82 0 1.47.25 1.95.75.5.48.75 1.14.75 1.98v5.67H52l6.06-7.35a2.5 2.5 0 0 1 1.98-1.02c.62 0 1.16.23 1.62.69.48.44.72.96.72 1.56 0 .6-.22 1.15-.66 1.65l-4.74 5.58c.74.34 1.3.67 1.7.99.4.32.77.72 1.09 1.2.32.46.8 1.25 1.44 2.37l1.86 3.33c.28.48.42.98.42 1.5 0 .72-.26 1.33-.78 1.83s-1.12.75-1.8.75c-.96 0-1.72-.49-2.28-1.47l-2.76-5.04a4.66 4.66 0 0 0-1.38-1.71 4.06 4.06 0 0 0-2.22-.48h-1.86v6c0 .82-.25 1.48-.75 1.98-.48.5-1.13.75-1.95.75Zm39.34-3.57c.18.38.27.75.27 1.11 0 .66-.27 1.22-.8 1.68-.53.46-1.13.69-1.8.69a2.31 2.31 0 0 1-2.17-1.44l-1.35-3.03H71.5l-1.38 3.03a2.36 2.36 0 0 1-2.19 1.44c-.68 0-1.3-.23-1.86-.69a2.13 2.13 0 0 1-.8-1.68c0-.36.08-.73.26-1.11l7.92-16.26c.26-.54.64-.95 1.14-1.23a3.36 3.36 0 0 1 3.4 0c.51.28.9.69 1.16 1.23l7.92 16.26Zm-13.7-5.13h6l-3-6.69-3 6.69Zm17.38 13.92c-.76 0-1.37-.25-1.83-.75a2.74 2.74 0 0 1-.69-1.98v-4.44c0-.82.22-1.45.66-1.89.44-.44 1.07-.66 1.9-.66h.71c.66-1.78 1.1-3.68 1.32-5.7.22-2.02.33-4.27.33-6.75V88.9c0-.82.22-1.45.66-1.89.44-.44 1.07-.66 1.9-.66h10.61c.82 0 1.45.22 1.9.66.43.44.65 1.07.65 1.89v14.28h.45c.82 0 1.45.22 1.9.66.43.44.65 1.07.65 1.89v4.44a2.8 2.8 0 0 1-.69 1.98c-.46.5-1.07.75-1.83.75s-1.37-.25-1.83-.75a2.74 2.74 0 0 1-.69-1.98v-2.67H93.26v2.67a2.8 2.8 0 0 1-.69 1.98c-.46.5-1.07.75-1.83.75Zm12.72-22.29h-5.55v-.06c0 2.7-.15 5.04-.45 7.02a25.92 25.92 0 0 1-1.44 5.64h7.44v-12.6ZM117 107.5c-.83 0-1.45-.22-1.9-.66-.43-.44-.66-1.07-.66-1.89V88.9c0-.82.23-1.45.67-1.89.44-.44 1.06-.66 1.89-.66h10.38c.86 0 1.5.18 1.94.54.44.36.67.88.67 1.56 0 1.44-.88 2.16-2.62 2.16h-7.56v4.02h6.97c1.73 0 2.6.71 2.6 2.13 0 .68-.22 1.2-.66 1.56-.44.36-1.08.54-1.94.54h-6.97v4.38h7.56c1.75 0 2.62.72 2.62 2.16 0 .68-.23 1.2-.67 1.56-.44.36-1.08.54-1.94.54H117Zm34.07-21.3c.76 0 1.38.25 1.86.75.48.5.72 1.15.72 1.95v16.32c0 .76-.22 1.36-.66 1.8-.44.44-1.02.66-1.74.66-.7 0-1.28-.22-1.74-.66a2.43 2.43 0 0 1-.66-1.8V96.4l-3.42 6.3c-.34.64-.7 1.1-1.08 1.38-.38.26-.83.39-1.35.39-.52 0-.97-.13-1.35-.39a4.04 4.04 0 0 1-1.08-1.38l-3.4-6.12v8.64c0 .74-.22 1.34-.68 1.8-.44.44-1.02.66-1.74.66-.7 0-1.28-.22-1.74-.66a2.43 2.43 0 0 1-.66-1.8V88.9c0-.8.24-1.45.72-1.95.5-.5 1.13-.75 1.89-.75.54 0 1.03.16 1.47.48.44.3.8.74 1.1 1.32l5.53 10.38L148.55 88c.62-1.2 1.46-1.8 2.52-1.8Zm19.64 1.71c.46-.66.92-1.11 1.38-1.35.48-.26 1.2-.39 2.16-.39.82 0 1.45.22 1.89.66.44.42.66 1.04.66 1.86v16.26c0 .82-.25 1.48-.75 1.98-.48.5-1.13.75-1.95.75-.82 0-1.48-.24-1.98-.72a2.78 2.78 0 0 1-.72-2.01V94.21l-7.35 11.07c-.48.68-.92 1.2-1.32 1.56-.38.34-.78.56-1.2.66-.4.12-.9.18-1.5.18-.82 0-1.45-.21-1.9-.63-.43-.44-.65-1.07-.65-1.89V88.9c0-.82.24-1.48.72-1.98.5-.5 1.16-.75 1.98-.75.82 0 1.47.25 1.95.75.5.48.75 1.14.75 1.98v10.71l7.83-11.7Zm9.58.99c0-.82.24-1.48.72-1.98.5-.5 1.16-.75 1.98-.75.82 0 1.47.25 1.95.75.5.48.75 1.14.75 1.98v3.78c0 1.2.3 2.09.87 2.67.6.58 1.62.87 3.06.87 1.02 0 1.8-.09 2.31-.27V88.9c0-.82.25-1.48.75-1.98s1.16-.75 1.98-.75c.82 0 1.47.25 1.95.75.5.48.75 1.14.75 1.98v16.05c0 .82-.25 1.48-.75 1.98-.48.5-1.13.75-1.95.75-.82 0-1.48-.24-1.98-.72-.5-.5-.75-1.17-.75-2.01v-4.86a19.05 19.05 0 0 1-3.57.39c-2.5 0-4.47-.54-5.9-1.62-1.45-1.08-2.17-2.79-2.17-5.13V88.9Zm23.39 18.6c-.82 0-1.45-.22-1.9-.66-.43-.44-.65-1.07-.65-1.89V88.9c0-.82.22-1.45.66-1.89.44-.44 1.07-.66 1.89-.66h10.38c.86 0 1.5.18 1.95.54.44.36.66.88.66 1.56 0 1.44-.87 2.16-2.61 2.16h-7.56v4.02h6.96c1.74 0 2.6.71 2.6 2.13 0 .68-.21 1.2-.65 1.56-.44.36-1.1.54-1.95.54h-6.96v4.38h7.56c1.74 0 2.6.72 2.6 2.16 0 .68-.21 1.2-.65 1.56-.44.36-1.1.54-1.95.54h-10.38Zm25.34.27a11.4 11.4 0 0 1-5.58-1.32 9.2 9.2 0 0 1-3.7-3.78 12.23 12.23 0 0 1-1.28-5.76c0-2.18.43-4.09 1.29-5.73a9.2 9.2 0 0 1 3.69-3.78 11.4 11.4 0 0 1 5.58-1.32c2.54 0 4.77.67 6.69 2.01.34.24.58.5.72.78.16.28.24.64.24 1.08 0 .62-.18 1.15-.54 1.59-.34.42-.76.63-1.26.63-.3 0-.57-.04-.81-.12-.24-.1-.52-.25-.84-.45a8.51 8.51 0 0 0-1.98-.9 6.85 6.85 0 0 0-1.92-.27c-1.78 0-3.11.54-4 1.62-.85 1.06-1.28 2.68-1.28 4.86 0 2.2.43 3.84 1.29 4.92.88 1.06 2.2 1.59 3.99 1.59.6 0 1.18-.09 1.74-.27a29.25 29.25 0 0 0 3.09-1.35c.2-.08.44-.12.72-.12.5 0 .92.22 1.26.66.36.42.54.94.54 1.56 0 .42-.08.78-.24 1.08-.14.28-.38.54-.72.78a11.4 11.4 0 0 1-6.7 2.01Zm12.95-.09c-.82 0-1.48-.24-1.98-.72a2.78 2.78 0 0 1-.72-2.01V88.9c0-.82.24-1.48.72-1.98.5-.5 1.16-.75 1.98-.75.82 0 1.47.25 1.95.75.5.48.75 1.14.75 1.98v5.67h1.6l6.05-7.35a2.5 2.5 0 0 1 1.98-1.02c.62 0 1.16.23 1.62.69.48.44.72.96.72 1.56 0 .6-.22 1.15-.66 1.65l-4.74 5.58c.74.34 1.31.67 1.71.99.4.32.76.72 1.08 1.2.32.46.8 1.25 1.44 2.37l1.86 3.33c.28.48.42.98.42 1.5 0 .72-.26 1.33-.78 1.83s-1.12.75-1.8.75c-.96 0-1.72-.49-2.28-1.47l-2.76-5.04a4.66 4.66 0 0 0-1.38-1.71 4.06 4.06 0 0 0-2.22-.48h-1.86v6c0 .82-.25 1.48-.75 1.98-.48.5-1.13.75-1.95.75Zm28.47.09c-2.16 0-4.04-.44-5.64-1.32a9.25 9.25 0 0 1-3.66-3.78 12.23 12.23 0 0 1-1.29-5.76c0-2.2.43-4.11 1.3-5.73a9.02 9.02 0 0 1 3.65-3.78c1.6-.88 3.48-1.32 5.64-1.32 2.16 0 4.03.44 5.61 1.32a8.79 8.79 0 0 1 3.66 3.78 12.05 12.05 0 0 1 1.3 5.73c0 2.2-.44 4.12-1.3 5.76a9.2 9.2 0 0 1-3.69 3.78 11.29 11.29 0 0 1-5.58 1.32Zm0-4.23c1.6 0 2.85-.56 3.75-1.68.9-1.14 1.35-2.79 1.35-4.95s-.46-3.8-1.38-4.92a4.51 4.51 0 0 0-3.72-1.68c-1.6 0-2.85.56-3.75 1.68-.9 1.1-1.35 2.74-1.35 4.92 0 2.18.45 3.83 1.35 4.95a4.54 4.54 0 0 0 3.75 1.68Zm16.47 4.14c-.82 0-1.48-.24-1.98-.72a2.78 2.78 0 0 1-.72-2.01V88.9c0-.76.23-1.37.69-1.83.48-.48 1.1-.72 1.86-.72h10.38c.8 0 1.39.19 1.77.57.4.38.6.9.6 1.56 0 .68-.2 1.22-.6 1.62-.38.38-.97.57-1.77.57h-7.53v14.28c0 .82-.25 1.48-.75 1.98-.48.5-1.13.75-1.95.75Zm24.63.09c-2.16 0-4.04-.44-5.64-1.32a9.25 9.25 0 0 1-3.66-3.78 12.23 12.23 0 0 1-1.29-5.76c0-2.2.43-4.11 1.3-5.73a9.02 9.02 0 0 1 3.65-3.78c1.6-.88 3.48-1.32 5.64-1.32 2.16 0 4.03.44 5.61 1.32a8.79 8.79 0 0 1 3.66 3.78 12.05 12.05 0 0 1 1.3 5.73c0 2.2-.44 4.12-1.3 5.76a9.2 9.2 0 0 1-3.69 3.78 11.29 11.29 0 0 1-5.58 1.32Zm0-4.23c1.6 0 2.85-.56 3.75-1.68.9-1.14 1.35-2.79 1.35-4.95s-.46-3.8-1.38-4.92a4.51 4.51 0 0 0-3.72-1.68c-1.6 0-2.85.56-3.75 1.68-.9 1.1-1.35 2.74-1.35 4.92 0 2.18.45 3.83 1.35 4.95a4.54 4.54 0 0 0 3.75 1.68ZM24.98 148.68c-.84 0-1.5-.24-2-.72a2.78 2.78 0 0 1-.73-2.01V129.9c0-.82.22-1.45.66-1.89.44-.44 1.07-.66 1.9-.66h7.67c2.34 0 4.16.6 5.46 1.8 1.3 1.18 1.95 2.83 1.95 4.95 0 2.1-.66 3.75-1.98 4.95-1.3 1.2-3.1 1.8-5.43 1.8h-4.7v5.1c0 .84-.26 1.51-.76 2.01-.5.48-1.18.72-2.04.72Zm6.75-11.97c1.02 0 1.77-.21 2.25-.63.5-.42.75-1.07.75-1.95 0-1.74-1-2.61-3-2.61h-3.96v5.19h3.96Zm24-7.8c.46-.66.92-1.11 1.38-1.35.48-.26 1.2-.39 2.16-.39.82 0 1.45.22 1.89.66.44.42.66 1.04.66 1.86v16.26c0 .82-.25 1.48-.75 1.98-.48.5-1.13.75-1.95.75-.82 0-1.48-.24-1.98-.72a2.78 2.78 0 0 1-.72-2.01v-10.74l-7.35 11.07c-.48.68-.92 1.2-1.32 1.56-.38.34-.78.56-1.2.66-.4.12-.9.18-1.5.18-.82 0-1.45-.21-1.9-.63-.43-.44-.65-1.07-.65-1.89V129.9c0-.82.24-1.48.72-1.98.5-.5 1.16-.75 1.98-.75.82 0 1.47.25 1.95.75.5.48.75 1.14.75 1.98v10.71l7.83-11.7Zm19.9 19.86a11.4 11.4 0 0 1-5.58-1.32 9.2 9.2 0 0 1-3.69-3.78 12.23 12.23 0 0 1-1.29-5.76c0-2.18.43-4.09 1.29-5.73a9.2 9.2 0 0 1 3.69-3.78 11.4 11.4 0 0 1 5.58-1.32c2.54 0 4.77.67 6.69 2.01.34.24.58.5.72.78.16.28.24.64.24 1.08 0 .62-.18 1.15-.54 1.59-.34.42-.76.63-1.26.63-.3 0-.57-.04-.81-.12-.24-.1-.52-.25-.84-.45a8.51 8.51 0 0 0-1.98-.9 6.85 6.85 0 0 0-1.92-.27c-1.78 0-3.11.54-3.99 1.62-.86 1.06-1.29 2.68-1.29 4.86 0 2.2.43 3.84 1.29 4.92.88 1.06 2.21 1.59 3.99 1.59.6 0 1.18-.09 1.74-.27a29.25 29.25 0 0 0 3.09-1.35c.2-.08.44-.12.72-.12.5 0 .92.22 1.26.66.36.42.54.94.54 1.56 0 .42-.08.78-.24 1.08-.14.28-.38.54-.72.78a11.4 11.4 0 0 1-6.69 2.01Zm23.33-20.1c.26-.5.6-.87 1-1.11.4-.26.82-.39 1.28-.39.68 0 1.28.24 1.8.72.52.46.78 1.04.78 1.74 0 .46-.1.9-.33 1.32l-8.13 16.17a2.9 2.9 0 0 1-.99 1.17c-.4.26-.83.39-1.29.39-.68 0-1.29-.25-1.83-.75a2.4 2.4 0 0 1-.78-1.8c0-.4.1-.8.3-1.2l1.44-2.85-6.6-11.01a2.7 2.7 0 0 1-.45-1.5c0-.68.25-1.25.75-1.71a2.4 2.4 0 0 1 1.71-.72c.42 0 .81.11 1.17.33.38.22.71.56 1 1.02l5 8.46 4.17-8.28Zm24.67-1.47a2.58 2.58 0 0 1 2.7 2.7v16.05c0 .82-.25 1.48-.75 1.98-.48.5-1.13.75-1.95.75-.82 0-1.48-.24-1.98-.72a2.78 2.78 0 0 1-.72-2.01v-6h-8.64v6c0 .82-.25 1.48-.75 1.98-.48.5-1.13.75-1.95.75-.82 0-1.48-.24-1.98-.72a2.78 2.78 0 0 1-.72-2.01V129.9c0-.82.24-1.47.72-1.95.5-.5 1.16-.75 1.98-.75a2.58 2.58 0 0 1 2.7 2.7v5.67h8.64v-5.67c0-.82.24-1.47.72-1.95.5-.5 1.16-.75 1.98-.75Zm9.19 21.48c-.82 0-1.48-.24-1.98-.72a2.78 2.78 0 0 1-.72-2.01V129.9c0-.82.24-1.48.72-1.98.5-.5 1.16-.75 1.98-.75.82 0 1.47.25 1.95.75.5.48.75 1.14.75 1.98v5.67h1.59l6.06-7.35a2.5 2.5 0 0 1 1.98-1.02c.62 0 1.16.23 1.62.69.48.44.72.96.72 1.56 0 .6-.22 1.15-.66 1.65l-4.74 5.58c.74.34 1.3.67 1.7.99.4.32.77.72 1.09 1.2.32.46.8 1.25 1.44 2.37l1.86 3.33c.28.48.42.98.42 1.5 0 .72-.26 1.33-.78 1.83s-1.12.75-1.8.75c-.96 0-1.72-.49-2.28-1.47l-2.76-5.04a4.66 4.66 0 0 0-1.38-1.71 4.06 4.06 0 0 0-2.22-.48h-1.86v6c0 .82-.25 1.48-.75 1.98-.48.5-1.13.75-1.95.75Zm39.34-3.57c.18.38.27.75.27 1.11 0 .66-.27 1.22-.8 1.68-.53.46-1.13.69-1.8.69a2.31 2.31 0 0 1-2.17-1.44l-1.35-3.03h-9.72l-1.38 3.03a2.36 2.36 0 0 1-2.19 1.44c-.68 0-1.3-.23-1.86-.69a2.13 2.13 0 0 1-.8-1.68c0-.36.08-.73.26-1.11l7.92-16.26c.26-.54.64-.95 1.14-1.23a3.36 3.36 0 0 1 3.4 0c.51.28.9.69 1.16 1.23l7.92 16.26Zm-13.7-5.13h6l-3-6.69-3 6.69ZM29.14 178.7h2.64v12.8h-2.64V183l-5.13 8.5H21.4v-12.8h2.63v8.52l5.13-8.52Zm9.75 6.1c0-.34-.1-.6-.33-.78a1.38 1.38 0 0 0-.93-.28c-.42 0-.76.09-1.02.26a.82.82 0 0 0-.39.73H33.7c0-.86.36-1.56 1.08-2.1.71-.54 1.62-.8 2.74-.8 1.22 0 2.18.23 2.88.71.7.48 1.05 1.17 1.05 2.05 0 .42-.12.81-.38 1.17-.25.35-.61.63-1.07.84 1.08.39 1.62 1.12 1.62 2.21 0 .87-.37 1.57-1.12 2.1-.75.5-1.74.77-2.98.77-1.16 0-2.1-.27-2.85-.81a2.55 2.55 0 0 1-1.12-2.18h2.54c0 .32.15.58.43.78.3.2.67.3 1.13.3.45 0 .8-.1 1.05-.32.26-.2.38-.48.38-.82 0-.42-.12-.72-.36-.9-.24-.17-.6-.26-1.08-.26h-1.38v-1.66h1.47c.79-.02 1.18-.36 1.18-1.02Zm7.81 3.1 1.76-5.91h2.72l-3.82 10.99-.21.5c-.57 1.24-1.5 1.86-2.81 1.86a4 4 0 0 1-1.13-.17v-1.92h.39c.48 0 .83-.06 1.07-.21.24-.15.43-.4.56-.73l.3-.78-3.33-9.54h2.73l1.77 5.91Zm13.5 3.6h-2.54v-2.99a7.3 7.3 0 0 1-1.33.13c-1.43 0-2.51-.3-3.24-.91-.73-.61-1.1-1.5-1.1-2.67v-3.07h2.53v3.07c0 .55.14.94.4 1.18.27.24.74.36 1.41.36.42 0 .87-.05 1.33-.15v-4.46h2.54v9.51Zm7.46 0c-.12-.23-.2-.51-.25-.85a3.07 3.07 0 0 1-2.4 1.03 3.4 3.4 0 0 1-2.32-.81 2.6 2.6 0 0 1-.92-2.04c0-1.01.37-1.78 1.12-2.32a5.55 5.55 0 0 1 3.24-.82h1.17v-.54c0-.44-.11-.8-.34-1.06-.22-.26-.58-.4-1.07-.4-.42 0-.76.1-1 .31-.25.2-.37.49-.37.85H62c0-.55.17-1.06.51-1.53.34-.47.82-.84 1.44-1.1a5.2 5.2 0 0 1 2.1-.4c1.17 0 2.1.29 2.78.88.7.59 1.04 1.41 1.04 2.48v4.12c0 .9.13 1.59.38 2.05v.15h-2.57Zm-2.1-1.77c.38 0 .72-.08 1.04-.24.31-.17.55-.4.7-.68v-1.63h-.95c-1.27 0-1.95.44-2.03 1.31v.15c0 .32.1.58.33.79.22.2.52.3.91.3Zm10.62 1.95c-1.4 0-2.53-.43-3.41-1.29-.88-.85-1.31-2-1.31-3.42v-.24c0-.96.18-1.81.55-2.56.37-.76.9-1.34 1.57-1.74a4.4 4.4 0 0 1 2.32-.62c1.3 0 2.32.41 3.06 1.23a4.99 4.99 0 0 1 1.13 3.5v1.03h-6.06c.09.62.33 1.12.74 1.5.42.37.94.56 1.58.56.97 0 1.74-.36 2.29-1.07l1.25 1.4c-.38.54-.9.96-1.55 1.27-.65.3-1.37.45-2.16.45Zm-.3-7.8c-.5 0-.9.16-1.22.5-.31.34-.51.83-.6 1.46h3.53v-.2c0-.56-.16-1-.45-1.3-.3-.31-.71-.47-1.25-.47Zm11.45 4.62 2.49-6.51H93v9.51h-2.54v-5.84l-2.28 5.84h-1.7l-2.23-5.74v5.74h-2.54v-9.51h3.15l2.47 6.51Zm18.1-6.51h2.54v9.51h-2.54v-5.87l-3.18 5.87H99.7v-9.51h2.55v5.86l3.18-5.86Zm12.92 7.64c.47 0 .85-.13 1.14-.39.3-.26.45-.6.46-1.03h2.38c0 .65-.18 1.24-.53 1.78-.34.53-.82.95-1.42 1.25-.6.29-1.26.44-1.99.44a4.14 4.14 0 0 1-3.22-1.3 5.15 5.15 0 0 1-1.17-3.58v-.17c0-1.46.39-2.63 1.17-3.5a4.08 4.08 0 0 1 3.2-1.32c1.2 0 2.15.34 2.86 1.02a3.57 3.57 0 0 1 1.1 2.7h-2.38c-.01-.49-.17-.89-.46-1.2-.3-.3-.68-.46-1.16-.46-.6 0-1.04.22-1.34.65-.3.43-.45 1.13-.45 2.1v.26c0 .97.15 1.68.45 2.1.3.43.75.65 1.36.65Zm5.03-2.97c0-.95.19-1.79.55-2.53a4 4 0 0 1 1.56-1.7 4.6 4.6 0 0 1 2.39-.62c1.28 0 2.32.4 3.13 1.18a4.72 4.72 0 0 1 1.36 3.2l.02.65c0 1.46-.4 2.63-1.22 3.52a4.25 4.25 0 0 1-3.28 1.32 4.28 4.28 0 0 1-3.28-1.32 5.06 5.06 0 0 1-1.23-3.59v-.11Zm2.54.18c0 .9.17 1.6.51 2.08.34.47.83.7 1.46.7.62 0 1.1-.23 1.44-.7.35-.47.52-1.23.52-2.26a3.5 3.5 0 0 0-.52-2.06 1.68 1.68 0 0 0-1.45-.73c-.63 0-1.1.24-1.45.73-.34.48-.5 1.23-.5 2.24Zm13.03-2.05c0-.33-.11-.59-.34-.77-.21-.19-.52-.28-.93-.28-.41 0-.75.09-1.02.26a.82.82 0 0 0-.38.73h-2.54c0-.86.35-1.56 1.07-2.1.72-.54 1.63-.8 2.74-.8 1.23 0 2.19.23 2.88.71.7.48 1.06 1.17 1.06 2.05 0 .42-.13.81-.39 1.17-.25.35-.6.63-1.07.84 1.09.39 1.63 1.12 1.63 2.21 0 .87-.38 1.57-1.13 2.1-.74.5-1.74.77-2.98.77-1.15 0-2.1-.27-2.85-.81a2.55 2.55 0 0 1-1.11-2.18h2.54c0 .32.14.58.43.78.29.2.66.3 1.12.3.46 0 .8-.1 1.06-.32.25-.2.38-.48.38-.82 0-.42-.12-.72-.36-.9-.24-.17-.6-.26-1.09-.26h-1.38v-1.66h1.47c.8-.02 1.19-.36 1.19-1.02Zm4.38 4.66c.58-.6.97-1.21 1.17-1.8.2-.6.32-1.45.35-2.55l.07-3.11h7v7.46h1.36v4.9h-2.54v-2.85h-5.63v2.86h-2.6v-4.9h.82Zm3 0h3.05v-5.36h-1.97l-.02 1.14a8.54 8.54 0 0 1-1.06 4.22Zm13.76 2.05c-.12-.23-.2-.51-.26-.85a3.07 3.07 0 0 1-2.4 1.03 3.4 3.4 0 0 1-2.32-.81 2.6 2.6 0 0 1-.91-2.04c0-1.01.37-1.78 1.11-2.32a5.55 5.55 0 0 1 3.25-.82h1.17v-.54c0-.44-.12-.8-.35-1.06-.22-.26-.57-.4-1.06-.4-.43 0-.76.1-1.01.31-.24.2-.36.49-.36.85h-2.54c0-.55.17-1.06.5-1.53.35-.47.83-.84 1.45-1.1a5.2 5.2 0 0 1 2.1-.4c1.16 0 2.1.29 2.78.88.69.59 1.04 1.41 1.04 2.48v4.12c0 .9.13 1.59.37 2.05v.15h-2.56Zm-2.1-1.77c.37 0 .72-.08 1.03-.24.32-.17.55-.4.7-.68v-1.63h-.94c-1.27 0-1.95.44-2.03 1.31l-.01.15c0 .32.11.58.33.79.22.2.53.3.92.3Zm10.61 1.95c-1.4 0-2.53-.43-3.4-1.29-.88-.85-1.32-2-1.32-3.42v-.24c0-.96.19-1.81.56-2.56.37-.76.89-1.34 1.56-1.74a4.4 4.4 0 0 1 2.32-.62c1.3 0 2.33.41 3.07 1.23a4.99 4.99 0 0 1 1.13 3.5v1.03h-6.06c.08.62.33 1.12.74 1.5.41.37.94.56 1.57.56.98 0 1.74-.36 2.3-1.07l1.24 1.4c-.38.54-.9.96-1.54 1.27-.66.3-1.38.45-2.17.45Zm-.29-7.8c-.5 0-.91.16-1.23.5-.3.34-.5.83-.6 1.46h3.54v-.2c-.01-.56-.16-1-.46-1.3-.3-.31-.7-.47-1.25-.47Zm11.45 4.62 2.48-6.51h3.19v9.51h-2.54v-5.84l-2.28 5.84h-1.7l-2.24-5.74v5.74h-2.54v-9.51h3.16l2.47 6.51Zm14.9-6.51v7.46h2.61V182h2.55v7.46h2.61V182h2.54v9.51h-12.85v-9.51h2.54Zm16.73 9.69c-1.4 0-2.53-.43-3.41-1.29-.87-.85-1.31-2-1.31-3.42v-.24c0-.96.18-1.81.55-2.56.37-.76.9-1.34 1.57-1.74a4.4 4.4 0 0 1 2.32-.62c1.3 0 2.32.41 3.06 1.23a4.99 4.99 0 0 1 1.13 3.5v1.03h-6.06c.09.62.33 1.12.74 1.5.42.37.94.56 1.58.56.97 0 1.74-.36 2.29-1.07l1.25 1.4c-.38.54-.9.96-1.55 1.27-.65.3-1.37.45-2.16.45Zm-.3-7.8c-.5 0-.9.16-1.22.5-.31.34-.51.83-.6 1.46h3.53v-.2c0-.56-.16-1-.45-1.3-.3-.31-.71-.47-1.25-.47Zm5.8 5.57c.57-.6.96-1.21 1.16-1.8.2-.6.32-1.45.34-2.55l.07-3.11h7v7.46h1.37v4.9h-2.54v-2.85h-5.63v2.86h-2.6v-4.9h.82Zm2.99 0h3.05v-5.36h-1.98l-.02 1.14a8.54 8.54 0 0 1-1.05 4.22Zm12.62 2.23c-1.4 0-2.53-.43-3.41-1.29-.87-.85-1.3-2-1.3-3.42v-.24c0-.96.17-1.81.54-2.56.37-.76.9-1.34 1.57-1.74a4.4 4.4 0 0 1 2.32-.62c1.3 0 2.32.41 3.07 1.23a4.99 4.99 0 0 1 1.12 3.5v1.03h-6.05c.08.62.32 1.12.73 1.5.42.37.94.56 1.58.56.98 0 1.74-.36 2.3-1.07l1.24 1.4c-.38.54-.9.96-1.55 1.27-.65.3-1.37.45-2.16.45Zm-.29-7.8c-.5 0-.91.16-1.23.5-.31.34-.51.83-.6 1.46h3.54v-.2c-.02-.56-.17-1-.46-1.3-.3-.31-.71-.47-1.25-.47Zm5.82 7.62v-9.51H242c1.3 0 2.29.23 2.98.69.7.45 1.04 1.1 1.04 1.97 0 .43-.15.83-.44 1.18-.29.35-.71.61-1.27.8.68.13 1.22.38 1.6.77.4.37.6.83.6 1.38a2.3 2.3 0 0 1-1.01 2.03c-.66.46-1.63.69-2.9.69h-4.57Zm2.54-3.95v1.92h2.05c.9 0 1.34-.31 1.34-.94 0-.64-.43-.97-1.28-.98h-2.11Zm0-1.7h1.57c.9-.01 1.34-.3 1.34-.86 0-.35-.13-.6-.37-.74a2.19 2.19 0 0 0-1.1-.22h-1.44v1.82Zm16.05.98a5.7 5.7 0 0 1-1 3.53 3.19 3.19 0 0 1-2.7 1.32c-.96 0-1.73-.34-2.32-1v4.48h-2.54v-13.17h2.35l.09.93a2.99 2.99 0 0 1 2.4-1.1c1.18 0 2.1.43 2.74 1.3.65.86.98 2.06.98 3.58v.13Zm-2.54-.18c0-.89-.16-1.57-.48-2.05a1.52 1.52 0 0 0-1.36-.72c-.8 0-1.34.3-1.64.91v3.9c.3.62.86.94 1.66.94 1.21 0 1.82-1 1.82-2.98Zm6.84-1.87h1.81c.82 0 1.55.13 2.17.4a3.15 3.15 0 0 1 1.92 2.98 3 3 0 0 1-1.12 2.43c-.73.6-1.74.91-3.02.91h-4.31v-9.51h2.55v2.79Zm9.94 6.72h-2.54v-9.51h2.55v9.51Zm-9.94-4.69v2.66h1.8c.5 0 .89-.12 1.16-.35.27-.24.4-.56.4-.96 0-.41-.13-.73-.4-.97-.26-.25-.65-.38-1.16-.38h-1.8Zm16.83 4.69v-9.51h3.98c1.3 0 2.29.23 2.98.69.69.45 1.03 1.1 1.03 1.97 0 .43-.14.83-.44 1.18-.28.35-.7.61-1.26.8.68.13 1.21.38 1.6.77.4.37.59.83.59 1.38a2.3 2.3 0 0 1-1 2.03c-.67.46-1.63.69-2.9.69h-4.57Zm2.55-3.95v1.92h2.04c.9 0 1.35-.31 1.35-.94 0-.64-.43-.97-1.28-.98h-2.12Zm0-1.7h1.57c.89-.01 1.33-.3 1.33-.86 0-.35-.12-.6-.36-.74-.25-.15-.61-.22-1.11-.22h-1.44v1.82ZM29.87 209.83a5.7 5.7 0 0 1-1 3.53 3.2 3.2 0 0 1-2.7 1.32c-.95 0-1.73-.34-2.32-1v4.48H21.3v-13.17h2.35l.1.93a2.99 2.99 0 0 1 2.4-1.1c1.17 0 2.08.43 2.73 1.3.65.86.98 2.06.98 3.58v.13Zm-2.54-.18c0-.89-.16-1.57-.47-2.05a1.52 1.52 0 0 0-1.37-.72c-.8 0-1.34.3-1.64.91v3.9c.31.62.86.94 1.66.94 1.21 0 1.82-1 1.82-2.98Zm9.63 4.85c-.11-.23-.2-.51-.25-.85a3.07 3.07 0 0 1-2.4 1.03 3.4 3.4 0 0 1-2.32-.81 2.6 2.6 0 0 1-.92-2.04c0-1.01.38-1.78 1.12-2.32a5.55 5.55 0 0 1 3.24-.82h1.17v-.54c0-.44-.11-.8-.34-1.06-.22-.26-.58-.4-1.06-.4-.43 0-.77.1-1.01.31-.25.2-.37.49-.37.85h-2.54c0-.55.17-1.06.51-1.53.34-.47.82-.84 1.45-1.1a5.2 5.2 0 0 1 2.09-.4c1.17 0 2.1.29 2.78.88.7.59 1.04 1.41 1.04 2.48v4.12c0 .9.13 1.59.38 2.05v.15h-2.57Zm-2.1-1.77c.38 0 .72-.08 1.04-.24.32-.17.55-.4.7-.68v-1.63h-.95c-1.27 0-1.95.44-2.03 1.31v.15c0 .32.1.58.33.79.22.2.53.3.91.3Zm11.23-4.94c0-.33-.1-.59-.33-.77a1.38 1.38 0 0 0-.93-.28c-.42 0-.76.09-1.02.26a.82.82 0 0 0-.39.73h-2.54c0-.86.36-1.56 1.07-2.1.72-.54 1.63-.8 2.75-.8 1.22 0 2.18.23 2.88.71.7.48 1.05 1.17 1.05 2.05 0 .42-.12.81-.38 1.17-.25.35-.61.63-1.07.84 1.08.39 1.62 1.12 1.62 2.21 0 .87-.37 1.57-1.12 2.1-.75.5-1.74.77-2.98.77-1.16 0-2.1-.27-2.85-.81a2.55 2.55 0 0 1-1.12-2.18h2.54c0 .32.15.58.43.78.3.2.67.3 1.13.3.45 0 .8-.1 1.05-.32.26-.2.38-.48.38-.82 0-.42-.12-.72-.36-.9-.24-.17-.6-.26-1.08-.26h-1.38v-1.66h1.47c.79-.02 1.18-.36 1.18-1.02Zm12.53-2.8v9.51h-2.54v-7.45h-2.24l-.16 2.93c-.1 1.57-.4 2.7-.92 3.42-.52.72-1.29 1.08-2.3 1.1h-.87l-.02-2.06.31-.03c.46-.04.8-.3 1-.81.22-.5.35-1.36.4-2.58l.18-4.03h7.16Zm7.69 0h2.54v9.51H66.3v-5.87l-3.18 5.87h-2.55v-9.51h2.55v5.86L66.3 205Zm12.5 9.51h-2.54v-2.99a7.3 7.3 0 0 1-1.33.13c-1.44 0-2.52-.3-3.24-.91-.73-.61-1.1-1.5-1.11-2.67v-3.07h2.54v3.07c0 .55.14.94.4 1.18.27.24.74.36 1.41.36.42 0 .86-.05 1.33-.15v-4.46h2.54v9.51Zm10.2 0h-2.56v-3.66H83.3v3.66h-2.54v-9.51h2.54v3.81h3.15V205H89v9.51Zm4.68-6.72h1.82c.82 0 1.54.13 2.16.4a3.15 3.15 0 0 1 1.92 2.98 3 3 0 0 1-1.11 2.43c-.74.6-1.75.91-3.03.91h-4.31v-9.51h2.55v2.79Zm9.95 6.72h-2.54v-9.51h2.54v9.51Zm-9.95-4.69v2.66h1.8c.5 0 .89-.12 1.16-.35.27-.24.4-.56.4-.96 0-.41-.13-.73-.4-.97-.26-.25-.65-.38-1.16-.38h-1.8Zm15.8-1.98 1.6-2.84h2.72l-2.7 4.66 2.82 4.85h-2.73l-1.7-2.99-1.68 2.99h-2.73l2.82-4.85-2.7-4.66h2.72l1.57 2.84Zm17.92-.8h-3.05v7.47h-2.55v-7.47h-3v-2.04h8.6v2.04Zm5.1 7.65c-1.4 0-2.53-.43-3.41-1.29-.88-.85-1.31-2-1.31-3.42v-.24c0-.96.18-1.81.55-2.56.37-.76.9-1.34 1.57-1.74a4.4 4.4 0 0 1 2.32-.62c1.3 0 2.32.41 3.06 1.23a4.99 4.99 0 0 1 1.13 3.5v1.03h-6.06c.09.62.33 1.12.74 1.5.42.37.94.56 1.58.56.97 0 1.74-.36 2.29-1.07l1.25 1.4c-.38.54-.9.96-1.55 1.27-.65.3-1.37.45-2.16.45Zm-.3-7.8c-.5 0-.9.16-1.22.5-.31.34-.51.83-.6 1.46h3.53v-.2c0-.56-.16-1-.45-1.3-.3-.31-.71-.47-1.25-.47Zm9.28.95 1.6-2.84h2.72l-2.71 4.66 2.82 4.85h-2.72l-1.7-2.99-1.69 2.99h-2.73l2.82-4.85-2.7-4.66h2.73l1.56 2.84Zm13.78 6.67h-2.55v-3.66h-3.15v3.66h-2.54v-9.51h2.54v3.81h3.15V205h2.55v9.51Zm7.7-9.51h2.54v9.51h-2.54v-5.87l-3.18 5.87h-2.55v-9.51h2.55v5.86l3.18-5.86Zm8.21 6h-1.02v3.51h-2.54v-9.51h2.54v3.58h.9l2.08-3.58h3.2l-3.1 4.53 3.4 4.98h-3.39l-2.07-3.5Zm11.93 3.51c-.12-.23-.2-.51-.26-.85a3.07 3.07 0 0 1-2.4 1.03 3.4 3.4 0 0 1-2.32-.81 2.6 2.6 0 0 1-.91-2.04c0-1.01.37-1.78 1.11-2.32a5.56 5.56 0 0 1 3.25-.82h1.17v-.54c0-.44-.12-.8-.35-1.06-.22-.26-.57-.4-1.06-.4-.43 0-.76.1-1.01.31-.24.2-.36.49-.36.85h-2.54c0-.55.17-1.06.5-1.53.35-.47.83-.84 1.45-1.1a5.2 5.2 0 0 1 2.1-.4c1.16 0 2.1.29 2.78.88.69.59 1.03 1.41 1.03 2.48v4.12c.01.9.14 1.59.38 2.05v.15h-2.56Zm-2.1-1.77c.37 0 .72-.08 1.03-.24.32-.17.55-.4.7-.68v-1.63h-.94c-1.27 0-1.95.44-2.03 1.31l-.01.15c0 .32.11.58.33.79.22.2.53.3.92.3Zm9.86-4.9 1.6-2.84h2.71l-2.7 4.66 2.82 4.85h-2.73l-1.7-2.99-1.68 2.99h-2.73l2.82-4.85-2.7-4.66h2.72l1.57 2.84Zm5.67 5.42c0-.4.13-.73.4-.98.28-.25.62-.38 1.03-.38.41 0 .76.13 1.03.38s.41.58.41.98-.13.73-.4.98c-.27.24-.62.37-1.04.37-.42 0-.76-.13-1.03-.37-.27-.25-.4-.58-.4-.98Zm17.27-10.4h.16c1 0 1.9.22 2.71.66a4.65 4.65 0 0 1 1.9 1.89c.45.8.68 1.73.68 2.77 0 1.54-.5 2.8-1.48 3.76a5.39 5.39 0 0 1-3.97 1.46v1.64h-2.54v-1.64h-.17a5.74 5.74 0 0 1-2.74-.65 4.71 4.71 0 0 1-1.9-1.84c-.45-.8-.67-1.7-.67-2.71 0-1.03.22-1.94.67-2.75a4.77 4.77 0 0 1 1.87-1.9c.8-.45 1.7-.68 2.7-.7h.24v-1.66h2.54v1.67Zm-2.71 2.18c-.87 0-1.56.28-2.06.83-.5.55-.75 1.33-.75 2.33 0 .94.25 1.68.75 2.21.5.54 1.2.8 2.1.8h.13v-6.17h-.17Zm2.7 0v6.17h.18c.86 0 1.54-.26 2.03-.8.5-.55.75-1.3.75-2.23 0-.98-.24-1.74-.73-2.3-.49-.56-1.18-.84-2.1-.84h-.12Zm6.63 4.63c0-.95.18-1.79.54-2.53.36-.73.88-1.3 1.56-1.7a4.6 4.6 0 0 1 2.39-.62c1.28 0 2.33.4 3.13 1.18a4.72 4.72 0 0 1 1.37 3.2l.01.65c0 1.46-.4 2.63-1.22 3.52a4.25 4.25 0 0 1-3.28 1.32 4.28 4.28 0 0 1-3.28-1.32 5.07 5.07 0 0 1-1.22-3.59v-.11Zm2.53.18c0 .9.17 1.6.51 2.08.34.47.83.7 1.46.7.62 0 1.1-.23 1.44-.7.35-.47.52-1.23.52-2.26a3.5 3.5 0 0 0-.51-2.06 1.68 1.68 0 0 0-1.46-.73c-.63 0-1.1.24-1.44.73-.34.48-.51 1.23-.51 2.24Zm16.6 0a5.7 5.7 0 0 1-1 3.52 3.19 3.19 0 0 1-2.7 1.32c-.95 0-1.73-.34-2.32-1v4.48H231v-13.17h2.35l.1.93a2.99 2.99 0 0 1 2.4-1.1c1.17 0 2.08.43 2.73 1.3.65.86.98 2.06.98 3.58v.13Zm-2.54-.2a3.7 3.7 0 0 0-.48-2.04 1.52 1.52 0 0 0-1.36-.72c-.8 0-1.34.3-1.64.91v3.9c.3.62.86.94 1.66.94 1.21 0 1.82-1 1.82-2.98Zm9.91 1.86 2.49-6.51h3.18v9.51h-2.54v-5.84l-2.27 5.84h-1.7l-2.24-5.74v5.74h-2.54v-9.51h3.15l2.47 6.51Zm13.62-6.51h2.54v9.51h-2.54v-5.87l-3.18 5.87h-2.55v-9.51h2.55v5.86l3.18-5.86Zm13.04 4.84a5.7 5.7 0 0 1-1 3.53 3.19 3.19 0 0 1-2.7 1.32c-.95 0-1.73-.34-2.32-1v4.48h-2.54v-13.17h2.36l.08.93a2.99 2.99 0 0 1 2.41-1.1c1.17 0 2.08.43 2.74 1.3.64.86.97 2.06.97 3.58v.13Zm-2.54-.18c0-.89-.16-1.57-.47-2.05a1.52 1.52 0 0 0-1.37-.72c-.8 0-1.34.3-1.64.91v3.9c.31.62.86.94 1.66.94 1.21 0 1.82-1 1.82-2.98Zm7.57 1.25 1.75-5.91h2.73l-3.82 10.99-.21.5c-.57 1.24-1.51 1.86-2.82 1.86-.37 0-.74-.06-1.12-.17v-1.92h.38c.49 0 .84-.06 1.08-.21.24-.15.43-.4.56-.73l.3-.78-3.33-9.54h2.73l1.77 5.91Zm9.74 3.78c-1.4 0-2.54-.43-3.41-1.29-.88-.85-1.31-2-1.31-3.42v-.24c0-.96.18-1.81.55-2.56.37-.76.9-1.34 1.56-1.74a4.4 4.4 0 0 1 2.32-.62c1.3 0 2.33.41 3.07 1.23a4.99 4.99 0 0 1 1.13 3.5v1.03h-6.06c.08.62.33 1.12.74 1.5.42.37.94.56 1.57.56.98 0 1.75-.36 2.3-1.07l1.25 1.4c-.39.54-.9.96-1.55 1.27-.65.3-1.37.45-2.16.45Zm-.3-7.8c-.5 0-.9.16-1.23.5-.3.34-.5.83-.6 1.46h3.54v-.2c-.01-.56-.16-1-.46-1.3-.29-.31-.7-.47-1.24-.47Zm11.45 4.62L302 205h3.18v9.51h-2.54v-5.84l-2.28 5.84h-1.7l-2.24-5.74v5.74h-2.54v-9.51h3.16l2.47 6.51ZM26.03 228.52c1.22 0 2.19.4 2.92 1.21.72.8 1.09 1.9 1.09 3.3v.12a4.5 4.5 0 0 1-1.22 3.3c-.8.82-1.9 1.24-3.26 1.24a4.23 4.23 0 0 1-3.28-1.34 5.25 5.25 0 0 1-1.2-3.65v-.42c0-2.14.36-3.81 1.07-5.02a4.76 4.76 0 0 1 3.22-2.3 4.49 4.49 0 0 0 1.45-.48.8.8 0 0 0 .32-.67h2.06c0 .92-.25 1.6-.75 2.07-.49.46-1.37.82-2.63 1.07-.75.16-1.34.45-1.78.9a3.5 3.5 0 0 0-.88 1.84 3.98 3.98 0 0 1 2.87-1.17Zm-.48 2.05c-.6 0-1.08.2-1.43.61-.34.4-.5 1.06-.5 1.97 0 .8.16 1.43.5 1.85.33.43.81.64 1.44.64.62 0 1.1-.21 1.43-.63.33-.41.5-1.03.5-1.83v-.22c0-.77-.17-1.37-.51-1.77a1.76 1.76 0 0 0-1.43-.62Zm11.52 6.93c-.12-.23-.2-.51-.26-.85a3.07 3.07 0 0 1-2.4 1.03 3.4 3.4 0 0 1-2.32-.81 2.6 2.6 0 0 1-.91-2.04c0-1.01.37-1.78 1.12-2.32a5.55 5.55 0 0 1 3.24-.82h1.17v-.54c0-.44-.12-.8-.35-1.06-.22-.26-.57-.4-1.06-.4-.43 0-.76.1-1 .31-.25.2-.37.49-.37.85h-2.54c0-.55.17-1.06.51-1.53.34-.47.82-.84 1.44-1.1a5.2 5.2 0 0 1 2.1-.4c1.16 0 2.1.29 2.78.88.7.59 1.04 1.41 1.04 2.48v4.12c0 .9.13 1.59.37 2.05v.15h-2.56Zm-2.1-1.77c.37 0 .72-.08 1.03-.24.32-.17.56-.4.7-.68v-1.63h-.94c-1.27 0-1.95.44-2.03 1.31l-.01.15c0 .32.11.58.33.79.23.2.53.3.92.3Zm11.23-4.94c0-.33-.11-.59-.33-.77a1.38 1.38 0 0 0-.94-.28c-.41 0-.75.09-1.02.26a.82.82 0 0 0-.38.73h-2.54c0-.86.36-1.56 1.07-2.1.71-.54 1.63-.8 2.74-.8 1.23 0 2.19.23 2.89.71.7.48 1.05 1.17 1.05 2.05 0 .42-.13.81-.39 1.17-.25.35-.6.63-1.07.84 1.08.39 1.63 1.12 1.63 2.21 0 .87-.38 1.57-1.13 2.1-.74.5-1.74.77-2.98.77-1.15 0-2.1-.27-2.85-.81a2.55 2.55 0 0 1-1.11-2.18h2.54c0 .32.14.58.43.78.29.2.66.3 1.12.3.46 0 .8-.1 1.06-.32.25-.2.38-.48.38-.82 0-.42-.12-.72-.36-.9-.24-.17-.6-.26-1.08-.26h-1.38v-1.66H45c.8-.02 1.19-.36 1.19-1.02Zm3.86 1.87c0-.95.18-1.79.54-2.53a4 4 0 0 1 1.57-1.7 4.6 4.6 0 0 1 2.38-.62c1.28 0 2.33.4 3.14 1.18a4.72 4.72 0 0 1 1.36 3.2l.02.65c0 1.46-.41 2.63-1.22 3.52a4.25 4.25 0 0 1-3.28 1.32 4.28 4.28 0 0 1-3.29-1.32 5.07 5.07 0 0 1-1.22-3.59v-.11Zm2.54.18c0 .9.17 1.6.5 2.08.35.47.83.7 1.47.7.61 0 1.1-.23 1.44-.7.34-.47.52-1.23.52-2.26a3.5 3.5 0 0 0-.52-2.06 1.69 1.69 0 0 0-1.46-.73c-.62 0-1.1.24-1.44.73-.34.48-.51 1.23-.51 2.24Zm8.2 4.66v-9.51h3.97c1.3 0 2.29.23 2.98.69.7.45 1.04 1.1 1.04 1.97 0 .43-.15.83-.44 1.18-.29.35-.71.61-1.27.8.68.13 1.22.38 1.6.77.4.37.6.83.6 1.38a2.3 2.3 0 0 1-1.01 2.03c-.66.46-1.63.69-2.9.69H60.8Zm2.54-3.95v1.92h2.05c.9 0 1.34-.31 1.34-.94 0-.64-.43-.97-1.28-.98h-2.11Zm0-1.7h1.57c.9-.01 1.34-.3 1.34-.86 0-.35-.13-.6-.37-.74-.24-.15-.61-.22-1.1-.22h-1.44v1.82Zm10.2-1.07h1.82c.82 0 1.54.13 2.16.4a3.15 3.15 0 0 1 1.93 2.98 3 3 0 0 1-1.12 2.43c-.74.6-1.74.91-3.02.91h-4.32v-9.51h2.55v2.79Zm9.95 6.72h-2.54v-9.51h2.54v9.51Zm-9.95-4.69v2.66h1.8c.5 0 .9-.12 1.16-.35.27-.24.4-.56.4-.96 0-.41-.12-.73-.39-.97-.26-.25-.65-.38-1.17-.38h-1.8Zm16.57 4.87c-1.4 0-2.53-.43-3.41-1.29-.87-.85-1.31-2-1.31-3.42v-.24c0-.96.18-1.81.55-2.56.37-.76.9-1.34 1.57-1.74a4.4 4.4 0 0 1 2.32-.62c1.3 0 2.32.41 3.07 1.23a4.99 4.99 0 0 1 1.12 3.5v1.03h-6.05c.08.62.32 1.12.73 1.5.42.37.94.56 1.58.56.98 0 1.74-.36 2.3-1.07l1.24 1.4c-.38.54-.9.96-1.55 1.27-.65.3-1.37.45-2.16.45Zm-.29-7.8c-.5 0-.91.16-1.23.5-.31.34-.51.83-.6 1.46h3.53v-.2c0-.56-.16-1-.45-1.3-.3-.31-.71-.47-1.25-.47Zm15.13.91c0-.33-.12-.59-.34-.77a1.38 1.38 0 0 0-.93-.28c-.42 0-.76.09-1.02.26a.82.82 0 0 0-.39.73h-2.54c0-.86.36-1.56 1.08-2.1.71-.54 1.63-.8 2.74-.8 1.22 0 2.18.23 2.88.71.7.48 1.06 1.17 1.06 2.05 0 .42-.13.81-.4 1.17-.24.35-.6.63-1.06.84 1.08.39 1.62 1.12 1.62 2.21 0 .87-.37 1.57-1.12 2.1-.75.5-1.74.77-2.98.77-1.16 0-2.1-.27-2.85-.81a2.55 2.55 0 0 1-1.12-2.18h2.55c0 .32.14.58.43.78.28.2.66.3 1.12.3.45 0 .8-.1 1.05-.32.26-.2.38-.48.38-.82 0-.42-.12-.72-.36-.9-.24-.17-.6-.26-1.08-.26h-1.38v-1.66h1.47c.79-.02 1.19-.36 1.19-1.02Zm12.5 6.71h-2.56v-3.66h-3.15v3.66h-2.54v-9.51h2.54v3.81h3.16V228h2.54v9.51Zm7.47 0c-.11-.23-.2-.51-.25-.85a3.07 3.07 0 0 1-2.4 1.03 3.4 3.4 0 0 1-2.32-.81 2.6 2.6 0 0 1-.92-2.04c0-1.01.38-1.78 1.12-2.32a5.55 5.55 0 0 1 3.24-.82h1.17v-.54c0-.44-.11-.8-.34-1.06-.22-.26-.58-.4-1.06-.4-.43 0-.77.1-1.01.31-.24.2-.36.49-.36.85h-2.54c0-.55.17-1.06.5-1.53.34-.47.83-.84 1.45-1.1a5.2 5.2 0 0 1 2.09-.4c1.17 0 2.1.29 2.78.88.7.59 1.04 1.41 1.04 2.48v4.12c0 .9.13 1.59.38 2.05v.15h-2.57Zm-2.1-1.77c.38 0 .72-.08 1.04-.24.32-.17.55-.4.7-.68v-1.63h-.95c-1.27 0-1.94.44-2.03 1.31v.15c0 .32.1.58.33.79.22.2.53.3.91.3Zm14.49 1.77h-2.55v-3.66h-3.16v3.66h-2.54v-9.51h2.54v3.81h3.16V228h2.55v9.51Zm7.7-9.51h2.54v9.51H145v-5.87l-3.19 5.87h-2.54v-9.51h2.54v5.86l3.19-5.86Zm12.4 0v9.51h-2.53v-3.29h-1.6l-1.83 3.29h-2.58l2.08-3.72c-.57-.26-1.01-.62-1.32-1.07-.3-.45-.46-.96-.46-1.54 0-.92.36-1.67 1.07-2.26a4.5 4.5 0 0 1 2.86-.92h4.32Zm-4.26 4.45h1.73v-2.41h-1.65c-.45 0-.81.12-1.1.36-.28.23-.42.52-.42.86 0 .34.14.62.4.84.28.23.62.34 1.03.35Zm11.06 5.06v-9.51h3.97c1.3 0 2.3.23 2.98.69.7.45 1.04 1.1 1.04 1.97 0 .43-.15.83-.44 1.18-.29.35-.7.61-1.26.8.67.13 1.2.38 1.6.77.39.37.58.83.58 1.38a2.3 2.3 0 0 1-1 2.03c-.66.46-1.63.69-2.89.69h-4.58Zm2.54-3.95v1.92h2.05c.9 0 1.34-.31 1.34-.94 0-.64-.42-.97-1.28-.98h-2.11Zm0-1.7h1.57c.9-.01 1.34-.3 1.34-.86 0-.35-.12-.6-.37-.74a2.19 2.19 0 0 0-1.1-.22h-1.44v1.82Zm21.12 2.13h-1.15v3.52h-2.54v-3.52h-1.14l-1.88 3.52h-3.07l3-4.97-2.97-4.54h3.15l1.98 3.55h.93V228h2.54v3.55h.95l1.99-3.55h3.14l-2.94 4.47 3.02 5.04h-3.12l-1.89-3.52Zm11.96-5.99h2.54v9.51h-2.54v-5.87l-3.18 5.87h-2.55v-9.51h2.55v5.86l3.18-5.86Zm4.65 9.51v-9.51h3.98c1.29 0 2.28.23 2.97.69.7.45 1.04 1.1 1.04 1.97 0 .43-.15.83-.44 1.18-.28.35-.7.61-1.26.8.68.13 1.2.38 1.6.77.39.37.59.83.59 1.38a2.3 2.3 0 0 1-1 2.03c-.67.46-1.63.69-2.9.69h-4.58Zm2.54-3.95v1.92h2.05c.9 0 1.34-.31 1.34-.94 0-.64-.42-.97-1.28-.98h-2.1Zm0-1.7h1.57c.9-.01 1.34-.3 1.34-.86 0-.35-.12-.6-.37-.74-.24-.15-.6-.22-1.1-.22h-1.44v1.82Zm7.1.8c0-.94.18-1.78.54-2.52.36-.73.88-1.3 1.56-1.7a4.6 4.6 0 0 1 2.39-.62c1.28 0 2.32.4 3.13 1.18a4.72 4.72 0 0 1 1.37 3.2l.01.65c0 1.46-.4 2.63-1.22 3.52a4.25 4.25 0 0 1-3.28 1.32 4.28 4.28 0 0 1-3.28-1.32 5.07 5.07 0 0 1-1.22-3.59v-.11Zm2.53.2c0 .9.17 1.59.51 2.07.34.47.83.7 1.46.7.62 0 1.1-.23 1.44-.7.35-.47.52-1.23.52-2.26a3.5 3.5 0 0 0-.52-2.06 1.69 1.69 0 0 0-1.45-.73c-.63 0-1.1.24-1.45.73-.34.48-.5 1.23-.5 2.24Zm16.3 4.65h-2.54v-7.45h-3.18v7.45h-2.54v-9.51h8.27v9.51Zm7.68-9.51h2.54v9.51h-2.54v-5.87l-3.18 5.87h-2.55v-9.51h2.55v5.86l3.18-5.86Zm8.44 7.64c.47 0 .85-.13 1.14-.39.3-.26.45-.6.46-1.03h2.38c0 .65-.18 1.24-.53 1.78-.34.53-.82.95-1.42 1.25-.6.29-1.26.44-1.99.44a4.14 4.14 0 0 1-3.21-1.3 5.15 5.15 0 0 1-1.18-3.58v-.17c0-1.46.39-2.63 1.17-3.5a4.08 4.08 0 0 1 3.2-1.32c1.2 0 2.15.34 2.86 1.02a3.57 3.57 0 0 1 1.1 2.7h-2.38c-.01-.49-.17-.89-.46-1.2-.3-.3-.68-.46-1.16-.46-.6 0-1.04.22-1.34.65-.3.43-.45 1.13-.45 2.1v.26c0 .97.15 1.68.45 2.1.3.43.75.65 1.36.65Zm11.16-7.64h2.54v9.51h-2.54v-5.87l-3.18 5.87h-2.55v-9.51h2.55v5.86l3.18-5.86Z" fill="#fff"/><path d="M286.17 45.41C267.33 35.7 269.99 7.96 290.33 2l97.23-14.43c22.63-3.36 38.75 21.43 26.5 40.76a26.73 26.73 0 0 1-11.4 9.97l-31.14 14.35a85.04 85.04 0 0 1-74.56-1.67l-10.8-5.57Z" fill="#FDD104"/><path d="M307.96 29.82c1.16 0 1.74.46 1.74 1.38 0 .95-.58 1.42-1.74 1.42h-.44v.68c0 .6-.17 1.05-.5 1.36-.33.3-.77.46-1.3.46s-.97-.15-1.3-.46c-.32-.3-.48-.76-.48-1.36v-.68h-4.46a1.5 1.5 0 0 1-1.14-.44c-.28-.3-.42-.66-.42-1.1 0-.47.15-.9.44-1.32l5.72-8.16a1.99 1.99 0 0 1 2.9-.34c.36.32.54.77.54 1.34v7.22h.44Zm-6.42 0h2.4v-3.46l-2.4 3.46Zm10.65 1.2c-1.1 0-1.66-.47-1.66-1.4 0-.92.56-1.38 1.66-1.38h3.76c.56 0 .98.12 1.24.36.28.24.42.58.42 1.02 0 .44-.14.79-.42 1.04-.26.24-.68.36-1.24.36h-3.76Zm16.55 1.06c.6 0 1.04.12 1.32.36s.42.6.42 1.08c0 .99-.58 1.48-1.74 1.48h-6.94c-1.16 0-1.74-.5-1.74-1.48 0-.48.14-.84.42-1.08.28-.24.72-.36 1.32-.36h1.62v-7.22l-1.6.94c-.23.13-.46.2-.7.2-.37 0-.7-.16-.96-.48-.27-.33-.4-.7-.4-1.1 0-.55.23-.96.7-1.24l3.2-1.86c.59-.33 1.14-.5 1.66-.5.53 0 .96.16 1.28.48.33.32.5.75.5 1.3v9.48h1.64Zm11.43 0c.59 0 1.02.12 1.3.36.3.23.44.59.44 1.08 0 .5-.15.88-.44 1.12-.28.24-.71.36-1.3.36h-7.3c-.48 0-.86-.14-1.14-.42-.28-.3-.42-.66-.42-1.1 0-.57.23-1.1.68-1.56l4.24-4.42c.88-.92 1.32-1.77 1.32-2.54 0-.45-.13-.8-.4-1.04-.25-.24-.62-.36-1.1-.36-.39 0-.75.06-1.08.18-.32.1-.7.27-1.12.48l-.4.2a7.5 7.5 0 0 0-.32.18c-.15.08-.28.14-.4.18a1.2 1.2 0 0 1-.38.06c-.33 0-.61-.15-.84-.44-.23-.3-.34-.67-.34-1.08 0-.3.04-.53.12-.72.1-.19.26-.36.5-.52a7.84 7.84 0 0 1 4.42-1.36c.99 0 1.85.17 2.6.5a3.75 3.75 0 0 1 2.34 3.48c0 .81-.17 1.56-.5 2.24a9.2 9.2 0 0 1-1.66 2.24l-2.84 2.9h4.02Zm14.7-6.42c0 2.55-.32 4.5-.94 5.88a6.54 6.54 0 0 1-2.74 3.08 2.4 2.4 0 0 1-1.22.38c-.44 0-.8-.14-1.08-.42-.28-.3-.42-.65-.42-1.06 0-.33.1-.65.3-.96.2-.32.5-.6.9-.84 1.1-.75 1.66-2.55 1.66-5.42v-3.7c0-.55.14-.97.44-1.26.29-.3.7-.44 1.26-.44h7.2c.54 0 .96.15 1.26.44.3.3.46.71.46 1.26v10.7c0 .55-.17.99-.5 1.32-.34.33-.78.5-1.32.5-.55 0-1-.16-1.32-.48a1.85 1.85 0 0 1-.48-1.34v-9.52h-3.46v1.88ZM366.14 35c-.54 0-.96-.15-1.26-.44-.29-.3-.44-.71-.44-1.26V22.6c0-.55.15-.97.44-1.26.3-.3.72-.44 1.26-.44h6.92c.58 0 1.01.12 1.3.36.3.24.44.59.44 1.04 0 .96-.58 1.44-1.74 1.44h-5.04v2.68h4.64c1.16 0 1.74.47 1.74 1.42 0 .45-.14.8-.44 1.04-.29.24-.72.36-1.3.36h-4.64v2.92h5.04c1.16 0 1.74.48 1.74 1.44 0 .45-.14.8-.44 1.04-.29.24-.72.36-1.3.36h-6.92Zm15.55.1c-.56 0-1.01-.16-1.36-.48-.33-.33-.5-.77-.5-1.32v-9.42H377c-.59 0-1.03-.12-1.32-.36-.28-.25-.42-.63-.42-1.14 0-.5.14-.88.42-1.12.3-.24.73-.36 1.32-.36h9.36c.59 0 1.02.12 1.3.36.3.24.44.61.44 1.12 0 .5-.15.89-.44 1.14-.28.24-.71.36-1.3.36h-2.82v9.42c0 .55-.17.99-.52 1.32-.33.32-.78.48-1.34.48Z" fill="#fff"/></g><defs><clipPath id="a"><rect x=".33" width="393.33" height="280" rx="16" fill="#fff"/></clipPath></defs></svg>