<svg width="394" height="280" fill="none" xmlns="http://www.w3.org/2000/svg"><g clip-path="url(#a)"><rect width="393.33" height="280" rx="16" fill="#727272"/><path d="M403.24 239.03c-7.74-52.24 1.05-69.77-26.2-63.62-34.64 7.8-16.37 66.18 4.68 90.76 6.64 7.75 20.58 14.97 31.82 11.22 11.23-3.74-6.56-13.1-10.3-38.36Z" fill="#F47E28" stroke="#000" stroke-width="2"/><path d="M257.1 294.26c-8.08-2.75 4.86-28.4 47.08-28.4 5.95 0 19.9 14.34 14.22 13.92-19.95-1.45-44.29 20.24-61.3 14.48ZM300.27 258.1c8.39 1.63 11.28-25.94 42.56-39.01 5.5-2.3-2.98-15.3-16.77-12.68-13.78 2.62-43.29 48.28-25.79 51.7Z" fill="#fff" stroke="#000" stroke-width="2"/><path d="M274.12 296.11c-16.84-2.7 21.52-34.62 50.53-23.91 5.58 2.06 10.92 19.3 5.25 19.94-18.35 2.1-32.39 7.71-55.78 3.97ZM355.94 178.08c8.54 0 23.52 30.7 16.2 45.36-3.25 6.48-30.86 11.02-41.47-3.89-3.01-4.22 9.2-41.47 25.26-41.47Z" fill="#fff" stroke="#000" stroke-width="2"/><path d="M376.3 204.12c-32.68 24.5-40.45 13.49-45.63 1.83-2.88-6.47-9.06 19.28-11.64 49.93-85.14 20.58 10.3 3.74-5.61 42.1h32.75c15.01 0 39.74-9.82 39.81-29 .03-7.93-.4-17.65-1.4-30.1-9.94-13.24-2.5-39.1-8.28-34.76Z" fill="#FF6A8E" stroke="#000" stroke-width="2" stroke-linecap="round" stroke-linejoin="bevel"/><path d="M393.96 186.14c11.96 5.1 19.15-16.67 5.98-17.97 3.59-24.35-15.68-40.8-40.7-43.57-34.7-3.85-52.66 10.25-50.27 44.88-15.56 2.53-4.79 23.04 3.6 15.36 8.37 26.91 76.6 20.5 81.39 1.3Z" fill="#F3DAC4"/><path d="M393.96 186.14c11.96 5.1 19.15-16.67 5.98-17.97 3.59-24.35-15.68-40.8-40.7-43.57-34.7-3.85-52.66 10.25-50.27 44.88-15.56 2.53-4.79 23.04 3.6 15.36 8.37 26.91 76.6 20.5 81.39 1.3Z" fill="url(#b)"/><path d="M393.96 186.14c11.96 5.1 19.15-16.67 5.98-17.97 3.59-24.35-15.68-40.8-40.7-43.57-34.7-3.85-52.66 10.25-50.27 44.88-15.56 2.53-4.79 23.04 3.6 15.36 8.37 26.91 76.6 20.5 81.39 1.3Z" stroke="#000" stroke-width="2" stroke-linecap="round" stroke-linejoin="round"/><path d="M341.02 191.75c4.54 4.93 13.4 1.37 15.13 0" stroke="#000" stroke-width="2" stroke-linecap="round" stroke-linejoin="round"/><path d="M364.16 176.55c0 1.81 1.35 3.29 3.03 3.29 1.67 0 3.02-1.47 3.02-3.29 0-1.81-1.35-3.29-3.02-3.29-1.68 0-3.03 1.48-3.03 3.29ZM327.4 176.55c0 1.81 1.36 3.29 3.03 3.29 1.67 0 3.02-1.47 3.02-3.29 0-1.81-1.35-3.29-3.02-3.29s-3.03 1.48-3.03 3.29Z" fill="#0FF"/><path d="M364.16 176.55c0 1.81 1.35 3.29 3.03 3.29 1.67 0 3.02-1.47 3.02-3.29 0-1.81-1.35-3.29-3.02-3.29-1.68 0-3.03 1.48-3.03 3.29ZM327.4 176.55c0 1.81 1.36 3.29 3.03 3.29 1.67 0 3.02-1.47 3.02-3.29 0-1.81-1.35-3.29-3.02-3.29s-3.03 1.48-3.03 3.29Z" stroke="#000" stroke-width="2" stroke-linecap="round" stroke-linejoin="round"/><path d="M402.3 164.07c1.1-6.53 3.32-36.42-36.4-43.04-39.73-6.62-64.55 19.87-59.59 43.04 4.97 23.17-.33-6.62 17.87-11.58 18.21-4.97 49.9-4.85 57.67 4.86 7.78 9.72 4.54 21.39 10.37 15.56 5.83-5.84 8.43 1.09 10.09-8.84Z" fill="#F47E28" stroke="#000" stroke-width="2"/><path d="m323.78 270.6 36.08-8.85c1.6-.4 1.29-2.77-.37-2.73l-63.33 1.67-.2.02-34.17 6.23c-1.65.3-1.45 2.72.22 2.74l61.42.96c.12 0 .24 0 .35-.04Z" fill="#fff" stroke="#000" stroke-width="2"/><path d="m323.31 269-8.94-50.37a1.39 1.39 0 0 0-1.4-1.14l-73.47 1.94c-.86.02-1.5.81-1.32 1.66l9.5 47.28c.13.64.69 1.1 1.34 1.1l72.9 1.15c.88.01 1.55-.77 1.4-1.63ZM345.23 261.5c-1.13-8.48 19.78-22.5 34.68-52.96 2.62-5.35 15.1 3.89 11.66 17.5-3.43 13.6-43.97 53.12-46.34 35.45Z" fill="#fff" stroke="#000" stroke-width="2"/><path d="M380.79 145.47c1.47-11.24-3.6-8.5-7.49-2.81-4.92 7.19-5.75 12.47-1.44 14.2 4.25 1.7 7.45-.16 8.93-11.4Z" fill="#D9DD00" stroke="#000" stroke-width="2"/><path d="m274.12 242.78 4.69 4.67 3.74-4.67 4.68 4.67 2.8-4.67" stroke="#000" stroke-width="2" stroke-linecap="round" stroke-linejoin="round"/><path d="M24.62 76.18c-.82 0-1.48-.24-1.98-.72a2.78 2.78 0 0 1-.72-2.01v-15.9c0-.8.25-1.45.75-1.95s1.15-.75 1.95-.75h13.53c.8 0 1.45.25 1.95.75s.75 1.15.75 1.95v15.9c0 .82-.25 1.48-.75 1.98-.48.5-1.13.75-1.95.75-.82 0-1.48-.24-1.98-.72a2.78 2.78 0 0 1-.72-2.01V59.17h-8.13v14.28c0 .82-.25 1.48-.75 1.98-.48.5-1.13.75-1.95.75Zm22.73 0c-.84 0-1.5-.24-2-.72a2.78 2.78 0 0 1-.73-2.01V57.4c0-.82.22-1.45.66-1.89.44-.44 1.07-.66 1.9-.66h7.67c2.34 0 4.16.6 5.46 1.8 1.3 1.18 1.95 2.83 1.95 4.95 0 2.1-.66 3.75-1.98 4.95-1.3 1.2-3.1 1.8-5.43 1.8h-4.7v5.1c0 .84-.26 1.51-.76 2.01-.5.48-1.18.72-2.04.72Zm6.75-11.97c1.02 0 1.77-.21 2.25-.63.5-.42.75-1.07.75-1.95 0-1.74-1-2.61-3-2.61h-3.96v5.19h3.96Zm20.52 12.06c-2.16 0-4.04-.44-5.64-1.32a9.25 9.25 0 0 1-3.66-3.78 12.23 12.23 0 0 1-1.29-5.76c0-2.2.43-4.11 1.3-5.73a9.02 9.02 0 0 1 3.65-3.78c1.6-.88 3.48-1.32 5.64-1.32 2.16 0 4.03.44 5.61 1.32a8.79 8.79 0 0 1 3.66 3.78 12.05 12.05 0 0 1 1.3 5.73c0 2.2-.44 4.12-1.3 5.76a9.2 9.2 0 0 1-3.69 3.78 11.29 11.29 0 0 1-5.58 1.32Zm0-4.23c1.6 0 2.85-.56 3.75-1.68.9-1.14 1.35-2.79 1.35-4.95s-.46-3.8-1.38-4.92a4.51 4.51 0 0 0-3.72-1.68c-1.6 0-2.85.56-3.75 1.68-.9 1.1-1.35 2.74-1.35 4.92 0 2.18.45 3.83 1.35 4.95a4.54 4.54 0 0 0 3.75 1.68Zm16.47 4.14c-.82 0-1.48-.24-1.98-.72a2.78 2.78 0 0 1-.72-2.01V57.4c0-.76.23-1.37.69-1.83.48-.48 1.1-.72 1.86-.72h10.38c.8 0 1.39.19 1.77.57.4.38.6.9.6 1.56 0 .68-.2 1.22-.6 1.62-.38.38-.97.57-1.77.57h-7.53v14.28c0 .82-.25 1.48-.75 1.98-.48.5-1.13.75-1.95.75Zm17.6 0c-.83 0-1.5-.24-2-.72a2.78 2.78 0 0 1-.72-2.01V57.4c0-.82.22-1.45.66-1.89.44-.44 1.07-.66 1.89-.66h7.68c2.34 0 4.16.6 5.46 1.8 1.3 1.18 1.95 2.83 1.95 4.95 0 2.1-.66 3.75-1.98 4.95-1.3 1.2-3.11 1.8-5.43 1.8h-4.71v5.1c0 .84-.25 1.51-.75 2.01-.5.48-1.18.72-2.04.72Zm6.76-11.97c1.02 0 1.77-.21 2.25-.63.5-.42.75-1.07.75-1.95 0-1.74-1-2.61-3-2.61h-3.96v5.19h3.96Zm28.75 8.4c.18.38.27.75.27 1.11 0 .66-.27 1.22-.8 1.68-.53.46-1.13.69-1.8.69a2.31 2.31 0 0 1-2.17-1.44l-1.35-3.03h-9.72l-1.38 3.03a2.36 2.36 0 0 1-2.19 1.44c-.68 0-1.3-.23-1.86-.69a2.13 2.13 0 0 1-.8-1.68c0-.36.08-.73.26-1.11l7.92-16.26c.26-.54.64-.95 1.14-1.23a3.36 3.36 0 0 1 3.4 0c.51.28.9.69 1.16 1.23l7.92 16.26Zm-13.7-5.13h6l-3-6.69-3 6.69Zm35-12.78c.76 0 1.38.25 1.86.75.48.5.72 1.15.72 1.95v16.32c0 .76-.22 1.36-.66 1.8-.44.44-1.02.66-1.74.66-.7 0-1.28-.22-1.74-.66a2.43 2.43 0 0 1-.66-1.8V64.9l-3.42 6.3c-.34.64-.7 1.1-1.08 1.38-.38.26-.83.39-1.35.39-.52 0-.97-.13-1.35-.39A4.04 4.04 0 0 1 155 71.2l-3.4-6.12v8.64c0 .74-.22 1.34-.68 1.8-.44.44-1.02.66-1.74.66-.7 0-1.28-.22-1.74-.66a2.43 2.43 0 0 1-.66-1.8V57.4c0-.8.24-1.45.72-1.95.5-.5 1.13-.75 1.89-.75.54 0 1.03.16 1.47.48.44.3.8.74 1.1 1.32l5.53 10.38 5.49-10.38c.62-1.2 1.46-1.8 2.52-1.8Zm8.36 15.33c-1.66 0-2.49-.7-2.49-2.1 0-1.38.83-2.07 2.49-2.07h5.64c.84 0 1.46.18 1.86.54.42.36.63.87.63 1.53a2 2 0 0 1-.63 1.56c-.4.36-1.02.54-1.86.54h-5.64ZM40.7 95.7c.76 0 1.38.25 1.86.75.48.5.72 1.15.72 1.95v16.32c0 .76-.22 1.36-.66 1.8-.44.44-1.02.66-1.74.66-.7 0-1.28-.22-1.74-.66a2.43 2.43 0 0 1-.66-1.8v-8.82l-3.42 6.3c-.34.64-.7 1.1-1.08 1.38-.38.26-.83.39-1.35.39-.52 0-.97-.13-1.35-.39a4.04 4.04 0 0 1-1.08-1.38l-3.39-6.12v8.64c0 .74-.23 1.34-.69 1.8-.44.44-1.02.66-1.74.66-.7 0-1.28-.22-1.74-.66a2.43 2.43 0 0 1-.66-1.8V98.4c0-.8.24-1.45.72-1.95.5-.5 1.13-.75 1.89-.75.54 0 1.03.16 1.47.48.44.3.81.74 1.11 1.32l5.52 10.38 5.49-10.38c.62-1.2 1.46-1.8 2.52-1.8Zm19.64 1.71c.46-.66.92-1.11 1.38-1.35.48-.26 1.2-.39 2.16-.39.82 0 1.45.22 1.9.66.43.42.65 1.04.65 1.86v16.26c0 .82-.25 1.48-.75 1.98-.48.5-1.13.75-1.95.75-.82 0-1.48-.24-1.98-.72a2.78 2.78 0 0 1-.72-2.01v-10.74l-7.35 11.07c-.48.68-.92 1.2-1.32 1.56-.38.34-.78.56-1.2.66-.4.12-.9.18-1.5.18-.82 0-1.45-.21-1.89-.63-.44-.44-.66-1.07-.66-1.89V98.4c0-.82.24-1.48.72-1.98.5-.5 1.16-.75 1.98-.75.82 0 1.47.25 1.95.75.5.48.75 1.14.75 1.98v10.71l7.83-11.7Zm12.62 19.77c-.84 0-1.51-.24-2.01-.72a2.78 2.78 0 0 1-.72-2.01V98.4c0-.82.22-1.45.66-1.89.44-.44 1.07-.66 1.89-.66h7.68c2.34 0 4.16.6 5.46 1.8 1.3 1.18 1.95 2.83 1.95 4.95 0 2.1-.66 3.75-1.98 4.95-1.3 1.2-3.11 1.8-5.43 1.8h-4.71v5.1c0 .84-.25 1.51-.75 2.01-.5.48-1.18.72-2.04.72Zm6.75-11.97c1.02 0 1.77-.21 2.25-.63.5-.42.75-1.07.75-1.95 0-1.74-1-2.61-3-2.61h-3.96v5.19h3.96Zm20.52 12.06c-2.16 0-4.04-.44-5.64-1.32a9.25 9.25 0 0 1-3.66-3.78 12.23 12.23 0 0 1-1.3-5.76c0-2.2.44-4.11 1.3-5.73a9.02 9.02 0 0 1 3.66-3.78c1.6-.88 3.48-1.32 5.64-1.32 2.16 0 4.03.44 5.6 1.32a8.79 8.79 0 0 1 3.67 3.78c.86 1.62 1.29 3.53 1.29 5.73 0 2.2-.43 4.12-1.3 5.76a9.2 9.2 0 0 1-3.68 3.78 11.29 11.29 0 0 1-5.58 1.32Zm0-4.23c1.6 0 2.85-.56 3.75-1.68.9-1.14 1.35-2.79 1.35-4.95s-.46-3.8-1.38-4.92a4.5 4.5 0 0 0-3.72-1.68c-1.6 0-2.85.56-3.75 1.68-.9 1.1-1.35 2.74-1.35 4.92 0 2.18.45 3.83 1.35 4.95a4.54 4.54 0 0 0 3.75 1.68Zm27.95-7.02a5.34 5.34 0 0 1 2.85 1.92c.66.88 1 1.97 1 3.27 0 1.16-.32 2.18-.94 3.06a5.84 5.84 0 0 1-2.6 2.01 10 10 0 0 1-3.97.72h-7.98c-.82 0-1.45-.22-1.89-.66-.44-.44-.66-1.07-.66-1.89V98.4c0-.82.22-1.45.66-1.89.44-.44 1.07-.66 1.9-.66h7.67c2.22 0 3.98.5 5.28 1.5a4.7 4.7 0 0 1 1.98 3.99c0 1.08-.29 2.04-.87 2.88a4.97 4.97 0 0 1-2.43 1.8Zm-8.82-1.86h3.93a4.2 4.2 0 0 0 2.28-.48c.48-.32.72-.83.72-1.53 0-.74-.24-1.28-.72-1.62-.48-.34-1.24-.51-2.28-.51h-3.93v4.14Zm4.47 8.67c1.1 0 1.88-.17 2.34-.51.48-.36.72-.94.72-1.74s-.24-1.37-.72-1.71c-.46-.36-1.24-.54-2.34-.54h-4.47v4.5h4.47Zm30.92.78c.18.38.27.75.27 1.11 0 .66-.27 1.22-.8 1.68-.53.46-1.13.69-1.8.69a2.31 2.31 0 0 1-2.17-1.44l-1.35-3.03h-9.72l-1.38 3.03a2.36 2.36 0 0 1-2.19 1.44c-.68 0-1.3-.23-1.86-.69a2.13 2.13 0 0 1-.8-1.68c0-.36.08-.73.26-1.11l7.92-16.26c.26-.54.64-.95 1.14-1.23a3.36 3.36 0 0 1 3.4 0c.51.28.9.69 1.16 1.23l7.92 16.26Zm-13.7-5.13h6l-3-6.69-3 6.69ZM174 95.7a2.58 2.58 0 0 1 2.7 2.7v16.05c0 .82-.25 1.48-.75 1.98-.48.5-1.13.75-1.95.75-.82 0-1.48-.24-1.98-.72a2.78 2.78 0 0 1-.72-2.01v-6h-8.64v6c0 .82-.25 1.48-.75 1.98-.48.5-1.13.75-1.95.75-.82 0-1.48-.24-1.98-.72a2.78 2.78 0 0 1-.72-2.01V98.4c0-.82.24-1.47.72-1.95.5-.5 1.16-.75 1.98-.75a2.58 2.58 0 0 1 2.7 2.7v5.67h8.64V98.4c0-.82.24-1.47.72-1.95.5-.5 1.16-.75 1.98-.75Zm19.72 1.71c.46-.66.92-1.11 1.38-1.35.48-.26 1.2-.39 2.16-.39.82 0 1.45.22 1.9.66.43.42.65 1.04.65 1.86v16.26c0 .82-.25 1.48-.75 1.98-.48.5-1.13.75-1.95.75-.82 0-1.48-.24-1.98-.72a2.78 2.78 0 0 1-.72-2.01v-10.74l-7.35 11.07c-.48.68-.92 1.2-1.32 1.56-.38.34-.78.56-1.2.66-.4.12-.9.18-1.5.18-.82 0-1.45-.21-1.89-.63-.44-.44-.66-1.07-.66-1.89V98.4c0-.82.24-1.48.72-1.98.5-.5 1.16-.75 1.98-.75.82 0 1.47.25 1.95.75.5.48.75 1.14.75 1.98v10.71l7.83-11.7ZM206.16 117c-.82 0-1.45-.22-1.9-.66-.43-.44-.65-1.07-.65-1.89V98.4c0-.82.22-1.45.66-1.89.44-.44 1.07-.66 1.89-.66h10.38c.86 0 1.5.18 1.95.54.44.36.66.88.66 1.56 0 1.44-.87 2.16-2.61 2.16h-7.56v4.02h6.96c1.74 0 2.6.71 2.6 2.13 0 .68-.21 1.2-.65 1.56-.44.36-1.1.54-1.95.54h-6.96v4.38h7.56c1.74 0 2.6.72 2.6 2.16 0 .68-.21 1.2-.65 1.56-.44.36-1.1.54-1.95.54h-10.38ZM31.19 155.74a4.52 4.52 0 0 1-1.53 3.25 5.34 5.34 0 0 1-3.62 1.19 4.83 4.83 0 0 1-3.88-1.66c-.94-1.1-1.4-2.62-1.4-4.55v-.78c0-1.23.21-2.32.65-3.25a4.85 4.85 0 0 1 4.66-2.91c1.48 0 2.67.4 3.57 1.18.9.8 1.43 1.9 1.57 3.33h-2.64c-.07-.82-.3-1.42-.7-1.79-.39-.37-.99-.56-1.8-.56-.88 0-1.53.32-1.97.95-.44.63-.66 1.6-.67 2.93v.96c0 1.38.2 2.4.62 3.03.42.64 1.09.96 1.99.96.81 0 1.42-.18 1.82-.55.4-.38.63-.95.7-1.73h2.63Zm1.17-.58c0-.95.18-1.79.54-2.53a4 4 0 0 1 1.57-1.7 4.6 4.6 0 0 1 2.38-.62c1.28 0 2.33.4 3.14 1.18a4.72 4.72 0 0 1 1.36 3.2l.02.65c0 1.46-.41 2.63-1.23 3.52a4.25 4.25 0 0 1-3.27 1.32 4.28 4.28 0 0 1-3.3-1.32 5.07 5.07 0 0 1-1.21-3.59v-.11Zm2.54.18c0 .9.17 1.6.5 2.08.35.47.83.7 1.47.7.61 0 1.1-.23 1.44-.7.34-.47.52-1.23.52-2.26a3.5 3.5 0 0 0-.52-2.06 1.69 1.69 0 0 0-1.46-.73c-.62 0-1.1.24-1.44.73-.34.48-.51 1.23-.51 2.24Zm8.2 4.66v-9.51h3.97c1.3 0 2.29.23 2.98.69.7.45 1.04 1.1 1.04 1.97 0 .43-.15.83-.44 1.18-.29.35-.71.61-1.27.8.68.13 1.21.38 1.6.77.4.37.59.83.59 1.38a2.3 2.3 0 0 1-1 2.03c-.66.46-1.63.69-2.9.69H43.1Zm2.54-3.95v1.92h2.05c.9 0 1.34-.31 1.34-.94 0-.64-.43-.97-1.28-.98h-2.11Zm0-1.7h1.57c.9-.01 1.34-.3 1.34-.86 0-.35-.13-.6-.37-.74-.24-.15-.61-.22-1.11-.22h-1.43v1.82Zm16.05.98a5.7 5.7 0 0 1-1 3.53 3.2 3.2 0 0 1-2.7 1.32c-.96 0-1.73-.34-2.32-1v4.48h-2.54v-13.17h2.35l.09.93a2.99 2.99 0 0 1 2.4-1.1c1.18 0 2.09.43 2.74 1.3.65.86.98 2.06.98 3.58v.13Zm-2.54-.18c0-.89-.16-1.57-.48-2.05a1.52 1.52 0 0 0-1.36-.72c-.8 0-1.35.3-1.64.91v3.9c.3.62.86.94 1.66.94 1.21 0 1.82-1 1.82-2.98Zm8.5 5.03c-1.4 0-2.54-.43-3.41-1.29-.88-.85-1.31-2-1.31-3.42v-.24c0-.96.18-1.81.55-2.56.37-.76.89-1.34 1.56-1.74a4.4 4.4 0 0 1 2.32-.62c1.3 0 2.33.41 3.07 1.23a4.99 4.99 0 0 1 1.13 3.5v1.03H65.5c.08.62.33 1.12.74 1.5.42.37.94.56 1.57.56.98 0 1.75-.36 2.3-1.07l1.24 1.4c-.38.54-.9.96-1.54 1.27-.65.3-1.37.45-2.16.45Zm-.3-7.8c-.5 0-.9.16-1.22.5-.32.34-.51.83-.6 1.46h3.53v-.2c-.01-.56-.16-1-.46-1.3-.29-.31-.7-.47-1.24-.47ZM78.8 157l2.49-6.51h3.18V160h-2.54v-5.84L79.65 160h-1.7l-2.24-5.74V160h-2.54v-9.51h3.16L78.8 157Zm12.26 3.18c-1.4 0-2.53-.43-3.41-1.29-.87-.85-1.31-2-1.31-3.42v-.24c0-.96.18-1.81.55-2.56.37-.76.9-1.34 1.57-1.74a4.4 4.4 0 0 1 2.32-.62c1.3 0 2.32.41 3.07 1.23a4.99 4.99 0 0 1 1.12 3.5v1.03h-6.05c.08.62.32 1.12.73 1.5.42.37.94.56 1.58.56.98 0 1.74-.36 2.29-1.07l1.25 1.4c-.38.54-.9.96-1.55 1.27-.65.3-1.37.45-2.16.45Zm-.3-7.8c-.5 0-.9.16-1.22.5-.31.34-.51.83-.6 1.46h3.53v-.2c0-.56-.16-1-.45-1.3-.3-.31-.71-.47-1.25-.47Zm13.9 7.62h-2.54v-3.66h-3.16V160h-2.54v-9.51h2.54v3.81h3.16v-3.81h2.55V160Zm10.22 0h-2.55v-3.66h-3.16V160h-2.54v-9.51h2.54v3.81h3.16v-3.81h2.55V160Zm4.68-6.72h1.82c.82 0 1.54.13 2.16.4a3.15 3.15 0 0 1 1.93 2.98 3 3 0 0 1-1.12 2.43c-.74.6-1.74.91-3.02.91H117v-9.51h2.55v2.79Zm9.95 6.72h-2.54v-9.51h2.54V160Zm-9.95-4.69v2.66h1.8c.5 0 .9-.12 1.16-.35.27-.24.4-.56.4-.96 0-.41-.12-.73-.39-.97-.26-.25-.65-.38-1.17-.38h-1.8Zm16.57 4.87c-1.4 0-2.53-.43-3.41-1.29-.87-.85-1.31-2-1.31-3.42v-.24c0-.96.19-1.81.55-2.56.37-.76.9-1.34 1.57-1.74a4.4 4.4 0 0 1 2.32-.62c1.3 0 2.32.41 3.07 1.23a4.99 4.99 0 0 1 1.12 3.5v1.03H134c.08.62.32 1.12.73 1.5.42.37.94.56 1.58.56.97 0 1.74-.36 2.3-1.07l1.24 1.4c-.38.54-.9.96-1.55 1.27-.65.3-1.37.45-2.16.45Zm-.29-7.8c-.5 0-.91.16-1.23.5-.31.34-.51.83-.6 1.46h3.53v-.2c0-.56-.16-1-.45-1.3-.3-.31-.71-.47-1.25-.47Zm18.03.15h-3.05V160h-2.55v-7.47h-3v-2.04h8.6v2.04Zm5.1 7.65c-1.4 0-2.54-.43-3.42-1.29-.87-.85-1.3-2-1.3-3.42v-.24c0-.96.18-1.81.55-2.56.37-.76.89-1.34 1.56-1.74a4.4 4.4 0 0 1 2.32-.62c1.3 0 2.33.41 3.07 1.23a4.99 4.99 0 0 1 1.13 3.5v1.03h-6.06c.08.62.33 1.12.74 1.5.41.37.94.56 1.57.56.98 0 1.74-.36 2.3-1.07l1.24 1.4c-.38.54-.9.96-1.54 1.27-.65.3-1.38.45-2.17.45Zm-.3-7.8c-.5 0-.91.16-1.23.5-.3.34-.5.83-.6 1.46h3.54v-.2c-.01-.56-.16-1-.46-1.3-.3-.31-.7-.47-1.25-.47Zm9.28.95 1.6-2.84h2.71l-2.7 4.66 2.82 4.85h-2.73l-1.7-2.99-1.68 2.99h-2.74l2.82-4.85-2.7-4.66h2.73l1.57 2.84Zm13.78 6.67h-2.55v-3.66h-3.16V160h-2.54v-9.51h2.54v3.81h3.16v-3.81h2.55V160Zm1.57-4.84c0-.95.18-1.79.55-2.53.36-.73.88-1.3 1.56-1.7a4.6 4.6 0 0 1 2.38-.62c1.28 0 2.33.4 3.14 1.18a4.72 4.72 0 0 1 1.36 3.2l.02.65c0 1.46-.4 2.63-1.22 3.52a4.25 4.25 0 0 1-3.28 1.32 4.28 4.28 0 0 1-3.29-1.32 5.07 5.07 0 0 1-1.22-3.59v-.11Zm2.54.18c0 .9.17 1.6.51 2.08.34.47.83.7 1.46.7.62 0 1.1-.23 1.44-.7.35-.47.52-1.23.52-2.26a3.5 3.5 0 0 0-.52-2.06 1.69 1.69 0 0 0-1.46-.73c-.62 0-1.1.24-1.44.73-.34.48-.5 1.23-.5 2.24ZM202 150.5V160h-2.54v-7.45h-2.24l-.16 2.93c-.1 1.57-.4 2.7-.92 3.42-.51.72-1.28 1.08-2.3 1.1h-.86l-.03-2.06.32-.03c.45-.04.79-.3 1-.81.21-.5.34-1.36.4-2.58l.17-4.03H202Zm1.57 4.67c0-.95.18-1.79.54-2.53a4 4 0 0 1 1.57-1.7 4.6 4.6 0 0 1 2.38-.62c1.28 0 2.33.4 3.14 1.18a4.72 4.72 0 0 1 1.36 3.2l.02.65c0 1.46-.41 2.63-1.23 3.52a4.25 4.25 0 0 1-3.27 1.32 4.28 4.28 0 0 1-3.29-1.32 5.07 5.07 0 0 1-1.22-3.59v-.11Zm2.54.18c0 .9.17 1.6.5 2.08.35.47.83.7 1.47.7.61 0 1.1-.23 1.44-.7.34-.47.52-1.23.52-2.26 0-.89-.18-1.57-.52-2.06a1.69 1.69 0 0 0-1.46-.73c-.62 0-1.1.24-1.44.73-.34.48-.51 1.23-.51 2.24Zm14.5-2.8h-3.93V160h-2.54v-9.51h6.48v2.06Zm6.8-2.05h2.54V160h-2.54v-5.87l-3.18 5.87h-2.55v-9.51h2.55v5.86l3.18-5.86Zm10.22 0h2.54V160h-2.54v-5.87l-3.19 5.87h-2.54v-9.51h2.54v5.86l3.19-5.86ZM29.25 183H26.7v-7.45h-3.18V183h-2.54v-9.51h8.27V183Zm10.5-4.67a5.7 5.7 0 0 1-1 3.53 3.2 3.2 0 0 1-2.7 1.32c-.95 0-1.73-.34-2.32-1v4.48h-2.54v-13.17h2.35l.1.93a2.99 2.99 0 0 1 2.4-1.1c1.17 0 2.08.43 2.73 1.3.65.86.98 2.06.98 3.58v.13Zm-2.54-.18c0-.89-.16-1.57-.48-2.05a1.52 1.52 0 0 0-1.36-.72c-.8 0-1.34.3-1.64.91v3.9c.3.62.86.94 1.66.94 1.21 0 1.82-1 1.82-2.98Zm3.73 0c0-.94.18-1.78.54-2.52a4 4 0 0 1 1.56-1.7 4.6 4.6 0 0 1 2.39-.62c1.28 0 2.33.4 3.13 1.18a4.72 4.72 0 0 1 1.37 3.2l.01.65c0 1.46-.4 2.63-1.22 3.52a4.25 4.25 0 0 1-3.28 1.32 4.28 4.28 0 0 1-3.28-1.32 5.07 5.07 0 0 1-1.22-3.59v-.11Zm2.54.2c0 .9.17 1.59.5 2.07.35.47.83.7 1.46.7.62 0 1.1-.23 1.45-.7.34-.47.51-1.23.51-2.26a3.5 3.5 0 0 0-.51-2.06 1.69 1.69 0 0 0-1.46-.73c-.62 0-1.1.24-1.44.73-.34.48-.51 1.23-.51 2.24Zm14.5-2.8h-3.93V183H51.5v-9.51h6.48v2.06Zm9.63 2.78a5.7 5.7 0 0 1-1 3.53 3.2 3.2 0 0 1-2.7 1.32c-.95 0-1.73-.34-2.32-1v4.48h-2.54v-13.17h2.36l.08.93a2.99 2.99 0 0 1 2.41-1.1c1.17 0 2.08.43 2.73 1.3.66.86.98 2.06.98 3.58v.13Zm-2.54-.18c0-.89-.16-1.57-.47-2.05a1.52 1.52 0 0 0-1.37-.72c-.8 0-1.34.3-1.64.91v3.9c.31.62.86.94 1.66.94 1.21 0 1.82-1 1.82-2.98ZM74.7 183c-.11-.23-.2-.51-.25-.85a3.07 3.07 0 0 1-2.4 1.03 3.4 3.4 0 0 1-2.32-.81 2.6 2.6 0 0 1-.92-2.04c0-1.01.38-1.78 1.12-2.32a5.55 5.55 0 0 1 3.24-.82h1.17v-.54c0-.44-.11-.8-.34-1.06-.22-.26-.58-.4-1.06-.4-.43 0-.77.1-1.01.31-.24.2-.36.49-.36.85h-2.54c0-.55.17-1.06.5-1.53.34-.47.83-.84 1.45-1.1a5.2 5.2 0 0 1 2.09-.4c1.17 0 2.1.29 2.78.88.7.59 1.04 1.41 1.04 2.48v4.12c0 .9.13 1.59.38 2.05v.15H74.7Zm-2.1-1.77c.38 0 .72-.08 1.04-.24.32-.17.55-.4.7-.68v-1.63h-.95c-1.27 0-1.94.44-2.03 1.31v.15c0 .32.1.58.33.79.22.2.53.3.91.3ZM84.63 180l2.5-6.51h3.17V183h-2.54v-5.84L85.5 183h-1.7l-2.24-5.74V183h-2.54v-9.51h3.16l2.46 6.51Zm13.68 0 2.49-6.51h3.18V183h-2.54v-5.84L99.16 183h-1.7l-2.23-5.74V183h-2.54v-9.51h3.15l2.47 6.51Zm13.61-6.51h2.55V183h-2.55v-5.87l-3.18 5.87h-2.55v-9.51h2.55v5.86l3.19-5.86Zm13.05 4.84a5.7 5.7 0 0 1-1 3.53 3.2 3.2 0 0 1-2.7 1.32c-.95 0-1.73-.34-2.32-1v4.48h-2.54v-13.17h2.35l.1.93a2.99 2.99 0 0 1 2.4-1.1c1.17 0 2.08.43 2.73 1.3.65.86.98 2.06.98 3.58v.13Zm-2.54-.18a3.7 3.7 0 0 0-.48-2.05 1.52 1.52 0 0 0-1.36-.72c-.8 0-1.34.3-1.64.91v3.9c.3.62.86.94 1.66.94 1.21 0 1.82-1 1.82-2.98Zm3.72 0c0-.94.19-1.78.55-2.52.36-.73.88-1.3 1.56-1.7a4.6 4.6 0 0 1 2.39-.62c1.28 0 2.32.4 3.13 1.18a4.72 4.72 0 0 1 1.37 3.2l.01.65c0 1.46-.4 2.63-1.22 3.52a4.25 4.25 0 0 1-3.28 1.32 4.28 4.28 0 0 1-3.28-1.32 5.07 5.07 0 0 1-1.23-3.59v-.11Zm2.54.2c0 .9.17 1.59.51 2.07.34.47.83.7 1.46.7.62 0 1.1-.23 1.44-.7.35-.47.52-1.23.52-2.26a3.5 3.5 0 0 0-.52-2.06 1.68 1.68 0 0 0-1.45-.73c-.63 0-1.1.24-1.45.73-.34.48-.5 1.23-.5 2.24Zm8.2 4.65v-9.51h3.98c1.3 0 2.28.23 2.98.69.69.45 1.03 1.1 1.03 1.97 0 .43-.14.83-.44 1.18-.28.35-.7.61-1.26.8.68.13 1.21.38 1.6.77.4.37.59.83.59 1.38a2.3 2.3 0 0 1-1 2.03c-.67.46-1.63.69-2.9.69h-4.57Zm2.55-3.95v1.92h2.04c.9 0 1.35-.31 1.35-.94 0-.64-.43-.97-1.29-.98h-2.1Zm0-1.7H141c.89-.01 1.33-.3 1.33-.86 0-.35-.12-.6-.37-.74a2.19 2.19 0 0 0-1.1-.22h-1.44v1.82Zm13 5.65c-.12-.23-.2-.51-.26-.85a3.07 3.07 0 0 1-2.4 1.03 3.4 3.4 0 0 1-2.32-.81 2.6 2.6 0 0 1-.92-2.04c0-1.01.38-1.78 1.12-2.32a5.55 5.55 0 0 1 3.24-.82h1.17v-.54c0-.44-.11-.8-.34-1.06-.22-.26-.58-.4-1.06-.4-.43 0-.77.1-1.01.31-.24.2-.36.49-.36.85h-2.54c0-.55.17-1.06.5-1.53.34-.47.83-.84 1.45-1.1a5.2 5.2 0 0 1 2.09-.4c1.17 0 2.1.29 2.78.88.7.59 1.04 1.41 1.04 2.48v4.12c0 .9.13 1.59.38 2.05v.15h-2.57Zm-2.1-1.77c.37 0 .71-.08 1.03-.24.32-.17.55-.4.7-.68v-1.63h-.95c-1.27 0-1.94.44-2.03 1.31v.15c0 .32.1.58.33.79.22.2.53.3.91.3Zm14.48 1.77h-2.55v-3.66h-3.16V183h-2.54v-9.51h2.54v3.81h3.16v-3.81h2.55V183Zm7.7-9.51h2.54V183h-2.54v-5.87l-3.19 5.87h-2.54v-9.51h2.55v5.86l3.18-5.86Zm12.4 0V183h-2.52v-3.29h-1.61l-1.83 3.29h-2.58l2.08-3.72c-.57-.26-1.01-.62-1.32-1.07-.3-.45-.46-.96-.46-1.54 0-.92.36-1.67 1.07-2.26a4.5 4.5 0 0 1 2.86-.92h4.32Zm-4.26 4.45h1.74v-2.41h-1.66c-.45 0-.81.12-1.1.36-.28.23-.42.52-.42.86 0 .34.14.62.4.84.28.23.62.34 1.03.35Zm11.03 3.01c.57-.6.96-1.21 1.16-1.8.21-.6.32-1.45.35-2.55l.07-3.11h7v7.46h1.36v4.9h-2.53V183h-5.64v2.86h-2.6v-4.9h.83Zm3 0h3.04v-5.36h-1.97l-.02 1.14a8.54 8.54 0 0 1-1.06 4.22Zm16.5-7.46V183h-2.53v-7.45h-2.24l-.16 2.93c-.1 1.57-.4 2.7-.92 3.42-.52.72-1.29 1.08-2.3 1.1h-.87l-.02-2.06.31-.03c.46-.04.8-.3 1-.81.21-.5.35-1.36.4-2.58l.17-4.03h7.17Zm9.9 0V183h-2.54v-3.29h-1.6l-1.83 3.29h-2.58l2.08-3.72c-.57-.26-1.01-.62-1.32-1.07-.3-.45-.46-.96-.46-1.54 0-.92.35-1.67 1.06-2.26a4.5 4.5 0 0 1 2.87-.92h4.31Zm-4.28 4.45h1.74v-2.41h-1.65c-.45 0-.82.12-1.1.36-.28.23-.42.52-.42.86 0 .34.14.62.4.84.28.23.62.34 1.03.35Zm-195.7 26.01c.57-.6.96-1.21 1.17-1.8.2-.6.32-1.45.34-2.55l.07-3.11h7v7.46h1.37v4.9h-2.54V206h-5.64v2.86H20.3v-4.9h.82Zm3 0h3.04v-5.36h-1.97l-.02 1.14a8.54 8.54 0 0 1-1.06 4.22Zm12.62 2.23c-1.4 0-2.54-.43-3.41-1.29-.88-.85-1.31-2-1.31-3.42v-.24c0-.96.18-1.81.55-2.56.37-.76.89-1.34 1.56-1.74a4.4 4.4 0 0 1 2.32-.62c1.3 0 2.33.41 3.07 1.23a4.99 4.99 0 0 1 1.13 3.5v1.03h-6.06c.08.62.33 1.12.74 1.5.42.37.94.56 1.57.56.98 0 1.75-.36 2.3-1.07l1.24 1.4c-.38.54-.9.96-1.54 1.27-.65.3-1.37.45-2.16.45Zm-.3-7.8c-.5 0-.9.16-1.22.5-.32.34-.51.83-.6 1.46h3.53v-.2c-.01-.56-.16-1-.46-1.3-.29-.31-.7-.47-1.24-.47Zm13.44.15h-3.05V206h-2.54v-7.47h-3v-2.04h8.6v2.04Zm5.1 7.65c-1.4 0-2.53-.43-3.4-1.29-.88-.85-1.32-2-1.32-3.42v-.24c0-.96.19-1.81.56-2.56.36-.76.89-1.34 1.56-1.74a4.4 4.4 0 0 1 2.32-.62c1.3 0 2.32.41 3.07 1.23a4.99 4.99 0 0 1 1.12 3.5v1.03h-6.05c.08.62.33 1.12.74 1.5.41.37.94.56 1.57.56.98 0 1.74-.36 2.3-1.07l1.24 1.4c-.38.54-.9.96-1.55 1.27-.65.3-1.37.45-2.16.45Zm-.29-7.8c-.5 0-.91.16-1.23.5-.3.34-.5.83-.6 1.46h3.54v-.2c-.02-.56-.17-1-.46-1.3-.3-.31-.7-.47-1.25-.47Zm11.38-1.89h2.54V206h-2.54v-5.87L62.88 206h-2.55v-9.51h2.55v5.86l3.18-5.86Zm1.5-3.86c0 .78-.28 1.41-.85 1.9-.55.47-1.29.71-2.2.71a3.3 3.3 0 0 1-2.2-.71 2.37 2.37 0 0 1-.83-1.9h1.8c0 .37.1.66.32.86.23.2.53.3.92.3.38 0 .68-.1.9-.3.21-.2.32-.49.32-.86h1.82Zm3.12 12.12c0-.4.13-.73.4-.98.28-.25.62-.38 1.03-.38.42 0 .76.13 1.03.38s.41.58.41.98-.13.73-.4.98c-.27.24-.62.37-1.04.37-.42 0-.76-.13-1.03-.37-.27-.25-.4-.58-.4-.98Zm20.27-4.86c0 1.26-.23 2.37-.67 3.32a5.02 5.02 0 0 1-4.77 2.97 5.08 5.08 0 0 1-4.77-2.94 7.53 7.53 0 0 1-.7-3.28v-.63c0-1.26.23-2.37.68-3.32a5.08 5.08 0 0 1 4.78-2.98 5 5 0 0 1 4.76 2.98c.46.95.69 2.06.69 3.31v.57Zm-2.68-.58c0-1.34-.24-2.36-.72-3.06a2.35 2.35 0 0 0-2.05-1.04c-.89 0-1.57.34-2.05 1.03a5.3 5.3 0 0 0-.73 3.03v.62c0 1.3.24 2.32.72 3.04a2.34 2.34 0 0 0 2.07 1.08c.89 0 1.57-.34 2.04-1.03.48-.7.72-1.71.72-3.04v-.63Zm12.32-.78h-3.05V206h-2.55v-7.47h-3v-2.04h8.6v2.04Zm9.72 5.6c.47 0 .85-.13 1.14-.39.3-.26.45-.6.46-1.03h2.38c0 .65-.18 1.24-.53 1.78-.34.53-.82.95-1.42 1.25-.6.29-1.26.44-1.99.44a4.14 4.14 0 0 1-3.21-1.3 5.15 5.15 0 0 1-1.18-3.58v-.17c0-1.46.39-2.63 1.17-3.5a4.08 4.08 0 0 1 3.2-1.32c1.2 0 2.15.34 2.86 1.02a3.57 3.57 0 0 1 1.1 2.7h-2.38c-.01-.49-.17-.89-.46-1.2-.3-.3-.68-.46-1.16-.46-.6 0-1.04.22-1.35.65-.3.43-.44 1.13-.44 2.1v.26c0 .97.15 1.68.44 2.1.3.43.76.65 1.37.65Zm5.03-2.97c0-.95.19-1.79.55-2.53.36-.73.88-1.3 1.56-1.7a4.6 4.6 0 0 1 2.38-.62c1.29 0 2.33.4 3.14 1.18a4.72 4.72 0 0 1 1.36 3.2l.02.65c0 1.46-.4 2.63-1.22 3.52a4.25 4.25 0 0 1-3.28 1.32 4.28 4.28 0 0 1-3.28-1.32 5.07 5.07 0 0 1-1.23-3.59v-.11Zm2.54.18c0 .9.17 1.6.51 2.08.34.47.83.7 1.46.7.62 0 1.1-.23 1.44-.7.35-.47.52-1.23.52-2.26a3.5 3.5 0 0 0-.52-2.06 1.69 1.69 0 0 0-1.46-.73c-.62 0-1.1.24-1.44.73-.34.48-.5 1.23-.5 2.24Zm13.03-2.05c0-.33-.11-.59-.34-.77a1.38 1.38 0 0 0-.93-.28c-.41 0-.75.09-1.02.26a.82.82 0 0 0-.38.73h-2.54c0-.86.36-1.56 1.07-2.1.71-.54 1.63-.8 2.74-.8 1.23 0 2.19.23 2.89.71.7.48 1.05 1.17 1.05 2.05 0 .42-.13.81-.39 1.17-.25.35-.6.63-1.07.84 1.08.39 1.63 1.12 1.63 2.21 0 .87-.38 1.57-1.13 2.1-.74.5-1.74.77-2.98.77-1.15 0-2.1-.27-2.85-.81a2.55 2.55 0 0 1-1.11-2.18h2.54c0 .32.14.58.43.78.29.2.66.3 1.12.3.46 0 .8-.1 1.06-.32.25-.2.38-.48.38-.82 0-.42-.12-.72-.36-.9-.24-.17-.6-.26-1.09-.26h-1.38v-1.66h1.47c.8-.02 1.19-.36 1.19-1.02Zm4.38 4.66c.58-.6.97-1.21 1.17-1.8.2-.6.32-1.45.35-2.55l.07-3.11h7v7.46h1.36v4.9h-2.54V206h-5.63v2.86h-2.6v-4.9h.82Zm3 0h3.05v-5.36h-1.98l-.01 1.14a8.55 8.55 0 0 1-1.06 4.22Zm13.76 2.05c-.12-.23-.2-.51-.26-.85a3.07 3.07 0 0 1-2.4 1.03 3.4 3.4 0 0 1-2.32-.81 2.6 2.6 0 0 1-.91-2.04c0-1.01.37-1.78 1.11-2.32a5.55 5.55 0 0 1 3.25-.82h1.17v-.54c0-.44-.12-.8-.35-1.06-.22-.26-.57-.4-1.06-.4-.43 0-.76.1-1.01.31-.24.2-.36.49-.36.85h-2.54c0-.55.17-1.06.5-1.53.35-.47.83-.84 1.45-1.1a5.2 5.2 0 0 1 2.1-.4c1.16 0 2.1.29 2.78.88.69.59 1.04 1.41 1.04 2.48v4.12c0 .9.13 1.59.37 2.05v.15h-2.56Zm-2.1-1.77c.37 0 .72-.08 1.03-.24.32-.17.55-.4.7-.68v-1.63h-.94c-1.27 0-1.95.44-2.03 1.31l-.01.15c0 .32.11.58.33.79.22.2.53.3.92.3Zm14.48 1.77h-2.55v-3.66h-3.15V206h-2.54v-9.51h2.54v3.81h3.15v-3.81h2.55V206Zm7.7-9.51h2.54V206h-2.54v-5.87l-3.18 5.87h-2.55v-9.51h2.55v5.86l3.18-5.86Zm12.41 0V206h-2.53v-3.29h-1.61l-1.83 3.29H176l2.07-3.72c-.57-.26-1-.62-1.32-1.07-.3-.45-.45-.96-.45-1.54 0-.92.35-1.67 1.06-2.26a4.5 4.5 0 0 1 2.86-.92h4.32Zm-4.27 4.45H182v-2.41h-1.65c-.46 0-.82.12-1.1.36-.28.23-.42.52-.42.86 0 .34.13.62.4.84.27.23.61.34 1.03.35Zm16.63-4.45h2.54V206h-2.54v-5.87l-3.18 5.87h-2.55v-9.51h2.55v5.86l3.18-5.86Zm10.96 2.06h-3.94V206h-2.54v-9.51h6.48v2.06Zm9.62 2.78a5.7 5.7 0 0 1-1 3.53 3.19 3.19 0 0 1-2.69 1.32c-.96 0-1.74-.34-2.33-1v4.48h-2.54v-13.17h2.36l.08.93a2.99 2.99 0 0 1 2.41-1.1c1.17 0 2.08.43 2.74 1.3.65.86.97 2.06.97 3.58v.13Zm-2.54-.18c0-.89-.16-1.57-.47-2.05a1.52 1.52 0 0 0-1.37-.72c-.8 0-1.34.3-1.64.91v3.9c.31.62.86.94 1.66.94 1.22 0 1.82-1 1.82-2.98Zm4.78 8.06-1.32-.7.31-.57c.4-.71.6-1.42.6-2.13v-1.97h2.15v1.76c-.01.65-.18 1.3-.5 1.96a5.04 5.04 0 0 1-1.24 1.65Zm8.35-5.26c.58-.6.97-1.21 1.17-1.8.2-.6.32-1.45.34-2.55l.07-3.11h7v7.46h1.37v4.9h-2.54V206h-5.63v2.86h-2.6v-4.9h.82Zm3 0h3.05v-5.36h-1.98l-.02 1.14a8.54 8.54 0 0 1-1.05 4.22Zm7.85-2.8c0-.94.18-1.78.54-2.52a4 4 0 0 1 1.57-1.7 4.6 4.6 0 0 1 2.38-.62c1.28 0 2.33.4 3.14 1.18a4.72 4.72 0 0 1 1.36 3.2l.02.65c0 1.46-.41 2.63-1.22 3.52a4.25 4.25 0 0 1-3.28 1.32 4.28 4.28 0 0 1-3.29-1.32 5.06 5.06 0 0 1-1.22-3.59v-.11Zm2.54.2c0 .9.17 1.59.5 2.07.35.47.83.7 1.47.7.61 0 1.1-.23 1.44-.7.34-.47.52-1.23.52-2.26a3.5 3.5 0 0 0-.52-2.06 1.69 1.69 0 0 0-1.46-.73c-.62 0-1.1.24-1.44.73-.34.48-.51 1.23-.51 2.24Zm-214 20.2h-3.94V229h-2.54v-9.51h6.47v2.06Zm9.62 2.78a5.7 5.7 0 0 1-1 3.53 3.2 3.2 0 0 1-2.7 1.32c-.96 0-1.73-.34-2.32-1v4.48h-2.54v-13.17h2.35l.09.93a2.99 2.99 0 0 1 2.4-1.1c1.18 0 2.1.43 2.74 1.3.65.86.98 2.06.98 3.58v.13Zm-2.54-.18c0-.89-.16-1.57-.48-2.05a1.52 1.52 0 0 0-1.36-.72c-.8 0-1.34.3-1.64.91v3.9c.3.62.86.94 1.66.94 1.21 0 1.82-1 1.82-2.98Zm9.63 4.85c-.12-.23-.2-.51-.26-.85a3.07 3.07 0 0 1-2.4 1.03 3.4 3.4 0 0 1-2.31-.81 2.6 2.6 0 0 1-.92-2.04c0-1.01.37-1.78 1.12-2.32a5.55 5.55 0 0 1 3.24-.82h1.17v-.54c0-.44-.11-.8-.34-1.06-.23-.26-.58-.4-1.07-.4-.42 0-.76.1-1 .31-.25.2-.37.49-.37.85H38.5c0-.55.17-1.06.51-1.53.34-.47.82-.84 1.44-1.1a5.2 5.2 0 0 1 2.1-.4c1.17 0 2.1.29 2.78.88.7.59 1.04 1.41 1.04 2.48v4.12c0 .9.13 1.59.38 2.05v.15h-2.57Zm-2.1-1.77c.37 0 .72-.08 1.04-.24.31-.17.55-.4.7-.68v-1.63h-.95c-1.27 0-1.95.44-2.03 1.31v.15c0 .32.1.58.33.79.22.2.52.3.9.3Zm5.86-2.91c0-1.53.31-2.75.93-3.65a2.98 2.98 0 0 1 2.59-1.36c.42 0 .81.09 1.17.26v-4.07h2.54v4.08c.36-.18.76-.27 1.2-.27 1.1 0 1.96.46 2.58 1.36.63.9.94 2.17.94 3.83a5.6 5.6 0 0 1-.94 3.42 3.03 3.03 0 0 1-2.56 1.26c-.45 0-.86-.09-1.22-.25v3.73h-2.54v-3.72c-.36.16-.75.24-1.19.24a3.02 3.02 0 0 1-2.47-1.16 5.26 5.26 0 0 1-1.02-3.15v-.56Zm9.4 0c0-.95-.14-1.68-.42-2.18-.3-.51-.7-.77-1.22-.77-.16 0-.34.02-.53.06v5.65c.16.04.34.06.55.06 1 0 1.54-.76 1.62-2.27v-.56Zm-6.86.18c0 1.75.54 2.63 1.61 2.63.22 0 .4-.02.54-.05v-5.65c-.2-.04-.37-.06-.52-.06-.52 0-.93.25-1.2.75-.29.49-.43 1.28-.43 2.38Zm16.72-5.01h2.54V229h-2.54v-5.87L64 229h-2.55v-9.51H64v5.86l3.18-5.86Zm12.5 9.51h-2.54v-2.99a7.3 7.3 0 0 1-1.33.13c-1.44 0-2.52-.3-3.24-.91-.73-.61-1.1-1.5-1.11-2.67v-3.07H74v3.07c0 .55.14.94.4 1.18.27.24.74.36 1.4.36.43 0 .87-.05 1.34-.15v-4.46h2.54V229Zm6.32.18c-1.39 0-2.53-.43-3.4-1.29-.88-.85-1.32-2-1.32-3.42v-.24c0-.96.19-1.81.56-2.56.37-.76.89-1.34 1.56-1.74a4.4 4.4 0 0 1 2.32-.62c1.3 0 2.33.41 3.07 1.23a4.99 4.99 0 0 1 1.13 3.5v1.03h-6.06c.08.62.33 1.12.74 1.5.41.37.94.56 1.57.56.98 0 1.74-.36 2.3-1.07l1.24 1.4c-.38.54-.9.96-1.54 1.27-.65.3-1.37.45-2.17.45Zm-.29-7.8c-.5 0-.9.16-1.23.5-.3.34-.5.83-.6 1.46h3.54v-.2c-.01-.56-.16-1-.46-1.3-.29-.31-.7-.47-1.25-.47Zm9.61 5.75c.47 0 .85-.13 1.14-.39.3-.26.45-.6.46-1.03h2.38c0 .65-.18 1.24-.52 1.78-.35.53-.83.95-1.43 1.25-.6.29-1.26.44-1.98.44a4.14 4.14 0 0 1-3.22-1.3 5.15 5.15 0 0 1-1.18-3.58v-.17c0-1.46.39-2.63 1.17-3.5a4.08 4.08 0 0 1 3.2-1.32c1.2 0 2.15.34 2.86 1.02a3.57 3.57 0 0 1 1.1 2.7h-2.38c-.01-.49-.16-.89-.46-1.2-.29-.3-.68-.46-1.16-.46-.59 0-1.04.22-1.34.65-.3.43-.45 1.13-.45 2.1v.26c0 .97.15 1.68.45 2.1.3.43.75.65 1.36.65Zm9.16-1.64h-1.02V229h-2.54v-9.51h2.54v3.58h.9l2.08-3.58h3.2l-3.1 4.53 3.4 4.98h-3.39l-2.07-3.5Zm5.51-1.33c0-.95.18-1.79.55-2.53a4 4 0 0 1 1.56-1.7 4.6 4.6 0 0 1 2.38-.62c1.28 0 2.33.4 3.14 1.18a4.72 4.72 0 0 1 1.36 3.2l.02.65c0 1.46-.4 2.63-1.22 3.52a4.25 4.25 0 0 1-3.28 1.32 4.28 4.28 0 0 1-3.29-1.32 5.06 5.06 0 0 1-1.22-3.59v-.11Zm2.54.18c0 .9.17 1.6.51 2.08.34.47.83.7 1.46.7.61 0 1.1-.23 1.44-.7.35-.47.52-1.23.52-2.26a3.5 3.5 0 0 0-.52-2.06 1.69 1.69 0 0 0-1.46-.73c-.62 0-1.1.24-1.44.73-.34.48-.51 1.23-.51 2.24Zm14.51-2.8h-3.94V229h-2.54v-9.51h6.48v2.06Zm.5 2.62c0-.95.17-1.79.54-2.53a4 4 0 0 1 1.56-1.7 4.6 4.6 0 0 1 2.38-.62c1.29 0 2.33.4 3.14 1.18a4.72 4.72 0 0 1 1.36 3.2l.02.65c0 1.46-.4 2.63-1.22 3.52a4.25 4.25 0 0 1-3.28 1.32 4.28 4.28 0 0 1-3.29-1.32 5.06 5.06 0 0 1-1.22-3.59v-.11Zm2.53.18c0 .9.17 1.6.51 2.08.34.47.83.7 1.46.7.62 0 1.1-.23 1.44-.7.35-.47.52-1.23.52-2.26a3.5 3.5 0 0 0-.52-2.06 1.69 1.69 0 0 0-1.46-.73c-.62 0-1.1.24-1.44.73-.34.48-.5 1.23-.5 2.24Zm12.65 2.61c.58-.6.96-1.21 1.17-1.8.2-.6.32-1.45.34-2.55l.07-3.11h7v7.46h1.37v4.9h-2.54V229h-5.63v2.86h-2.6v-4.9h.82Zm3 0h3.05v-5.36h-1.98l-.02 1.14a8.55 8.55 0 0 1-1.05 4.22Zm13.81-7.46h2.54V229h-2.54v-5.87l-3.18 5.87h-2.55v-9.51h2.55v5.86l3.18-5.86Zm9.48 2.8c0-.33-.11-.59-.34-.77a1.38 1.38 0 0 0-.93-.28c-.41 0-.75.09-1.02.26a.82.82 0 0 0-.38.73h-2.54c0-.86.35-1.56 1.07-2.1.71-.54 1.63-.8 2.74-.8 1.23 0 2.19.23 2.88.71.7.48 1.06 1.17 1.06 2.05 0 .42-.13.81-.39 1.17-.25.35-.6.63-1.07.84 1.08.39 1.63 1.12 1.63 2.21 0 .87-.38 1.57-1.13 2.1-.74.5-1.74.77-2.98.77-1.15 0-2.1-.27-2.85-.81a2.55 2.55 0 0 1-1.11-2.18h2.54c0 .32.14.58.43.78.28.2.66.3 1.12.3.45 0 .8-.1 1.06-.32.25-.2.38-.48.38-.82 0-.42-.13-.72-.37-.9-.23-.17-.6-.26-1.08-.26h-1.38v-1.66h1.47c.8-.02 1.19-.36 1.19-1.02Zm9.76 6.71c-.11-.23-.2-.51-.25-.85a3.07 3.07 0 0 1-2.4 1.03 3.4 3.4 0 0 1-2.32-.81 2.6 2.6 0 0 1-.91-2.04c0-1.01.37-1.78 1.11-2.32a5.55 5.55 0 0 1 3.24-.82h1.17v-.54c0-.44-.11-.8-.34-1.06-.22-.26-.58-.4-1.06-.4-.43 0-.77.1-1.01.31-.24.2-.36.49-.36.85h-2.55c0-.55.18-1.06.52-1.53s.82-.84 1.44-1.1a5.2 5.2 0 0 1 2.09-.4c1.17 0 2.1.29 2.78.88.7.59 1.04 1.41 1.04 2.48v4.12c0 .9.13 1.59.38 2.05v.15h-2.57Zm-2.1-1.77c.38 0 .72-.08 1.04-.24.32-.17.55-.4.7-.68v-1.63h-.95c-1.27 0-1.94.44-2.03 1.31v.15c0 .32.1.58.33.79.22.2.53.3.91.3Zm11.97-7.74h2.54V229h-2.54v-5.87l-3.18 5.87h-2.55v-9.51h2.55v5.86l3.18-5.86Zm1.5-3.86c0 .78-.28 1.41-.85 1.9-.55.47-1.29.71-2.2.71a3.3 3.3 0 0 1-2.2-.71 2.37 2.37 0 0 1-.84-1.9h1.8c0 .37.12.66.33.86.22.2.53.3.92.3.38 0 .68-.1.9-.3.21-.2.32-.49.32-.86h1.82ZM201.38 229h-2.55v-3.66h-3.15V229h-2.54v-9.51h2.54v3.81h3.15v-3.81h2.55V229Zm6.35.18c-1.4 0-2.54-.43-3.41-1.29-.88-.85-1.31-2-1.31-3.42v-.24c0-.96.18-1.81.55-2.56.37-.76.89-1.34 1.56-1.74a4.4 4.4 0 0 1 2.32-.62c1.3 0 2.33.41 3.07 1.23a4.99 4.99 0 0 1 1.13 3.5v1.03h-6.06c.08.62.33 1.12.74 1.5.42.37.94.56 1.57.56.98 0 1.75-.36 2.3-1.07l1.25 1.4c-.39.54-.9.96-1.55 1.27-.65.3-1.37.45-2.16.45Zm-.3-7.8c-.5 0-.9.16-1.22.5-.31.34-.52.83-.6 1.46h3.53v-.2c-.01-.56-.16-1-.46-1.3-.29-.31-.7-.47-1.24-.47Zm14.22 2.95a5.7 5.7 0 0 1-1 3.53 3.2 3.2 0 0 1-2.7 1.32c-.95 0-1.73-.34-2.32-1v4.48h-2.54v-13.17h2.35l.09.93a2.99 2.99 0 0 1 2.4-1.1c1.18 0 2.1.43 2.74 1.3.65.86.98 2.06.98 3.58v.13Zm-2.54-.18c0-.89-.16-1.57-.48-2.05a1.52 1.52 0 0 0-1.36-.72c-.8 0-1.34.3-1.64.91v3.9c.3.62.86.94 1.66.94 1.21 0 1.82-1 1.82-2.98Zm9.63 4.85c-.12-.23-.2-.51-.25-.85a3.07 3.07 0 0 1-2.4 1.03 3.4 3.4 0 0 1-2.32-.81 2.6 2.6 0 0 1-.92-2.04c0-1.01.37-1.78 1.12-2.32a5.55 5.55 0 0 1 3.24-.82h1.17v-.54c0-.44-.11-.8-.34-1.06-.23-.26-.58-.4-1.07-.4-.42 0-.76.1-1 .31-.25.2-.37.49-.37.85h-2.54c0-.55.17-1.06.51-1.53.34-.47.82-.84 1.44-1.1a5.2 5.2 0 0 1 2.1-.4c1.17 0 2.1.29 2.78.88.7.59 1.04 1.41 1.04 2.48v4.12c0 .9.13 1.59.38 2.05v.15h-2.57Zm-2.1-1.77c.38 0 .72-.08 1.04-.24.31-.17.55-.4.7-.68v-1.63h-.95c-1.27 0-1.95.44-2.03 1.31v.15c0 .32.1.58.33.79.22.2.52.3.91.3Z" fill="#fff"/><path d="M295.74 59.27c-22.3-6.33-29.35-34.45-12.68-50.56A30.08 30.08 0 0 1 299.55.58l87.67-13c22.64-3.37 38.76 21.42 26.5 40.75a26.74 26.74 0 0 1-11.39 9.97l-36.44 16.78a96.44 96.44 0 0 1-66.7 5.17l-3.45-.98Z" fill="#C673AF"/><path d="M304.53 25.72a4 4 0 0 1 3.66 2.24c.37.7.56 1.48.56 2.36a5 5 0 0 1-.64 2.52c-.42.73-1 1.3-1.74 1.72-.75.41-1.6.62-2.54.62a5.37 5.37 0 0 1-4.36-1.84c-1.03-1.23-1.54-2.97-1.54-5.24 0-1.5.24-2.8.72-3.9a5.91 5.91 0 0 1 2.06-2.58c.9-.6 1.93-.9 3.12-.9a7.66 7.66 0 0 1 4.3 1.36c.22.17.38.35.48.54.1.19.16.42.16.7 0 .41-.12.77-.36 1.06-.23.28-.5.42-.84.42-.19 0-.36-.03-.5-.08l-.6-.3-.44-.22c-.44-.21-.8-.37-1.1-.48-.3-.1-.6-.16-.92-.16-.68 0-1.24.31-1.66.94a5.33 5.33 0 0 0-.74 2.6c.3-.43.71-.76 1.22-1a3.83 3.83 0 0 1 1.7-.38Zm-.92 6.64c.52 0 .93-.17 1.24-.52a2 2 0 0 0 .46-1.38c0-.59-.16-1.05-.46-1.38-.3-.35-.7-.52-1.24-.52-.52 0-.94.17-1.26.52-.3.35-.46.8-.46 1.38a2 2 0 0 0 .48 1.38c.32.35.73.52 1.24.52Zm8.25-1.34c-1.1 0-1.66-.47-1.66-1.4 0-.92.55-1.38 1.66-1.38h3.76c.56 0 .97.12 1.24.36.28.24.42.58.42 1.02 0 .44-.14.79-.42 1.04-.27.24-.68.36-1.24.36h-3.76Zm16.54 1.06c.6 0 1.05.12 1.33.36.27.24.41.6.41 1.08 0 .99-.57 1.48-1.74 1.48h-6.94c-1.15 0-1.73-.5-1.73-1.48 0-.48.13-.84.41-1.08.29-.24.73-.36 1.32-.36h1.63v-7.22l-1.6.94c-.23.13-.47.2-.7.2-.38 0-.7-.16-.97-.48-.26-.33-.4-.7-.4-1.1 0-.55.24-.96.7-1.24l3.2-1.86c.6-.33 1.14-.5 1.67-.5s.95.16 1.27.48c.34.32.5.75.5 1.3v9.48h1.64Zm11.44 0c.58 0 1.02.12 1.3.36.3.23.44.59.44 1.08 0 .5-.15.88-.44 1.12-.28.24-.72.36-1.3.36h-7.3c-.48 0-.86-.14-1.14-.42-.28-.3-.42-.66-.42-1.1 0-.57.22-1.1.68-1.56l4.24-4.42c.88-.92 1.32-1.77 1.32-2.54 0-.45-.14-.8-.4-1.04s-.62-.36-1.1-.36c-.39 0-.75.06-1.08.18-.32.1-.7.27-1.12.48l-.4.2-.32.18c-.15.08-.28.14-.4.18a1.2 1.2 0 0 1-.38.06c-.34 0-.62-.15-.84-.44-.23-.3-.34-.67-.34-1.08 0-.3.04-.53.12-.72.1-.19.26-.36.5-.52a7.8 7.8 0 0 1 4.42-1.36c.98 0 1.85.17 2.6.5a3.76 3.76 0 0 1 2.34 3.48c0 .81-.17 1.56-.5 2.24a9.23 9.23 0 0 1-1.66 2.24l-2.84 2.9h4.02Zm14.7-6.42c0 2.55-.32 4.5-.95 5.88a6.54 6.54 0 0 1-2.74 3.08 2.4 2.4 0 0 1-1.22.38c-.44 0-.8-.14-1.08-.42-.28-.3-.42-.65-.42-1.06 0-.33.1-.65.3-.96.2-.32.5-.6.9-.84 1.1-.75 1.66-2.55 1.66-5.42v-3.7c0-.55.15-.97.44-1.26.3-.3.71-.44 1.26-.44h7.2c.55 0 .97.15 1.26.44.3.3.46.71.46 1.26v10.7c0 .55-.17.99-.5 1.32-.33.33-.77.5-1.32.5s-.99-.16-1.32-.48a1.85 1.85 0 0 1-.48-1.34v-9.52h-3.46v1.88ZM365.8 35c-.55 0-.97-.15-1.26-.44-.3-.3-.44-.71-.44-1.26V22.6c0-.55.15-.97.44-1.26.3-.3.71-.44 1.26-.44h6.92c.57 0 1 .12 1.3.36.3.24.44.59.44 1.04 0 .96-.58 1.44-1.74 1.44h-5.04v2.68h4.64c1.16 0 1.74.47 1.74 1.42 0 .45-.15.8-.44 1.04-.3.24-.73.36-1.3.36h-4.64v2.92h5.04c1.16 0 1.74.48 1.74 1.44 0 .45-.15.8-.44 1.04-.3.24-.73.36-1.3.36h-6.92Zm15.55.1c-.56 0-1.02-.16-1.36-.48-.34-.33-.5-.77-.5-1.32v-9.42h-2.82c-.6 0-1.03-.12-1.32-.36-.28-.25-.42-.63-.42-1.14 0-.5.14-.88.42-1.12.29-.24.73-.36 1.32-.36h9.36c.58 0 1.02.12 1.3.36.29.24.44.61.44 1.12 0 .5-.15.89-.44 1.14-.28.24-.72.36-1.3.36h-2.82v9.42c0 .55-.18.99-.52 1.32-.34.32-.78.48-1.34.48Z" fill="#fff"/></g><defs><radialGradient id="b" cx="0" cy="0" r="1" gradientUnits="userSpaceOnUse" gradientTransform="rotate(-34.7 452.35 -474.84) scale(52.3398 56.3711)"><stop stop-color="#fff" stop-opacity="0"/><stop offset="1" stop-color="#F5BD99"/></radialGradient><clipPath id="a"><rect width="393.33" height="280" rx="16" fill="#fff"/></clipPath></defs></svg>