<svg width="394" height="280" fill="none" xmlns="http://www.w3.org/2000/svg"><g clip-path="url(#a)"><rect width="393.33" height="280" rx="16" fill="#F47E28"/><path d="M295.74 59.27c-22.3-6.33-29.35-34.45-12.68-50.56A30.08 30.08 0 0 1 299.55.58l87.67-13c22.64-3.37 38.76 21.42 26.5 40.75a26.74 26.74 0 0 1-11.39 9.97l-36.44 16.78a96.44 96.44 0 0 1-66.7 5.17l-3.45-.98Z" fill="#56BAEA"/><path d="M307.63 29.82c1.16 0 1.74.46 1.74 1.38 0 .95-.58 1.42-1.74 1.42h-.44v.68c0 .6-.17 1.05-.5 1.36-.34.3-.77.46-1.3.46-.54 0-.97-.15-1.3-.46-.32-.3-.48-.76-.48-1.36v-.68h-4.46a1.5 1.5 0 0 1-1.14-.44c-.28-.3-.42-.66-.42-1.1 0-.47.14-.9.44-1.32l5.72-8.16a2 2 0 0 1 2.9-.34c.36.32.54.77.54 1.34v7.22h.44Zm-6.42 0h2.4v-3.46l-2.4 3.46Zm10.65 1.2c-1.1 0-1.66-.47-1.66-1.4 0-.92.55-1.38 1.66-1.38h3.76c.56 0 .97.12 1.24.36.28.24.42.58.42 1.02 0 .44-.14.79-.42 1.04-.27.24-.68.36-1.24.36h-3.76Zm16.54 1.06c.6 0 1.05.12 1.33.36.27.24.41.6.41 1.08 0 .99-.57 1.48-1.74 1.48h-6.94c-1.15 0-1.73-.5-1.73-1.48 0-.48.13-.84.41-1.08.29-.24.73-.36 1.32-.36h1.63v-7.22l-1.6.94c-.23.13-.47.2-.7.2-.38 0-.7-.16-.97-.48-.26-.33-.4-.7-.4-1.1 0-.55.24-.96.7-1.24l3.2-1.86c.6-.33 1.14-.5 1.67-.5s.95.16 1.27.48c.34.32.5.75.5 1.3v9.48h1.64Zm11.44 0c.58 0 1.02.12 1.3.36.3.23.44.59.44 1.08 0 .5-.15.88-.44 1.12-.28.24-.72.36-1.3.36h-7.3c-.48 0-.86-.14-1.14-.42-.28-.3-.42-.66-.42-1.1 0-.57.22-1.1.68-1.56l4.24-4.42c.88-.92 1.32-1.77 1.32-2.54 0-.45-.14-.8-.4-1.04s-.62-.36-1.1-.36c-.39 0-.75.06-1.08.18-.32.1-.7.27-1.12.48l-.4.2-.32.18c-.15.08-.28.14-.4.18a1.2 1.2 0 0 1-.38.06c-.34 0-.62-.15-.84-.44-.23-.3-.34-.67-.34-1.08 0-.3.04-.53.12-.72.1-.19.26-.36.5-.52a7.8 7.8 0 0 1 4.42-1.36c.98 0 1.85.17 2.6.5a3.76 3.76 0 0 1 2.34 3.48c0 .81-.17 1.56-.5 2.24a9.23 9.23 0 0 1-1.66 2.24l-2.84 2.9h4.02Zm14.7-6.42c0 2.55-.32 4.5-.95 5.88a6.54 6.54 0 0 1-2.74 3.08 2.4 2.4 0 0 1-1.22.38c-.44 0-.8-.14-1.08-.42-.28-.3-.42-.65-.42-1.06 0-.33.1-.65.3-.96.2-.32.5-.6.9-.84 1.1-.75 1.66-2.55 1.66-5.42v-3.7c0-.55.15-.97.44-1.26.3-.3.71-.44 1.26-.44h7.2c.55 0 .97.15 1.26.44.3.3.46.71.46 1.26v10.7c0 .55-.17.99-.5 1.32-.33.33-.77.5-1.32.5s-.99-.16-1.32-.48a1.85 1.85 0 0 1-.48-1.34v-9.52h-3.46v1.88ZM365.8 35c-.55 0-.97-.15-1.26-.44-.3-.3-.44-.71-.44-1.26V22.6c0-.55.15-.97.44-1.26.3-.3.71-.44 1.26-.44h6.92c.57 0 1 .12 1.3.36.3.24.44.59.44 1.04 0 .96-.58 1.44-1.74 1.44h-5.04v2.68h4.64c1.16 0 1.74.47 1.74 1.42 0 .45-.15.8-.44 1.04-.3.24-.73.36-1.3.36h-4.64v2.92h5.04c1.16 0 1.74.48 1.74 1.44 0 .45-.15.8-.44 1.04-.3.24-.73.36-1.3.36h-6.92Zm15.55.1c-.56 0-1.02-.16-1.36-.48-.34-.33-.5-.77-.5-1.32v-9.42h-2.82c-.6 0-1.03-.12-1.32-.36-.28-.25-.42-.63-.42-1.14 0-.5.14-.88.42-1.12.29-.24.73-.36 1.32-.36h9.36c.58 0 1.02.12 1.3.36.29.24.44.61.44 1.12 0 .5-.15.89-.44 1.14-.28.24-.72.36-1.3.36h-2.82v9.42c0 .55-.18.99-.52 1.32-.34.32-.78.48-1.34.48Z" fill="#fff"/><path d="M281.17 237.09c17.43-6.81 29.2-.36 47.9 0 19.77.38 36.2-5.46 50.58 2 14.38 7.45 22.85 6.65 25.29 5.32-10.65-6-4.66-11.98-11.31-17.3-9.05-6.4-21.52-.67-21.3-2 0 0 13.98-9.32 15.3-9.98 0 0-6.65.66-5.32-49.91 1.33-50.57-34.6-61.22-51.24-61.22-16.63 0-55.9 13.3-51.9 53.9 7.32 42.59-7.99 67.88-12.64 50.57-2.66 1.34-5.33 8.66 2 10.65-7.33 4-6 12.64-8 16.64-1 2.02-3.98 0-6.65-1.33-1.33 7.32 4.66 11.97 12.65 10.64 6.39-1.06 8.57-5.61 14.64-7.98Z" fill="#FDB233" stroke="#000" stroke-width="2" stroke-linecap="round" stroke-linejoin="round"/><path d="M269.19 238.42c1.33 18.63 39.9 14.97 60.55 12.64 24.5-2.75 63.89 7.99 62.56-12.64-1.13-17.47-19.3-14.64-35.94-23.3-13.3-6.91-10.87-25.5-7.32-34.6h-36.6c5.77 9.32 13.84 28.22-15.97 34.6-24.84 5.33-28 13.17-27.28 23.3Z" fill="#FF0047" stroke="#000" stroke-width="2" stroke-linecap="round" stroke-linejoin="round"/><path d="M330.4 193.83c-20.75 0-32.15-11.97-35.26-17.96-3.33 1.33-4.66 1.33-6.65-4-.75-2 .66-5.32 2.66-6.65a77.05 77.05 0 0 0 5.99 6.65s-1.57-8.22 0-11.97c3.32-7.99 7.43-9.65 18.63-18.64 6.44-5.17 11.31-5.32 17.3-17.3-.3 3.57.62 11.01.62 11.01s4.04-5.68 2.7-16.33c6.66 2.66 2.67 21.3 2.67 21.3s5.99-5.33 7.99-19.97c2 7.99 3.61 11.04 8.65 14.64 9.31 6.65 12.74 11.87 13.97 21.96.35 2.84 0 7.32 0 7.32s2.3-6.93 2.66-6.83c2.75.8 5.72 2.62 5.32 6.16-.53 4.8-5.54 5.55-7.98 5.33-3.33 9.98-13.3 25.28-39.26 25.28ZM379.74 249.04c6.58-4.38 5.77-12.58 3.6-14.93-7.15-7.72-45.4 9.16-52.03 10.31-8.3 1.44-14.38-2.79-21.71-3.28-8-.53-18.86 4.56-12.22 9.6 6.64 5.04 27.34 6.15 43.43 6.56 30.63.78 30.7-2.77 38.93-8.26Z" fill="#FFE0B5" stroke="#000" stroke-width="2" stroke-linecap="round" stroke-linejoin="round"/><path d="M281.54 245.85c-5.7-5.4-3.72-13.5-1.3-15.53 8-6.66 40.63 13.37 46.84 15.53 7.77 2.7 16.17 1.27 23.3 1.89 7.76.67 11.1 5.26 3.99 9.31-7.13 4.05-21.03 5.01-36.57 2.99-29.58-3.86-29.14-7.43-36.26-14.19Z" fill="#FFE0B5" stroke="#000" stroke-width="2" stroke-linecap="round" stroke-linejoin="round"/><path d="M317.1 165.94c4.1 1.44 25.15 5.18 35.94 0-2.67 5.98-7.33 13.97-19.3 14.63-9.59.54-15.09-9.53-16.64-14.63Z" fill="#fff" stroke="#000" stroke-width="2" stroke-linecap="round" stroke-linejoin="round"/><path d="M319.99 153.96c0 1.86-1.4 3.37-3.1 3.37-1.72 0-3.12-1.51-3.12-3.37 0-1.87 1.4-3.38 3.11-3.38 1.72 0 3.11 1.51 3.11 3.38ZM356.14 153.96c0 1.86-1.39 3.37-3.1 3.37-1.72 0-3.11-1.51-3.11-3.37 0-1.87 1.39-3.38 3.1-3.38 1.72 0 3.11 1.51 3.11 3.38Z" fill="#8BC63E"/><path d="M319.99 153.96c0 1.86-1.4 3.37-3.1 3.37-1.72 0-3.12-1.51-3.12-3.37 0-1.87 1.4-3.38 3.11-3.38 1.72 0 3.11 1.51 3.11 3.38ZM356.14 153.96c0 1.86-1.39 3.37-3.1 3.37-1.72 0-3.11-1.51-3.11-3.37 0-1.87 1.39-3.38 3.1-3.38 1.72 0 3.11 1.51 3.11 3.38Z" stroke="#000" stroke-width="2" stroke-linecap="round" stroke-linejoin="round"/><path d="M313.1 186.51c2 2 3.34 2.67 2 4-.3.31-.78.4-1.33.35 2.89.33 8.92 1.51 9.99 3.64 1.33 2.66 1.33 5.32.66 9.98s-9.31 26.62-17.3 28.62-8.65-.67-9.98-1.34c-1.33-.66-5.33-5.32-4-23.29.43-5.7 1.21-9.78 2.1-12.64 1.34-4.34 2.92-5.86 3.85-5.99-.38-2.3.73-4.36 1.38-5.32 1.33-2 10.64 0 12.64 2Z" fill="#FFE0B5"/><path d="M309.78 189.18c.94.62 2.68 1.56 4 1.68m7.31 8.3c-.33.5-2.28.93-7.32-.26m0-8.04c.55.05 1.02-.04 1.34-.35 1.33-1.33 0-2-2-4s-11.31-3.99-12.65-2c-.64.97-1.75 3.02-1.37 5.33m14.68 1.02c2.89.33 8.92 1.51 9.99 3.64 1.33 2.66 1.33 5.32.66 9.98s-9.31 26.62-17.3 28.62-8.65-.67-9.98-1.34c-1.33-.66-5.33-5.32-4-23.29.43-5.7 1.21-9.78 2.1-12.64 1.34-4.34 2.92-5.86 3.85-5.99m0 0c.4 2.48 2.5 5.26 8.7 7.32 2.36.79 4.34 1.35 5.98 1.74m0 0c-2.66 4.3-9.05 13.57-13.3 16.23" stroke="#000" stroke-width="2" stroke-linecap="round" stroke-linejoin="round"/><path d="M352.37 177.86c-2 2-3.33 4.66-2 6 .31.3.79.4 1.33.35-2.88.32-8.91 3.5-9.98 5.63-1.33 2.66-.33 5.29-.66 9.98-.67 9.32 2 29.95 9.98 31.94 3.32.84 7.09 1.34 9.98-1.33 1.1-1 5.32-7.98 4-25.95-1.07-14.37 0-11.31-2-20.27.37-2.31 2.66-8.34 0-9.67-2.15-1.08-8.65 1.33-10.65 3.32Z" fill="#FFE0B5"/><path d="M356.36 180.53c-.66 2.66-3.34 3.56-4.66 3.68m-5.5 10.29c.33.5 1.86.39 3.5 0m2-10.3c-.54.06-1.01-.03-1.33-.35-1.33-1.33 0-3.99 2-5.99s8.5-4.4 10.64-3.32c2.67 1.33.38 7.36 0 9.67m-11.3 0c-2.89.32-8.92 3.5-9.99 5.63-1.33 2.66-.33 5.29-.66 9.98-.67 9.32 2 29.95 9.98 31.94 3.32.84 7.09 1.34 9.98-1.33 1.1-1 5.32-7.98 4-25.95-1.07-14.37 0-11.31-2-20.27m0 0c-.4 2.47-1.33 4.3-4.89 6.96-2 1.5-6.77 2.94-8.42 3.33m0 0c2.66 4.3 11.75 22.63 10.64 29.28" stroke="#000" stroke-width="2" stroke-linecap="round" stroke-linejoin="round"/><path d="M291.81 207.8c3.73-2.66 13.1-2.43 17.3-1.99.67-.89 2.4-3.46 4-6.65-13.98-2.66-16.64-10.65-11.98-15.3-7.99.66-9.98 18.63-9.32 23.95ZM367 207.14c-3.98-1.33-7.09-1.77-11.3-1.33-.67-.88-3.06-8.12-4.66-11.31 7.98-2.66 9.98-4.66 11.98-9.32 4.65 3.33 4.65 16.64 3.99 21.96Z" fill="#FF0047" stroke="#000" stroke-width="2" stroke-linecap="round" stroke-linejoin="round"/><path d="M354.37 257.71c-10.1 5.39-31.95 1.34-29.28 0 0 0 2.17-9.18.66-11.97 0 0 16.64-1.33 27.28-1.33 10.65 0 11.32 7.98 1.34 13.3Z" fill="#FBD200" stroke="#000" stroke-width="2" stroke-linecap="round" stroke-linejoin="round"/><path d="M325.09 283.67h-63.22v-2h4.66c1.33-1.77 3.86-5.98 3.33-8.65l10.64-13.3s4.23.13 11.98-.67c7.65-.8 10.35-3.33 21.3-3.33 9.31 0 15.96 6 15.96 6 3.11-2.23 7.99-6 16.64-6.67 7.3-.56 10.65 1.34 17.97 3.33 5.85 1.6 11.75 2 13.97 2l11.31 14.64c0 1.77.94 6.12 2 6.66h4.66v2h-63.22l-.66 1.32h-6.66l-.66-1.33Z" fill="#FAF2E8"/><path d="M266.53 281.68h-4.66v2h63.22l.66 1.32h6.66l.66-1.33h63.22v-2h-70.54m-59.22 0c1.33-1.77 3.86-5.98 3.33-8.65m-3.33 8.66h59.22m-55.9-8.66 10.65-13.3s4.23.13 11.98-.67c7.65-.8 10.35-3.33 21.3-3.33 9.31 0 15.96 6 15.96 6m-59.88 11.3c1.77 1.56 12.64 2.55 17.3 2 11.3-1.33 16.6-3.33 25.95-3.33 9.31 0 15.08 4 16.63 6.66m0-16.64v16.64m0-16.64c3.11-2.22 7.99-5.99 16.64-6.65 7.3-.57 10.65 1.33 17.97 3.32 5.85 1.6 11.75 2 13.97 2l11.31 14.64m-59.89 3.33c-.44 1.1-1.86 3.32-3.99 3.32m4-3.32c1.32-2.44 6.92-7.2 18.63-6.66 14.64.67 15.3 3.33 24.62 3.33h16.63m0 0c0 1.77.94 6.12 2 6.66" stroke="#000" stroke-width="2" stroke-linecap="round" stroke-linejoin="round"/><path d="M31.97 47.27c-2.16 0-4.04-.44-5.64-1.32a9.25 9.25 0 0 1-3.66-3.78 12.23 12.23 0 0 1-1.29-5.76c0-2.2.43-4.11 1.29-5.73a9.02 9.02 0 0 1 3.66-3.78c1.6-.88 3.48-1.32 5.64-1.32 2.16 0 4.03.44 5.61 1.32a8.79 8.79 0 0 1 3.66 3.78 12.05 12.05 0 0 1 1.29 5.73c0 2.2-.43 4.12-1.29 5.76a9.2 9.2 0 0 1-3.69 3.78 11.29 11.29 0 0 1-5.58 1.32Zm0-4.23c1.6 0 2.85-.56 3.75-1.68.9-1.14 1.35-2.79 1.35-4.95s-.46-3.8-1.38-4.92a4.51 4.51 0 0 0-3.72-1.68c-1.6 0-2.85.56-3.75 1.68-.9 1.1-1.35 2.74-1.35 4.92 0 2.18.45 3.83 1.35 4.95a4.54 4.54 0 0 0 3.75 1.68ZM48.44 47c-.8 0-1.45-.25-1.95-.75s-.75-1.15-.75-1.95V28.55c0-.8.25-1.45.75-1.95s1.15-.75 1.95-.75h10.68c.82 0 1.48.2 1.98.6.5.38.75.89.75 1.53 0 .66-.25 1.19-.75 1.59-.5.4-1.16.6-1.98.6h-7.98v3.33h4.26c2.34 0 4.15.58 5.43 1.74 1.28 1.16 1.92 2.79 1.92 4.89 0 2.12-.7 3.8-2.07 5.04-1.36 1.22-3.2 1.83-5.52 1.83h-6.72Zm5.97-4.17c1 0 1.78-.23 2.34-.69a2.5 2.5 0 0 0 .84-2.01c0-.88-.24-1.51-.72-1.89-.48-.4-1.24-.6-2.28-.6h-3.45v5.19h3.27Zm24.03-15.66c.26-.5.6-.87 1-1.11.4-.26.82-.39 1.28-.39.68 0 1.28.24 1.8.72.52.46.78 1.04.78 1.74 0 .46-.1.9-.33 1.32l-8.13 16.17a2.9 2.9 0 0 1-.99 1.17c-.4.26-.83.39-1.29.39-.68 0-1.29-.25-1.83-.75a2.4 2.4 0 0 1-.78-1.8c0-.4.1-.8.3-1.2l1.44-2.85-6.6-11.01a2.7 2.7 0 0 1-.45-1.5c0-.68.25-1.25.75-1.71a2.4 2.4 0 0 1 1.71-.72c.42 0 .81.11 1.17.33.38.22.71.56 1 1.02l5 8.46 4.17-8.28Zm7.63 1.23c0-.82.24-1.48.72-1.98.5-.5 1.16-.75 1.98-.75.82 0 1.47.25 1.95.75.5.48.75 1.14.75 1.98v3.78c0 1.2.29 2.09.87 2.67.6.58 1.62.87 3.06.87 1.02 0 1.79-.09 2.3-.27V28.4c0-.82.26-1.48.76-1.98s1.16-.75 1.98-.75c.82 0 1.47.25 1.95.75.5.48.75 1.14.75 1.98v16.05c0 .82-.25 1.48-.75 1.98-.48.5-1.13.75-1.95.75-.82 0-1.48-.24-1.98-.72-.5-.5-.75-1.17-.75-2.01v-4.86a19.05 19.05 0 0 1-3.57.39c-2.5 0-4.47-.54-5.91-1.62-1.44-1.08-2.16-2.79-2.16-5.13V28.4ZM109.46 47c-.82 0-1.45-.22-1.9-.66-.44-.44-.66-1.07-.66-1.89V28.4c0-.82.22-1.45.66-1.89.44-.44 1.08-.66 1.9-.66h10.38c.85 0 1.5.18 1.94.54.44.36.66.88.66 1.56 0 1.44-.86 2.16-2.6 2.16h-7.56v4.02h6.95c1.74 0 2.61.71 2.61 2.13 0 .68-.22 1.2-.66 1.56-.44.36-1.09.54-1.95.54h-6.95v4.38h7.55c1.75 0 2.61.72 2.61 2.16 0 .68-.22 1.2-.66 1.56-.44.36-1.09.54-1.95.54h-10.38Zm32.03-21.3a2.58 2.58 0 0 1 2.7 2.7v16.05c0 .82-.25 1.48-.75 1.98-.48.5-1.13.75-1.95.75-.83 0-1.49-.24-1.99-.72a2.78 2.78 0 0 1-.72-2.01v-6h-8.63v6c0 .82-.25 1.48-.75 1.98-.49.5-1.14.75-1.96.75-.81 0-1.47-.24-1.97-.72a2.78 2.78 0 0 1-.72-2.01V28.4c0-.82.23-1.47.72-1.95.5-.5 1.16-.75 1.97-.75a2.58 2.58 0 0 1 2.7 2.7v5.67h8.65V28.4c0-.82.24-1.47.72-1.95.5-.5 1.16-.75 1.98-.75Zm19.72 1.71c.46-.66.92-1.11 1.38-1.35.48-.26 1.2-.39 2.16-.39.82 0 1.45.22 1.89.66.44.42.66 1.04.66 1.86v16.26c0 .82-.25 1.48-.75 1.98-.48.5-1.13.75-1.95.75-.82 0-1.48-.24-1.98-.72a2.78 2.78 0 0 1-.72-2.01V33.71l-7.35 11.07c-.48.68-.92 1.2-1.32 1.56-.38.34-.78.56-1.2.66-.4.12-.9.18-1.5.18-.82 0-1.45-.21-1.9-.63-.43-.44-.65-1.07-.65-1.89V28.4c0-.82.24-1.48.72-1.98.5-.5 1.16-.75 1.98-.75.82 0 1.47.25 1.95.75.5.48.75 1.14.75 1.98v10.71l7.83-11.7ZM173.64 47c-.82 0-1.45-.22-1.89-.66-.44-.44-.66-1.07-.66-1.89V28.4c0-.82.22-1.45.66-1.89.44-.44 1.07-.66 1.89-.66h10.38c.86 0 1.51.18 1.95.54.44.36.66.88.66 1.56 0 1.44-.87 2.16-2.61 2.16h-7.56v4.02h6.96c1.74 0 2.61.71 2.61 2.13 0 .68-.22 1.2-.66 1.56-.44.36-1.09.54-1.95.54h-6.96v4.38h7.56c1.74 0 2.61.72 2.61 2.16 0 .68-.22 1.2-.66 1.56-.44.36-1.09.54-1.95.54h-10.38ZM21.62 69.4c0-.82.24-1.48.72-1.98.5-.5 1.16-.75 1.98-.75.82 0 1.47.25 1.95.75.5.48.75 1.14.75 1.98v3.78c0 1.2.29 2.09.87 2.67.6.58 1.62.87 3.06.87 1.02 0 1.79-.09 2.31-.27V69.4c0-.82.25-1.48.75-1.98s1.16-.75 1.98-.75c.82 0 1.47.25 1.95.75.5.48.75 1.14.75 1.98v16.05c0 .82-.25 1.48-.75 1.98-.48.5-1.13.75-1.95.75-.82 0-1.48-.24-1.98-.72-.5-.5-.75-1.17-.75-2.01v-4.86a19.05 19.05 0 0 1-3.57.39c-2.5 0-4.47-.54-5.91-1.62-1.44-1.08-2.16-2.79-2.16-5.13V69.4Zm28.4 18.75c-.84 0-1.52-.24-2.04-.72-.5-.5-.75-1.16-.75-1.98V71.32H43c-.88 0-1.54-.18-1.98-.54-.42-.38-.63-.95-.63-1.71s.2-1.32.63-1.68c.44-.36 1.1-.54 1.98-.54h14.04c.88 0 1.53.18 1.95.54.44.36.66.92.66 1.68 0 .76-.22 1.33-.66 1.71-.42.36-1.07.54-1.95.54H52.8v14.13c0 .82-.26 1.48-.78 1.98-.5.48-1.17.72-2.01.72ZM63.9 88c-.82 0-1.45-.22-1.89-.66-.44-.44-.66-1.07-.66-1.89V69.4c0-.82.22-1.45.66-1.89.44-.44 1.07-.66 1.9-.66h10.37c.86 0 1.51.18 1.95.54.44.36.66.88.66 1.56 0 1.44-.87 2.16-2.6 2.16h-7.57v4.02h6.96c1.74 0 2.61.71 2.61 2.13 0 .68-.22 1.2-.66 1.56-.44.36-1.09.54-1.95.54h-6.96v4.38h7.56c1.74 0 2.61.72 2.61 2.16 0 .68-.22 1.2-.66 1.56-.44.36-1.09.54-1.95.54H63.9Zm32.03-21.3a2.58 2.58 0 0 1 2.7 2.7v16.05c0 .82-.25 1.48-.75 1.98-.48.5-1.13.75-1.95.75-.82 0-1.48-.24-1.98-.72a2.78 2.78 0 0 1-.72-2.01v-6H84.6v6c0 .82-.25 1.48-.75 1.98-.48.5-1.13.75-1.95.75-.82 0-1.48-.24-1.98-.72a2.78 2.78 0 0 1-.72-2.01V69.4c0-.82.24-1.47.72-1.95.5-.5 1.16-.75 1.98-.75a2.58 2.58 0 0 1 2.7 2.7v5.67h8.64V69.4c0-.82.24-1.47.72-1.95.5-.5 1.16-.75 1.98-.75Zm19.72 1.71c.46-.66.92-1.11 1.38-1.35.48-.26 1.2-.39 2.16-.39.82 0 1.45.22 1.9.66.43.42.65 1.04.65 1.86v16.26c0 .82-.25 1.48-.75 1.98-.48.5-1.13.75-1.95.75-.82 0-1.48-.24-1.98-.72a2.78 2.78 0 0 1-.72-2.01V74.71L109 85.78c-.48.68-.92 1.2-1.32 1.56-.38.34-.78.56-1.2.66-.4.12-.9.18-1.5.18-.82 0-1.45-.21-1.89-.63-.44-.44-.66-1.07-.66-1.89V69.4c0-.82.24-1.48.72-1.98.5-.5 1.16-.75 1.98-.75.82 0 1.47.25 1.95.75.5.48.75 1.14.75 1.98v10.71l7.83-11.7Zm28.55 19.86c-2.88 0-5.21-.78-7-2.34-1.77-1.58-2.83-3.74-3.17-6.48h-3.1v6c0 .82-.24 1.48-.74 1.98-.48.5-1.13.75-1.95.75-.82 0-1.48-.24-1.98-.72a2.78 2.78 0 0 1-.72-2.01V69.4c0-.82.24-1.48.72-1.98.5-.5 1.16-.75 1.98-.75.82 0 1.47.25 1.95.75.5.48.75 1.14.75 1.98v5.67h3.12a9.9 9.9 0 0 1 3.27-6.24c1.76-1.5 4.05-2.25 6.87-2.25 2.14 0 3.98.44 5.52 1.32a8.7 8.7 0 0 1 3.57 3.78 12.54 12.54 0 0 1 1.23 5.73c0 2.2-.41 4.12-1.23 5.76a8.7 8.7 0 0 1-3.57 3.78 10.95 10.95 0 0 1-5.52 1.32Zm0-4.23c1.58 0 2.78-.56 3.6-1.68.84-1.12 1.26-2.77 1.26-4.95s-.42-3.82-1.26-4.92a4.23 4.23 0 0 0-3.6-1.68 4.3 4.3 0 0 0-3.63 1.65c-.82 1.1-1.23 2.75-1.23 4.95s.4 3.86 1.23 4.98a4.3 4.3 0 0 0 3.63 1.65Zm35.31-15.63c.47-.66.93-1.11 1.39-1.35.47-.26 1.2-.39 2.16-.39.81 0 1.44.22 1.88.66.44.42.66 1.04.66 1.86v16.26c0 .82-.25 1.48-.75 1.98-.47.5-1.13.75-1.94.75-.82 0-1.48-.24-1.98-.72a2.78 2.78 0 0 1-.72-2.01V74.71l-7.36 11.07c-.47.68-.91 1.2-1.31 1.56-.38.34-.78.56-1.2.66-.4.12-.9.18-1.5.18-.83 0-1.46-.21-1.9-.63-.44-.44-.66-1.07-.66-1.89V69.4c0-.82.25-1.48.72-1.98.5-.5 1.16-.75 1.99-.75.81 0 1.47.25 1.94.75.5.48.75 1.14.75 1.98v10.71l7.83-11.7ZM24.65 129.18c-.84 0-1.51-.24-2.01-.72a2.78 2.78 0 0 1-.72-2.01V110.4c0-.82.22-1.45.66-1.89.44-.44 1.07-.66 1.89-.66h7.68c2.34 0 4.16.6 5.46 1.8 1.3 1.18 1.95 2.83 1.95 4.95 0 2.1-.66 3.75-1.98 4.95-1.3 1.2-3.11 1.8-5.43 1.8h-4.71v5.1c0 .84-.25 1.51-.75 2.01-.5.48-1.18.72-2.04.72Zm6.75-11.97c1.02 0 1.77-.21 2.25-.63.5-.42.75-1.07.75-1.95 0-1.74-1-2.61-3-2.61h-3.96v5.19h3.96Zm28.76 8.4c.18.38.27.75.27 1.11 0 .66-.27 1.22-.81 1.68-.52.46-1.12.69-1.8.69a2.31 2.31 0 0 1-2.16-1.44l-1.35-3.03h-9.72l-1.38 3.03a2.36 2.36 0 0 1-2.2 1.44c-.67 0-1.3-.23-1.85-.69a2.13 2.13 0 0 1-.81-1.68c0-.36.09-.73.27-1.11l7.92-16.26c.26-.54.64-.95 1.14-1.23a3.36 3.36 0 0 1 3.39 0c.52.28.9.69 1.17 1.23l7.92 16.26Zm-13.71-5.13h6l-3-6.69-3 6.69Zm23.27 8.79c-2.64 0-4.9-.48-6.75-1.44-.52-.3-.91-.65-1.17-1.05a2.38 2.38 0 0 1-.4-1.26c0-.56.19-1.03.55-1.41.38-.4.86-.6 1.44-.6.42 0 .88.13 1.38.39.84.4 1.58.67 2.22.81.66.12 1.32.18 1.98.18a7.4 7.4 0 0 0 3.12-.54c.78-.38 1.17-.94 1.17-1.68 0-.82-.22-1.41-.66-1.77-.42-.38-1.23-.57-2.43-.57h-1.95a2.7 2.7 0 0 1-1.9-.63 1.97 1.97 0 0 1-.65-1.47c0-.56.22-1.04.66-1.44a2.7 2.7 0 0 1 1.89-.63h1.35c1.22 0 2.07-.16 2.55-.48.48-.34.72-.88.72-1.62 0-.72-.3-1.25-.87-1.59a4.45 4.45 0 0 0-2.31-.51c-.72 0-1.33.06-1.83.18a16.28 16.28 0 0 0-2.43.72c-.42.18-.85.27-1.3.27-.6 0-1.1-.19-1.5-.57-.37-.4-.56-.86-.56-1.38 0-.44.13-.86.39-1.26.28-.4.69-.74 1.23-1.02a16.33 16.33 0 0 1 6.99-1.32c2.44 0 4.35.52 5.73 1.56a5 5 0 0 1 2.1 4.23 4.8 4.8 0 0 1-.9 2.91 4.87 4.87 0 0 1-2.5 1.74c1.27.38 2.2.97 2.83 1.77.64.78.96 1.79.96 3.03 0 1.26-.38 2.38-1.14 3.36a7.65 7.65 0 0 1-3.21 2.28c-1.38.54-2.98.81-4.8.81Zm26.1-11.25a5.34 5.34 0 0 1 2.84 1.92c.66.88 1 1.97 1 3.27 0 1.16-.32 2.18-.94 3.06a5.84 5.84 0 0 1-2.6 2.01 10 10 0 0 1-3.97.72h-7.98c-.82 0-1.45-.22-1.89-.66-.44-.44-.66-1.07-.66-1.89V110.4c0-.82.22-1.45.66-1.89.44-.44 1.07-.66 1.9-.66h7.67c2.22 0 3.98.5 5.28 1.5a4.7 4.7 0 0 1 1.98 3.99c0 1.08-.29 2.04-.87 2.88a4.97 4.97 0 0 1-2.43 1.8Zm-8.83-1.86h3.93a4.2 4.2 0 0 0 2.28-.48c.48-.32.72-.83.72-1.53 0-.74-.24-1.28-.72-1.62-.48-.34-1.24-.51-2.28-.51H87v4.14Zm4.47 8.67c1.1 0 1.88-.17 2.34-.51.48-.36.72-.94.72-1.74s-.24-1.37-.72-1.71c-.46-.36-1.24-.54-2.34-.54H87v4.5h4.47Zm24.2-15.42c.45-.66.91-1.11 1.37-1.35.48-.26 1.2-.39 2.16-.39.82 0 1.45.22 1.9.66.43.42.65 1.04.65 1.86v16.26c0 .82-.25 1.48-.75 1.98-.48.5-1.13.75-1.95.75-.82 0-1.48-.24-1.98-.72a2.78 2.78 0 0 1-.72-2.01v-10.74L109 126.78c-.48.68-.92 1.2-1.32 1.56-.38.34-.78.56-1.2.66-.4.12-.9.18-1.5.18-.82 0-1.45-.21-1.89-.63-.44-.44-.66-1.07-.66-1.89V110.4c0-.82.24-1.48.72-1.98.5-.5 1.16-.75 1.98-.75.82 0 1.47.25 1.95.75.5.48.75 1.14.75 1.98v10.71l7.83-11.7Zm17.44 19.74c-.84 0-1.52-.24-2.04-.72-.5-.5-.75-1.16-.75-1.98v-14.13h-4.23c-.88 0-1.54-.18-1.98-.54-.42-.38-.63-.95-.63-1.71s.2-1.32.63-1.68c.44-.36 1.1-.54 1.98-.54h14.04c.88 0 1.53.18 1.95.54.44.36.66.92.66 1.68 0 .76-.22 1.33-.66 1.71-.42.36-1.07.54-1.95.54h-4.23v14.13c0 .82-.26 1.48-.78 1.98-.5.48-1.17.72-2.01.72Zm24.56-19.74c.46-.66.92-1.11 1.38-1.35.48-.26 1.2-.39 2.16-.39.82 0 1.45.22 1.9.66.43.42.65 1.04.65 1.86v16.26c0 .82-.25 1.48-.75 1.98-.48.5-1.13.75-1.95.75-.82 0-1.48-.24-1.98-.72a2.78 2.78 0 0 1-.72-2.01v-10.74L151 126.78c-.48.68-.92 1.2-1.32 1.56-.38.34-.78.56-1.2.66-.4.12-.9.18-1.5.18-.82 0-1.45-.21-1.89-.63-.44-.44-.66-1.07-.66-1.89V110.4c0-.82.24-1.48.72-1.98.5-.5 1.16-.75 1.98-.75.82 0 1.47.25 1.95.75.5.48.75 1.14.75 1.98v10.71l7.83-11.7ZM170.1 129c-.82 0-1.45-.22-1.9-.66-.44-.44-.66-1.07-.66-1.89V110.4c0-.82.22-1.45.67-1.89.44-.44 1.06-.66 1.88-.66h10.38c.87 0 1.52.18 1.96.54.44.36.66.88.66 1.56 0 1.44-.88 2.16-2.62 2.16h-7.56v4.02h6.97c1.74 0 2.6.71 2.6 2.13 0 .68-.22 1.2-.66 1.56-.44.36-1.08.54-1.94.54h-6.97v4.38h7.56c1.75 0 2.62.72 2.62 2.16 0 .68-.22 1.2-.66 1.56-.44.36-1.1.54-1.96.54H170.1ZM35.15 150.41c.46-.66.92-1.11 1.38-1.35.48-.26 1.2-.39 2.16-.39.82 0 1.45.22 1.89.66.44.42.66 1.04.66 1.86v16.26c0 .82-.25 1.48-.75 1.98-.48.5-1.13.75-1.95.75-.82 0-1.48-.24-1.98-.72a2.78 2.78 0 0 1-.72-2.01v-10.74l-7.35 11.07c-.48.68-.92 1.2-1.32 1.56-.38.34-.78.56-1.2.66-.4.12-.9.18-1.5.18-.82 0-1.45-.21-1.89-.63-.44-.44-.66-1.07-.66-1.89V151.4c0-.82.24-1.48.72-1.98.5-.5 1.16-.75 1.98-.75.82 0 1.47.25 1.95.75.5.48.75 1.14.75 1.98v10.71l7.83-11.7Zm26.62-1.71a2.58 2.58 0 0 1 2.7 2.7v16.05c0 .82-.25 1.48-.75 1.98-.48.5-1.13.75-1.95.75-.82 0-1.48-.24-1.98-.72a2.78 2.78 0 0 1-.72-2.01v-6h-8.64v6c0 .82-.25 1.48-.75 1.98-.48.5-1.13.75-1.95.75-.82 0-1.48-.24-1.98-.72a2.78 2.78 0 0 1-.72-2.01V151.4c0-.82.24-1.47.72-1.95.5-.5 1.16-.75 1.98-.75a2.58 2.58 0 0 1 2.7 2.7v5.67h8.64v-5.67c0-.82.24-1.47.72-1.95.5-.5 1.16-.75 1.98-.75Zm14.05 21.45c-.84 0-1.52-.24-2.04-.72-.5-.5-.75-1.16-.75-1.98v-14.13H68.8c-.88 0-1.54-.18-1.98-.54-.42-.38-.63-.95-.63-1.71s.21-1.32.63-1.68c.44-.36 1.1-.54 1.98-.54h14.04c.88 0 1.53.18 1.95.54.44.36.66.92.66 1.68 0 .76-.22 1.33-.66 1.71-.42.36-1.07.54-1.95.54h-4.23v14.13c0 .82-.26 1.48-.78 1.98-.5.48-1.17.72-2 .72Zm13.89-.15c-.82 0-1.45-.22-1.89-.66-.44-.44-.66-1.07-.66-1.89V151.4c0-.82.22-1.45.66-1.89.44-.44 1.07-.66 1.89-.66h10.38c.86 0 1.51.18 1.95.54.44.36.66.88.66 1.56 0 1.44-.87 2.16-2.61 2.16h-7.56v4.02h6.96c1.74 0 2.61.71 2.61 2.13 0 .68-.22 1.2-.66 1.56-.44.36-1.09.54-1.95.54h-6.96v4.38h7.56c1.74 0 2.61.72 2.61 2.16 0 .68-.22 1.2-.66 1.56-.44.36-1.09.54-1.95.54H89.71Zm23.51-14.01c0 3.82-.47 6.76-1.41 8.82a9.8 9.8 0 0 1-4.11 4.62 3.6 3.6 0 0 1-1.83.57 2.2 2.2 0 0 1-1.62-.63 2.22 2.22 0 0 1-.63-1.59c0-.5.15-.98.45-1.44.3-.48.75-.9 1.35-1.26 1.66-1.12 2.49-3.83 2.49-8.13v-5.55c0-.82.22-1.45.66-1.89.44-.44 1.07-.66 1.89-.66h10.8c.82 0 1.45.22 1.89.66.46.44.69 1.07.69 1.89v16.05c0 .82-.25 1.48-.75 1.98s-1.16.75-1.98.75c-.82 0-1.48-.24-1.98-.72a2.78 2.78 0 0 1-.72-2.01v-14.28h-5.19v2.82Zm22.59 0c0 3.82-.47 6.76-1.41 8.82a9.8 9.8 0 0 1-4.11 4.62 3.6 3.6 0 0 1-1.83.57 2.2 2.2 0 0 1-1.62-.63 2.22 2.22 0 0 1-.63-1.59c0-.5.15-.98.45-1.44.3-.48.75-.9 1.35-1.26 1.66-1.12 2.49-3.83 2.49-8.13v-5.55c0-.82.22-1.45.66-1.89.44-.44 1.07-.66 1.89-.66h10.8c.82 0 1.45.22 1.89.66.46.44.69 1.07.69 1.89v16.05c0 .82-.25 1.48-.75 1.98s-1.16.75-1.98.75c-.82 0-1.48-.24-1.98-.72a2.78 2.78 0 0 1-.72-2.01v-14.28h-5.2v2.82ZM152.72 170c-.82 0-1.45-.22-1.89-.66-.44-.44-.66-1.07-.66-1.89V151.4c0-.82.22-1.45.66-1.89.44-.44 1.07-.66 1.9-.66h10.37c.86 0 1.51.18 1.95.54.44.36.66.88.66 1.56 0 1.44-.87 2.16-2.6 2.16h-7.57v4.02h6.96c1.74 0 2.61.71 2.61 2.13 0 .68-.22 1.2-.66 1.56-.44.36-1.09.54-1.95.54h-6.96v4.38h7.56c1.74 0 2.61.72 2.61 2.16 0 .68-.22 1.2-.66 1.56-.44.36-1.09.54-1.95.54h-10.38Zm18 .18c-.83 0-1.49-.24-1.99-.72a2.78 2.78 0 0 1-.72-2.01V151.4c0-.82.24-1.48.72-1.98.5-.5 1.16-.75 1.98-.75.82 0 1.47.25 1.95.75.5.48.75 1.14.75 1.98v5.67h1.6l6.05-7.35a2.5 2.5 0 0 1 1.98-1.02c.62 0 1.16.23 1.62.69.48.44.72.96.72 1.56 0 .6-.22 1.15-.66 1.65l-4.74 5.58c.74.34 1.31.67 1.71.99.4.32.76.72 1.08 1.2.32.46.8 1.25 1.44 2.37l1.86 3.33c.28.48.42.98.42 1.5 0 .72-.26 1.33-.78 1.83s-1.12.75-1.8.75c-.96 0-1.72-.49-2.28-1.47l-2.76-5.04a4.66 4.66 0 0 0-1.38-1.71 4.06 4.06 0 0 0-2.22-.48h-1.86v6c0 .82-.25 1.48-.75 1.98-.48.5-1.13.75-1.95.75Zm26.88-.03c-.84 0-1.52-.24-2.04-.72-.5-.5-.75-1.16-.75-1.98v-14.13h-4.23c-.88 0-1.54-.18-1.98-.54-.42-.38-.63-.95-.63-1.71s.21-1.32.63-1.68c.44-.36 1.1-.54 1.98-.54h14.04c.88 0 1.53.18 1.95.54.44.36.66.92.66 1.68 0 .76-.22 1.33-.66 1.71-.42.36-1.07.54-1.95.54h-4.23v14.13c0 .82-.26 1.48-.78 1.98-.5.48-1.17.72-2 .72Zm28.84-3.54c.18.38.27.75.27 1.11 0 .66-.28 1.22-.81 1.68-.53.46-1.13.69-1.8.69a2.31 2.31 0 0 1-2.16-1.44l-1.35-3.03h-9.72l-1.38 3.03a2.36 2.36 0 0 1-2.2 1.44c-.67 0-1.3-.23-1.85-.69a2.13 2.13 0 0 1-.81-1.68c0-.36.09-.73.27-1.11l7.91-16.26c.26-.54.65-.95 1.15-1.23a3.36 3.36 0 0 1 3.38 0c.53.28.91.69 1.17 1.23l7.93 16.26Zm-13.72-5.13h6l-3-6.69-3 6.69ZM31.56 213h-2.64v-5.48h-5.14V213h-2.64v-12.8h2.64v5.19h5.14v-5.19h2.64V213Zm7.65 0c-.11-.23-.2-.51-.25-.85a3.07 3.07 0 0 1-2.4 1.03 3.4 3.4 0 0 1-2.32-.81 2.6 2.6 0 0 1-.92-2.04c0-1.01.38-1.78 1.12-2.32a5.55 5.55 0 0 1 3.24-.82h1.17v-.54c0-.44-.11-.8-.34-1.06-.22-.26-.58-.4-1.06-.4-.43 0-.77.1-1.01.31-.24.2-.36.49-.36.85h-2.54c0-.55.17-1.06.5-1.53.34-.47.83-.84 1.45-1.1a5.2 5.2 0 0 1 2.09-.4c1.17 0 2.1.29 2.78.88.7.59 1.04 1.41 1.04 2.48v4.12c0 .9.13 1.59.38 2.05v.15H39.2Zm-2.1-1.77c.38 0 .72-.08 1.04-.24.32-.17.55-.4.7-.68v-1.63h-.95c-1.27 0-1.94.44-2.03 1.31v.15c0 .32.1.58.33.79.22.2.53.3.91.3Zm9.65-1.82 1.76-5.92h2.73l-3.83 10.99-.2.5c-.58 1.24-1.51 1.86-2.82 1.86a4 4 0 0 1-1.13-.17v-1.92h.39c.48 0 .84-.06 1.07-.21.24-.15.43-.4.56-.73l.3-.78-3.33-9.54H45l1.76 5.91Zm13.5 3.59h-2.54v-2.99a7.3 7.3 0 0 1-1.32.13c-1.44 0-2.52-.3-3.25-.91-.72-.61-1.1-1.5-1.1-2.67v-3.07h2.54v3.07c0 .55.14.94.4 1.18s.73.36 1.4.36c.43 0 .87-.05 1.33-.15v-4.46h2.54V213Zm7.68-9.51h2.54V213h-2.54v-5.87L64.76 213h-2.55v-9.51h2.55v5.86l3.18-5.86ZM78.22 210l2.49-6.51h3.18V213h-2.54v-5.84L79.07 213h-1.7l-2.24-5.74V213H72.6v-9.51h3.16l2.47 6.51Zm17.08-5.98c1.22 0 2.2.4 2.92 1.21.73.8 1.1 1.9 1.1 3.3v.12a4.5 4.5 0 0 1-1.22 3.3c-.8.82-1.9 1.24-3.26 1.24a4.23 4.23 0 0 1-3.28-1.34 5.25 5.25 0 0 1-1.21-3.65v-.42c0-2.14.37-3.81 1.08-5.02a4.76 4.76 0 0 1 3.22-2.3 4.49 4.49 0 0 0 1.45-.48.8.8 0 0 0 .32-.67h2.06c0 .92-.25 1.6-.75 2.07-.5.46-1.37.82-2.64 1.07-.75.16-1.34.45-1.77.9a3.5 3.5 0 0 0-.88 1.84 3.98 3.98 0 0 1 2.86-1.17Zm-.48 2.05c-.6 0-1.08.2-1.42.61-.34.4-.51 1.06-.51 1.97 0 .8.16 1.43.5 1.85.33.43.82.64 1.45.64.61 0 1.09-.21 1.42-.63.34-.41.5-1.03.51-1.83v-.22c0-.77-.17-1.37-.52-1.77a1.76 1.76 0 0 0-1.43-.62Zm8.73.2h1.82c.82 0 1.54.14 2.16.42a3.15 3.15 0 0 1 1.92 2.97 3 3 0 0 1-1.11 2.43c-.74.6-1.75.91-3.03.91H101v-9.51h2.55v2.79Zm9.95 6.73h-2.54v-9.51h2.54V213Zm-9.95-4.69v2.66h1.8c.5 0 .9-.12 1.16-.35.27-.24.4-.56.4-.96 0-.41-.13-.73-.39-.97-.26-.25-.65-.38-1.17-.38h-1.8Zm16.14 2.82c.47 0 .85-.13 1.15-.39.29-.26.44-.6.45-1.03h2.39c-.01.65-.19 1.24-.53 1.78a3.5 3.5 0 0 1-1.43 1.25c-.6.29-1.25.44-1.98.44a4.14 4.14 0 0 1-3.22-1.3 5.15 5.15 0 0 1-1.18-3.58v-.17c0-1.46.4-2.63 1.17-3.5a4.08 4.08 0 0 1 3.21-1.32c1.19 0 2.14.34 2.86 1.02a3.57 3.57 0 0 1 1.1 2.7h-2.39c0-.49-.16-.89-.45-1.2-.3-.3-.68-.46-1.16-.46-.6 0-1.04.22-1.35.65-.3.43-.45 1.13-.45 2.1v.26c0 .97.15 1.68.45 2.1.3.43.75.65 1.36.65Zm13.33-5.6h-3.05V213h-2.55v-7.47h-3v-2.04h8.6v2.04Zm9.84 2.8a5.7 5.7 0 0 1-1 3.53 3.19 3.19 0 0 1-2.69 1.32c-.96 0-1.74-.34-2.33-1v4.48h-2.54v-13.17h2.36l.09.93a2.99 2.99 0 0 1 2.4-1.1c1.17 0 2.09.43 2.74 1.3.65.86.97 2.06.97 3.58v.13Zm-2.54-.18c0-.89-.16-1.57-.47-2.05a1.52 1.52 0 0 0-1.36-.72c-.8 0-1.35.3-1.65.91v3.9c.31.62.87.94 1.66.94 1.22 0 1.82-1 1.82-2.98Zm3.73 0c0-.94.18-1.78.54-2.52a4 4 0 0 1 1.57-1.7 4.6 4.6 0 0 1 2.38-.62c1.28 0 2.33.4 3.14 1.18a4.72 4.72 0 0 1 1.36 3.2l.02.65c0 1.46-.41 2.63-1.22 3.52a4.25 4.25 0 0 1-3.28 1.32 4.28 4.28 0 0 1-3.29-1.32 5.06 5.06 0 0 1-1.22-3.59v-.11Zm2.54.2c0 .9.17 1.59.5 2.07.35.47.84.7 1.47.7.61 0 1.1-.23 1.44-.7.34-.47.52-1.23.52-2.26a3.5 3.5 0 0 0-.52-2.06 1.69 1.69 0 0 0-1.46-.73c-.62 0-1.1.24-1.44.73-.34.48-.51 1.23-.51 2.24Zm18.25-4.86h2.53V213h-2.53v-5.87l-3.19 5.87h-2.55v-9.51h2.55v5.86l3.19-5.86ZM29.24 236H26.7v-7.45h-3.18V236h-2.54v-9.51h8.27V236Zm10.5-4.67a5.7 5.7 0 0 1-1 3.53 3.2 3.2 0 0 1-2.68 1.32c-.96 0-1.74-.34-2.33-1v4.48h-2.54v-13.17h2.35l.1.93a2.99 2.99 0 0 1 2.4-1.1c1.17 0 2.08.43 2.73 1.3.65.86.98 2.06.98 3.58v.13Zm-2.53-.18c0-.89-.16-1.57-.48-2.05a1.52 1.52 0 0 0-1.36-.72c-.8 0-1.34.3-1.64.91v3.9c.3.62.86.94 1.66.94 1.21 0 1.82-1 1.82-2.98Zm9.63 4.85c-.12-.23-.2-.51-.25-.85a3.07 3.07 0 0 1-2.4 1.03 3.4 3.4 0 0 1-2.32-.81 2.6 2.6 0 0 1-.92-2.04c0-1.01.38-1.78 1.12-2.32a5.55 5.55 0 0 1 3.24-.82h1.17v-.54c0-.44-.11-.8-.34-1.06-.22-.26-.58-.4-1.06-.4-.43 0-.77.1-1.02.31-.24.2-.36.49-.36.85h-2.54c0-.55.17-1.06.51-1.53.34-.47.82-.84 1.45-1.1a5.2 5.2 0 0 1 2.09-.4c1.17 0 2.1.29 2.78.88.7.59 1.04 1.41 1.04 2.48v4.12c0 .9.13 1.59.38 2.05v.15h-2.57Zm-2.1-1.77c.38 0 .72-.08 1.04-.24.31-.17.55-.4.7-.68v-1.63h-.95c-1.27 0-1.95.44-2.03 1.31v.15c0 .32.1.58.33.79.22.2.52.3.91.3Zm6.4 1.77v-9.51h3.98c1.3 0 2.29.23 2.98.69.7.45 1.04 1.1 1.04 1.97 0 .43-.15.83-.44 1.18-.29.35-.71.61-1.27.8.68.13 1.22.38 1.6.77.4.37.6.83.6 1.38a2.3 2.3 0 0 1-1.01 2.03c-.66.46-1.63.69-2.9.69h-4.57Zm2.55-3.95v1.92h2.05c.9 0 1.34-.31 1.34-.94 0-.64-.43-.97-1.28-.98h-2.11Zm0-1.7h1.57c.9-.01 1.34-.3 1.34-.86 0-.35-.13-.6-.37-.74-.24-.15-.61-.22-1.1-.22h-1.44v1.82Zm13.22-3.86h2.54V236H66.9v-5.87L63.73 236h-2.55v-9.51h2.55v5.86l3.18-5.86Zm12.75 0V236h-2.54v-7.45h-2.24l-.16 2.93c-.1 1.57-.4 2.7-.92 3.42-.52.72-1.29 1.08-2.3 1.1h-.87l-.02-2.06.31-.03c.46-.04.8-.3 1-.81.22-.5.35-1.36.4-2.58l.18-4.03h7.16Zm4.68 2.79h1.82c.82 0 1.54.13 2.16.4a3.15 3.15 0 0 1 1.92 2.98 3 3 0 0 1-1.11 2.43c-.74.6-1.75.91-3.03.91H81.8v-9.51h2.55v2.79Zm0 2.03v2.66h1.8c.5 0 .89-.12 1.16-.35.27-.24.4-.56.4-.96 0-.41-.13-.73-.4-.97-.26-.25-.65-.38-1.16-.38h-1.8ZM99.92 236h-2.55v-3.66h-3.16V236h-2.54v-9.51h2.54v3.81h3.16v-3.81h2.55V236Zm1.57-4.84c0-.95.18-1.79.55-2.53.36-.73.88-1.3 1.56-1.7a4.6 4.6 0 0 1 2.38-.62c1.29 0 2.33.4 3.14 1.18a4.71 4.71 0 0 1 1.36 3.2l.02.65c0 1.46-.4 2.63-1.22 3.52a4.25 4.25 0 0 1-3.28 1.32 4.28 4.28 0 0 1-3.29-1.32 5.06 5.06 0 0 1-1.22-3.59v-.11Zm2.54.18c0 .9.17 1.6.51 2.08.34.47.83.7 1.46.7.62 0 1.1-.23 1.44-.7.35-.47.52-1.23.52-2.26a3.5 3.5 0 0 0-.52-2.06 1.68 1.68 0 0 0-1.46-.73c-.62 0-1.1.24-1.44.73-.34.48-.5 1.23-.5 2.24Zm20.53 4.66h-2.54v-2.99a7.3 7.3 0 0 1-1.32.13c-1.44 0-2.52-.3-3.25-.91-.72-.61-1.1-1.5-1.1-2.67v-3.07h2.54v3.07c0 .55.14.94.4 1.18s.73.36 1.4.36c.43 0 .87-.05 1.33-.15v-4.46h2.54V236Zm7.69-9.51h2.53V236h-2.53v-5.87l-3.19 5.87h-2.55v-9.51h2.55v5.86l3.19-5.86Zm12.37 2.04h-3.05V236h-2.55v-7.47h-3v-2.04h8.6v2.04Zm6.65 7.47c-.11-.23-.2-.51-.25-.85a3.07 3.07 0 0 1-2.4 1.03 3.4 3.4 0 0 1-2.32-.81 2.6 2.6 0 0 1-.92-2.04c0-1.01.38-1.78 1.12-2.32a5.55 5.55 0 0 1 3.24-.82h1.17v-.54c0-.44-.11-.8-.34-1.06-.22-.26-.58-.4-1.06-.4-.43 0-.77.1-1.01.31-.24.2-.36.49-.36.85h-2.54c0-.55.17-1.06.5-1.53.34-.47.83-.84 1.45-1.1a5.2 5.2 0 0 1 2.09-.4c1.17 0 2.1.29 2.79.88.69.59 1.03 1.41 1.03 2.48v4.12c0 .9.13 1.59.38 2.05v.15h-2.57Zm-2.1-1.77c.38 0 .72-.08 1.04-.24.32-.17.55-.4.7-.68v-1.63h-.95c-1.27 0-1.94.44-2.03 1.31v.15c0 .32.1.58.33.79.22.2.53.3.91.3Zm14-5.7h-3.05V236h-2.55v-7.47h-3v-2.04h8.6v2.04Zm4 .75h1.81c.82 0 1.54.13 2.17.4a3.14 3.14 0 0 1 1.92 2.98 3 3 0 0 1-1.12 2.43c-.73.6-1.74.91-3.02.91h-4.31v-9.51h2.54v2.79Zm0 2.03v2.66h1.8c.5 0 .89-.12 1.16-.35.27-.24.4-.56.4-.96 0-.41-.13-.73-.4-.97-.26-.25-.65-.38-1.16-.38h-1.8ZM25.96 252.3c0-.33-.11-.59-.34-.77a1.38 1.38 0 0 0-.93-.28c-.41 0-.75.09-1.02.26a.82.82 0 0 0-.38.73h-2.54c0-.86.35-1.56 1.07-2.1.71-.54 1.63-.8 2.74-.8 1.22 0 2.19.23 2.88.71.7.48 1.06 1.17 1.06 2.05 0 .42-.13.81-.39 1.17-.25.35-.6.63-1.07.84 1.08.39 1.62 1.12 1.62 2.21 0 .87-.37 1.57-1.12 2.1-.74.5-1.74.77-2.98.77-1.15 0-2.1-.27-2.85-.81a2.55 2.55 0 0 1-1.11-2.18h2.54c0 .32.14.58.43.78.28.2.66.3 1.12.3.45 0 .8-.1 1.06-.32.25-.2.37-.48.37-.82 0-.42-.12-.72-.36-.9-.24-.17-.6-.26-1.08-.26h-1.38v-1.66h1.47c.8-.02 1.19-.36 1.19-1.02Zm9.76 6.71c-.11-.23-.2-.51-.25-.85a3.07 3.07 0 0 1-2.4 1.03 3.4 3.4 0 0 1-2.32-.81 2.6 2.6 0 0 1-.92-2.04c0-1.01.38-1.78 1.12-2.32a5.55 5.55 0 0 1 3.24-.82h1.17v-.54c0-.44-.11-.8-.34-1.06-.22-.26-.58-.4-1.06-.4-.43 0-.77.1-1.01.31-.25.2-.37.49-.37.85h-2.54c0-.55.17-1.06.51-1.53.34-.47.82-.84 1.45-1.1a5.2 5.2 0 0 1 2.09-.4c1.17 0 2.1.29 2.78.88.7.59 1.04 1.41 1.04 2.48v4.12c0 .9.13 1.59.38 2.05v.15h-2.57Zm-2.1-1.77c.38 0 .72-.08 1.04-.24.32-.17.55-.4.7-.68v-1.63h-.95c-1.27 0-1.95.44-2.03 1.31v.15c0 .32.1.58.33.79.22.2.53.3.91.3Zm13.2-5.75h1.36c.64 0 1.12-.16 1.43-.49.31-.32.47-.75.47-1.28 0-.52-.16-.92-.47-1.2-.3-.3-.73-.44-1.27-.44-.48 0-.89.14-1.22.4-.33.27-.49.62-.49 1.05H44.1c0-.67.18-1.27.54-1.8.36-.53.86-.95 1.5-1.24.66-.3 1.37-.45 2.15-.45 1.36 0 2.42.32 3.18.97a3.3 3.3 0 0 1 1.16 2.68 2.7 2.7 0 0 1-.54 1.61c-.36.5-.83.87-1.4 1.14.71.25 1.25.64 1.6 1.16.36.51.54 1.12.54 1.82 0 1.14-.42 2.05-1.25 2.74a4.98 4.98 0 0 1-3.29 1.03 4.76 4.76 0 0 1-3.14-1.01 3.3 3.3 0 0 1-1.2-2.68h2.53c0 .48.18.88.54 1.18a2 2 0 0 0 1.33.46 2 2 0 0 0 1.42-.48c.34-.32.52-.74.52-1.27 0-1.28-.7-1.92-2.11-1.92h-1.35v-1.98ZM63.36 259h-8.77v-1.74l4.13-4.41c.57-.62 1-1.16 1.26-1.63.28-.46.41-.9.41-1.32 0-.56-.14-1.01-.43-1.33-.28-.33-.7-.5-1.23-.5-.57 0-1.02.2-1.36.6-.33.4-.5.91-.5 1.56h-2.54c0-.78.18-1.5.55-2.14.38-.64.9-1.15 1.59-1.5a4.77 4.77 0 0 1 2.3-.56c1.33 0 2.35.31 3.07.95.74.63 1.1 1.52 1.1 2.68a4.3 4.3 0 0 1-.49 1.93c-.33.66-.89 1.42-1.69 2.3l-2.9 3.06h5.5V259Zm9.7-3.6 1.76-5.91h2.72l-3.82 10.99-.21.5c-.57 1.24-1.5 1.86-2.81 1.86a4 4 0 0 1-1.13-.17v-1.92h.39c.48 0 .83-.06 1.07-.21.24-.15.43-.4.56-.73l.3-.78-3.33-9.54h2.73l1.77 5.91Zm14.04-1.07a5.7 5.7 0 0 1-1 3.53 3.2 3.2 0 0 1-2.69 1.32c-.96 0-1.73-.34-2.33-1v4.48h-2.54v-13.17h2.36l.09.93a2.99 2.99 0 0 1 2.4-1.1c1.18 0 2.09.43 2.74 1.3.65.86.97 2.06.97 3.58v.13Zm-2.54-.18c0-.89-.15-1.57-.47-2.05a1.52 1.52 0 0 0-1.36-.72c-.8 0-1.35.3-1.65.91v3.9c.31.62.87.94 1.67.94 1.2 0 1.81-1 1.81-2.98Zm3.73 0c0-.94.18-1.78.55-2.52a4 4 0 0 1 1.56-1.7 4.6 4.6 0 0 1 2.38-.62c1.29 0 2.33.4 3.14 1.18a4.72 4.72 0 0 1 1.36 3.2l.02.65c0 1.46-.4 2.63-1.22 3.52a4.25 4.25 0 0 1-3.28 1.32 4.28 4.28 0 0 1-3.29-1.32 5.07 5.07 0 0 1-1.22-3.59v-.11Zm2.54.2c0 .9.17 1.59.51 2.07.34.47.83.7 1.46.7.62 0 1.1-.23 1.44-.7.35-.47.52-1.23.52-2.26a3.5 3.5 0 0 0-.52-2.06 1.69 1.69 0 0 0-1.46-.73c-.62 0-1.1.24-1.44.73-.34.48-.5 1.23-.5 2.24Zm11.76 1.14h-1.02V259h-2.54v-9.51h2.54v3.58h.9l2.08-3.58h3.2l-3.1 4.53 3.4 4.98h-3.38l-2.08-3.5Zm11.93 3.51c-.12-.23-.2-.51-.26-.85a3.07 3.07 0 0 1-2.4 1.03 3.4 3.4 0 0 1-2.32-.81 2.6 2.6 0 0 1-.91-2.04c0-1.01.37-1.78 1.12-2.32a5.55 5.55 0 0 1 3.24-.82h1.17v-.54c0-.44-.12-.8-.35-1.06-.22-.26-.57-.4-1.06-.4-.43 0-.76.1-1.01.31-.24.2-.36.49-.36.85h-2.54c0-.55.17-1.06.51-1.53.34-.47.82-.84 1.44-1.1a5.2 5.2 0 0 1 2.1-.4c1.17 0 2.1.29 2.78.88.69.59 1.04 1.41 1.04 2.48v4.12c0 .9.13 1.59.37 2.05v.15h-2.56Zm-2.1-1.77c.37 0 .72-.08 1.03-.24.32-.17.55-.4.7-.68v-1.63h-.94c-1.27 0-1.95.44-2.03 1.31l-.01.15c0 .32.11.58.33.79.23.2.53.3.92.3Z" fill="#fff"/></g><defs><clipPath id="a"><rect width="393.33" height="280" rx="16" fill="#fff"/></clipPath></defs></svg>